<?xml version="1.0" encoding="UTF-8"?>
<svg version="1.1" viewBox="0 0 100 100" xmlns="http://www.w3.org/2000/svg">
<title>volkswagen-auto-vector-logo</title>
<desc>Created with Sketch.</desc>
<g fill="none" fill-rule="evenodd">
<path d="m99.526 50.073c0 27.22-22.083 49.302-49.346 49.302-27.263 0-49.346-22.082-49.346-49.302 0-27.263 22.083-49.346 49.346-49.346 27.263 0 49.346 22.083 49.346 49.346zm-49.346 49.83c27.527 0 49.829-22.302 49.829-49.83 0-27.571-22.302-49.873-49.829-49.873-27.527 0-49.873 22.302-49.873 49.873 0 27.527 22.346 49.83 49.873 49.83z" fill="#223D7D"/>
<path d="m98.121 50.073c0 26.473-21.468 47.898-47.941 47.898-26.473 0-47.941-21.425-47.941-47.898 0-26.473 21.468-47.941 47.941-47.941 26.473 0 47.941 21.468 47.941 47.941zm-47.941 49.83c27.527 0 49.829-22.302 49.829-49.83 0-27.571-22.302-49.873-49.829-49.873-27.527 0-49.873 22.302-49.873 49.873 0 27.527 22.346 49.83 49.873 49.83z" fill="#213E7E"/>
<path d="m96.716 50.073c0 25.682-20.853 46.493-46.537 46.493-25.683 0-46.537-20.81-46.537-46.493 0-25.727 20.854-46.537 46.537-46.537 25.684 0 46.537 20.81 46.537 46.537zm2.8098 0c0-27.263-22.083-49.346-49.346-49.346-27.263 0-49.346 22.083-49.346 49.346 0 27.22 22.083 49.302 49.346 49.302 27.263 0 49.346-22.082 49.346-49.302z" fill="#203F80"/>
<path d="m95.312 50.073c0 24.893-20.195 45.087-45.132 45.087-24.937 0-45.132-20.195-45.132-45.087 0-24.937 20.195-45.132 45.132-45.132 24.937 0 45.132 20.195 45.132 45.132zm2.8098 0c0-26.473-21.468-47.941-47.941-47.941-26.473 0-47.941 21.468-47.941 47.941 0 26.473 21.468 47.898 47.941 47.898 26.473 0 47.941-21.425 47.941-47.898z" fill="#1F4081"/>
<path d="m93.907 50.073c0 24.102-19.58 43.684-43.727 43.684-24.146 0-43.727-19.582-43.727-43.684 0-24.146 19.58-43.727 43.727-43.727 24.146 0 43.727 19.58 43.727 43.727zm2.8098 0c0-25.727-20.853-46.537-46.537-46.537-25.683 0-46.537 20.81-46.537 46.537 0 25.682 20.854 46.493 46.537 46.493 25.684 0 46.537-20.81 46.537-46.493z" fill="#1E4183"/>
<path d="m92.502 50.073c0 23.357-18.966 42.278-42.323 42.278-23.356 0-42.322-18.921-42.322-42.278 0-23.356 18.966-42.322 42.322-42.322 23.356 0 42.323 18.966 42.323 42.322zm2.8091 0c0-24.937-20.195-45.132-45.132-45.132-24.937 0-45.132 20.195-45.132 45.132 0 24.893 20.195 45.087 45.132 45.087 24.937 0 45.132-20.195 45.132-45.087z" fill="#1C4383"/>
<path d="m91.054 50.073c0 22.566-18.308 40.873-40.874 40.873-22.566 0-40.873-18.307-40.873-40.873 0-22.61 18.307-40.917 40.873-40.917 22.566 0 40.874 18.307 40.874 40.917zm2.853 0c0-24.146-19.58-43.727-43.727-43.727-24.146 0-43.727 19.58-43.727 43.727 0 24.102 19.58 43.684 43.727 43.684 24.146 0 43.727-19.582 43.727-43.684z" fill="#1B4484"/>
<path d="m89.648 50.073c0 21.776-17.648 39.469-39.468 39.469-21.82 0-39.468-17.693-39.468-39.469 0-21.82 17.649-39.512 39.468-39.512 21.82 0 39.468 17.693 39.468 39.512zm2.8543 0c0-23.356-18.966-42.322-42.323-42.322-23.356 0-42.322 18.966-42.322 42.322 0 23.357 18.966 42.278 42.322 42.278 23.356 0 42.323-18.921 42.323-42.278z" fill="#1A4584"/>
<path d="m88.243 50.073c0 20.985-17.034 38.063-38.063 38.063-21.029 0-38.063-17.078-38.063-38.063 0-21.029 17.034-38.063 38.063-38.063 21.03 0 38.063 17.034 38.063 38.063zm2.8104 0c0-22.61-18.308-40.917-40.874-40.917-22.566 0-40.873 18.307-40.873 40.917 0 22.566 18.307 40.873 40.873 40.873 22.566 0 40.874-18.307 40.874-40.873z" fill="#194685"/>
<path d="m86.839 50.073c0 20.238-16.42 36.615-36.659 36.615-20.239 0-36.659-16.377-36.659-36.615 0-20.283 16.42-36.659 36.659-36.659 20.239 0 36.659 16.376 36.659 36.659zm2.8091 0c0-21.82-17.648-39.512-39.468-39.512-21.82 0-39.468 17.693-39.468 39.512 0 21.776 17.649 39.469 39.468 39.469 21.82 0 39.468-17.693 39.468-39.469z" fill="#164786"/>
<path d="m85.434 50.073c0 19.449-15.805 35.21-35.254 35.21-19.449 0-35.254-15.761-35.254-35.21 0-19.493 15.805-35.254 35.254-35.254 19.449 0 35.254 15.761 35.254 35.254zm2.8098 0c0-21.029-17.034-38.063-38.063-38.063-21.029 0-38.063 17.034-38.063 38.063 0 20.985 17.034 38.063 38.063 38.063 21.03 0 38.063-17.078 38.063-38.063z" fill="#144887"/>
<path d="m84.029 50.073c0 18.659-15.146 33.804-33.849 33.804-18.702 0-33.849-15.146-33.849-33.804 0-18.702 15.146-33.849 33.849-33.849 18.702 0 33.849 15.146 33.849 33.849zm2.8104 0c0-20.283-16.42-36.659-36.659-36.659-20.239 0-36.659 16.376-36.659 36.659 0 20.238 16.42 36.615 36.659 36.615 20.239 0 36.659-16.377 36.659-36.615z" fill="#114A89"/>
<path d="m82.624 50.073c0 17.912-14.532 32.401-32.444 32.401-17.912 0-32.444-14.489-32.444-32.401 0-17.912 14.532-32.444 32.444-32.444 17.912 0 32.444 14.532 32.444 32.444zm2.8098 0c0-19.493-15.805-35.254-35.254-35.254-19.449 0-35.254 15.761-35.254 35.254 0 19.449 15.805 35.21 35.254 35.21 19.449 0 35.254-15.761 35.254-35.21z" fill="#0E4B8A"/>
<path d="m81.22 50.073c0 17.122-13.918 30.995-31.04 30.995-17.122 0-31.039-13.873-31.039-30.995 0-17.166 13.917-31.039 31.039-31.039 17.122 0 31.04 13.873 31.04 31.039zm2.8091 0c0-18.702-15.146-33.849-33.849-33.849-18.702 0-33.849 15.146-33.849 33.849 0 18.659 15.146 33.804 33.849 33.804 18.702 0 33.849-15.146 33.849-33.804z" fill="#0E4C8C"/>
<path d="m79.771 50.073c0 16.331-13.259 29.59-29.591 29.59-16.332 0-29.59-13.259-29.59-29.59 0-16.376 13.259-29.634 29.59-29.634 16.332 0 29.591 13.259 29.591 29.634zm2.853 0c0-17.912-14.532-32.444-32.444-32.444-17.912 0-32.444 14.532-32.444 32.444 0 17.912 14.532 32.401 32.444 32.401 17.912 0 32.444-14.489 32.444-32.401z" fill="#0E4D8D"/>
<path d="m78.365 50.073c0 15.541-12.6 28.186-28.185 28.186-15.585 0-28.185-12.645-28.185-28.186 0-15.585 12.6-28.229 28.185-28.229 15.585 0 28.185 12.644 28.185 28.229zm2.8543 0c0-17.166-13.918-31.039-31.04-31.039-17.122 0-31.039 13.873-31.039 31.039 0 17.122 13.917 30.995 31.039 30.995 17.122 0 31.04-13.873 31.04-30.995z" fill="#104E8D"/>
<path d="m76.96 50.073c0 14.795-11.985 26.78-26.78 26.78-14.795 0-26.78-11.985-26.78-26.78 0-14.795 11.985-26.824 26.78-26.824 14.795 0 26.78 12.029 26.78 26.824zm2.8104 0c0-16.376-13.259-29.634-29.591-29.634-16.332 0-29.59 13.259-29.59 29.634 0 16.331 13.259 29.59 29.59 29.59 16.332 0 29.591-13.259 29.591-29.59z" fill="#104F8F"/>
<path d="m75.556 50.073c0 14.005-11.371 25.375-25.376 25.375-14.005 0-25.376-11.37-25.376-25.375 0-14.049 11.371-25.376 25.376-25.376 14.005 0 25.376 11.327 25.376 25.376zm2.8091 0c0-15.585-12.6-28.229-28.185-28.229-15.585 0-28.185 12.644-28.185 28.229 0 15.541 12.6 28.186 28.185 28.186 15.585 0 28.185-12.645 28.185-28.186z" fill="#115090"/>
<path d="m74.151 50.073c0 13.215-10.756 23.927-23.971 23.927-13.215 0-23.971-10.712-23.971-23.927 0-13.259 10.756-23.971 23.971-23.971 13.215 0 23.971 10.712 23.971 23.971zm2.8098 0c0-14.795-11.985-26.824-26.78-26.824-14.795 0-26.78 12.029-26.78 26.824 0 14.795 11.985 26.78 26.78 26.78 14.795 0 26.78-11.985 26.78-26.78z" fill="#115191"/>
<path d="m72.746 50.073c0 12.424-10.097 22.522-22.566 22.522-12.468 0-22.566-10.098-22.566-22.522 0-12.468 10.098-22.566 22.566-22.566 12.469 0 22.566 10.098 22.566 22.566zm2.8104 0c0-14.049-11.371-25.376-25.376-25.376-14.005 0-25.376 11.327-25.376 25.376 0 14.005 11.371 25.375 25.376 25.375 14.005 0 25.376-11.37 25.376-25.375z" fill="#125393"/>
<path d="m71.341 50.073c0 11.678-9.4835 21.118-21.162 21.118-11.678 0-21.161-9.4396-21.161-21.118 0-11.678 9.4829-21.161 21.161-21.161 11.678 0 21.162 9.4829 21.162 21.161zm2.8091 0c0-13.259-10.756-23.971-23.971-23.971-13.215 0-23.971 10.712-23.971 23.971 0 13.215 10.756 23.927 23.971 23.927 13.215 0 23.971-10.712 23.971-23.927z" fill="#135494"/>
<path d="m69.893 50.073c0 10.887-8.825 19.712-19.713 19.712-10.888 0-19.712-8.825-19.712-19.712 0-10.932 8.8244-19.756 19.712-19.756 10.888 0 19.713 8.8244 19.713 19.756zm2.853 0c0-12.468-10.097-22.566-22.566-22.566-12.468 0-22.566 10.098-22.566 22.566 0 12.424 10.098 22.522 22.566 22.522 12.469 0 22.566-10.098 22.566-22.522z" fill="#145594"/>
<path d="m68.487 50.073c0 10.098-8.1659 18.307-18.307 18.307-10.141 0-18.307-8.2091-18.307-18.307 0-10.141 8.1659-18.351 18.307-18.351 10.141 0 18.307 8.2098 18.307 18.351zm2.8543 0c0-11.678-9.4835-21.161-21.162-21.161-11.678 0-21.161 9.4829-21.161 21.161 0 11.678 9.4829 21.118 21.161 21.118 11.678 0 21.162-9.4396 21.162-21.118z" fill="#155695"/>
<path d="m67.082 50.073c0 9.3073-7.5512 16.903-16.902 16.903-9.3512 0-16.902-7.5957-16.902-16.903 0-9.3512 7.5512-16.946 16.902-16.946 9.3512 0 16.902 7.5951 16.902 16.946zm2.8104 0c0-10.932-8.825-19.756-19.713-19.756-10.888 0-19.712 8.8244-19.712 19.756 0 10.887 8.8244 19.712 19.712 19.712 10.888 0 19.713-8.825 19.713-19.712z" fill="#165796"/>
<path d="m65.677 50.073c0 8.5604-6.9366 15.498-15.498 15.498-8.561 0-15.498-6.9372-15.498-15.498 0-8.6049 6.9366-15.541 15.498-15.541 8.561 0 15.498 6.9805 15.498 15.541zm2.8098 0c0-10.141-8.1659-18.351-18.307-18.351-10.141 0-18.307 8.2098-18.307 18.351 0 10.098 8.1659 18.307 18.307 18.307 10.141 0 18.307-8.2091 18.307-18.307z" fill="#165897"/>
<path d="m64.273 50.073c0 7.7707-6.322 14.092-14.093 14.092-7.7707 0-14.093-6.3213-14.093-14.092 0-7.8146 6.322-14.137 14.093-14.137 7.7713 0 14.093 6.322 14.093 14.137zm2.8091 0c0-9.3512-7.5512-16.946-16.902-16.946-9.3512 0-16.902 7.5951-16.902 16.946 0 9.3073 7.5512 16.903 16.902 16.903 9.3512 0 16.902-7.5957 16.902-16.903z" fill="#185998"/>
<path d="m62.868 50.073c0 6.9799-5.6634 12.688-12.688 12.688-7.0244 0-12.688-5.7085-12.688-12.688 0-7.0244 5.6634-12.688 12.688-12.688 7.0244 0 12.688 5.6634 12.688 12.688zm2.8098 0c0-8.6049-6.9366-15.541-15.498-15.541-8.561 0-15.498 6.9805-15.498 15.541 0 8.5604 6.9366 15.498 15.498 15.498 8.561 0 15.498-6.9372 15.498-15.498z" fill="#195A99"/>
<path d="m61.463 50.073c0 6.1902-5.0488 11.239-11.283 11.239-6.2341 0-11.282-5.0488-11.282-11.239 0-6.2341 5.0482-11.283 11.282-11.283 6.2341 0 11.283 5.0488 11.283 11.283zm2.8104 0c0-7.8146-6.322-14.137-14.093-14.137-7.7707 0-14.093 6.322-14.093 14.137 0 7.7707 6.322 14.092 14.093 14.092 7.7713 0 14.093-6.3213 14.093-14.092z" fill="#195B99"/>
<path d="m60.059 50.073c0 5.4439-4.4348 9.8348-9.8787 9.8348-5.4439 0-9.878-4.3909-9.878-9.8348 0-5.4878 4.4341-9.878 9.878-9.878 5.4439 0 9.8787 4.3902 9.8787 9.878zm2.8091 0c0-7.0244-5.6634-12.688-12.688-12.688-7.0244 0-12.688 5.6634-12.688 12.688 0 6.9799 5.6634 12.688 12.688 12.688 7.0244 0 12.688-5.7085 12.688-12.688z" fill="#195C9A"/>
<path d="m58.61 50.073c0 4.6543-3.7762 8.4293-8.4299 8.4293-4.6537 0-8.4293-3.775-8.4293-8.4293 0-4.6976 3.7756-8.4732 8.4293-8.4732 4.6537 0 8.4299 3.7756 8.4299 8.4732zm2.853 0c0-6.2341-5.0488-11.283-11.283-11.283-6.2341 0-11.282 5.0488-11.282 11.283 0 6.1902 5.0482 11.239 11.282 11.239 6.2341 0 11.283-5.0488 11.283-11.239z" fill="#1A5D9B"/>
<path d="m57.204 50.073c0 3.8634-3.1165 7.0238-7.0244 7.0238-3.9073 0-7.0244-3.1604-7.0244-7.0238 0-3.9073 3.1171-7.0683 7.0244-7.0683 3.9079 0 7.0244 3.161 7.0244 7.0683zm2.8543 0c0-5.4878-4.4348-9.878-9.8787-9.878-5.4439 0-9.878 4.3902-9.878 9.878 0 5.4439 4.4341 9.8348 9.878 9.8348 5.4439 0 9.8787-4.3909 9.8787-9.8348z" fill="#1A5E9C"/>
<path d="m55.799 50.073c0 3.0726-2.5018 5.6201-5.6195 5.6201-3.1171 0-5.6195-2.5476-5.6195-5.6201 0-3.1171 2.5024-5.6634 5.6195-5.6634 3.1177 0 5.6195 2.5463 5.6195 5.6634zm2.8104 0c0-4.6976-3.7762-8.4732-8.4299-8.4732-4.6537 0-8.4293 3.7756-8.4293 8.4732 0 4.6543 3.7756 8.4293 8.4293 8.4293 4.6537 0 8.4299-3.775 8.4299-8.4293z" fill="#1A5F9C"/>
<path d="m54.395 50.073c0 2.3268-1.8884 4.2146-4.2152 4.2146-2.3268 0-4.2146-1.8878-4.2146-4.2146 0-2.3707 1.8878-4.2585 4.2146-4.2585 2.3268 0 4.2152 1.8878 4.2152 4.2585zm2.8091 0c0-3.9073-3.1165-7.0683-7.0244-7.0683-3.9073 0-7.0244 3.161-7.0244 7.0683 0 3.8634 3.1171 7.0238 7.0244 7.0238 3.9079 0 7.0244-3.1604 7.0244-7.0238z" fill="#1B609E"/>
<path d="m52.99 50.073c0 1.536-1.2732 2.8091-2.8098 2.8091-1.5366 0-2.8098-1.2732-2.8098-2.8091 0-1.5805 1.2732-2.8537 2.8098-2.8537 1.5366 0 2.8098 1.2732 2.8098 2.8537zm2.8098 0c0-3.1171-2.5018-5.6634-5.6195-5.6634-3.1171 0-5.6195 2.5463-5.6195 5.6634 0 3.0726 2.5024 5.6201 5.6195 5.6201 3.1177 0 5.6195-2.5476 5.6195-5.6201z" fill="#1B619F"/>
<path d="m54.395 50.073c0-2.3707-1.8884-4.2585-4.2152-4.2585-2.3268 0-4.2146 1.8878-4.2146 4.2585 0 2.3268 1.8878 4.2146 4.2146 4.2146 2.3268 0 4.2152-1.8878 4.2152-4.2146" fill="#1B629F"/>
<path d="m52.99 50.073c0-1.5805-1.2732-2.8537-2.8098-2.8537-1.5366 0-2.8098 1.2732-2.8098 2.8537 0 1.536 1.2732 2.8091 2.8098 2.8091 1.5366 0 2.8098-1.2732 2.8098-2.8091" fill="#1C62A0"/>
<path d="m51.585 50.073c0-0.79024-0.61463-1.4488-1.4049-1.4488-0.79024 0-1.4049 0.65854-1.4049 1.4488 0 0.74695 0.61463 1.4055 1.4049 1.4055 0.79024 0 1.4049-0.65854 1.4049-1.4055" fill="#1B65A2"/>
<path d="m51.146 40.063 10.8-24.541c-3.4244-1.0098-7.0244-1.5805-10.8-1.5805-3.7317 0-7.3317 0.57073-10.756 1.5805l10.756 24.541zm0 23.399 10.493 23.84c-3.3366 1.0098-6.8488 1.4921-10.493 1.4921-3.6 0-7.1122-0.48232-10.449-1.4921l10.449-23.84zm26.649-2.8976 9.0445-20.634c1.1415 3.6 1.8 7.4634 1.8 11.459 0 10.229-4.1274 19.536-10.845 26.297-3.0732 3.1177-6.7604 5.7524-10.799 7.6396l10.799-24.762zm0-35.473c1.3177 1.3171 2.5909 2.7659 3.6878 4.3024l-3.6878 8.4293-13.697 31.566-7.1567-16.201h-11.546l-7.1122 16.201-13.741-31.566-3.6878-8.4293c1.1415-1.5366 2.3707-2.9854 3.6878-4.3024 2.2829-2.3268 4.8293-4.3463 7.639-5.9707l13.039 30.249h11.898l13.039-30.249c2.8104 1.6244 5.3561 3.6439 7.639 5.9707zm0 62.166c10.976-8.122 18.088-21.162 18.088-35.868 0-14.707-7.1128-27.746-18.088-35.912-7.4189-5.5317-16.639-8.7805-26.649-8.7805-9.9659 0-19.141 3.2488-26.605 8.7805-10.976 8.1659-18.088 21.205-18.088 35.912 0 14.707 7.1122 27.746 18.088 35.868 7.4634 5.5323 16.639 8.8238 26.605 8.8238 10.01 0 19.23-3.2915 26.649-8.8238zm-53.254-9.5713c3.1171 3.1177 6.761 5.7524 10.8 7.6396l-10.8-24.762-9.0439-20.634c-1.1415 3.6-1.7561 7.4634-1.7561 11.459 0 10.229 4.1268 19.536 10.8 26.297z" fill="#2B2F70"/>
<path d="m50.18 38.702 10.756-24.498c-3.3805-1.0537-7.0238-1.5805-10.756-1.5805-3.7317 0-7.3317 0.52683-10.756 1.5805l10.756 24.498zm0 23.445 10.449 23.838c-3.2927 0.96585-6.8049 1.4927-10.449 1.4927-3.6439 0-7.1561-0.52683-10.449-1.4927l10.449-23.838zm26.649-2.8976 8.9994-20.635c1.186 3.6 1.8 7.4634 1.8 11.459 0 10.229-4.1268 19.536-10.799 26.297-3.1177 3.1177-6.761 5.7079-10.8 7.6396l10.8-24.76zm0-35.474c1.3171 1.3171 2.5457 2.7659 3.6433 4.3024l-3.6433 8.4293-13.742 31.566-7.1122-16.201h-11.59l-7.1128 16.201-13.741-31.566-3.6439-8.4293c1.0976-1.5366 2.3268-2.9854 3.6439-4.3024 2.2829-2.3268 4.8732-4.3463 7.6829-5.9707l12.995 30.249h11.941l12.995-30.249c2.8098 1.6244 5.4 3.6439 7.6835 5.9707zm0 62.166c10.931-8.122 18.043-21.162 18.043-35.868 0-14.707-7.1122-27.746-18.043-35.912-7.464-5.5317-16.684-8.8244-26.649-8.8244-9.9659 0-19.185 3.2927-26.649 8.8244-10.932 8.1659-18.044 21.205-18.044 35.912 0 14.707 7.1122 27.746 18.044 35.868 7.4634 5.5317 16.683 8.825 26.649 8.825 9.9659 0 19.185-3.2933 26.649-8.825zm-53.298-9.5713c3.1171 3.1177 6.761 5.7079 10.8 7.6396l-19.8-45.395c-1.1854 3.6-1.8 7.4634-1.8 11.459 0 10.229 4.1268 19.536 10.8 26.297z" fill="#FFFFFE"/>
</g>
</svg>
