<?xml version="1.0" encoding="UTF-8"?>
<svg version="1.1" viewBox="0 0 120 18" xmlns="http://www.w3.org/2000/svg">
<title>mclaren-logo</title>
<desc>Created with Sketch.</desc>
<g fill="none" fill-rule="evenodd">
<g fill="#161616" fill-rule="nonzero">
<path id="Path" d="m95.074 7.5531 0.3507-0.13598c5.2724-1.973 20.259-4.1893 12.907 5.7042-0.13121 0.17654-0.2672 0.35547-0.41272 0.53916 25.98-16.91 3.705-16.547-12.835-6.1074"/>
<path id="a" d="m67.143 14.333v-1.93c0-2.0875-1.3575-3.2875-4.3324-3.2875h-9.1801v2.505h7.3956c0.73002 0 0.99006 0.20994 0.99006 0.7825v0.10497h-5.8831c-2.5026 0-3.2875 1.0449-3.2875 2.4v0.31252c-0.028242 0.53727 0.15894 1.0636 0.52008 1.4624 0.73241 0.67992 2.0875 0.88748 3.965 0.88748h5.1125c3.34 0 4.695-0.7825 4.695-3.235m-5.8926 0.77058h-2.7746c-0.47714 0-0.7825-0.15507-0.7825-0.52247s0.20755-0.62505 0.7825-0.62505h3.5475v0.36501c0 0.47714-0.20994 0.7825-0.7825 0.7825"/>
<path d="m77.105 12.72v1.4624c0 2.1471 1.3551 3.34 4.33 3.34h9.3901v-2.4596h-7.565c-0.78012 0-1.0425-0.26004-1.0425-0.83499v-0.052485h5.895c2.0851 0 3.34-0.73002 3.34-2.2974v-0.31252c0-1.4076-0.7825-2.4525-4.3825-2.4525h-5.2676c-3.2875 0-4.695 1.1475-4.695 3.6m5.895-1.1475h2.8175c0.47714 0 0.7825 0.15746 0.7825 0.52247 0 0.36501-0.15507 0.57256-0.7825 0.57256h-3.6024v-0.31252c0-0.47714 0.20994-0.7825 0.7825-0.7825"/>
<path id="Path" d="m76.585 9.2183h-6.625c-1.0449 0-1.7225 0.57495-1.7225 1.5125v6.7324h5.1125v-5.697h3.235v-2.5479"/>
<polygon id="Path" points="48.15 7.7058 42.985 7.7058 42.985 17.413 52.065 17.413 52.065 14.908 48.15 14.908"/>
<path id="Path" d="m41.788 11.766h-6.73c-0.73002 0-1.3026 0.4175-1.3026 1.5149 0 1.2525 0.67753 1.6175 1.3551 1.6175h6.73v2.505h-8.2425c-3.495 0-5.0099-1.0449-5.0099-3.7575v-0.62744c0-2.295 1.4076-3.8171 4.8525-3.8171h8.3499v2.5646"/>
<path id="b" d="m17.008 17.413 5.425-4.905v4.905h5.1149v-9.7026h-2.975c-1.2525 0-2.1471 0.52247-2.975 1.2525-0.93757 0.83499-4.33 3.7575-4.33 3.7575v-5.0099h-3.025c-1.7201 0-2.5551 0.62505-3.5475 1.3575-0.62505 0.52247-10.695 8.3499-10.695 8.3499h6.1026l6-4.9575v4.9575h4.905"/>
<path d="m92.443 17.466v-8.2473h8.1376c4.1225 0 5.53 0.83499 5.53 3.7575v4.4899h-5.1125v-3.6549c0-0.99245-0.52008-1.8799-2.035-1.8799h-1.4076v5.5324h-5.1125"/>
</g>
</g>
</svg>
