<?xml version="1.0" encoding="UTF-8"?>
<svg version="1.1" viewBox="0 0 120 15" xmlns="http://www.w3.org/2000/svg">
<title>Alpine</title>
<desc>Created with Sketch.</desc>
<g fill="none" fill-rule="evenodd">
<g fill="#060907">
<polyline points="38.411 1.9352 40.001 0.34476 35.99 0.34476 22.02 14.315 26.031 14.315 38.411 1.9352"/>
<polyline points="60.091 0.34476 56.323 0.34476 56.323 14.35 67.872 14.418 67.872 11.133 60.091 11.099 60.091 0.34476"/>
<polyline points="47.298 0.34476 43.286 0.34476 29.316 14.315 33.327 14.315 47.298 0.34476"/>
<polyline points="16.418 2.0392 18.113 0.34476 14.101 0.34476 12.787 1.6933 0.16573 14.315 4.1773 14.315 12.787 5.6701 16.418 2.0392"/>
<polyline points="31.011 2.0392 32.705 0.34476 28.694 0.34476 16.418 12.62 14.758 14.315 18.735 14.315 31.011 2.0392"/>
<polyline points="23.715 2.0392 25.409 0.34476 21.398 0.34476 16.418 5.3242 12.787 8.9898 7.4619 14.315 11.439 14.315 23.715 2.0392"/>
<polyline points="38.411 12.724 36.82 14.315 41.903 14.315 51.965 4.1484 51.965 14.35 55.666 14.35 55.7 0.34476 50.756 0.34476 38.411 12.724"/>
<path d="m78.971 5.6013c0 0.86384-0.75987 0.86384-0.75987 0.86384h-6.0516v-3.1118s1.7636 0 3.3881 0.034397h2.5591c0.86423 0 0.86423 0.79544 0.86423 0.79544v1.4181zm-0.13681-5.1874h-6.7435v-0.069186h-3.7356v14.005l3.7356 0.035179v-4.635h6.7435c2.7659 0 3.6637-1.8664 3.6637-4.6327s-0.89785-4.7031-3.6637-4.7031z"/>
<path d="m118.43 13.001h-0.27713v-0.34554h0.20678c0.10476 0 0.27713 0.033616 0.27713 0.17199 0 0.13876-0.10358 0.17355-0.20678 0.17355zm0.51831-0.13876c0-0.34554-0.20756-0.44873-0.58866-0.44873h-0.51752v1.4173h0.31075v-0.58788h0.13837l0.068404 0.13837 0.24234 0.44951h0.3815l-0.3815-0.62267c0.20834 0 0.34632-0.10397 0.34632-0.34593z"/>
<path d="m118.36 14.142v-0.034007c-0.51752 0.034007-0.93264-0.38072-0.93264-0.96821 0-0.62267 0.41511-1.003 0.93264-1.003 0.51948 0 0.93459 0.38033 0.93459 1.003 0 0.58749-0.41512 1.0022-0.93459 1.0022zm0-2.3171c-0.69068 0-1.3137 0.48391-1.3137 1.3149 0 0.79466 0.62306 1.279 1.3137 1.279 0.69264 0 1.3157-0.4843 1.3157-1.279 0-0.83101-0.62306-1.3149-1.3157-1.3149z"/>
<path d="m102.97 3.3534v11.065h13.313v-3.1466h-9.6829v-2.5939h8.5063v-3.0766h-8.5063v-2.2479h9.6829v-3.147h-10.34s-2.973 0.65707-2.973 3.147"/>
<path d="m98.647 8.9199c-1.0386-1.279-4.9458-5.9812-6.1892-7.5373 0 0-0.76143-1.0722-2.2136-1.0722h-2.7659v14.039l3.5273 0.035179v-8.9218l7.399 8.8866 3.7356 0.035179v-14.04h-3.4933v8.5751"/>
<polyline points="83.053 14.35 86.822 14.385 86.822 0.34476 83.053 0.34476 83.053 14.35"/>
</g>
</g>
</svg>
