<?xml version="1.0" encoding="UTF-8"?>
<svg version="1.1" viewBox="0 0 100 100" xmlns="http://www.w3.org/2000/svg">
<title>alfa-romeo--eps--vector-logo</title>
<desc>Created with Sketch.</desc>
<g fill="none" fill-rule="evenodd">
<polyline points="99.898 50.047 99.699 45.731 99.139 41.414 98.182 37.173 96.888 33.031 95.221 29.038 93.231 25.194 90.88 21.537 88.255 18.091 85.306 14.882 82.097 11.934 78.652 9.309 75.02 6.958 71.151 4.9676 67.158 3.3011 63.015 2.0069 58.774 1.0495 54.457 0.48989 50.141 0.29043 45.812 0.48989 41.484 1.0495 37.254 2.0069 33.112 3.3011 29.106 4.9676 25.263 6.958 21.605 9.309 18.16 11.934 14.963 14.882 12.014 18.091 9.3899 21.537 7.0388 25.169 5.0489 29.038 3.3691 33.031 2.0755 37.173 1.1303 41.414 0.57074 45.731 0.38404 50.047 0.57074 54.376 1.1303 58.705 2.0755 62.922 3.3691 67.077 5.0489 71.082 7.0388 74.926 9.3899 78.584 12.014 82.029 14.963 85.226 18.147 88.174 21.605 90.799 25.25 93.15 29.106 95.14 33.112 96.819 37.254 98.113 41.484 99.058 45.812 99.618 50.129 99.804 54.457 99.618 58.774 99.058 62.99 98.113 67.133 96.819 71.151 95.14 74.995 93.15 78.652 90.799 82.097 88.174 85.306 85.226 88.255 82.041 90.88 78.584 93.231 74.938 95.221 71.082 96.888 67.077 98.182 62.935 99.139 58.705 99.699 54.376 99.898 50.047" fill="#F9E439"/>
<polyline points="83.391 50.756 83.254 47.746 82.831 44.761 82.16 41.838 81.227 38.964 80.008 36.203 78.552 33.553 76.885 31.04 74.97 28.714 72.868 26.55 70.579 24.597 68.103 22.868 65.504 21.35 62.754 20.081 59.93 19.086 57.007 18.328 54.022 17.855 51.012 17.656 49.507 17.668 49.507 83.832 51.012 83.882 54.022 83.659 57.007 83.186 59.93 82.439 62.754 81.431 65.504 80.176 68.103 78.658 70.579 76.916 72.868 74.963 74.97 72.811 76.885 70.46 78.552 67.973 80.008 65.323 81.227 62.561 82.16 59.701 82.831 56.752 83.254 53.767 83.391 50.756" fill="#50617C"/>
<polyline points="54.532 47.087 53.96 47.945 53.437 49.052 53.127 50.247 53.027 51.478 53.127 52.71 53.437 53.904 53.96 55.023 54.656 56.056 55.515 56.927 56.522 57.648 57.617 58.207 58.476 58.444 58.114 58.519 57.219 58.979 56.423 59.601 55.763 60.347 55.266 61.23 54.967 62.189 54.868 63.196 54.967 64.191 55.266 65.149 55.763 66.02 56.423 66.803 57.219 67.413 58.114 67.861 59.097 68.11 60.043 68.159 60.664 68.159 60.54 68.209 59.968 68.731 59.532 69.391 59.271 70.124 59.172 70.883 59.271 71.655 59.532 72.388 59.968 73.048 60.54 73.57 61.237 73.931 61.996 74.13 62.693 74.142 65.516 74.142 65.516 74.168 64.21 76.891 66.611 75.076 66.897 74.902 67.506 74.441 68.129 73.881 68.489 73.247 68.651 72.836 68.701 72.413 68.688 71.99 68.551 71.617 68.352 71.257 69.061 71.057 69.721 70.759 70.293 70.299 70.79 69.764 71.151 69.129 71.449 68.309 71.549 67.463 71.449 66.604 71.151 65.771 70.691 65.049 70.081 64.428 69.447 63.991 70.417 63.979 71.437 63.793 72.407 63.432 73.303 62.935 74.099 62.288 74.796 61.529 75.355 60.671 75.754 59.713 76.015 58.718 76.089 57.71 76.015 56.665 75.754 55.67 75.355 54.724 74.796 53.866 74.099 53.107 73.303 52.448 72.407 51.951 71.574 51.652 72.134 51.553 73.241 51.217 74.298 50.682 75.057 50.047 75.99 49.202 76.749 48.182 77.358 47.087 77.781 45.918 78.042 44.724 78.204 43.641 78.241 42.547 78.154 41.452 77.98 40.345 77.706 39.251 77.308 38.168 76.823 37.161 76.263 36.178 75.629 35.22 74.932 34.324 74.161 33.516 72.88 32.235 71.139 34.212 63.886 34.212 63.526 34.747 63.19 35.307 63.09 35.618 59.147 35.618 59.172 35.27 58.052 34.747 57.518 34.424 57.02 34.076 56.659 33.814 56.286 33.553 55.913 33.379 55.465 33.192 54.855 33.155 54.258 33.255 53.723 33.491 53.226 33.877 52.878 34.387 52.704 34.984 52.741 35.618 52.977 36.203 53.375 36.676 53.96 37.036 54.495 37.272 54.134 37.198 53.425 37.21 52.741 37.397 52.106 37.733 51.584 38.205 51.186 38.803 50.937 39.462 50.85 40.183 50.949 40.88 51.186 41.552 51.584 42.136 52.131 42.609 52.766 42.945 53.437 43.131 54.159 43.144 54.37 43.081 53.761 43.529 53.263 44.201 53.027 44.736 52.94 45.371 53.102 45.992 53.462 46.515 53.96 46.888 54.532 47.087" fill="#1A1919"/>
<polyline points="60.403 40.096 59.731 39.561 59.197 38.927 58.774 38.193 58.5 37.372 58.401 36.539 58.451 35.705 57.741 35.369 57.144 35.021 56.61 34.648 56.261 34.374 55.95 34.175 55.627 34.013 55.316 33.889 54.868 33.852 54.457 33.926 54.072 34.088 53.736 34.349 53.524 34.685 53.4 35.071 53.425 35.469 53.574 35.817 53.86 36.14 54.271 36.414 55.365 36.874 56.012 37.098 56.124 37.571 56.211 38.056 56.261 38.554 56.286 39.027 55.826 39.027 55.515 38.591 55.092 38.255 54.594 38.006 54.072 37.895 53.524 37.907 53.002 38.056 52.529 38.305 52.106 38.665 51.808 39.126 51.634 39.648 51.547 40.183 51.634 40.718 51.833 41.24 52.131 41.676 52.529 42.037 53.002 42.286 53.537 42.435 54.072 42.447 54.619 42.335 55.117 42.074 55.527 41.738 55.851 41.29 56.286 41.315 56.261 41.949 56.186 42.572 56.062 42.97 55.726 43.144 54.955 43.542 54.258 44.027 53.86 44.562 53.699 44.923 53.661 45.321 53.761 45.694 53.972 46.03 54.271 46.266 54.656 46.39 55.054 46.365 55.428 46.229 55.913 45.855 56.485 45.395 57.119 44.997 57.803 44.674 58.513 44.462 58.451 43.542 58.55 42.734 58.811 41.949 59.234 41.24 59.744 40.619 60.403 40.096" fill="#F9E439"/>
<polyline points="72.93 33.255 71.437 34.909 64.247 34.909 64.111 35.121 63.824 35.581 63.612 36.315 59.147 36.315 59.135 37.173 59.371 37.969 59.844 38.69 60.49 39.226 61.262 39.561 62.095 39.661 64.185 39.661 64.185 40.345 62.095 40.345 61.262 40.519 60.528 40.942 59.894 41.514 59.446 42.248 59.234 43.069 59.209 43.928 65.304 43.928 65.479 44.002 65.615 44.102 65.665 44.326 65.615 44.562 65.466 44.773 65.243 44.923 65.006 44.96 64.608 44.972 60.068 44.972 58.948 45.122 57.878 45.42 56.884 45.918 55.962 46.565 55.191 47.361 54.557 48.281 54.097 49.302 53.823 50.359 53.723 51.478 53.823 52.585 54.097 53.668 54.557 54.676 55.191 55.596 55.962 56.391 56.884 57.051 57.878 57.548 58.948 57.859 60.068 57.984 68.726 57.984 68.924 58.009 69.098 58.109 69.223 58.257 69.26 58.456 69.223 58.643 69.098 58.818 68.924 58.916 60.068 58.916 59.197 58.979 58.351 59.203 57.58 59.576 56.908 60.098 56.348 60.745 55.925 61.504 55.664 62.337 55.564 63.196 55.664 64.054 55.925 64.875 56.348 65.621 56.908 66.281 57.58 66.815 58.351 67.201 59.197 67.413 60.068 67.463 66.996 67.463 67.171 67.475 67.332 67.575 67.431 67.711 67.469 67.898 67.431 68.072 67.332 68.209 67.171 68.309 66.996 68.333 62.693 68.333 62.095 68.358 61.498 68.495 60.963 68.794 60.503 69.204 60.168 69.702 59.943 70.286 59.868 70.883 59.943 71.493 60.168 72.077 60.503 72.575 60.963 72.986 61.498 73.284 62.095 73.434 62.693 73.446 65.678 73.446 65.939 73.57 66.138 73.782 66.213 74.068 66.213 74.341 66.076 74.603 66.213 74.503 66.511 74.329 67.071 73.906 67.569 73.446 67.855 72.948 67.966 72.65 68.004 72.339 67.954 72.015 67.829 71.717 67.606 71.456 67.357 71.281 67.034 71.182 66.711 71.157 63.327 71.157 63.252 71.12 63.178 71.082 63.115 70.983 63.09 70.883 63.115 70.796 63.178 70.697 63.252 70.659 63.327 70.622 67.668 70.622 68.39 70.547 69.049 70.299 69.646 69.926 70.156 69.428 70.541 68.831 70.753 68.159 70.84 67.463 70.753 66.741 70.541 66.082 70.156 65.485 69.646 64.974 69.049 64.589 68.39 64.378 67.668 64.291 60.988 64.291 60.802 64.278 60.664 64.216 60.528 64.091 60.44 63.955 60.428 63.793 60.44 63.631 60.528 63.482 60.664 63.382 60.802 63.295 69.447 63.295 70.355 63.283 71.251 63.121 72.109 62.798 72.905 62.363 73.626 61.79 74.236 61.106 74.721 60.335 75.094 59.501 75.318 58.606 75.393 57.71 75.318 56.79 75.094 55.894 74.721 55.061 74.236 54.277 73.626 53.605 72.905 53.045 72.109 52.585 71.251 52.274 70.355 52.112 69.447 52.087 60.689 52.087 60.528 52.013 60.391 51.888 60.304 51.739 60.266 51.578 60.304 51.391 60.391 51.242 60.528 51.118 60.689 51.043 70.939 51.043 71.972 50.881 72.967 50.557 73.9 50.085 74.597 49.537 75.467 48.716 76.164 47.809 76.724 46.788 77.122 45.719 77.358 44.599 77.507 43.579 77.545 42.547 77.458 41.539 77.308 40.482 77.022 39.449 76.662 38.454 76.189 37.471 75.666 36.539 75.057 35.643 74.398 34.785 73.664 33.988 72.93 33.255" fill="#F9E439"/>
<polygon points="58.139 33.18 69.994 33.18 69.994 31.998 58.139 31.998" fill="#F9E439"/>
<polygon points="58.139 31.799 69.994 31.799 69.994 30.643 58.139 30.643" fill="#F9E439"/>
<polygon points="58.077 30.394 69.957 30.394 69.957 29.237 58.077 29.237" fill="#F9E439"/>
<polyline points="70.019 27.483 69.981 27.246 69.895 27.01 69.757 26.811 69.584 26.624 69.36 26.512 69.123 26.451 68.887 26.426 68.651 26.463 68.402 26.562 68.203 26.711 68.054 26.911 67.954 27.122 67.892 27.359 67.892 27.619 67.954 27.856 68.054 28.08 68.203 28.254 68.402 28.415 68.651 28.515 68.887 28.553 69.123 28.54 69.36 28.478 69.584 28.341 69.757 28.179 69.895 27.955 69.981 27.744 70.019 27.483" fill="#F9E439"/>
<polyline points="67.556 27.483 67.531 27.246 67.456 27.01 67.307 26.811 67.133 26.624 66.909 26.512 66.673 26.451 66.437 26.426 66.176 26.463 65.964 26.562 65.765 26.711 65.603 26.911 65.479 27.122 65.441 27.359 65.441 27.619 65.479 27.856 65.603 28.08 65.765 28.254 65.964 28.415 66.176 28.515 66.437 28.553 66.673 28.54 66.909 28.478 67.133 28.341 67.307 28.179 67.456 27.955 67.531 27.744 67.556 27.483" fill="#F9E439"/>
<polyline points="65.105 27.483 65.08 27.246 64.981 27.01 64.869 26.811 64.682 26.624 64.471 26.512 64.222 26.451 63.973 26.426 63.725 26.463 63.513 26.562 63.314 26.711 63.153 26.911 63.028 27.122 62.978 27.359 62.978 27.619 63.028 27.856 63.153 28.08 63.314 28.254 63.513 28.415 63.725 28.515 63.973 28.553 64.222 28.54 64.471 28.478 64.682 28.341 64.869 28.179 64.981 27.955 65.08 27.744 65.105 27.483" fill="#F9E439"/>
<polyline points="62.655 27.483 62.618 27.246 62.53 27.01 62.394 26.811 62.219 26.624 62.02 26.512 61.784 26.451 61.523 26.426 61.287 26.463 61.062 26.562 60.863 26.711 60.702 26.911 60.59 27.122 60.528 27.359 60.528 27.619 60.59 27.856 60.702 28.08 60.863 28.254 61.062 28.415 61.287 28.515 61.523 28.553 61.784 28.54 62.02 28.478 62.219 28.341 62.394 28.179 62.53 27.955 62.618 27.744 62.655 27.483" fill="#F9E439"/>
<polyline points="60.204 27.483 60.168 27.246 60.092 27.01 59.943 26.811 59.769 26.624 59.545 26.512 59.309 26.451 59.072 26.426 58.836 26.463 58.599 26.562 58.401 26.711 58.239 26.911 58.139 27.122 58.077 27.359 58.077 27.619 58.139 27.856 58.239 28.08 58.401 28.254 58.599 28.415 58.836 28.515 59.072 28.553 59.309 28.54 59.545 28.478 59.769 28.341 59.943 28.179 60.092 27.955 60.168 27.744 60.204 27.483" fill="#F9E439"/>
<polyline points="60.988 12.22 61.162 12.593 61.423 12.929 61.722 13.215 62.057 13.451 62.456 13.613 62.854 13.725 63.277 13.75 63.688 13.712 64.086 13.613 64.471 13.427 64.806 13.178 65.105 12.879 65.341 12.531 65.516 12.157 65.64 11.76 65.703 11.337 65.703 10.939 65.615 10.528 65.504 10.13 65.28 9.7441 65.019 9.4335 64.707 9.1473 64.322 8.9356 63.924 8.7989 63.488 8.7117 63.078 8.7117 62.655 8.7989 62.282 8.9484 61.921 9.1723 61.597 9.4457 61.324 9.7941 61.088 10.192 60.926 10.603 60.838 11.001 60.802 11.423 60.863 11.834 60.988 12.22" fill="#1A1919"/>
<polyline points="50.315 8.6495 50.539 8.6372 50.751 8.5505 50.949 8.4133 51.111 8.2144 51.236 7.9782 51.31 7.6793 51.31 7.4431 51.236 7.1819 51.074 6.9207 50.887 6.759 50.676 6.6468 50.415 6.5846 50.253 6.5846 49.469 6.5601 49.445 8.6372 50.253 8.6495 50.315 8.6495" fill="#1A1919"/>
<path d="m95.569 45.495-0.099468 0.59734-0.14894 0.53457-0.22447 0.52287-0.2734 0.49734-0.36064 0.46011-0.4234 0.41064-0.47234 0.36064-0.49787 0.27394-0.55957 0.2484-0.55957 0.14947-0.57234 0.087234-0.46011 0.012234h-0.074468l-0.54787-0.012234-0.53457-0.1-0.50957-0.18617-0.54787-0.24894-0.49734-0.2984-0.43564-0.38564-0.39787-0.43511-0.33617-0.49787-0.2734-0.52234-0.24894-0.53511-0.14894-0.55957-0.1-0.57234-0.05-0.62181 0.025532-0.60957 0.074468-0.62181 0.16223-0.53511 0.1984-0.52234 0.26117-0.47287 0.3234-0.47287 0.3734-0.42287 0.43564-0.37287 0.48511-0.2984 0.47287-0.24894 0.52181-0.17394 0.51011-0.125 0.56011-0.049468h0.57181l0.58511 0.049468 0.53457 0.14947 0.49787 0.17394 0.47287 0.2367 0.44734 0.2984 0.41064 0.36064 0.38564 0.43564 0.31117 0.48511 0.28617 0.51011 0.21117 0.58457 0.1617 0.59734 0.099468 0.60957 0.025 0.63404-0.05 0.62181zm-9.6027-10.225-1.8793 0.93298-2.4622-4.9011 8.1229-4.0803 2.4378 4.8761-1.7293 0.88351-1.3309-2.6745-1.3181 0.68404 1.1191 2.2266-1.7665 0.89574-1.1447-2.2266-1.4053 0.70904 1.3564 2.6745zm-0.66011 18.411-0.39787 3.0101-0.63404 2.9601-0.74628 2.4133-0.15 0.47287-1.1564 2.8112-1.3809 2.6872-1.6048 2.5622-1.816 2.4378-2.0271 2.2394-2.2144 2.0771-2.3888 1.866-2.525 1.6793-2.6622 1.4309-2.3261 1.0074-0.44734 0.18617-2.8612 0.97074-2.9479 0.69681-2.9984 0.46011-3.0351 0.1984-0.73351-0.012234-2.2766-0.049468-3.0101-0.33617-2.9606-0.57181-2.9106-0.84628-2.8362-1.0697-2.7122-1.3314-2.6122-1.5543-2.4378-1.7665-1.1941-1.0202-1.1197-0.95745-2.1144-2.1644-1.9282-2.3266-1.7043-2.4878-1.4931-2.6495-0.37287-0.79628-0.90798-1.9527-0.93298-2.625-0.074468-0.22394-0.78404-2.9234-0.51011-2.9851-0.26117-3.0223v-3.0229l0.26117-2.9979 0.51011-2.9856 0.78404-2.9229 0.074468-0.22447 0.93298-2.6495 0.90798-1.9532 0.37287-0.79574 1.4931-2.625 1.7043-2.5 1.9282-2.3383 2.1144-2.1649 1.1197-0.94521 1.1941-1.0202 2.4378-1.7787 2.6122-1.5548 2.7245-1.3064 2.8239-1.0947 2.9106-0.83298 2.9606-0.58457 3.0101-0.31117 2.2766-0.05 0.73351-0.012234 3.0351 0.17447 2.9984 0.45957 2.9479 0.72181 2.8612 0.94521 0.44734 0.19947 2.3261 1.0197 2.6622 1.4309 2.55 1.6543 2.3638 1.866 2.2144 2.0899 2.0271 2.2511 1.816 2.4138 1.6048 2.5622 1.3809 2.7117 1.1564 2.7862 0.89628 2.8984 0.63404 2.9484 0.39787 3.0101 0.11223 3.0106-0.11223 3.0229zm-70.99-10.636-1.6915 0.3984-0.44787 3.3457 1.5298 0.79628-0.33564 2.5128-8.5457-4.5282 0.38564-2.7984 9.466-2.2888-0.36064 2.5622zm-5.3239-12.352 6.2447 2.9606 1.1941-2.4878 0.2984 0.14894 1.6298 0.78351-2.2516 4.7394-8.1973-3.9053 1.0819-2.2394zm7.8989-11.768 1.4926 1.2564-1.8282 2.1894 1.1069 0.93298 1.5548-1.8532 1.5548 1.2936-1.5298 1.8282 2.7989 2.3511-1.5926 1.916-6.9782-5.8096 3.4207-4.1048zm7.4638-6.3314 8.1973 5.2617-2.0899 1.5053-1.4681-0.95798-2.7367 1.9899 0.49787 1.6798-2.0654 1.4926-2.6489-9.292 2.3138-1.6793zm22.689-8.0734 3.2096 0.037234h0.23564l0.66011 0.037766 0.43511 0.12447 0.44787 0.1367 0.34787 0.19894 0.3484 0.23617 0.27394 0.27394 0.23617 0.3234 0.19894 0.36064 0.1367 0.39787 0.087234 0.3984 0.012766 0.37287-0.037766 0.3984-0.074468 0.39787-0.12447 0.3234-0.1617 0.31064-0.2117 0.32394-0.26064 0.26117-0.29894 0.21117-0.33511 0.1867-0.32394 0.1117 2.8234 3.7447-2.9851-0.037234-2.2761-3.384-0.037766 3.3463-2.4255-0.025 0.099468-9.0681zm11.295 6.3814 0.062234-0.53457 0.11223-0.52287 0.19894-0.53457 0.23617-0.51011 0.3234-0.48511 0.36064-0.43511 0.3984-0.36117 0.41011-0.31117 0.46064-0.28564 0.52234-0.19894 0.53511-0.13723 0.55957-0.074468 0.59734-0.024468 0.16117 0.011702 0.4484 0.025 0.62128 0.12447 0.59734 0.19894 0.57234 0.2367 0.54734 0.3234 0.47234 0.3484 0.42287 0.38564 0.3734 0.43511 0.3234 0.46011 0.24894 0.53511 0.1867 0.55957 0.1117 0.57234 0.025 0.58457-0.025 0.59734-0.1117 0.57234-0.1867 0.53457-0.2117 0.49734-0.26117 0.48564-0.32287 0.41064-0.39787 0.42234-0.4484 0.36117-0.49734 0.2984-0.54734 0.23617-0.54734 0.1617-0.59734 0.099468-0.59734 0.012766-0.19894-0.012766-0.38511-0.025-0.57234-0.099468-0.55957-0.17394-0.57234-0.22394-0.55957-0.2984-0.49787-0.33617-0.42287-0.38564-0.3734-0.39787-0.3234-0.44734-0.27394-0.4984-0.19894-0.52181-0.1367-0.56011-0.087234-0.55957 0.025-0.53511zm18.883 2.2144 2.0149 1.8037-1.8904 4.7766 4.4904-2.4383 2.0154 1.7915-4.8516 7.8367-1.8782-1.667 3.1096-4.7394-5.1372 2.9234-1.0202-0.89574 2.1521-5.5729-4.217 3.7069-1.8904-1.6915 7.1027-5.834zm20.562 32.777-0.55957-4.142-0.89628-4.0803-1.2559-3.9553-1.592-3.8686-1.9282-3.6947-0.63457-0.99521-1.6176-2.525-2.5372-3.309-2.8112-3.0846-0.42287-0.38564-2.6622-2.4255-3.309-2.5378-3.5202-2.2516-3.6941-1.9282-3.8686-1.592-3.1973-1.0202-0.75851-0.23617-4.0798-0.89574-4.1426-0.55957-4.0426-0.17447h-0.11223l-4.1793 0.17447-4.1298 0.55957-4.0681 0.89574-3.9803 1.2564-3.8564 1.592-2.6245 1.3686-1.0824 0.55957-3.5202 2.2516-3.3085 2.525-0.82128 0.75904-2.2638 2.0649-2.7989 3.0846-2.55 3.309-1.2064 1.8782-1.0452 1.642-1.9282 3.6947-1.592 3.8686-1.2564 3.9553-0.89574 4.0803-0.55957 4.142-0.17447 4.1548 0.17447 4.1798 0.55957 4.1303 0.89574 4.067 1.2564 3.9803 1.592 3.8564 1.9282 3.7069 1.0452 1.6298 1.2064 1.8904 2.525 3.309 2.8239 3.0851 0.42287 0.37287 1.841 1.6793 0.82128 0.74681 3.3085 2.5495 3.5202 2.2521 1.0824 0.55957 2.6245 1.3686 3.8564 1.5915 3.9681 1.2569 4.0803 0.89521 4.1298 0.56011 4.167 0.17394 0.12447-0.012766 4.0426-0.16117 4.1426-0.56011 4.0548-0.89521 0.78351-0.2484 3.1973-1.0085 3.8686-1.5915 3.6941-1.9282 3.5202-2.2521 3.309-2.525 2.6622-2.4378 0.42287-0.38564 2.8112-3.0851 2.5372-3.309 1.6176-2.525 0.63457-0.99521 1.9282-3.7069 1.592-3.8436 1.2559-3.9809 0.89628-4.0793 0.55957-4.1303 0.17447-4.1798-0.17447-4.1548z" fill="#1A1919"/>
<polyline points="93.268 43.778 93.081 43.38 92.832 43.069 92.509 42.783 92.148 42.572 91.776 42.41 91.353 42.311 90.917 42.273 90.88 42.273 90.445 42.311 90.046 42.41 89.661 42.572 89.299 42.783 89.002 43.069 88.765 43.405 88.566 43.778 88.454 44.176 88.391 44.574 88.404 44.997 88.491 45.42 88.653 45.793 88.864 46.154 89.151 46.465 89.487 46.726 89.847 46.926 90.246 47.049 90.656 47.112 91.079 47.112 91.489 47.049 91.874 46.926 92.248 46.726 92.584 46.49 92.882 46.191 93.131 45.831 93.305 45.457 93.405 45.035 93.442 44.624 93.38 44.201 93.268 43.778" fill="#1A1919"/>
<polyline points="7.3372 44.462 10.422 45.955 10.696 43.828 7.3372 44.462" fill="#1A1919"/>
<polyline points="27.303 17.37 27.402 17.295 27.303 17.221 24.615 15.305 25.661 18.552 27.303 17.37" fill="#1A1919"/>
<path d="m39.058 44.761h8.8191v-27.192l-2.9856 0.33564-2.9479 0.62234-2.8856 0.87074v25.363zm0 9.6154v27.727l2.8856 0.88351 2.9479 0.60957 2.9856 0.33617v-29.556h-8.8191zm-9.2176 0h-12.751l0.1367 0.79628 0.53511 2.9734 0.82128 2.8979 1.0691 2.8362 1.3186 2.7 1.5676 2.5745 1.7915 2.4255 2.0149 2.2516 2.2016 2.0649 1.2941 0.92074v-22.441zm0-9.6154v-20.226l-1.1697 0.93298-2.2138 2.0521-2.0032 2.2516-1.791 2.4261-1.5798 2.5872-1.3314 2.7117-1.0691 2.7989-0.79628 2.9106-0.28617 1.5548h12.24z" fill="#FFFFFE"/>
<polyline points="33.447 22.146 31.134 23.577 31.134 46.328 17.202 46.328 17.028 47.983 16.953 49.637 16.928 51.279 17.003 52.934 31.134 52.934 31.134 77.886 32.614 78.981 34.181 79.939 35.836 80.772 37.627 81.569 37.627 52.934 47.877 52.934 47.877 46.328 37.627 46.328 37.627 20.194 36.135 20.753 33.447 22.146" fill="#BC4134"/>
</g>
</svg>
