<?xml version="1.0" encoding="UTF-8"?>
<svg version="1.1" viewBox="0 0 120 63" xmlns="http://www.w3.org/2000/svg">
<title>land-rover-vector-logo</title>
<desc>Created with Sketch.</desc>
<g fill="none" fill-rule="evenodd">
<path d="m119.42 31.247c0 17.252-26.677 31.238-59.573 31.238-32.906 0-59.578-13.986-59.578-31.238 0-17.252 26.673-31.237 59.578-31.237 32.896 0 59.573 13.985 59.573 31.237" fill="#FDF7BE"/>
<path d="m59.822 4.7966c-30.315 0-54.891 11.833-54.891 26.428 0 14.596 24.576 26.428 54.891 26.428 30.314 0 54.889-11.833 54.889-26.428 0-14.595-24.576-26.428-54.889-26.428zm57.129 26.428c0 15.845-25.579 28.687-57.129 28.687-31.552 0-57.13-12.843-57.13-28.687 0-15.843 25.578-28.687 57.13-28.687 31.551 0 57.129 12.844 57.129 28.687z" fill="#005847"/>
<path d="m46.426 18.9-2.5627 4.1708h2.6l-0.037288-4.1708zm-10.063 9.3851h4.6122s-0.014237-0.3539 0.10644-0.58373c0.21898-0.41559 0.79119-1.4183 0.79119-1.4183h4.642l0.0094916 1.2502s0.023729 0.43119-0.31797 0.76407h4.6034s-0.34237-0.19186-0.40475-0.75797l-0.57763-12.515s-0.025085-0.8 0.35593-0.96814h-4.5675s0.32 0.39525-0.29153 1.2942c-0.61017 0.89898-8.4122 12.466-8.4122 12.466s-0.15458 0.29695-0.54915 0.4678zm48.741 6.5302 1.2468-3.3627-9.3492 6.78e-4s0.33492 0.29559-0.095593 1.4956c-0.43254 1.198-4.2203 11.409-4.2203 11.409s-0.67119 1.3424-0.86169 1.3424h9.6366l1.1512-3.4041s-0.14373 0.19186-1.0549 0.19186h-4.0759l0.86373-2.3017h3.1634s0.67119-0.047458 0.81559 0.14441l1.2942-3.6373s-0.094237 0.32814-0.95932 0.32814h-3.0685l0.91254-2.5397h3.8827s0.52814-0.072542 0.71864 0.33356zm-23.308-3.3593s0.35661 0.19119 0.35661 1.1017v12.324s-0.049492 0.6739-0.30373 0.81424h3.8556s0-0.28746 0.38169-0.76678c0.38373-0.47932 8.3919-11.219 8.3919-11.219s1.8258-2.2542 2.3044-2.2542h-5.5173s0.43186 0.28746 0.096271 0.81492c-0.33559 0.52814-5.2407 7.8637-5.2407 7.8637l0.062373-7.3993s-0.0088135-1.1864 0.46712-1.2854l-4.8542 0.0061017zm-9.1817 11.176c1.2949 0.23932 2.7173-0.69288 3.4603-3.6678 1.1275-4.5037-0.94983-4.5424-1.3288-4.5885-1.1485-0.13898-2.6814 1.1837-3.3044 3.941-0.28475 1.259-0.5878 3.9878 1.1729 4.3153zm-0.3261 3.3654c5.1885 0 8.2766-5.0895 8.2766-8.7417 0-3.8292-1.5749-6.2197-5.1702-6.2197-4.5871 0-7.5797 3.4814-8.3519 7.8075-0.70983 3.9803 1.5376 7.1539 5.2454 7.1539zm39.194-8.4054s1.7614 0.13356 2.3003-1.2461c0.63593-1.6258-0.95186-1.5824-0.95186-1.5824h-1.3017l-0.95864 2.8285h0.91186zm-3.4285 8.1051c-0.35864 0.0081355-0.10847-0.87254-0.10847-0.87254l1.5051-4.0678s2.0285 4.1247 2.1708 4.4122c0.14441 0.28881 0.07322 0.52678 0.07322 0.52678h5.2047c-0.48 0-1.0075-0.91051-1.0075-0.91051l-2.5031-4.4908c3.5017 0 4.5546-3.3444 4.5546-3.3444 1.8386-5.7736-4.0163-5.4942-4.0163-5.4942h-5.8983c0.43254 0.47932 0.096949 1.4861 0.096949 1.4861s-3.8461 10.596-4.1349 11.412c-0.28746 0.81559-0.83932 1.3363-0.83932 1.3363l4.9024 0.0074577zm-48.448-11.02-0.97356 2.8631h0.91119s1.7742 0.15593 2.4292-1.2542c0 0 0.7661-1.6163-1.3749-1.6163-0.46915 0-0.99186 0.0074576-0.99186 0.0074576zm-3.562 10.967c-0.14508 0-0.14508-0.46305-0.14508-0.46305l1.6868-4.4759s2.101 4.1234 2.2454 4.4108c0.14373 0.28746 0.071186 0.52814 0.071186 0.52814h5.0264c-0.47932 0-0.97356-0.91119-0.97356-0.91119l-2.5031-4.4915c3.5003 0 4.6197-3.4692 4.6197-3.4692 1.7261-5.5139-4.0827-5.3695-4.0827-5.3695h-5.9451c0.43119 0.47932 0.094915 1.4875 0.094915 1.4875s-3.6922 10.555-3.979 11.37c-0.28814 0.81424-0.81559 1.3837-0.81559 1.3837h4.6997zm-16.071-5.8895h9.1702l1.1159-3.1939h-5.9349l6.7702-2.3437 0.44881-1.2956-10.419 3.4176-1.1512 3.4156zm51.173-14.724s0.018305-0.0054238 0.66441-0.0054238c0.97898 0 2.7925-0.21559 4.0102-3.1824 2.0027-4.8753-0.79119-4.7105-0.79119-4.7105h-1.0786l-2.8047 7.8983zm-0.61017-10.955s0.35864 0.57559-0.10983 1.9058c-0.46712 1.3308-4.1349 11.22-4.1349 11.22s-0.28881 0.93085-0.68339 1.1112l5.7539-0.0061017s6.9756 0.25763 9.1342-7.0746c0 0 2.7329-7.2285-5.179-7.1559h-4.781zm-19.241 14.197h4.2088s-0.28881-0.42712-0.10847-0.89424c0.24881-0.64881 2.4814-6.7247 2.4814-6.7247l0.97085 7.619h3.8122l4.9973-13.553s0.20475-0.63525 0.48339-0.63525l-4.0502-0.012203s0.11593 0.46847-0.028475 0.8278c-0.14305 0.36-2.4461 6.5092-2.4461 6.5092l-0.89898-7.3369h-4.3505s0.22508 0.36 0.081356 0.75525c-0.11797 0.32068-4.6129 12.658-4.6129 12.658s-0.28746 0.78712-0.53966 0.78712zm-15.673-3.1505h-3.7356s3.4617-9.2278 3.7397-9.9254c0.49356-1.2359 0.78847-1.1505 0.78847-1.1505h-5.1593c0.63797 0.30508 0.072542 1.5105 0.072542 1.5105s-4.1322 11.507-4.4203 12.083c-0.28746 0.57559-0.50373 0.64814-0.50373 0.64814h8.9356l1.2495-3.4081c-0.1078 0.32407-0.96678 0.24271-0.96678 0.24271zm58.468-5.6041h-9.1708l-1.1166 3.1925h5.9356l-6.7708 2.3444-0.44746 1.2949 10.418-3.4163 1.1519-3.4156zm19.201 11.707c0 13.812-23.939 25.007-53.468 25.007-29.53 0-53.469-11.195-53.469-25.007 0-13.81 23.939-25.006 53.469-25.006 29.529 0 53.468 11.196 53.468 25.006z" fill="#005847"/>
</g>
</svg>
