<?xml version="1.0" encoding="UTF-8"?>
<svg version="1.1" viewBox="0 0 88 100" xmlns="http://www.w3.org/2000/svg" xmlns:xlink="http://www.w3.org/1999/xlink">
<title>lamborghini-automobili-vector-logo</title>
<desc>Created with Sketch.</desc>
<defs>
<polygon id="b" points="0.027917 0.13761 87.91 0.13761 87.91 99.617 0.027917 99.617"/>
</defs>
<g fill="none" fill-rule="evenodd">
<path d="m8.9449 25.544-0.0025641 8.5936 3.2983-1.2462-0.017521 1.7487-4.9551 1.8141 0.014103-10.496 1.6628-0.41453zm5.385 3.1675v5.4068l-1.2868 0.33205 1.2868-5.7389zm-3.5295-7.6338 2.5923-11.232 0.93718-0.19103v3.285l-0.63205 2.7363 0.63205-0.14487v1.6534l-1.0346 0.23675-0.7359 3.1872-1.759 0.4688zm5.6051 2.2436v3.4979l-0.57094 2.5479 0.57094-0.12949v1.6509l-0.96068 0.21709-0.64829 2.8927-0.46667 0.12009v-5.4068l1.1654-5.2009 0.91026-0.18932zm-2.0756-13.666 0.85684-0.17564 1.2188 4.9628v5.144l-0.40214 0.1047-0.66282-2.7376-1.0107 0.23162v-1.6534l0.6312-0.14444-0.61239-2.5295-0.018803 0.082479v-3.285zm6.409 22.852-0.0051282-10.253 1.688-0.3094 2.0868 5.6192 2.0094-6.241 1.7064-0.28974-0.0012821 10.346-1.585 0.26325-0.015385-5.4098-2.0312 6.3816-2.2274-6.2278 0.013675 5.8034-1.6389 0.31709zm8.7419-24.377 0.01453 9.2137-1.6137 0.11239-0.014957-9.1299-1.9158 0.28889 0.029914-1.6017 5.3842-0.74444 0.0042735 1.6013-1.8885 0.25983zm-9.288 0.1094-0.008547 7.0197c-0.001282 0.22778 0.0089744 0.43632 0.031197 0.62479 0.055128 0.47308 0.1735 0.81368 0.35171 1.0154 0.46453 0.5265 1.656 0.074786 1.9692-0.33718 0.27692-0.36496 0.41795-0.95812 0.42308-1.8278l-0.0059829-7.135 1.6632-0.30299 0.024786 7.4474c-0.007265 1.2282-0.32778 2.135-0.82521 2.7902-0.53291 0.70214-1.2915 1.0692-2.2799 1.185-0.8 0.093162-1.6158-0.12436-2.1731-0.75513-0.40299-0.45726-0.65641-1.0932-0.74957-1.894-0.029914-0.25684-0.044444-0.53034-0.042308-0.82009l0.023077-6.6487 1.5983-0.36154zm-3.7872 22.649v-1.6509l0.57137-0.12906-0.55043-2.3812-0.02094 0.09188v-3.4979l0.84786-0.1765 2.2299 9.6444-1.562 0.40299-0.58162-2.5154-0.93419 0.21154zm16.356-10.549v1.5718c-0.39872 0.026496-0.80513 0.10855-1.2009 0.16368l-0.016667 2.8321c0.11923-0.014957 0.23376-0.030342 0.34829-0.045299 0.30085-0.039316 0.60128-0.078632 0.86923-0.11026v1.5816c-0.23846 0.028632-0.44786 0.055983-0.65769 0.083333-0.19274 0.025641-0.38504 0.050855-0.56923 0.073932l-0.017949 3.0111 1.2449-0.16496v1.6111c-0.94444 0.15171-1.9282 0.22821-2.8632 0.35256l-0.0072649-10.59 2.5444-0.34316c0.078632-0.010684 0.15812-0.018804 0.23932-0.023504 0.028632-0.0021368 0.057692-0.0034188 0.086752-0.0042735zm0-12.622v7.6684c-0.12051-0.21752-0.22051-0.43675-0.30684-0.64231-0.44701-1.065-0.56923-3.1325-0.36838-4.7415 0.037607-0.30855 0.090598-0.61197 0.15726-0.90043 0.069658-0.3 0.15214-0.57137 0.24829-0.80171l4.273e-4 -4.2735e-4c0.07735-0.18632 0.16581-0.38333 0.26923-0.58205zm-16.356 6.7248 1.1876 4.8342-1.1876 0.30983v-5.144zm18.903 7.3017v2.6325c-0.12564 0.32692-0.29402 0.63547-0.50556 0.90513 0.14615 0.1141 0.27564 0.24487 0.3906 0.39231 0.040598 0.052564 0.07906 0.10684 0.11496 0.16239v3.5987c-0.22265 0.36624-0.51068 0.67863-0.8312 0.91453-0.30641 0.22564-0.6547 0.39145-1.0278 0.47051-0.22607 0.048291-0.45598 0.090171-0.68846 0.12735v-1.6111l0.30043-0.040171c0.65043-0.085043 1.1004-0.89316 1.103-1.4833 0.0025641-0.54701-0.069231-0.95385-0.25641-1.194-0.14487-0.18632-0.41624-0.29573-0.8547-0.31966-0.10299 0.011538-0.2 0.02265-0.29231 0.033761v-1.5816c0.055556-0.0064103 0.1094-0.01282 0.16197-0.018803 0.063248 0.0029914 0.33077-0.13547 0.38761-0.18205 0.43205-0.35256 0.70641-1.0158 0.66752-1.5987-0.020513-0.30983-0.14829-0.6141-0.3953-0.81197-0.20256-0.16282-0.4812-0.25043-0.8047-0.22991l-0.017094 0.0012821v-1.5718c0.71453-0.026068 1.3521 0.1953 1.844 0.59017 0.2906 0.23376 0.53248 0.50171 0.70342 0.81453zm0-15.892v1.6068c-0.32009 0.019658-0.56368 0.17692-0.75299 0.38803-0.25128 0.28077-0.43632 0.66709-0.57991 1.0103l-4.273e-4 4.2735e-4h4.273e-4c-0.063248 0.15171-0.11838 0.33248-0.16453 0.53376-0.05 0.21325-0.091453 0.46154-0.12521 0.73547-0.17265 1.3825-0.090171 3.106 0.2594 3.9389 0.13932 0.33205 0.32009 0.70342 0.56838 0.9641 0.19103 0.20085 0.44017 0.3406 0.77179 0.32735l0.023077-0.001282v1.6068l-0.032906 0.0017094c-0.86111 0.034615-1.4863-0.30641-1.9534-0.79658-0.22778-0.23932-0.41068-0.5094-0.56111-0.78205v-7.6684c0.16239-0.31282 0.36154-0.62949 0.61581-0.91325 0.46709-0.52137 1.0863-0.90897 1.9316-0.95214zm0 11.111v-1.6068c0.32051-0.019658 0.56368-0.17692 0.75256-0.38803 0.25128-0.28077 0.43675-0.66709 0.57991-1.0103l4.274e-4 -8.547e-4c0.06282-0.15171 0.11795-0.33205 0.16453-0.53376 0.049145-0.21282 0.091026-0.46154 0.12479-0.73504 0.17265-1.3829 0.090171-3.106-0.2594-3.9393-0.13932-0.33162-0.32009-0.70342-0.56838-0.96368-0.19103-0.20085-0.43974-0.3406-0.77179-0.32735l-0.02265 0.001282v-1.6068l0.032479-0.001282c0.86111-0.035043 1.4863 0.30556 1.9534 0.79573 0.41026 0.43077 0.6735 0.96111 0.86795 1.4248 0.44744 1.065 0.56923 3.1325 0.3688 4.7415-0.038034 0.30855-0.091026 0.61197-0.15769 0.90043-0.069658 0.3-0.15214 0.57137-0.24829 0.80171l-4.274e-4 4.274e-4c-0.2 0.47949-0.46966 1.0312-0.88504 1.4953-0.46709 0.52137-1.0863 0.90897-1.9312 0.95214zm0 7.4137v-2.6325c0.17479 0.3188 0.27479 0.68419 0.27735 1.1064 0.0034188 0.50214-0.088462 1.0346-0.27735 1.5261zm0 5.0585v-3.5987c0.33504 0.51923 0.46624 1.1833 0.46325 1.9859-0.0025641 0.59231-0.17949 1.1457-0.46325 1.6128zm4.806-9.444v1.6068c-0.32009 0.01282-0.56368 0.16538-0.75299 0.37222-0.37179 0.40769-0.62009 0.99316-0.74444 1.5291-0.049145 0.21239-0.091453 0.45983-0.12521 0.73248-0.17265 1.3795-0.090171 3.1051 0.25983 3.9453 0.13889 0.33504 0.31966 0.71026 0.56795 0.9765 0.19145 0.2047 0.44017 0.34957 0.77179 0.34316l0.023077-4.273e-4v1.6068l-0.032479 4.274e-4c-0.86154 0.016667-1.4863-0.33718-1.9538-0.83761-0.40983-0.43889-0.67308-0.97521-0.86795-1.4427-0.44658-1.0744-0.5688-3.1449-0.36795-4.75 0.14188-1.1419 0.49915-2.303 1.2906-3.1705 0.46752-0.51154 1.0863-0.88632 1.9316-0.91154zm0-13.8v10.647l-0.14658-8.547e-4 0.027778-10.646 0.1188 4.2735e-4zm0 10.647v-10.647l1.5791 0.0094017 2.0791 6.1769 2.0466-6.153 1.6718 0.0098291 0.0064103 10.646-1.6474-0.0098291-0.0017094-5.6312-2.0675 6.2158-2.1654-6.4329v5.8239l-1.5009-0.008547zm0 14.266v-1.6068c0.32009-0.013248 0.56325-0.16538 0.75256-0.37265 0.36239-0.39744 0.62094-0.99573 0.74487-1.5291 0.049145-0.21197 0.091026-0.45983 0.12521-0.73248 0.17222-1.3795 0.089744-3.1047-0.26026-3.9453-0.13932-0.33504-0.31966-0.71026-0.56795-0.97607-0.19103-0.2047-0.43974-0.35-0.77179-0.34359l-0.02265 8.547e-4v-1.6068l0.032051-8.547e-4c0.86154-0.016667 1.4863 0.33718 1.9538 0.83761 0.40983 0.43889 0.67308 0.97521 0.86752 1.4427 0.44701 1.0744 0.56923 3.1449 0.3688 4.75-0.038034 0.30769-0.091026 0.60983-0.15726 0.89701-0.18974 0.81325-0.5735 1.6598-1.1338 2.2735-0.46752 0.51154-1.0863 0.88675-1.9312 0.91197zm7.6991-10.976v1.6256c-0.080769-0.0098291-0.1641-0.017949-0.25128-0.024786l-1.203-0.007265-0.018376 3.1483 1.4726 0.008547v2.2329l-0.21581-0.62094-1.2658-0.0072649-0.0025641 4.4534-1.5897-0.0094017 0.015812-10.822 2.8701 0.016667c0.061538 4.273e-4 0.12479 0.0025641 0.18803 0.0059829zm0 6.9833v-2.2329l0.12607 4.274e-4c0.34786 0.05 0.7594-0.17735 0.97564-0.43504 0.23974-0.28419 0.36838-0.66581 0.37094-1.0453-4.274e-4 -0.42051-0.052992-0.94359-0.38846-1.2496-0.23376-0.2141-0.60214-0.3359-1.0842-0.3953v-1.6256c0.7594 0.04359 1.6115 0.32051 2.1688 0.82991 0.58932 0.53761 0.9047 1.3115 0.91068 2.4124-4.274e-4 0.76154-0.2547 1.5222-0.74829 2.1077-0.2547 0.30299-0.56966 0.55641-0.93889 0.73376l1.6534 4.7603-1.7081-0.0098291-1.3376-3.8509zm4.6983-4.3872v6.612c-0.32436-0.85855-0.47137-2.0201-0.43803-3.5329 0.02094-0.93803 0.088889-2.0991 0.43333-3.065l0.0047008-0.014103zm0-16.62v1.6073c-0.32009 0.0047009-0.56282 0.15085-0.75214 0.35342-0.25128 0.26923-0.43632 0.64701-0.57949 0.98376-0.073077 0.16795-0.1235 0.34915-0.16538 0.52692-0.049145 0.21068-0.090598 0.45769-0.12479 0.72949-0.17265 1.3752-0.089744 3.103 0.25983 3.9526 0.23889 0.5812 0.60427 1.3487 1.3393 1.353 0.0076923 0 0.015385 0 0.02265-4.274e-4v1.6077h-0.032051c-1.4688-0.008547-2.3128-1.1167-2.8209-2.3517-0.44658-1.0855-0.5688-3.1594-0.3688-4.7594 0.038462-0.30684 0.091026-0.60812 0.15769-0.89359 0.35171-1.503 1.3517-3.0987 3.0641-3.109zm0 11.114v-1.6077c1.1291-0.016667 1.5171-1.7462 1.6226-2.5936 0.17265-1.3752 0.090171-3.103-0.2594-3.9521-0.13932-0.33846-0.32009-0.71838-0.56838-0.9906-0.19103-0.2094-0.44017-0.36068-0.77137-0.36282l-0.023504 4.2735e-4v-1.6073c0.011111 0 0.021795-4.2735e-4 0.032906-4.2735e-4 1.4692 0.008547 2.3128 1.1171 2.8209 2.3517 0.44701 1.0855 0.5688 3.1594 0.36838 4.7598-0.14103 1.1269-0.49829 2.2902-1.2906 3.1389-0.46752 0.5-1.0863 0.8594-1.9316 0.86368zm0 12.118v-6.612c0.41667-1.1573 1.1876-2.0214 2.6094-2.0299 0.80085-0.0042735 1.5872 0.26197 2.1393 0.86795 0.45983 0.50427 0.72821 1.2017 0.7641 2.0615 0.0029915 0 0.0034188 0.2047 0.0034188 0.21752l-1.6073-0.0094017c0.001282-0.28504-0.1735-0.99103-0.35128-1.1863-0.69573-0.76368-1.7585-0.17735-2.0462 0.63077-0.26923 0.7547-0.32436 1.7491-0.34231 2.5611-0.035043 1.5799 0.13077 2.6436 0.49359 3.2714 0.45043 0.77991 1.7526 0.91197 2.1551 0.025641 0.18932-0.41667 0.25983-0.99103 0.25-1.6402l-1.2013-0.0068376 0.009829-1.6132 2.8252-0.0081196c-0.008547 1.1624 0.052564 2.8932-0.41923 3.9325-0.9453 2.0808-3.9009 2.0368-5.0111 0.11538-0.10085-0.17479-0.19145-0.36752-0.27137-0.57778zm7.5782-8.1987v10.748l-0.2859-0.044444-0.0081197-10.749 0.29402 0.045299zm0-14.082v1.6504c-0.098718-0.032051-0.20171-0.055556-0.30769-0.067949l-0.89188-0.10598-0.017094 2.9115c0.1812 0.023932 0.36752 0.047009 0.55342 0.07094 0.21154 0.026496 0.42265 0.053419 0.66325 0.086752v1.6252c-0.26111-0.036325-0.56154-0.074786-0.86154-0.11239-0.12009-0.015385-0.2406-0.030342-0.36453-0.046581l-0.017949 3.0927 1.244 0.15513v1.6543c-0.94744-0.067949-1.9376-0.27179-2.8598-0.38675l-0.038462-10.862 2.7765 0.31752c0.041026 0.0047008 0.081624 0.010684 0.12179 0.017094zm20.823 19.162 0.0098291 10.531-1.6047-0.43846-0.0094017-10.578 1.6043 0.4859zm-4.7017-15.867 0.0042735 10.986-1.6115-0.31624-0.0042736-10.986 1.6115 0.31624zm-4.8902 23.515-0.014957-10.461 1.8765 0.44444 2.7188 7.2333-0.0034189-6.5021 1.6043 0.52393-0.012821 10.587-1.8141-0.51368-2.7667-7.4838-0.0068376 6.6124-1.5808-0.44017zm-1.9145-11.141-0.015385 10.808-1.6056-0.34274-0.0081197-10.809 1.6291 0.34359zm0.65-13.817 0.013675 9.3239 3.0222 0.56838 0.024359 1.5953-4.7295-0.81026-0.0042735-11.014 1.6735 0.33675zm-3.691-0.86795 0.0047009 11.021-1.612-0.22393-0.0042735-11.021 1.6115 0.22393zm-6.2752 9.9295v-1.6543l0.50684 0.063248c0.21026 0.026068 0.40769-0.060256 0.56068-0.20385 0.16282-0.15299 0.28205-0.38205 0.31795-0.67051 0.062393-0.49829-0.0076923-1.1436-0.27906-1.5744-0.19017-0.30085-0.51667-0.5312-1.0265-0.69188l-0.079915-0.011538v-1.6252c0.1141 0.015385 0.23547 0.032479 0.36538 0.051709 0.20641 0.030342 0.38291-0.09188 0.51026-0.24487 0.16368-0.19615 0.27863-0.46795 0.32265-0.76453 0.017949-0.11966 0.023077-0.24316 0.015385-0.36752-0.014103-0.22564-0.075641-0.44573-0.17479-0.64786-0.2094-0.42863-0.58291-0.7735-1.0389-0.92222v-1.6504c1.5282 0.24231 2.7209 1.5872 2.8209 3.1158 0.0076923 0.23846 0.0055556 0.46496-0.029914 0.70214-0.086325 0.58632-0.32821 1.1415-0.67991 1.5628-0.15256 0.18376 0.2265 0.43376 0.35513 0.63803 0.39274 0.62179 0.54402 1.3722 0.54017 2.259-4.274e-4 0.13932-0.0076923 0.26239-0.02094 0.36923-0.085043 0.68162-0.39231 1.2466-0.81538 1.6449-0.44231 0.41538-1.0132 0.64786-1.6017 0.6453-0.18718-8.547e-4 -0.37692-0.0089743-0.56838-0.023077zm0 13.915v-10.748l1.3415 0.20556-0.0034188 4.6876 2.8714 0.54744-0.019231-4.7962 1.565 0.25 0.0076924 10.749-1.6115-0.27436 0.0017094-4.3436-2.8248-0.5235-0.0021368 4.4521-1.3261-0.20598z" fill="#D7272F"/>
<mask id="a" fill="white">
<use xlink:href="#b"/>
</mask>
<path d="m33.53 58.068v13.148c-0.29188 0.14103-0.71923 0.54145-0.51026 1.6662 0 0 0.24744 0.051282 0.51026-0.13889v1.3521l-0.045299 0.034615c-0.60684 0.46709-0.3735 0.35-0.41966 0.74701-0.047436 0.39701 0.069658 1.0974 0.046154 2.0308-0.023504 0.93376-0.30342 0.81709-0.56026 1.1675-0.25641 0.34957-0.21026 1.0966-0.21026 1.5167 0 0.42051-0.18632 0.4906-0.18632 0.4906-0.84017 0.35-2.6141 0.25641-2.6141 0.25641l0.092735-0.91026-0.13974-0.46667-0.3265-0.023504s-0.047009 0.49017-0.047009 0.98034c0 0.49017-0.35 0.63034-0.53675 0.14017-0.18675-0.49017-0.56026-0.58376-0.093162-1.7038 0.46624-1.1205 1.1201-1.4474 1.1201-1.4474-0.046581-1.6338 2.0538-3.0111 2.0538-3.0111-0.093162-0.74701-0.27991-2.2175 0.047009-2.7778 0.3265-0.55983 0.65342-0.98034 0.75855-1.6923 0.15214-0.68547-0.051709-1.6513-0.15128-2.5444-0.11709-1.0154-0.047008-2.1821 0.35-2.7427 0.39701-0.55983 0.53675-1.7735 0.51325-1.9838-0.023504-0.21026-0.32692-1.0038-0.046581-2.4974 0.1594-0.85 0.25812-1.247 0.3953-1.5902zm6.5359-11.697v8.6231c-0.20427-0.37436-0.39359-0.85171-0.52692-1.4568l-0.44744-0.023504 0.023932 1.2235s-0.84786 0.56453-0.44744 1.5534c0 0 4.274e-4 0.54274 1.3979 0.58632v1.9808c-0.095726-0.056838-0.18547-0.12051-0.26838-0.19017-0.44658-0.3765-1.012-0.49402-1.365 0.28248-0.35299 0.7765-0.35299 1.1534-0.91752 1.3179-0.56538 0.16453-0.98889-0.32949-0.98889-0.32949s-0.28205-0.58846-0.61154-0.18803c-0.32949 0.39957-0.58846 0.61154-0.58846 1.294 0 0.68291-0.14103 0.91795-0.14103 0.91795s-1.2709 3.1774-1.4359 4.8244c0 0-0.11752 1.1064 0.23547 1.3419 0.35299 0.23504 0.54145-0.11752 0.87051-0.58846 0.32991-0.47051 1.7654-2.5654 1.7654-2.5654s-0.047008-0.54103 0.65897-0.63547c0.4188-0.055983 1.7252-0.19444 2.7863-0.066667v1.4329c-0.39701 0.010684-0.43291 0.02735-0.43291 0.61111 0 0.8235 0.4 2.094 0.4 2.094l0.032906-0.001282v2.4179c-0.12308 0.2641-0.092308 0.40214 0 0.48974v1.9632c-0.51795 0.89701-0.96239 2.2491-1.3526 3.2778-0.51325 1.3538-1.3303 1.3538-2.0774 1.494-0.74701 0.13974-0.77051 0.046581-0.74701-0.46709s0.11667-0.30342-0.046581-0.55983c-0.16325-0.25726-0.37308-0.1406-0.37308 0.093162 0 0.23333-0.18718 0.23333-0.46709 0.30342-0.27991 0.069658-0.4906 0.18675-0.51368-0.63034-0.023504-0.81667 0.070086-1.4936 0.46667-2.1474 0.39701-0.65385 1.9607-1.6808 2.6376-2.1709 0.67692-0.48974 0.77051-0.81709 0.77051-1.0504 0-0.23333 0-0.98034 0.11667-1.2141 0.11667-0.23333-0.093162-0.39615-0.093162-0.39615s-0.11709-2.3812-0.21026-3.0346 0.070086-0.63034-0.23333-0.77051-0.39701 0.18675-0.39701 0.18675c-1.0038 1.3068-2.4974 4.3184-2.4974 4.3184 0.11368 2.5274-0.90513 3.1226-1.5188 3.5833v-1.3521c0.13462-0.097436 0.27265-0.25769 0.38419-0.52009 0.32906-0.7765 0.11752-0.8 0.11752-0.8l-0.25897-0.28248s-0.10641 0.0094017-0.24274 0.075214v-13.148c0.1047-0.2594 0.23077-0.48846 0.42179-0.86111 0.44359-0.86368 1.2137-1.9141 1.6338-2.5675 0.42009-0.65385 0.60684-1.0739 0.44359-2.2876-0.16368-1.2141 0.13974-2.591 0.13974-2.591 0.51923-1.362 2.491-2.6222 3.897-3.3902zm0-9.097v1.4679c-0.01282 0.044444-0.01282 0.085897 0 0.12564v1.941c-0.85085-0.33205-1.2184-0.78162-1.3056-1.1312-0.13846-0.55299-0.40983-1.3402 1.3056-2.4034zm0 28.432v-1.4329c0.72735 0.08718 1.3393 0.29957 1.4735 0.74957 0 0 0.28248 0.49402-0.77692 0.63504-0.30812 0.041453-0.53291 0.044017-0.69658 0.048291zm5.1051 2.494v4.3697c-0.071368 0.019658-0.14145 0.039316-0.20171 0.067521-0.30342 0.13974-0.023504 0.56026 0.16325 1.3769 0.18675 0.81709-0.51325 0.88718-0.79359 0.91068-0.28034 0.023077-0.79359 0.18632-1.7274 0.25641-0.93333 0.070086-0.79359-0.25641-0.65342-0.51325 0.13974-0.25726 0.32692-0.28034 0.20983-0.4906-0.11667-0.21026-0.20983-0.58333-0.48974 0.047009-0.28034 0.62991-0.63077 0.3735-0.63077 0.3735-0.62991-1.1906 0.51368-1.8444 1.3073-2.8949 0.79359-1.0504 0.91068-1.4705 1.1205-1.9603 0.21026-0.4906-0.09359-0.35043-0.09359-0.35043-0.7 0.18718-0.91026 0.70043-0.91026 0.70043-0.67692 1.797-1.1436 1.797-1.891 2.4979-0.17906 0.16795-0.35043 0.40641-0.51453 0.69017v-1.9632c0.074786 0.070513 0.18932 0.10855 0.29701 0.15299 0.28205 0.11838 1.341-0.65897 0.82308-1.294 0 0-0.49402-0.35299-0.96453 0.3765-0.067521 0.10427-0.11838 0.1953-0.15556 0.27479v-2.4179l5.1051-0.20983zm0-6.4868v5.0735c-0.076068-0.13675-0.15726-0.26538-0.24274-0.37564-0.47051-0.61197-1.7654-2.3774-0.63547-3.7419 0.33718-0.40726 0.63205-0.71197 0.87821-0.95598zm0-18.958v15.827c-0.22735-0.70556-0.71496-1.8953-1.4902-1.5855-0.94145 0.3765-0.7765 0.28205-1.035 0.82393-0.2594 0.54103-0.32991 1.012-1.0359 1.2235-0.57564 0.17308-1.1197 0.063675-1.544-0.18632v-1.9808c0.028205 8.547e-4 0.055983 0.0017094 0.085043 0.0021368 1.4825 0.023504 1.412-0.070513 1.412-0.070513l-0.28248-0.54188s-0.66368-0.26282-1.2145-1.2726v-8.6231c0.61838-0.33761 1.1274-0.58034 1.3551-0.69444 0.74701-0.3735 1.0739-0.60684 1.4239-1.0038 0.35043-0.39701 0.4906-0.67692 1.541-1.4004 0.29658-0.20427 0.54444-0.38248 0.78504-0.51752zm0-2.9491c-0.5312-0.01453-1.0372-0.047008-1.4855-0.1047-1.8-0.23162-3.4769-0.3953-3.6197-0.83333v1.941c0.74103 0.28889 1.8483 0.48889 3.456 0.45598 0.55855-0.011111 1.1111-0.024786 1.6491-0.039316v-1.4197zm0-2.0372c-0.35427-0.063675-0.54145-0.096581-0.71538 0.18162-0.23333 0.3735-0.20983 0.28034 0.46709 0.51368 0.086325 0.029914 0.16923 0.05812 0.24829 0.083333v0.64103c-1.4201-0.16709-2.3291-0.74701-2.6996-1.0979-0.44359-0.42009-0.81709-0.56026-2.0538 0.27991-0.20812 0.14103-0.31966 0.2641-0.35171 0.37179v-1.4679c0.31197-0.19359 0.68932-0.39573 1.1453-0.60769 1.2017-0.55812 2.6175-0.68675 3.9598-0.60983v1.712zm2.6252 5.2026v2.185c-0.24658-0.2859-0.39915-0.45983-0.39915-0.45983-0.39701-0.11667-0.30342 0.46667-0.30342 0.46667s0.28547 0.34915 0.70256 0.87222v2.9624c-0.46453-0.15556-0.58889-0.12222-0.66752 0.0094018 0.011966 0.058547-0.2235 0.22308 0.12949 0.36453 0.35342 0.14145 0.23547 0.070513 0.18846 0.25897-0.047009 0.18803-0.47094 0.16453-0.82393 0.16453-0.35299 0-1.0355-0.23504-1.0355 0.42393 0 0.65897 0.047436 0.56453 0.63547 0.58803 0.58846 0.023932 0.91795-0.11752 0.91795-0.11752s0.23547-0.16453 0.63504 0.42393l0.020513 0.029487v6.0876c-0.22265-0.031624-0.43333-0.17564-0.77265-0.30299-0.56068-0.21026-1.0274 0.046581-1.0274 0.046581s0.11709 1.6107 0.44316 1.9603c0.24744 0.26496 0.86709 0.74274 1.3568 1.2423v2.9274c-0.42778 0.79359-1.0051 2.0487-1.1231 2.5534-0.16325 0.70043-0.11667 1.6808 0.11667 1.6573 0.23376-0.023504 0.60726-0.7235 0.77051-1.144 0.055556-0.14359 0.13333-0.31453 0.2359-0.45897v3.1598l-0.0025641 0.0072649c-0.2641 0.72179-0.15684 1.4303 0.0025641 1.915v2.2906c-0.24957-0.13632-0.4594-0.31838-0.6094-0.5641-0.58376-0.95726-0.72393-2.591-0.72393-2.591s-0.093162-0.046581-0.58333 0.16325c-0.4906 0.20983-0.39701 0.88675-0.23333 1.6803 0.1312 0.6359-0.18718 0.71709-0.47521 0.79658v-4.3697l0.5812-0.023932s-0.23718-0.7735-0.5812-1.3893v-5.0735c0.57949-0.5735 0.88974-0.81068 0.84017-1.2564-0.07094-0.63547-0.58846-1.012-0.72991-1.5064-0.024786-0.087179-0.061966-0.21624-0.11026-0.36795v-15.827c0.61026-0.34274 1.1701-0.40513 2.3423 0.097436 0.094444 0.040171 0.18889 0.079914 0.28291 0.1188zm0-3.1987v1.3855c-0.80342 0.017094-1.6927 0.043162-2.6252 0.067521v-1.4197c0.85385 0.023504 1.7726 0.0021368 2.6252-0.033333zm-1.8466-1.5889s0.30342-0.27991-0.35-0.35c-0.16667-0.017949-0.30726-0.043162-0.42863-0.064957v-1.712c0.94615 0.054274 1.8547 0.21068 2.6252 0.39103v1.4077c-0.057692 8.547e-4 -0.11966 0.0017094-0.18932 0.0017094-0.53675 0-0.53675 0.093162-0.86368-0.25684-0.32692-0.35043-0.39658-0.28034-0.44359 0.11667-0.046581 0.39701 0.77051 0.65342 1.2838 0.58333 0.081624-0.011111 0.15171-0.016667 0.21282-0.017094v0.86752c-0.35342 0.050855-0.90684 0.073504-1.7299 0.083333-0.31795 0.0038462-0.61667-0.01282-0.8953-0.045726v-0.64103c0.53803 0.17265 0.88034 0.20641 0.77863-0.36368zm1.8466 0.96709c0.47863-0.069658 0.59145-0.19188 0.51111-0.40684-0.11795-0.3141-0.18632-0.46325-0.51111-0.46068v0.86752zm0 23.953c0.16581-0.30812 0.3094-0.54658 0.39444-0.64444 0.30342-0.35043 0.49017-1.1436 0.023504-1.7974-0.11453-0.15983-0.2594-0.32393-0.41795-0.48547v2.9274zm0 5.7675c0.35299-0.9594 1.4902-2.8419 0.88462-3.3077-0.39957-0.30726-0.68761-0.12949-0.88462 0.14786v3.1598zm2.2808 3.3932v1.2111c-0.79316-0.0064103-1.6598-0.053419-2.2808-0.39145v-2.2906c0.051709 0.15812 0.10897 0.29231 0.16068 0.39573 0.20983 0.42009 0.28034 0.23333 0.44359-0.27991 0.16325-0.51368 0.88718-0.25726 1.144 0.13974 0.25684 0.39701-0.09359 0.7235-0.53718 0.67692-0.44359-0.046581-0.18632 0.23333 0.11709 0.46709 0.17393 0.13333 0.50897 0.13675 0.95256 0.071368zm0-7.8209v1.2974c-0.28077-0.097009-0.55726-0.27308-0.68932-0.4906-0.30299-0.49786-0.043162-0.97436 0.064957-1.3209 0.12479-0.40043 0.31325-0.34145 0.40556-0.031197 0.044872 0.14744 0.11538 0.34829 0.2188 0.5453zm0-7.0996v4.5859c-0.19573-0.10726-0.38162-0.22607-0.55641-0.35769-1.7269-1.3068-1.5637-2.591-1.3064-3.4312 0.15085-0.4953 1.1047-0.70684 1.8628-0.79701zm0-8.3239c-0.045726-0.066239-0.091026-0.13034-0.1359-0.19231-0.6859-0.94701-1.5496-2.0466-2.1449-2.7927v2.9624c0.16026 0.053846 0.36154 0.12991 0.61538 0.23248 0.98803 0.40043 1.2709 1.0594 1.506 1.765 0.23547 0.70641-0.023504 1.4594-0.54103 1.5538-0.5094 0.092308-1.1774-0.81624-1.5803-1.406v6.0876c0.14487 0.02094 0.29444-0.0059829 0.48761-0.11624 0.32521-0.1859 1.1226-0.41282 1.7932-0.4359v-0.77778c-0.57863-0.024359-0.80726-0.078632-0.74274-0.25726 0.09359-0.25641 0.046581-0.42009 0.046581-0.42009l0.69615-0.016667v-0.70641c-0.54274-0.080342-0.97607 0.069658-0.97607 0.069658s-0.3735-0.093162-0.30342-0.46709c0.070086-0.37308 0.23333-0.42009 0.74701-0.25684 0.16026 0.050855 0.34829 0.07265 0.53248 0.068376v-4.894zm0-5.2368v4.1004c-0.81111-1.0145-1.7577-2.1222-2.2808-2.7278v-2.185c0.74188 0.30726 1.4953 0.5765 2.2808 0.81239zm0-4.1282v1.4915c-0.61709-0.016239-1.3966-0.0081196-2.2808 0.011111v-1.3855c0.88034-0.036325 1.6885-0.08718 2.2808-0.11709zm0-2.4504v1.0915c-0.43462 0.090598-1.0739 0.061111-1.3731-0.1594-0.3859-0.28419-0.52436-0.2859-0.90769-0.28162v-1.4077c0.83333 0.19487 1.506 0.41752 1.888 0.5688 0.15556 0.061966 0.28504 0.12521 0.39274 0.18846zm0 1.0915v-1.0915c0.74487 0.43974 0.42436 0.88547 0.42436 0.88547-0.052992 0.091026-0.21538 0.16239-0.42436 0.20598zm0 15.618c0.40598-0.0081196 0.79615-0.13974 0.84487-0.34829 0.069658-0.30342 0.16325-0.53675 0.16325-0.53675s0.60641 0.63034 0.86368 1.6808c0 0 0.37308 0.77009 0.79359 0.84017 0 0 0.3265 0.046581 0.070086-1.0038-0.24744-1.0098-1.5949-3.8752-2.7355-5.5261v4.894zm0 1.2923 0.26111-0.0068376s0.23333-0.046581 0.20983 0.28034l0.44359-0.023077s0.070086-0.67692-0.60684-0.88718c-0.10513-0.032906-0.20812-0.055128-0.30769-0.069658v0.70641zm0 10.535c0.36239 0.12521 0.73162 0.11923 0.80513-0.10043 0.12991-0.39017-0.25983-0.45513-0.60641-0.88803-0.076496-0.095726-0.14231-0.20214-0.19872-0.30897v1.2974zm8.15-3.9838v2.0885c-0.21838 0.2188-0.46154 0.71453-0.71752 1.2098-0.32479 0.62778 0.32479 1.2342 0.52009 1.5594 0.05812 0.097863 0.12479 0.20085 0.19744 0.29658v7.9667c-0.04359-0.022222-0.089744-0.045299-0.13932-0.07094-1.0504-0.53675-0.65342-1.6103-0.42009-2.1705 0.23333-0.56068 0.35-0.8641 0.11624-1.1671-0.23333-0.30342 0.070086-1.0739 0.070086-1.7979 0-0.7235 0.1406-0.88675-0.39615-1.5406-0.53718-0.65299-1.3543-2.0538-1.3543-2.0538s-0.3265 0.093162-1.447 1.0739c-1.1205 0.97991-1.3077 2.7543-1.5175 4.4812-0.21026 1.7274-1.494 1.8444-2.6842 1.8444-0.12308 0-0.24957 0-0.37778-0.001282v-1.2111c0.32991-0.048718 0.72009-0.13547 1.1483-0.23504 1.0034-0.23333 1.1432-0.84017 1.3538-3.0577 0.20983-2.2175 3.1274-4.0615 3.7812-4.4585 0.65385-0.39701 0.4906-1.2838 0.79359-2.3573 0.30385-1.0739 0.95726-0.46709 0.95726-0.46709 0.039744 0.021795 0.078205 0.044872 0.11581 0.068376zm0-2.941c-0.48889-0.55342-1.8115-1.7987-3.7577-1.7256-2.497 0.09359-2.1239 0-2.1239 0s-0.023504-1.144-1.3073-1.1671c-0.38974-0.0072649-0.70855-0.012393-0.96111-0.023077v0.77778c0.34017-0.011111 0.64829 0.030342 0.84487 0.15556l0.11624 0.44359s-0.43291 0.0038461-0.96111 0.066667v4.5859c1.747 0.95684 4.2419 0.93974 5.3962 0.015812 1.2838-1.0269 0.65342-1.2368 0.09359-0.93376-0.56026 0.30385-3.3846-0.069658-4.1551-0.44359-0.77051-0.37308-0.48974-0.62991-0.44359-0.95684l0.70043-0.070086s0.39701 0 0.44359-0.28034c0.046581-0.27991 0.046581-0.34957 0.046581-0.34957l0.67692 0.14017s0.13974 0.63034 1.0974 0.84017c0.95684 0.20983 1.1667 0.13974 1.1667 0.13974s0.28034-0.20983-0.023504-0.46667c-0.30342-0.25684-1.1902-0.58376-1.1902-0.91068 0 0 0.95726-0.23333 1.9372 0.25726 0.98034 0.48974 1.3073 0.62991 1.4709 0.51325l0.023504 1.2842s-0.09359 0.39658 0.27991 0.44316c0.21453 0.026496 0.39017 0.038462 0.62949 0.17137v-2.5073zm0-9.7479v8.188c-0.05812-0.20256-0.12222-0.41453-0.1859-0.63291-0.28034-0.95684-0.30342-1.6103-0.023504-2.8474 0.28034-1.2372 0.09359-2.1944-0.60684-3.4551-0.70043-1.2598-2.7543-3.9209-2.7543-3.9209-0.35-0.11667-0.93419 0.09359-1.5406 0.35-0.60684 0.25684-0.56026 0.51368-0.21026 0.51368 0.35043 0 0.72393 0.46667 0.72393 0.46667s0.35 0.81709 0.58333 1.844 0 1.3774-0.79402 1.3073c-0.79316-0.070086-1.2833-0.20983-2.4038-1.7739-0.25598-0.35769-0.58462-0.78205-0.93803-1.2239v-4.1004c0.85085 0.25598 1.7393 0.47265 2.6885 0.65598 1.9376 0.3735 1.9145-0.25684 1.4709-1.6573-0.44359-1.4009-1.9842-1.3308-3.0111-1.5406-0.25684-0.052564-0.64957-0.081624-1.1483-0.094872v-1.4915c0.35385-0.017949 0.63077-0.02906 0.79786-0.024359 0.88718 0.023077 3.7115-0.023504 4.8081 2.3107 1.0974 2.3342-0.046154 3.5248-0.046154 3.5248s1.638 2.2859 2.5902 3.6021zm0 8.188c0.19829 0.68547 0.33718 1.2607 0.21068 1.585l1.3073-0.047008s0.023504-1.6103-0.20983-2.8244c-0.23376-1.2137-0.44359-1.7038-0.30385-2.941 0.14017-1.2372 0.16368-2.3573-0.65342-3.4782-0.099573-0.13632-0.2188-0.3-0.35085-0.48248v8.188zm0 17.622c0.88547 0.44359 0.63419 0.21496 0.70085-0.1406 0.070085-0.37393 0-0.65385 0.3735-0.42009 0.3735 0.23291 0.13974 0.62991 0.13974 0.62991s1.0043 0.42051 1.2607-0.49017c0.25684-0.91026 0.23333-1.1436-0.023077-1.6342-0.25684-0.49017-0.53675-2.3107-0.60684-4.738-0.068376-2.3765-0.092735-5.244-1.8449-6.3278v2.0885c0.058547-0.058547 0.11538-0.097436 0.17051-0.11111 0 0 0.30299-0.13034 0.38974 0.75769 0.086752 0.88803 0.19487 2.2744 0.19487 2.2744s0.17308 0.43291-0.15128 0.49829c-0.22735 0.045299-0.43376-0.13205-0.60385-0.35342v7.9667zm7.3295-13.302v0.06282c-0.0042735 0.050855-0.019231 0.10085-0.046154 0.14359-0.16325 0.25641-0.95684 1.2598-2.6141 1.5402-1.6573 0.27991-3.315-0.77051-3.9919-1.4474-0.28761-0.28803-0.5-0.45342-0.67735-0.55214v-2.5073c0.13889 0.15684 0.21068 0.25855 0.21068 0.25855 0.93376-0.39701 2.0077 1.0034 2.9179 1.844 0.91068 0.8406 3.2449 0.98034 3.6415 0.53675 0.30427-0.34017 0.54017-0.11752 0.5594 0.12094z" fill="#D7272F" mask="url(#a)"/>
<path d="m36.255 96.074c-9.2128-8.1483-18.07-17.583-24.727-30.112-6.659-12.532-11.107-28.14-11.494-48.616-0.041026-2.1846 0.10214-4.259 0.94316-6.1385 0.87051-1.9457 2.435-3.5974 5.2043-4.8034l0.010256-0.0051282 0.001282-4.2735e-4v4.2735e-4c6.4107-2.7893 14.776-4.6462 23.798-5.5705 2.9175-0.29915 5.9175-0.50128 8.9534-0.60641 1.6692-0.057692 3.3462-0.085043 5.0239-0.083409v2.5531c-1.6504-0.0017094-3.3004 0.025641-4.9436 0.082479-2.9547 0.10171-5.8936 0.30085-8.7735 0.59615-8.7795 0.89957-16.886 2.6919-23.048 5.3748l-0.011111 0.0055556v-4.2735e-4c-2.1026 0.91752-3.265 2.1145-3.8838 3.4983-0.65 1.4521-0.75812 3.1915-0.72308 5.0573 0.37778 20.01 4.7137 35.241 11.203 47.455 6.491 12.216 15.147 21.435 24.157 29.402 2.1808 1.9286 4.1299 2.8927 6.0226 2.8927v2.562c-2.55 0-5.0427-1.1816-7.7137-3.5432zm7.7137-95.936c13.981 0.016239 28.021 2.103 37.777 6.2603 2.7846 1.1868 4.3521 2.841 5.2209 4.7944 0.83932 1.8859 0.97821 3.9692 0.93675 6.1526-0.38632 20.476-4.8346 36.084-11.494 48.616-6.6573 12.529-15.514 21.965-24.727 30.112-2.6709 2.3615-5.1637 3.5432-7.7137 3.5432v-2.562c1.8927 0 3.8419-0.9641 6.0226-2.8927 9.0094-7.9675 17.666-17.185 24.157-29.402 6.4897-12.214 10.826-27.445 11.203-47.455 0.035043-1.8671-0.069231-3.6167-0.71667-5.0718-0.61709-1.3876-1.7795-2.5842-3.8897-3.4833-9.4466-4.0252-23.117-6.0449-36.776-6.059v-2.553z" fill="#D6242C" mask="url(#a)"/>
</g>
</svg>
