<?xml version="1.0" encoding="UTF-8"?>
<svg version="1.1" viewBox="0 0 120 76" xmlns="http://www.w3.org/2000/svg">
<title>Honda Motor logo</title>
<desc>Created with Sketch.</desc>
<g fill="none" fill-rule="evenodd">
<g fill="#000" fill-rule="nonzero">
<path id="Path" d="m13.792 63.533 1.8157 0.21176c0.81569 0.094118 0.90196 0.78431 0.90196 1.2078v2.149h-8.3608v-2.1451c0-0.43529 0.086275-1.1137 0.90196-1.2078l1.8157-0.21176v-1.8392h-10.863v1.8392l1.8157 0.21176c0.81176 0.094118 0.90196 0.78431 0.90196 1.2078v7.0196c0 0.43529-0.090196 1.1137-0.90196 1.2078l-1.8157 0.21569v1.8353h10.863v-1.8353l-1.8157-0.21569c-0.81569-0.090196-0.90196-0.78431-0.90196-1.2078v-2.149h8.3608v2.149c0 0.43529-0.090196 1.1137-0.90196 1.2078l-1.8157 0.21569v1.8353h10.867v-1.8353l-1.8157-0.21569c-0.81176-0.090196-0.90196-0.78431-0.90196-1.2078v-7.0196c0-0.43529 0.090196-1.1137 0.90196-1.2078l1.8157-0.21176v-1.8392h-10.867v1.8353z"/>
<path id="Shape" d="m86.243 61.698h-13.412v1.8392l1.6039 0.16863c0.57255 0.070588 0.9451 0.31373 0.9451 1.1059v7.1647c0 0.43529-0.090196 1.1137-0.90196 1.2078l-1.8157 0.21569v1.8353h13.58c4.8588 0 8.8549-1.9608 8.8549-6.7765 0-4.8157-3.9961-6.7765-8.8549-6.7765m-0.98824 10.953h-4.549v-8.3412h4.5529c2.6824 0 3.5961 1.2745 3.5961 4.1804 0 2.9059-0.91373 4.1804-3.5961 4.1804"/>
<path id="Shape" d="m117.94 73.22c-0.85882-0.098039-1.1294-0.6549-1.3961-1.0627l-6.2549-9.5569c-0.45098-0.68627-0.78431-0.90196-1.4431-0.90196h-10.298v1.8392l2.4549 0.27843c0.24508 0.045736 0.44853 0.21604 0.53669 0.44925 0.088154 0.23321 0.048231 0.49551-0.10531 0.69193l-4.6196 7.5137c-0.17746 0.38741-0.53628 0.66094-0.95686 0.72941l-1.8392 0.21176v1.8353h8.6824v-1.8353l-1.498-0.15294c-0.63922-0.066667-0.98039-0.51373-0.66274-1.0353l0.69412-1.1294h8.3333l0.61569 0.93725c0.53726 0.82353-0.14118 1.1765-0.72941 1.2235l-1.5373 0.15686v1.8353h11.745v-1.8353l-1.7216-0.19216zm-15.227-4.5216 2.5647-4.1725 2.7451 4.1725h-5.3098z"/>
<path id="a" d="m63.129 63.533 1.8 0.20784c0.81176 0.094118 0.90196 0.78431 0.90196 1.2078v6.7804l-7.1765-9.4588c-0.32157-0.43529-0.60392-0.57647-1.3725-0.57647h-9.302v1.8392l1.8157 0.21176c0.81176 0.094118 0.90196 0.78431 0.90196 1.2078v7.0235c0 0.43529-0.090196 1.1137-0.90196 1.2078l-1.8157 0.21569v1.8353h8.6784v-1.8353l-1.8157-0.21569c-0.81176-0.090196-0.90196-0.78431-0.90196-1.2078v-6.7843l7.1725 9.4627c0.32549 0.43529 0.60784 0.57647 1.3765 0.57647h6.6v-10.275c0-0.43529 0.090196-1.1137 0.90196-1.2078l1.8157-0.21176v-1.8392h-8.6784v1.8353z"/>
<path id="b" d="m36.302 61.231c-8.8235 0-11.102 3.8588-11.102 7.2431s2.2784 7.2431 11.102 7.2431 11.102-3.8627 11.102-7.2431-2.2863-7.2431-11.102-7.2431m0 11.902c-3.4196 0-4.8471-1.4314-4.8471-4.6588s1.4275-4.6588 4.8471-4.6588c3.4196 0 4.8471 1.4353 4.8471 4.6588s-1.4275 4.6588-4.8471 4.6588"/>
<path d="m74.875 4.4745c-1.498 6.6667-2.0863 9.7294-3.302 14.553-1.1765 4.6314-2.0667 8.9333-3.6275 11.016-1.5608 2.0824-3.698 2.5765-5.1373 2.7451-1.9322 0.1694-3.8756 0.1694-5.8078 0-1.4392-0.16078-3.5529-0.62353-5.1373-2.7451-1.5843-2.1216-2.4627-6.3804-3.6314-11.016-1.2118-4.8235-1.8039-7.8902-3.298-14.553 0 0-1.4902 0.058824-2.149 0.10196-0.89412 0.066667-1.5922 0.14118-2.3529 0.24314 0 0 0.85882 13.725 1.2471 19.518 0.39216 6.1098 1.1255 16.404 1.8 24.176 0 0 1.251 0.2 3.3294 0.31765 2.1843 0.12549 3.1608 0.14118 3.1608 0.14118 0.89804-3.4235 2.0118-8.1765 3.2745-10.196 1.0275-1.6471 2.6078-1.8235 3.5059-1.9608 1.039-0.14784 2.0878-0.21601 3.1373-0.20392 1.0494-0.012025 2.0982 0.056147 3.1373 0.20392 0.89804 0.12157 2.4745 0.29804 3.5059 1.9608 1.2627 2.0275 2.3765 6.7765 3.2745 10.196 0 0 0.97255 0 3.1569-0.14118 2.0824-0.11765 3.3333-0.31765 3.3333-0.31765 0.67451-7.7725 1.3922-18.067 1.8-24.176 0.39216-5.8078 1.2471-19.518 1.2471-19.518-0.76078-0.098039-1.4588-0.17647-2.3529-0.24314-0.65882-0.047059-2.149-0.10196-2.149-0.10196"/>
<path d="m92.149 12.565c-0.88627-8.7059-6.6941-10.545-11.796-11.4-3.3366-0.47563-6.6952-0.78191-10.063-0.91765-2.5569-0.16078-8.5922-0.24314-10.38-0.24706-1.7882-0.0039216-7.8431 0.086275-10.384 0.24706-3.3755 0.13486-6.7419 0.44113-10.086 0.91765-5.098 0.8549-10.91 2.6941-11.796 11.4-0.24667 2.9264-0.33569 5.864-0.26667 8.8 0.066383 3.9528 0.33996 7.8994 0.81961 11.824 0.18824 1.7686 0.92549 7.0941 1.8745 9.8471 1.3059 3.7804 2.4745 4.8824 3.8588 6.0078 2.5255 2.0588 6.6667 2.6902 7.5686 2.851 4.7059 0.84706 14.196 0.99608 18.388 0.99216s13.694-0.1451 18.388-0.99216c0.88627-0.16078 5.0431-0.78431 7.5686-2.851 1.3804-1.1255 2.5529-2.2275 3.8588-6.0078 0.94902-2.7451 1.6902-8.0745 1.8745-9.8471 0.48058-3.9241 0.75416-7.8707 0.81961-11.824 0.068926-2.936-0.020092-5.8736-0.26667-8.8m-3.1922 14.627c-0.51373 6.9529-1.1333 11.125-2.0196 14.118-0.78431 2.6353-1.7373 4.4039-3.1373 5.6745-2.3529 2.1216-5.5765 2.5804-7.4706 2.8588-4.0941 0.60784-10.98 0.81961-16.412 0.81961-5.4314 0-12.318-0.21176-16.416-0.81961-1.8941-0.28235-5.1255-0.73725-7.4706-2.8588-1.4039-1.2706-2.3529-3.0431-3.1373-5.6745-0.88627-3.0039-1.5059-7.1765-2.0196-14.118-0.31373-4.1922-0.24706-10.98 0.21961-14.635 0.69412-5.4431 3.3961-8.1843 9.1882-9.2157 3.2455-0.52467 6.5192-0.85728 9.8039-0.99608 2.7451-0.18824 7.3176-0.27843 9.8588-0.25882s7.0902 0.070588 9.8549 0.25882c3.2848 0.13838 6.5585 0.47099 9.8039 0.99608 5.7922 1.0314 8.4941 3.7725 9.1882 9.2157 0.46667 3.651 0.53333 10.443 0.21961 14.635"/>
</g>
</g>
</svg>
