<?xml version="1.0" encoding="UTF-8"?>
<svg version="1.1" viewBox="0 0 120 45" xmlns="http://www.w3.org/2000/svg">
<title>ford logo</title>
<desc>Created with Sketch.</desc>
<g fill="none" fill-rule="evenodd">
<g fill-rule="nonzero">
<path d="m59.912 0c-33.25 0-59.912 9.965-59.912 22.465 0 12.422 26.878 22.468 59.912 22.468s59.912-10.08 59.912-22.468-26.875-22.465-59.912-22.465" fill="#00467F"/>
<path id="Shape" d="m95.112 16.02c0.0775-0.1375 0-0.25-0.1775-0.25h-3.0225c-0.225 0-0.34 0.0275-0.4475 0.235-0.3475 0.665-4.5775 7-5.365 8.25-0.1325 0.1875-0.295 0.16-0.3125-0.0525-0.08-0.73-0.7125-1.5725-1.7075-1.9725-0.72084-0.28425-1.5046-0.37057-2.27-0.25-1.3925 0.1875-2.6325 0.9225-3.7225 1.75-1.6425 1.25-3.06 2.8675-4.89 4.0625-1 0.6525-2.3675 1.22-3.2825 0.3725-0.8275-0.7675-0.7325-2.475 0.5325-3.7925 0.135-0.1375 0.295-0.0225 0.27 0.1-0.13824 0.58233 0.044738 1.1942 0.48 1.605 0.56473 0.48194 1.3665 0.57014 2.0225 0.2225 0.77388-0.4042 1.2993-1.1633 1.405-2.03 0.090399-0.63443-0.086815-1.2779-0.48928-1.7766-0.40246-0.4987-0.99401-0.80779-1.6332-0.8534-1.055-0.0725-2.0625 0.2925-3.0475 1.105-0.46538 0.3758-0.87012 0.82102-1.2 1.32-0.105 0.1475-0.2625 0.1625-0.25-0.0575 0.0475-1.725-0.665-2.6925-2.09-2.725-1.105-0.0275-2.2875 0.575-3.21 1.3075-1 0.81-1.8925 1.885-2.84 2.895-0.1175 0.125-0.22 0.12-0.25-0.1225 0.0023232-1.0701-0.29003-2.1201-0.845-3.035-0.20169-0.29612-0.59442-0.39215-0.91-0.2225-0.37721 0.17841-0.73637 0.39274-1.0725 0.64-0.20072 0.16385-0.27421 0.43767-0.1825 0.68 0.50204 1.7472 0.39268 3.6134-0.31 5.29-0.635 1.5-1.87 2.855-3.3225 3.3125-0.9575 0.3025-1.9525 0.155-2.565-0.6925-0.845-1.17-0.5-3.205 0.75-4.895 1.11-1.5 2.72-2.435 4.3225-3.0425 0.075932-0.015345 0.14046-0.065024 0.17471-0.13451 0.034252-0.069483 0.034358-0.15092 2.871e-4 -0.22049-0.0875-0.2625-0.225-0.6225-0.2825-0.7875-0.1475-0.39-0.56-0.455-1.0625-0.4-1.1431 0.15351-2.2463 0.52434-3.25 1.0925-2.72 1.4425-4.0825 4.2675-4.68 5.7675-0.20206 0.56623-0.48956 1.0982-0.8525 1.5775-0.4275 0.54-0.9675 1.03-1.9525 1.8925-0.11035 0.10201-0.14263 0.26339-0.08 0.4 0.1 0.2075 0.6125 0.93 0.75 1 0.14527 0.04636 0.30419 0.014198 0.42-0.085 0.70814-0.48568 1.3516-1.0595 1.915-1.7075 0.1425-0.1725 0.2875-0.1 0.3625 0.1625 0.37124 1.3548 1.3901 2.4374 2.72 2.89 2.5 0.84 5.08-0.375 7.0325-2.5 1.25-1.3475 1.6875-2.2125 2.1625-2.8025 0.805-1 2.395-3.2325 4.29-4.6675 0.6925-0.5275 1.515-0.9325 1.93-0.665 0.3325 0.215 0.4375 0.715-0.095 1.6825-1.93 3.525-4.77 7.6675-5.29 8.67-0.095 0.175 0 0.3125 0.17 0.3125h2.93c0.12511-0.0040284 0.23855-0.074569 0.2975-0.185 1.48-2.32 2.875-4.5275 4.37-6.8075 0.0825-0.135 0.16-0.03 0.1625 0.0275 0.017503 0.60639 0.18041 1.1997 0.475 1.73 0.47174 0.7914 1.3287 1.2723 2.25 1.2625 0.7075 0 1.065-0.1 1.8275-0.385 0.53368-0.2002 1.0382-0.47094 1.5-0.805 0.2225-0.155 0.25 0.105 0.25 0.145-0.3425 1.84 0.08 4.0225 1.91 4.925 2.1875 1.08 4.595-0.4375 5.9775-1.8075 0.135-0.1325 0.2825-0.1175 0.295 0.1675 0.041648 0.59152 0.28934 1.1497 0.7 1.5775 1.16 1.1625 3.5 0.7025 5.85-1.1175 1.6615-1.348 3.1704-2.8737 4.5-4.55 0.078167-0.078921 0.078167-0.20608 0-0.285-0.2175-0.225-0.5325-0.4875-0.75-0.6875-0.095619-0.074228-0.22938-0.074228-0.325 0-1.4625 1.39-2.7775 2.975-4.6775 4.285-0.64 0.4475-1.6625 0.8075-2.1225 0.1875-0.18-0.25-0.1575-0.575 0.0175-1 0.555-1.3825 9.33-14.75 9.785-15.53m-11.572 11.192c0.0175 0.1025 0.15 0.2 0.2825 0.25 0.045 0.0175 0.0725 0.05 0.02 0.1575-0.33585 0.6852-0.73156 1.3394-1.1825 1.955-0.41515 0.61424-0.92088 1.1621-1.5 1.625-0.885 0.7325-2.1125 1.53-3.13 1-0.45-0.235-0.6475-0.8675-0.6375-1.3775 0.0225-1.4375 0.6625-2.9125 1.8425-4.365 1.44-1.7725 3.0325-2.6925 4.075-2.19s0.7375 1.7675 0.25 2.75c-0.033349 0.062149-0.040547 0.13503-0.02 0.2025" fill="#fff"/>
<path id="a" d="m31.462 34.83c-3.2725 0.0225-6.155-2-6.485-5.5-0.19157-1.8229 0.33284-3.649 1.4625-5.0925 0.9725-1.27 2.62-2.3225 4.015-2.58 0.4525-0.0825 1.0625-0.03 1.315 0.27 0.395 0.46 0.2825 0.965-0.1125 1.1675-1.0625 0.5425-2.345 1.4725-2.98 2.75-0.59419 1.1004-0.52969 2.4394 0.1675 3.4775 1.3125 1.9825 4.975 2.0375 8.3825-1.125 0.83339-0.75432 1.623-1.5556 2.365-2.4 1.5-1.715 2-2.34 4-5.1075 0.0214-0.026682 0.028826-0.061955 0.02-0.095-0.0175-0.035-0.045-0.045-0.1025-0.0475-1.3126 0.023371-2.5825 0.47063-3.62 1.275-0.14621 0.11997-0.3345 0.17616-0.52254 0.15594-0.18805-0.020215-0.36008-0.11514-0.47746-0.26344-0.2275-0.3525-0.065-0.81 0.31-1.07 1.815-1.25 3.795-1.5 5.82-1.8325 0.10164-0.0079092 0.19393-0.062355 0.25-0.1475 0.83-1.0675 1.4575-2.03 2.3425-3.1075 0.89115-1.034 1.8698-1.9892 2.925-2.855 0.85627-0.73504 1.8042-1.356 2.82-1.8475 0.21-0.11-0.0275-0.25-0.0925-0.25-4.475-0.84-9.125-1.9275-13.568-0.2825-3.075 1.1475-4.425 3.5875-3.7775 5.2175 0.4625 1.1575 1.9825 1.345 3.405 0.6475 1.2488-0.61407 2.3079-1.5549 3.065-2.7225 0.435-0.6675 1.35-0.185 0.855 0.9725-1.3 3.055-3.7825 5.48-6.81 5.5825-2.575 0.0825-4.2375-1.81-4.23-4.1475 0-4.61 5.1425-7.645 10.535-8.1 6.5-0.5375 12.645 1.1925 19.095 1.975 4.94 0.5975 9.6775 0.6125 14.642-0.53 0.24837-0.076268 0.51851-0.018562 0.71404 0.15253 0.19553 0.17109 0.28858 0.43118 0.24596 0.68747-0.0475 0.8575-0.7125 1.6825-2.3475 2.575-1.86 1.02-3.805 1.33-5.8375 1.3475-4.915 0.04-9.5-1.875-14.23-2.905 0 0.2075 0.06 0.455-0.1125 0.585-2.625 1.935-5 3.9-6.5825 6.66-0.055 0.065-0.025 0.125 0.0675 0.1175 1.3775-0.0725 2.6175-0.1075 3.9075-0.21 0.225-0.02 0.2325-0.075 0.2125-0.25-0.14083-1.0351 0.23247-2.0738 1-2.7825 0.855-0.7675 1.93-0.855 2.64-0.3025 0.8075 0.63 0.7375 1.7625 0.295 2.6125-0.40024 0.7527-1.0885 1.311-1.9075 1.5475 0 0-0.15 0.0325-0.1275 0.1675 0.03 0.2175 1 0.75 1.0825 0.9 0.070087 0.17294 0.027473 0.37115-0.1075 0.5-0.11636 0.14133-0.28943 0.22375-0.4725 0.225-0.17263-0.014984-0.33823-0.075359-0.48-0.175-0.51307-0.27205-0.96956-0.63944-1.345-1.0825-0.125-0.155-0.1875-0.1575-0.5-0.1425-1.395 0.08-3.5675 0.2925-5.0375 0.475-0.3575 0.0425-0.41 0.11-0.4825 0.235-2.3475 3.87-4.8525 8.0425-7.605 10.838-2.95 3-5.405 3.785-8 3.805m22.365-17.198c0.0375 0.1975 0.115 0.2375 0.205 0.22 0.50159-0.13641 0.93677-0.44992 1.225-0.8825 0.265-0.3875 0.3875-0.945 0.125-1.1675-0.28342-0.19044-0.66335-0.14587-0.895 0.105-0.48822 0.43291-0.73457 1.0768-0.66 1.725" fill="#fff"/>
<path d="m59.912 42.965c-31.708 0-57.412-9.18-57.412-20.5s25.702-20.5 57.412-20.5 57.408 9.18 57.408 20.5-25.702 20.5-57.408 20.5m0-39.305c-30.595 0-55.392 8.455-55.392 18.798s24.798 18.8 55.392 18.8 55.39-8.44 55.39-18.792-24.798-18.792-55.39-18.792" fill="#fff"/>
</g>
</g>
</svg>
