<?xml version="1.0" encoding="UTF-8"?>
<svg version="1.1" viewBox="0 0 93 100" xmlns="http://www.w3.org/2000/svg">
<title>ferrari-logo</title>
<desc>Created with Sketch.</desc>
<g fill="none" fill-rule="evenodd">
<g transform="translate(-302 -4331)">
<g transform="translate(302 4331)">
<path d="m74.262 32.079 7.864e-4 -0.040943-7.864e-4 0.040943zm0 0.0018255 7.864e-4 -0.042768-0.043781-18.393c-9.8753-3.6927-19.173-5.5573-28.297-5.5145-9.1163 0.042768-18.067 1.9913-27.257 5.9224l0.07524 18.014c0.34133 9.5718 5.9072 23.892 15.305 34.274 1.8225 2.0135 3.7927 3.8802 5.8999 5.5359 2.0506 1.6116 4.2244 3.018 6.5105 4.16 11.798-6.0144 20.867-19.365 25.136-31.251 0.83629-2.3288 1.4872-4.596 1.9366-6.7353 0.44803-2.1319 0.69813-4.1438 0.73405-5.9701v-0.0018255 0.0018255zm-56.236-18.743c9.4024-4.0607 18.559-6.0721 27.892-6.1159 9.3266-0.043812 18.824 1.8784 28.917 5.6856l0.29598 0.11162 5.243e-4 0.31294 0.044567 18.713v0.0073019l-7.865e-4 0.04329v0.0018255c-0.036702 1.8745-0.29414 3.9438-0.75528 6.1391-0.46009 2.1885-1.1218 4.4969-1.9691 6.856-4.3568 12.132-13.663 25.781-25.788 31.859l-0.20291 0.10197-0.20422-0.10014c-0.073405-0.035988 0.088086 0.044855-0.029362-0.013561l2.621e-4 -7.823e-4c-2.4192-1.1913-4.706-2.6618-6.8505-4.347-2.1413-1.6823-4.1487-3.5855-6.0103-5.6423-9.5413-10.54-15.193-25.104-15.541-34.85v-0.014082l-0.076288-18.328-0.0010486-0.29912 0.27789-0.12022z" fill="#1A1919"/>
<path d="m64.409 92.425v5.2869h-2.2194c-0.69656 0.054764-1.0586-0.12544-1.0864-0.62458v-3.9962c0-0.33328 0.22336-0.55521 0.66956-0.66604h2.6363zm-7.5861-3.0047c-0.11614-3.9031 2.296-4.5102 3.8367-4.6839h4.0981c2.2378 0.145 3.5457 1.2142 3.9237 3.2089v9.1021h1.0463v2.6944l-9.5914-8.9e-6c-1.9544 0.0044334-3.1554-1.656-3.2264-2.8584v-3.4491c0.01704-1.3104 1.5132-2.5585 3.3999-2.4529h4.0118v-3.2092c0.15782-0.67986-0.074716-1.027-0.69761-1.0408h-1.7439c-0.54005-0.04329-0.79985 0.2454-0.78124 0.86737v1.8216h-4.2761zm32.349-9.7147c-2.065 0-3.7494 0.62353-3.7494 1.3879 0 0.76436 1.6844 1.3876 3.7494 1.3876 2.065 0 3.7491-0.62327 3.7491-1.3876 0-0.76436-1.6841-1.3879-3.7491-1.3879zm-3.6624 5.0308v2.2237l1.3934 0.015125v9.9682h-1.3934v2.5437h7.3263v-2.4576l-1.4917 0.010953v-10.08h1.4026v-2.2253l-7.2372 0.0015647zm-14.197 0.12231 5.6362-0.0093882v2.2109l1.8545-1.2317c2.0522-1.6674 4.4979-1.3443 5.336 1.1224v5.8702h-4.3613v-5.3088c-0.25665-0.23836-1.1975 0.54452-2.8227 2.3476v7.2965h1.4906v2.503h-6.9795v-2.552h1.3863v-9.8991h-1.5402v-2.3497zm-28.6 0 5.6364-0.0093882v2.2109l1.8543-1.2317c2.0522-1.6674 4.4979-1.3443 5.3363 1.1224v5.8702h-4.3613v-5.3088c-0.25692-0.23836-1.1978 0.54452-2.8227 2.3476v7.2965h1.4904v2.503h-6.9795v-2.552h1.3863v-9.8991h-1.5402v-2.3497zm-14.636 0 5.6362-0.0093882v2.2109l1.8545-1.2317c2.0522-1.6674 4.4979-1.3443 5.336 1.1224v5.8702h-4.361v-5.3088c-0.25692-0.23836-1.1978 0.54452-2.8227 2.3476v7.2965h1.4904v2.503h-6.9795v-2.552h1.3863v-9.8991h-1.5402v-2.3497zm-9.25 1.94 2.495 0.010953c0.43099 0.21541 0.62971 0.53356 0.59641 0.95525v4.0487h-3.8755v-4.1658c-0.039324-0.40265 0.36073-0.8139 0.78412-0.84911zm-1.9835-1.9319h6.2732c1.3297 0.27487 2.3749 0.88823 3.0916 2.3922v6.1644h-8.2116v3.6807c0.13711 0.399 0.35182 0.73671 1.1066 0.64414h1.9379c0.50623 0.0013039 0.82842-0.30355 0.96632-0.91535v-1.8453h4.2918v2.0706c-0.41447 1.5793-1.6288 2.4842-3.6424 2.7142h-5.4904c-2.1985-0.32207-3.3517-1.4416-3.4597-3.3584v-9.293c0.55368-1.3039 1.5994-2.055 3.1367-2.2542zm-16.447-4.9888v2.6754h2.5873v14.572h-2.9829v2.661h10.106v-2.6749h-2.8945v-6.0854h1.7109l-0.029362 1.1691h2.1437v-5.1797h-2.2661v1.3256l-1.5294 0.022427v-5.8689h76.77v-2.6201l-83.615 0.003651z" fill="#1A1919"/>
<path d="m18.208 13.756c18.689-8.0728 36.39-8.0001 56.469-0.42508l0.044829 18.714c-0.23804 13.202-11.557 36.125-28.262 44.501-17.048-8.3764-27.695-31.039-28.176-44.464l-0.076026-18.326" fill="#FFF101"/>
<path d="m44.441 42.391-0.47687-0.094925-0.095426 0.23705s-0.095164 0.18985 0 0.47436c0.095426 0.28451 0.047975 0.71142 0.14314 0.94847 0.095426 0.23731 0.19059 0.4269 0.28602 0.80634 0.095426 0.37918 0.33373 1.5175 0.33373 1.5175s0.095426 0.3797 0.33399 0.80634c0.2383 0.4269 0.47661 0.61675 0.61975 0.94873 0.14288 0.33198 0.47661 1.0434 0.47661 1.0434l0.47687 0.56903s0.14288-0.047463 0.2383 0.33198c0.095426 0.37944 0.14314 0.28451 0.14314 0.52183 0 0.23705-0.33373 0.42664-0.33373 0.42664s-0.47687-0.094664-0.85831-0.094664c-0.38144 0-0.47661-0.047463-0.90576-0.094925s-1.0012-0.14239-1.0012-0.14239-0.19085-0.18959-0.62001-0.28451c-0.42889-0.094925-0.90576-0.18959-0.90576-0.18959s-0.42916-0.23731-0.71543-0.23731c-0.28575 0-0.47661-0.047202-0.47661-0.047202l-0.57203 0.047202-0.42916-0.18959h-1.7641l-0.62001-0.047463h-0.76262l-0.33373 0.18985 0.19059 0.80634 0.33373 0.37918 0.71517 0.37944s0.52432 0.28451 0.76288 0.28451c0.2383 0 0.61975 0.047463 0.90576 0.047463 0.28628 0 0.71517-0.094664 0.71517-0.094664s0.52458-0.28478 0.66746-0.047723c0.14314 0.23731 0.52484 0.3797 0.52484 0.3797h0.52432 0.71517c0.33373 0 0.095426-0.28478 0.66746-0.047463 0.57229 0.23705 1.1443 0.18959 1.1443 0.18959l1.3349 0.4269s0.33373 0.18959 0.57203 0.28451c0.23857 0.094925 0.47687 0.14239 0.76288 0.23705 0.28628 0.094925 0.76288 0.18985 1.0012 0.18985 0.23857 0 0.62001-0.23705 0.62001-0.23705s0.2383-0.094925 0.2383-0.37944-0.047713-0.47436-0.047713-0.47436l-0.57203-0.99593-0.33399-1.1383-0.33373-1.233 0.047975-1.0909 0.19059-1.1858-0.23857-0.33198-0.71517-0.66395-0.095164-0.3797-0.14314-0.4741-0.2383-0.4741-0.33373-0.52183-0.38144-0.33198-0.52458-0.4269-0.47661-0.28451-0.38144-0.23705" fill="#1A1919"/>
<path d="m45.973 10.809-0.24564 0.20367-0.040897 0.20367c-0.081794 0.32572-0.040897 0.57007-0.040897 0.57007l0.081794 0.24435-0.12269 0.32572-0.49155 0.040682h-0.40923l-0.53218-0.12205-0.36833-0.24435-0.3277-0.040682h-0.90078l-0.28654 0.12205 0.28654 0.16299 0.3277 0.12205-0.20475 0.12231-0.3277-0.040682-0.49129-0.081625-0.32744 0.20393-0.12269 0.20341 0.36833 0.040682s-0.081794-0.12205 0.20475-0.081364 0.45039 0.081364 0.45039 0.081364l0.28654 0.040943 0.24564 0.12205 0.49129 0.20367 0.28654 0.16273-3.5208 1.8735-0.89501 0.16508-0.53795 0.48662-0.69603 0.73306v1.3031l0.16359 0.20367 0.3686-0.040682 1.3921-0.40708 0.20475 0.081104 0.040897 0.20393-0.40949 0.12205-1.1053 0.36666c0.24564 0.16273 0.53218 0.28504 0.53218 0.28504s0.081794 0.040682 0.28654 0.040682c0.20475 0 0.040897 0 0.40923-0.081625 0.3686-0.081364 0.53245-0.12205 0.53245-0.12205l0.40923-0.16299 0.28654 0.040943 0.3277-0.081625 0.20475 0.16299 0.3686 0.040682 0.53192 0.12205 0.53245 0.081625 0.49129 0.081364 0.49129 0.040682h0.28654l0.24564 0.44803-0.12269 0.40734-0.20475 0.52939-0.3277 0.73306-0.28654 0.57033-0.85962 1.4252-0.53245 0.69238-0.49129 0.52939-0.65514 0.44803-0.36807 0.40734-0.20501 0.57007-0.36833 0.40734-0.73693 0.44803-0.65514 0.44803-0.65488 0.44803-0.57334 0.40708-0.53218 0.28504-0.24564-0.16273-0.57308-0.24435-0.61424-0.32598-0.65514-0.24409-0.3686-0.32598-0.40923-0.48871-0.49129-0.32598-0.53218-0.32572-0.32744-0.12205-0.65514-0.040682-0.49129 0.12205-0.45039 0.3664-0.28654 0.40734-0.16385 0.44803-0.3686 0.57033-0.32744 1.0588-0.081794 0.48871s-0.40949 0.81469-0.45039 1.0181c-0.040897 0.20367-0.20475 0.85537-0.20475 0.85537l-0.3686 0.89579-0.040635 0.44803-0.3686 0.6517s-0.20475 0.20367-0.20475 0.40708c0 0.20367 0.12295 0.77401 0.12295 0.77401s-0.040897 0.44803-0.040897 0.65144c0 0.20367-0.082056 0.32598-0.082056 0.52965 0 0.20367-0.081794 0.57007-0.040897 0.77374 0.040897 0.20367 0.12295 0.69212 0.12295 0.69212l0.53192 0.16299 0.3277-0.40708 0.40949-0.32598 0.40923-0.44777-0.16359-0.69238-0.16385-0.52939-0.16385-0.6517-0.081794-0.89605 0.24564-1.0588 0.24564-0.57033 0.40949-0.28504 0.40923-0.28504 0.57334-0.44803 0.24564-0.69238 0.28654-0.65144 0.040897-0.44803 0.49129 0.12231 0.24564 0.24409 0.3686 0.40734 0.40923 0.44803 0.49129 0.48845 0.65514 0.52965 0.28654 0.32598-0.040897 0.20367-0.45039-0.040943-0.94168-0.28504-0.57308-0.040682-0.53218-0.040943-0.3686-0.12205-0.45013 0.040682-0.61424 0.12231-0.53218 0.36666-0.3686 0.52913-0.12269 0.61102v0.57007l0.081794 0.89605 0.20475 0.93673 0.45013 2.7695 0.20501 0.44777s0.040897 0.24435 0.040897 0.48871c0 0.24435 0.28654 0.61102 0.28654 0.61102l0.3686 0.28504 0.36833 0.52939 0.3686 0.89605 0.28654 0.40708 0.45013 0.52965 0.3686 0.32572 0.57308 0.12231 0.45039-0.20393 0.12269-0.57007 0.041159-0.7328-0.081794-0.6517-0.3686-0.52965-0.40923-0.3664-0.73719-0.20367v-0.81443l-0.32744-0.32598-0.20475-0.48871-0.32744-1.0995-0.12295-0.85537-0.32744-0.81443-0.040897-0.57007 0.12269-0.40734 0.24564-0.16299 0.45039 0.12231 0.81872 0.40708 0.61424 0.32598 0.73693 0.28504 0.65514 0.28504 0.40923 0.3664 0.65514 0.57033 0.53218 0.20367 0.65514 0.081364h0.77783l0.40949 0.040682-0.20475 0.40734 0.081794 0.40734s0.20475 0.28504 0.2868 0.48871c0.081794 0.20367 0.45039 0.57007 0.45039 0.57007l0.57308 0.6517 0.73693 0.6517 0.65514 0.65144 0.81872 0.57033 0.77783 0.57007 0.94168 0.52939 0.65514 0.57007 1.0644 0.69238 0.77809 0.81443 0.53192 0.52965 0.2868 0.81443 0.20448 0.61102s0.40949 0.44803 0.61424 0.44803h0.40949l0.45039-0.61102 0.45039-0.89579 0.040635-0.97768 0.040897-0.36666 0.24591-0.52913s0.20475-0.2853 0.45039-0.2853c0.24538 0 0.32744 0.081625 0.32744 0.081625l-0.3686 0.48871s-0.28654 0.28504-0.28654 0.48871v0.6517l-0.081794 0.65144-0.24564 0.52939-0.3277 0.40734-0.49129 0.6517-0.16359 0.48871-0.24564 0.57007s-0.24564 0.81443-0.24564 1.0588c0 0.24461 0.16359 0.44803 0.16359 0.73332 0 0.28504 0.12295 0.77374 0.20475 1.0181 0.082056 0.24435 0.28654 0.85537 0.28654 0.85537s0.16385 0.40708 0.3277 0.61075c0.16359 0.20341 0.53218 0.93673 0.53218 0.93673l0.40949 0.48871 0.16359 0.48845 0.3277 0.44803 0.16385 0.32598s-0.041159 0.32572-0.16385 0.52939c-0.12269 0.20367-0.28654 0.48871-0.45039 0.73306-0.16385 0.24435-0.61398 0.52965-0.61398 0.52965l-0.53245 0.81443-0.77783 0.57007-0.45039 0.24435-0.53218 0.20367-0.61424 0.69238-0.28654 0.48845-0.73693 0.81469-0.57308 0.93673-0.24564 0.61075 0.16359 0.6517 0.57334 0.12231 2.2928-1.0181 0.081532-0.32598 0.041159-0.52939 0.12269-0.3664 0.65514-0.44829 0.3686-0.48845 0.16359-0.52965 0.081794-0.32572 0.45039-0.28504 0.3686-0.36666 0.20475-0.32572 0.57308-0.48871 0.45039-0.3664 0.98257-0.57033 0.57308-0.44803 0.12295-1.5882-0.40949-0.48871-0.28654-0.52965s-0.040897-0.3664-0.040897-0.61075v-0.81469s0.081794-0.32546 0.20475-0.52939c0.12269-0.20367 0.61424-0.65144 0.61424-0.65144l0.73667-0.61102 0.77809-0.44803 0.69603-0.77374 0.85962-1.0588 0.45039-0.69238 0.40923-0.93673 0.2868-0.73306v-0.61075s0.081794-0.36666 0.28654-0.24435c0.20475 0.12205 0.20475 0.16273 0.28654 0.40708 0.081794 0.24435 0.081794 0.57007 0.081794 0.89605 0 0.32572-0.12269 0.69238-0.12269 0.69238l0.040897 0.81443 0.040897 0.73306 0.28654 0.24435v-0.48871l0.081794-0.52939 0.16385-0.52939v-0.48897l0.20475-0.48845s0.24564 0.32572 0.28654 0.57007c0.041159 0.24435 0.12295 0.69238 0.12295 0.69238s0 0.40734-0.12295 0.69238c-0.12269 0.28504-0.040897 0.3664-0.20475 0.57007-0.16359 0.20367-0.45039 0.6517-0.45039 0.6517s-0.28654 0.28504-0.32744 0.52939c-0.040897 0.24435-0.081794 0.40734-0.081794 0.69238 0 0.28504 0.20475 0.73306 0.20475 0.73306l0.16385-0.32598 0.081794-0.52913 0.28654-0.69264 0.49129-0.61075 0.57308-0.97742 0.32744-1.222 0.041159-0.77348-0.082056-0.52939-0.28654-0.48871-0.12269-0.40734 0.24564-0.12231 0.36833 0.57033s0.041159 0.040682 0.12295 0.28504c0.081794 0.24435 0.081794-0.040682 0.12295 0.3664 0.040897 0.40734 0 0.40734 0.081794 0.69238 0.081794 0.28504 0.081794 0.40708 0.16359 0.6517 0.082056 0.24435 0.16385 0.40708 0.20475 0.61102 0.040897 0.20341 0.28654 0.52913 0.28654 0.52913v-0.32572l-0.20475-0.3664 0.12295-0.48871-0.081794-0.48897 0.12269-0.52913 0.082056-0.6517-0.40949-1.0588v-0.4076l0.77783-0.40708 0.98257-0.61075 0.45039-0.52965 0.53218-0.52939 0.2868-0.85537 0.12269-0.89579 0.16385-1.0997-0.16385-1.2625-0.20475-0.93673-0.081794-0.89605-0.082056-0.85511 0.16385-0.81443 0.32744-0.81469 0.53245-0.73306 0.28654-0.40734 0.26976-1.0178-0.43361 0.28478-0.24564 0.2853-0.081794 0.24435-0.45039 0.52939-0.3686 0.44803-0.32744 0.48845-0.20475 0.40734h-0.3686l-0.16359-0.52939v-0.57007c0-0.24435 0.16359-0.77374 0.16359-0.77374l0.24591-0.57033 0.24564-0.61102 0.53218-0.61075 0.32744-0.69212 0.16385-0.89605-0.36833 0.48871-0.49155 0.61075-0.57308 0.6517-0.45039 0.48871-0.49129 0.52939-0.24564 0.32598-0.24564-0.20367-0.082056-0.44803 0.16385-0.69238 0.24591-0.69238 0.20448-0.77374 0.61424-0.97742 0.57308-0.61102 0.49129-0.3664c-0.24564-0.040682-0.73693 0.24435-0.73693 0.24435l-0.57308 0.57007-1.1464 1.2218-0.45039 0.89605-0.24564 0.81443-0.081794 0.73306s-0.12295 0.57033-0.081794 0.77374c0.040897 0.20367 0.081794 0.52965 0.12269 0.81469 0.040897 0.28504 0 0.52939 0.16385 0.89579 0.16359 0.36666 0.28654 0.61102 0.36833 0.89631 0.081794 0.28504 0.16385 0.48845 0.24564 0.85511 0.082056 0.36666 0.040897 0.44803 0.12269 0.73306 0.082056 0.28504 0.12295 0.69238 0.12295 0.89605 0 0.20341 0.12295 0.77374 0.12295 0.77374l-0.082056 0.89605s0 0.40708-0.040897 0.61075c-0.040897 0.20367-0.16359 0.28504-0.24564 0.57007-0.081794 0.28504-0.081794 0.52965-0.24564 0.73332-0.16359 0.20341-0.32744 0.44803-0.49129 0.65144-0.16359 0.20367-0.49129 0.48871-0.49129 0.48871s-0.24538 0.20367-0.57308 0.36666c-0.32744 0.16299-0.49129 0.12205-0.69603 0.24409-0.20475 0.12231-0.24564 0.16299-0.53218 0.20393-0.28654 0.040682-0.94168 0.081364-0.94168 0.081364l0.040897-0.3664-0.28654-0.48897-0.36833-0.61075-0.40976-0.85537-0.53192-0.65144-0.53245-0.52965-0.36833-0.44777-0.73693-0.57033-0.65514-0.57007-0.61424-0.40734-0.90052-0.69238-0.85988-0.65144-0.90052-1.0184-0.90078-1.1811-0.53218-0.85511-0.3686-0.69238-0.20475-0.77374 0.082056-0.85537s0.36833 0.16299 0.57308 0.28504c0.20475 0.12231 0.81899 0.12231 0.81899 0.12231l0.45013 0.20367 0.57308 0.20367 0.49155 0.44803 0.65488 0.48871 0.53218-0.12231-0.24564-0.20367-0.32744-0.16273-0.36833-0.52965-0.3277-0.40708-0.36833-0.24435-0.40949-0.16299 0.61424-0.081625 0.57308 0.36666 0.45039 0.36666c0.16359-0.24435 0.081794-0.44829 0.081794-0.44829l-0.65488-0.40708-0.45039-0.36666-0.65514-0.32572-0.57334-0.16273-0.16359-0.32572 0.32744 0.040421 0.49129 0.20367 0.3686 0.081625 0.36833 0.081364 0.53218 0.28504s0.28654 0.040682 0.57334 0.12205c0.28654 0.081625 0.53218 0.16299 0.77783 0.16299 0.24564 0 0.36833 0.040682 0.57334-0.040682 0.20448-0.081364 0.61398-0.28504 0.61398-0.28504l0.36833-0.44803-0.49103 0.28504s-0.3686 0.20367-0.61424 0.20367h-0.53218s-0.45039-0.24435-0.57308-0.44803c-0.12295-0.20367-0.20501-0.32572-0.45039-0.48871-0.24591-0.16299-0.57334-0.3664-0.77809-0.3664-0.20448 0-0.61398-0.12231-0.61398-0.12231l-0.45039-0.32572s0.24564 0.040682 0.45039 0.081364c0.20448 0.040943 0.65488 0 0.65488 0l0.3277-0.12205s0.081794-0.040682 0.45013 0c0.3686 0.040682 0.20475-0.20367 0.53245 0.081364 0.32744 0.28504 0.69603 0.36666 0.69603 0.36666l0.081794-0.20367-0.3686-0.28504-0.28654-0.24435-0.40923-0.32598s-0.24591-0.16273-0.49129-0.16273h-0.49129l-0.16385-0.24461s0.040897-0.081364 0.32744-0.040682 0.49129 0.081625 0.49129 0.081625l0.53218 0.20367s0.24591 0.20341 0.45065 0.24409c0.20448 0.040943 0.49103 0.081625 0.49103 0.081625l0.65514 0.040682c0.082056-0.20367-0.040897-0.40734-0.040897-0.40734h-0.53218l-0.53245-0.40708-0.28654-0.36666s-0.28654 0-0.49129-0.040682c-0.20448-0.040682-0.45039-0.12231-0.65488-0.20367-0.20475-0.081364-0.3686-0.16273-0.3686-0.16273s-0.16359-0.20367 0.040897-0.20367c0.20475 0 0.69603 0.24435 0.69603 0.24435l0.40949 0.081364h0.20475l-0.3277-0.24435c-0.16385-0.20367-0.16385-0.3664-0.16385-0.3664l0.45039 0.081364h0.24591l0.53218 0.20367 0.45013 0.28504 0.3277 0.32572h0.32744l-0.20448-0.16299s-0.24591-0.12205-0.2868-0.32572c-0.040897-0.20367-0.040897-0.24435-0.16385-0.44803-0.12269-0.20367-0.12269-0.32572-0.32718-0.44777-0.20501-0.12231-0.20501-0.20393-0.49155-0.2853-0.28654-0.081364-0.61398-0.20367-0.61398-0.20367l-0.40949-0.40708s-0.081794-0.24461-0.28654-0.36666-0.3686-0.16299-0.3686-0.16299l0.040897-0.40708 0.73719 0.20367 0.53218 0.040682s0.12269 0.040682 0.24564 0.24435c0.12269 0.20341 0.28654 0.40734 0.28654 0.40734s0.28654 0.32572 0.49129 0.32572c0.20448 0 0.12295 0 0.45039 0.040682 0.32744 0.040682 0.69577 0 0.69577 0l0.2868-0.12231-0.3686-0.12205-0.28654-0.12205-0.32744-0.20393-0.2868-0.24409-0.20448-0.36666-0.082056-0.28504-0.36833-0.36666s-0.28654-0.16273-0.49129-0.28504c-0.20475-0.12205-0.3686-0.20341-0.57308-0.32572-0.20475-0.12231-0.3686-0.24435-0.3686-0.24435l-0.24564-0.32572-0.040897-0.32598 0.36833 0.28504 0.53218 0.44803 0.3277 0.20367 0.40923 0.16299 0.45039 0.32572 0.24591 0.28504 0.32744 0.32598 0.40923 0.20367 0.3277-0.12231-0.3686-0.28504-0.32744-0.32598-0.081794-0.44803-0.24591-0.40708-0.53218-0.20367v-0.32598l-0.28654-0.44777-0.40949-0.44803-0.36833-0.32572-0.24564-0.2853-0.12295-0.32572s-0.12269 0.081625 0.20475-0.040682c0.3277-0.12231 0.40949 0.16299 0.40949 0.16299l0.57334 0.3664 0.45039 0.12231s0.24538-0.040943 0.49103 0c0.24564 0.040682 0.3277 0.12205 0.57334 0.16273 0.24538 0.040943 0.45039 0 0.45039 0l0.24538-0.24409-0.32744-0.040943-0.45039-0.20367s-0.24564-0.20341-0.45039-0.24435c-0.20475-0.040682-0.24538-0.081364-0.45039-0.081364-0.20448 0-0.36833-0.040682-0.36833-0.040682l-0.24564-0.20367-0.20475-0.24435-0.040897-0.24435s-0.32744-0.24435-0.081794-0.20367c0.24564 0.040682 0.20475 0.081625 0.40949 0.16273 0.20448 0.081625 0.12269 0.081625 0.36833 0.12231s0.20475 0.12231 0.40923 0.040682c0.20475-0.081364 0.40949-0.081364 0.40949-0.081364s0.12295-0.040682 0.40949 0 0.24564 0 0.49129 0.12231c0.24564 0.12205 0.45039 0.28504 0.45039 0.28504l0.32744 0.16273-0.081794-0.3664-0.24564-0.20367s-0.16385-0.24435-0.40949-0.36666c-0.24564-0.12205-0.20475-0.16273-0.40949-0.20341-0.20448-0.040682-0.49103-0.081625-0.49103-0.081625s-0.20475-0.12205-0.49129-0.12205-0.3277 0.081364-0.57334 0c-0.24564-0.081625-0.36833-0.12231-0.57308-0.32572-0.20475-0.20393-0.081794-0.20393-0.3686-0.36666-0.28654-0.16299-0.45039-0.20367-0.45039-0.20367l-0.20448-0.28504c0.53192-0.081364 0.61398 0 0.81872 0.081364 0.20475 0.081625 0.081794 0.081625 0.36833 0.12231s0.40949 0.040682 0.40949 0.040682l0.77783 0.12205 0.2868 0.12231s0.12269 0.12231 0.32744 0.32572c0.20448 0.20367 0.36833 0.28504 0.36833 0.28504l0.3686 0.16299h0.24564l-0.28654-0.28504-0.24564-0.32598s0.040897-0.20341-0.20475-0.3664c-0.24564-0.16273-0.20475-0.16273-0.45039-0.28504-0.24564-0.12231-0.49129-0.28504-0.49129-0.28504s-0.12269 0.12205-0.3277-0.040682c-0.20448-0.16299-0.28654-0.24435-0.53192-0.40734-0.24591-0.16299-0.24591-0.16299-0.49129-0.3664-0.24591-0.20367-0.12295-0.12231-0.40976-0.24461-0.28654-0.12205-0.57308-0.20367-0.57308-0.20367l-0.12269-0.16273c-0.20842-0.27643 0.34815-0.40395 0.34815-0.40395s0.22179-0.013561 0.42653-0.14578c0.20475-0.13222 0.539-0.12883 0.539-0.12883l0.28654-0.10536s0.28313-0.15282 0.078386-0.23418c-0.20475-0.081625-0.17381-0.061284-0.41972-0.061284-0.24564 0-0.19452-0.10171-0.48106-0.10171h-0.45039-0.57308-0.45039s-0.16385 0-0.36833-0.16299c-0.20475-0.16273-0.40976-0.3664-0.40976-0.3664s-0.28654-0.16273-0.49103-0.24435c-0.20475-0.081364-0.16385-0.16299-0.45039-0.20367-0.28654-0.040682-0.3686-0.081364-0.57308-0.12231-0.20501-0.040682-0.3277 0.16299-0.61424-0.040682-0.28654-0.20341-0.3686-0.32572-0.3686-0.32572l-0.36833-0.24435-0.45039-0.44803-0.20475-0.32572" fill="#1A1919"/>
<path d="m44.372 10.879-0.040897 0.28504v0.20367c-0.16385 0.20367-0.3277 0.44777-0.3277 0.44777s0.040897 0.20367 0.24591 0.20367c0.20448 0 0.36833 0.081625 0.36833 0.081625l0.36833 0.081364 0.20475-0.081364-0.040897-0.2853-0.28654-0.32572-0.16385-0.20341-0.16359-0.20367-0.16385-0.20367" fill="#1A1919"/>
<path d="m17.773 8.8719v4.6346c19.098-8.2963 38.276-8.1268 57.375-0.33328v-4.9134l-28.689-4.529-28.686 5.1411" fill="#D8232A"/>
<path d="m17.773 7.2028v1.6643l28.686-5.1536 28.689 4.5277v-1.8004l-28.635-4.861s-28.74 5.4715-28.74 5.623" fill="#FFFFFE"/>
<polyline points="17.773 7.17 17.773 5.5349 46.459 0.1064 75.148 5.0284 75.148 6.4492 46.459 1.6445 17.773 7.17" fill="#009949"/>
<path d="m41.65 58.131c-0.097261-0.088666-0.19426-0.11031-0.29152-0.064414-0.032508 0.064414-0.065016 0.12883-0.097261 0.19324-0.23725 0.086058-0.47477 0.085798-0.71255 0-0.86355-0.45298-1.8999-0.72263-2.7532-0.064414-0.66169 0.58363-1.3711 1.917 0.6803 3.1576 0.76656 0.48323 2.0514 0.77322 2.7854 1.1597 1.5192 0.9928 0.2425 2.8981-1.6194 2.9322-1.7667 0.029469-2.9818-1.494-2.2999-2.1588 0.63574 0.33511 1.0298-0.054764 1.0041-0.54791-0.023332-0.49314-0.78202-0.88875-1.2953-0.25765-1.1443 0.88719-0.06554 3.8192 2.7207 3.4796 2.2648-0.31816 3.2524-1.4541 2.7532-3.5764-0.55735-1.2531-2.3387-1.7363-3.8545-2.4164-0.88846-0.65691-0.77206-1.6891 1.0366-1.4823 0.95819 0.28999 1.6765 0.8804 2.2024 1.7723 0.075502-0.043029 0.151-0.086058 0.22677-0.12883-0.16201-0.66604-0.32403-1.3318-0.48578-1.9976" fill="#1A1919"/>
<path d="m54.738 59.381c-1.1653 0.62849-1.5391 0.31059-1.4691-0.18933 0.58645-1.53 2.9496-0.38831 3.918-0.37892-0.71701 0.80165-1.2557 1.6231-1.3876 2.49-0.90655 0.045376-1.1278 0.43134-1.2516 0.86606 0.23516-0.14786 0.51016-0.23027 0.84337-0.21645-0.0041946 0.59693-0.82528 1.9705-1.3976 2.5778-1.2025 1.3863-3.9644 0.18881-3.1734-1.4953 0.31145 0.30564 1.1797 0.13926 1.1011-0.54113-0.068686-0.6517-0.81479-0.81182-1.2914-0.32494-0.81689 0.63188-0.84284 3.524 2.2037 3.6538 2.5015-0.14108 3.4107-2.5494 3.9452-3.8703 1.0568 0.0091275 1.5203-0.37527 1.5779-1.0285-0.38066 0.16273-0.78753 0.2733-1.2516 0.27069 0.12112-0.78496 0.3568-1.632 1.1467-2.4167 1.8896 0.11944 3.5452-0.8379 4.1862-1.1018 0.1067-0.14056 0.088348-0.23992-0.054529-0.29755-4.3896 1.2267-5.88 0.10562-7.3732 0.27904-1.7135 0.13978-3.1653 1.7235-2.1767 2.5085 0.86251 0.63005 1.7434-0.08319 1.9046-0.78496" fill="#1A1919"/>
<path d="m62.176 36.041c1.5402 2.5612-0.55316 5.8718-1.6458 5.8423 1.4463-1.5206 1.9402-3.4942 1.6458-5.8423" fill="#FFFFFE"/>
<polyline points="33.638 28.694 33.864 28.919 34.025 29.079 34.38 29.272 34.348 29.047 34.122 28.822 33.928 28.662 33.638 28.694" fill="#FFFFFE"/>
<polyline points="32.444 26.223 32.089 26.287 31.896 26.383 31.96 26.576 32.218 26.544 32.606 26.512 32.606 26.351 32.444 26.223" fill="#FFFFFE"/>
<path d="m31.283 27.603-0.22572 0.096229-0.096737 0.28869-0.19347 0.32102-0.032508 0.3531-0.096737 0.28869 0.064491 0.25687 0.22598-0.09649 0.19347-0.32076 0.096999-0.32102s0.031984-0.12831 0.096475-0.28869c0.064753-0.16064 0.064753-0.28895 0.064753-0.28895l-0.096999-0.28869" fill="#FFFFFE"/>
<path d="m33.638 33.187 0.19347 0.12857 0.32246 0.25661 0.38721 0.25661 0.32272 0.2248 0.29021 0.19246 0.25797-0.16038s0.064754-0.096229-0.096475-0.16038c-0.16149-0.064414-0.32272-0.16064-0.32272-0.16064l-0.29021-0.12831-0.16149-0.096229-0.22572-0.096229-0.29047-0.12831-0.38695-0.12857" fill="#FFFFFE"/>
<polyline points="30.96 31.454 30.767 31.71 30.767 31.935 30.96 31.935 31.025 31.678 30.96 31.454" fill="#FFFFFE"/>
<path d="m31.186 34.502-0.25797 0.19246-0.032246 0.32102 0.032246 0.48115 0.096737 0.28895 0.12898 0.3531 0.19347 0.32076 0.16149 0.12857s0.096737-0.12857 0.064491-0.32102c-0.032246-0.19272-0.032246-0.064153-0.096737-0.25661-0.064491-0.19272-0.096737-0.19272-0.12924-0.41725-0.032246-0.2248-0.032246-0.25687-0.032246-0.41725s-0.032246-0.41725-0.032246-0.41725l-0.096737-0.25661" fill="#FFFFFE"/>
<polyline points="29.057 35.529 28.928 35.722 29.121 35.818 29.057 35.529" fill="#FFFFFE"/>
<polyline points="33.67 41.017 33.509 41.241 33.799 41.402 33.993 41.274 33.928 41.081 33.67 41.017" fill="#FFFFFE"/>
<path d="m43.026 50.708h-0.19347s-0.096737 0.12857 0.12898 0.19272c0.22598 0.064153 0.22598 0.096229 0.41946 0.12831 0.19347 0.032076 0.19347 0.032076 0.38721 0.096229 0.19347 0.064414 0.064491 0 0.29021 0.09649 0.22572 0.095968 0.096737 0.12831 0.35496 0.16038 0.25797 0.032076 0.19347 0.063892 0.48368 0.032076 0.29047-0.032076 0.19374-0.12857 0.41946-0.032076 0.22572 0.095968 0.41946 0.12831 0.41946 0.12831l-0.22598-0.2248-0.25797-0.12831h-0.22572s0 0.064414-0.16123 0.032337c-0.16149-0.032337-0.29047-0.09649-0.29047-0.09649s-0.096737-0.12831-0.25823-0.16038c-0.16123-0.032076-0.32246-0.064414-0.48368-0.064414h-0.29047l-0.32272-0.095968-0.19347-0.064414" fill="#FFFFFE"/>
<polyline points="41.284 50.291 41.542 50.259 41.542 50.452 41.38 50.548 41.122 50.452 41.284 50.291" fill="#FFFFFE"/>
<polyline points="37.638 50.163 38.219 50.066 38.251 50.355 37.993 50.516 37.703 50.516 37.638 50.163" fill="#FFFFFE"/>
<polyline points="47.574 50.933 47.381 51.061 47.284 51.318 47.607 51.254 47.704 51.093 47.574 50.933" fill="#FFFFFE"/>
<polyline points="46.091 60.592 45.897 60.785 45.639 60.945 45.51 61.17 45.671 61.298 45.961 61.234 46.22 60.978 46.091 60.592" fill="#FFFFFE"/>
<polyline points="47.639 58.41 47.381 58.506 47.187 58.699 47.155 58.924 47.413 58.924 47.607 58.795 47.639 58.41" fill="#FFFFFE"/>
<path d="m50.833 55.458-0.25797 0.22453-0.51619 0.25687-0.19374 0.28869-0.29021 0.38518-0.29047 0.28895-0.38721 0.38492-0.25797 0.35284 0.19347-0.032076s0.16123-0.19246 0.32272-0.25661c0.16123-0.064153 0.67742-0.41699 0.67742-0.41699l0.41946-0.54582 0.25797-0.35284 0.29047-0.2248 0.032246-0.35284" fill="#FFFFFE"/>
<polyline points="52.381 54.623 52.123 54.752 52.026 55.009 52.317 55.009 52.381 54.623" fill="#FFFFFE"/>
<path d="m49.833 50.612-0.19347 0.12857v0.25661l0.064491 0.28869 0.16123 0.2248 0.16123 0.44933 0.096999 0.25661 0.096737-0.16038s-0.096737-0.28895-0.096737-0.44933c0-0.16064-0.032508-0.38492-0.032508-0.38492l-0.031984-0.25687-0.22598-0.3531" fill="#FFFFFE"/>
<path d="m49.575 46.344-0.35496 0.19246-0.22598 0.38518-0.12898 0.32076v0.77009l0.16123 0.16064 0.096999-0.38518s0.096737-0.096229 0.12898-0.25661c0.032246-0.16064 0.064491-0.32102 0.064491-0.32102l0.16123-0.32076 0.12924-0.19272-0.032246-0.35284" fill="#FFFFFE"/>
<path d="m55.865 43.809-0.22572 0.16064 0.12924 0.19246 0.12898 0.16038s-0.032508 0.19246 0 0.38518c0.032246 0.19246 0.032246 0.38492 0.032246 0.38492l0.22572-0.28869v-0.64179l-0.096737-0.2248-0.19374-0.12831" fill="#FFFFFE"/>
<path d="m49.445 38.77-0.29021 0.032076-0.16149 0.12831v0.25687c0 0.16038-0.064229 0.32102-0.064229 0.32102l-0.12924 0.35284 0.25823 0.16038c0.12898-0.22453 0.064491-0.16038 0.16123-0.35284 0.096737-0.19246 0.19347-0.32102 0.19347-0.32102l0.032246-0.16038v-0.41725" fill="#FFFFFE"/>
<path d="m40.961 37.326-0.16149-0.095968s-0.22572 0-0.19347 0.16038c0.032246 0.16038 0 0.064153 0.064491 0.32102 0.064491 0.25661 0.25797 0.41699 0.25797 0.41699l0.41946 0.54556 0.58068 0.41725 0.51619 0.51348s0.16123 0.19246 0.38721 0.32076c0.22572 0.12857 0.38695 0.25687 0.54844 0.3531 0.16123 0.096229 0.25797 0.16038 0.41946 0.28895 0.16123 0.12831 0.096475 0.096229 0.32246 0.22453 0.22572 0.12831 0.38695 0.22453 0.38695 0.22453s0.32298 0 0.12924-0.16038c-0.19347-0.16038-0.12924-0.16038-0.32272-0.32102-0.19347-0.16038-0.25797-0.25661-0.45144-0.41699-0.19374-0.16064-0.32272-0.22453-0.48395-0.38518-0.16149-0.16038-0.16149-0.16038-0.32272-0.32102-0.16123-0.16038-0.32246-0.28869-0.4517-0.44933-0.12898-0.16038-0.19347-0.19246-0.3547-0.38492-0.16149-0.19246-0.19374-0.19246-0.38721-0.38518-0.19347-0.19246-0.41946-0.38492-0.41946-0.38492l-0.48368-0.48167" fill="#FFFFFE"/>
<path d="m46.348 29.664s-0.056364 0.032076-0.080483 0.035988c-0.024119 0.0041725-0.084415 0.024253-0.084415 0.024253s-0.032508 0.0039117-0.044567 0.035988c-0.012059 0.032337-0.028051 0.03651-0.012059 0.072498 0.016254 0.036249 0.012059 0.068325 0.060559 0.072498 0.048237 0.003651 0.048237 0.015908 0.084415 0.015908h0.076551c0.056364 0 0.068686 0.0080843 0.092805-0.015908 0.024119-0.024253 0.020186-0.020341 0.040373-0.052417 0.019924-0.032076 0.048237-0.060241 0.048237-0.060241l-0.012059-0.064414-0.036178-0.032076-0.064491-0.02008-0.068686-0.011996" fill="#FFFFFE"/>
<path d="m46.154 28.284s-0.056364 0.032076-0.080483 0.035988c-0.024381 0.0041725-0.084678 0.023992-0.084678 0.023992s-0.032508 0.0039117-0.044305 0.036249c-0.012322 0.032337-0.028313 0.036249-0.012322 0.072237 0.016254 0.036249 0.012322 0.068586 0.060559 0.072498 0.0485 0.0039118 0.0485 0.015908 0.084678 0.015908h0.076551c0.056364 0 0.068424 0.0083451 0.092542-0.015908 0.024381-0.024253 0.020186-0.02008 0.040373-0.052157 0.020186-0.032337 0.048237-0.060241 0.048237-0.060241l-0.011797-0.064674-0.03644-0.031816-0.064491-0.020341-0.068424-0.011735" fill="#FFFFFE"/>
<path d="m49.653 17.446s-0.034081 0.019298-0.048762 0.021906c-0.014419 0.002347-0.050859 0.014604-0.050859 0.014604s-0.0194 0.0023471-0.02674 0.021645c-0.0070783 0.019298-0.016778 0.021906-0.0070783 0.043551 0.0094377 0.021906 0.0070783 0.041464 0.036178 0.043812 0.029362 0.0020863 0.029362 0.009649 0.051121 0.009649h0.04614c0.034343 0 0.041159 0.0046941 0.05584-0.009649 0.014681-0.014604 0.011797-0.012257 0.024381-0.031555 0.012059-0.019298 0.0291-0.03651 0.0291-0.03651l-0.0073405-0.038596-0.021759-0.019559-0.039062-0.011996-0.041159-0.0073019" fill="#FFFFFE"/>
<path d="m49.767 18.054s-0.057675 0.032598-0.082318 0.03677c-0.024643 0.0044333-0.086513 0.024774-0.086513 0.024774s-0.033294 0.0041726-0.045354 0.037031c-0.012322 0.032859-0.028838 0.037031-0.012322 0.074062 0.016516 0.037031 0.012322 0.06989 0.061608 0.074062 0.049548 0.0039118 0.04981 0.016169 0.086775 0.016169h0.078124c0.057937 0 0.070259 0.0083451 0.094902-0.016169 0.024643-0.024774 0.020711-0.020602 0.041159-0.053721 0.020711-0.032598 0.049548-0.061545 0.049548-0.061545l-0.012322-0.065717-0.037227-0.03312-0.065802-0.020341-0.070259-0.012257" fill="#FFFFFE"/>
<path d="m49.746 18.675s-0.057675 0.032598-0.082318 0.03677c-0.024643 0.0044333-0.086513 0.024774-0.086513 0.024774s-0.033032 0.0041725-0.045616 0.037031c-0.012059 0.032859-0.028575 0.037292-0.012059 0.073802 0.016254 0.037292 0.012059 0.070151 0.061608 0.074062 0.049548 0.0041725 0.04981 0.01669 0.086775 0.01669h0.078124c0.057937 0 0.070259 0.0083451 0.094902-0.01669 0.024643-0.024514 0.020711-0.020341 0.041421-0.0532 0.020448-0.032859 0.049286-0.061806 0.049286-0.061806l-0.012584-0.065717-0.036702-0.03312-0.066064-0.020341-0.070259-0.012257" fill="#FFFFFE"/>
<path d="m49.663 19.213s-0.057675 0.032598-0.082318 0.03651c-0.024905 0.0044333-0.086775 0.025035-0.086775 0.025035s-0.033032 0.0039118-0.045354 0.03677c-0.012059 0.032859-0.028575 0.037031-0.012059 0.074062 0.016254 0.037292 0.012059 0.070151 0.061608 0.074062 0.049548 0.0041726 0.049548 0.016429 0.086775 0.016429h0.078124c0.057675 0 0.070259 0.0080843 0.094902-0.016429 0.024643-0.024774 0.020448-0.020602 0.041159-0.053461 0.020711-0.032859 0.049548-0.061806 0.049548-0.061806l-0.012584-0.065717-0.036964-0.032859-0.065802-0.020602-0.070259-0.011996" fill="#FFFFFE"/>
<path d="m49.653 19.88s-0.08258 0.046941-0.11797 0.052939c-0.035129 0.005998-0.12348 0.035206-0.12348 0.035206s-0.047451 0.005998-0.065016 0.052939-0.041159 0.052939-0.017565 0.10588c0.023594 0.052678 0.017565 0.09988 0.088348 0.10588 0.070521 0.0057372 0.070783 0.02347 0.12374 0.02347h0.11194c0.08258 0 0.10014 0.011735 0.13554-0.02347 0.035392-0.035467 0.029624-0.029469 0.058986-0.07667 0.029362-0.046941 0.070783-0.088145 0.070783-0.088145l-0.017827-0.093882-0.052956-0.047202-0.094378-0.029208-0.10014-0.017733" fill="#FFFFFE"/>
<path d="m49.653 20.605s-0.08258 0.046941-0.11797 0.052939c-0.035129 0.005998-0.12348 0.035206-0.12348 0.035206s-0.047451 0.005998-0.065016 0.052939-0.041159 0.052939-0.017565 0.10562c0.023594 0.052939 0.017565 0.10014 0.088348 0.10588 0.070521 0.0057373 0.070783 0.02347 0.12374 0.02347h0.11194c0.08258 0 0.10014 0.011996 0.13554-0.02347 0.035392-0.035206 0.029624-0.029208 0.058986-0.07641 0.029362-0.046941 0.070783-0.088145 0.070783-0.088145l-0.017827-0.093882-0.052956-0.047202-0.094378-0.029468-0.10014-0.017472" fill="#FFFFFE"/>
<path d="m49.59 21.35s-0.08258 0.046941-0.11797 0.052939c-0.035129 0.0057372-0.12374 0.035206-0.12374 0.035206s-0.047189 0.0057373-0.064754 0.052939c-0.017827 0.046941-0.041421 0.052939-0.017827 0.10588 0.023594 0.052678 0.017827 0.09988 0.08861 0.10588 0.070783 0.0057372 0.070783 0.02321 0.12374 0.02321h0.11194c0.082318 0 0.10014 0.011996 0.13554-0.02321 0.035392-0.035467 0.029362-0.029468 0.058986-0.07667 0.029362-0.046941 0.070783-0.088145 0.070783-0.088145l-0.017827-0.094143-0.052956-0.046941-0.094378-0.029208-0.10014-0.017733" fill="#FFFFFE"/>
<path d="m49.57 21.93s-0.08258 0.046941-0.11797 0.052678c-0.035392 0.005998-0.12374 0.035466-0.12374 0.035466s-0.047451 0.0057372-0.065016 0.052678c-0.017565 0.047202-0.041159 0.052939-0.017565 0.10588 0.023594 0.052939 0.017565 0.10014 0.088348 0.10588 0.070783 0.0057372 0.070783 0.02347 0.124 0.02347h0.11194c0.082318 0 0.099883 0.011735 0.13527-0.02347 0.035392-0.035467 0.029624-0.029468 0.058986-0.07641 0.029362-0.047202 0.070783-0.088145 0.070783-0.088145l-0.017827-0.094143-0.052956-0.046941-0.094378-0.029468-0.099883-0.017472" fill="#FFFFFE"/>
<path d="m48.251 26.936s-0.056364 0.032076-0.080745 0.035988c-0.024119 0.0041726-0.084416 0.024253-0.084416 0.024253s-0.032508 0.0039117-0.044567 0.036249c-0.012059 0.032076-0.028051 0.036249-0.012059 0.072237 0.016254 0.036249 0.012059 0.068325 0.060559 0.072498 0.048237 0.0036509 0.0485 0.015908 0.084678 0.015908h0.076551c0.056364 0 0.068424 0.0080843 0.092542-0.015908 0.024119-0.024253 0.020186-0.02008 0.040373-0.052418 0.019924-0.032076 0.048237-0.060241 0.048237-0.060241l-0.012059-0.064414-0.036178-0.032076-0.064491-0.02008-0.068424-0.011996" fill="#FFFFFE"/>
<path d="m48.479 26.377s-0.056364 0.032076-0.080483 0.036249c-0.024119 0.0039117-0.084678 0.023992-0.084678 0.023992s-0.032246 0.0039117-0.044305 0.036249c-0.012322 0.032337-0.028313 0.036249-0.012322 0.072237 0.016254 0.036249 0.012322 0.068586 0.060559 0.072498 0.0485 0.0039118 0.0485 0.015908 0.084678 0.015908h0.076551c0.056364 0 0.068424 0.0080843 0.092804-0.015908 0.024119-0.024253 0.019924-0.02008 0.04011-0.052417 0.020186-0.032076 0.048237-0.05998 0.048237-0.05998l-0.011797-0.064674-0.03644-0.032076-0.064491-0.02008-0.068424-0.011996" fill="#FFFFFE"/>
<path d="m48.687 25.653s-0.056626 0.032076-0.080745 0.035988c-0.024119 0.0044334-0.084416 0.024253-0.084416 0.024253s-0.032508 0.0039117-0.044567 0.036249c-0.012059 0.032076-0.028051 0.036249-0.012059 0.072237 0.016254 0.036249 0.012059 0.068586 0.060559 0.072498 0.0485 0.0036509 0.0485 0.015908 0.084678 0.015908h0.076551c0.056364 0 0.068424 0.008345 0.092542-0.015908 0.024381-0.024253 0.020448-0.02008 0.040373-0.052418 0.019924-0.032076 0.048237-0.060241 0.048237-0.060241l-0.012059-0.064414-0.036178-0.032076-0.064491-0.02008-0.068424-0.011996" fill="#FFFFFE"/>
<path d="m48.874 24.99s-0.056626 0.032076-0.080745 0.036249c-0.024381 0.0039118-0.084678 0.024253-0.084678 0.024253s-0.032246 0.0039117-0.044305 0.035988c-0.012059 0.032337-0.028051 0.036249-0.012059 0.072237 0.016254 0.03651 0.012059 0.068586 0.060559 0.072498 0.048237 0.0039117 0.048237 0.015908 0.084416 0.015908h0.076813c0.056364 0 0.068162 0.0080843 0.092542-0.015908 0.024119-0.024253 0.020186-0.02008 0.040373-0.052157 0.019924-0.032337 0.048237-0.060241 0.048237-0.060241l-0.012059-0.064414-0.036178-0.032337-0.064754-0.01982-0.068162-0.012257" fill="#FFFFFE"/>
<path d="m49.113 24.144s-0.082318 0.046941-0.11771 0.052939c-0.035392 0.0057373-0.12374 0.035206-0.12374 0.035206s-0.047189 0.0057372-0.064754 0.052939c-0.017827 0.046941-0.041421 0.052939-0.017827 0.10562 0.023594 0.052939 0.017827 0.10014 0.08861 0.10588 0.070783 0.005998 0.070783 0.02347 0.12374 0.02347h0.11168c0.08258 0 0.10041 0.011996 0.1358-0.02347 0.035392-0.035206 0.029362-0.029208 0.058986-0.07641 0.029362-0.047202 0.070783-0.088145 0.070783-0.088145l-0.017827-0.094143-0.052956-0.046941-0.094378-0.029468-0.10041-0.017472" fill="#FFFFFE"/>
<path d="m49.279 23.337s-0.08258 0.04668-0.11797 0.052678c-0.035392 0.0059981-0.12374 0.035467-0.12374 0.035467s-0.047451 0.0057372-0.065016 0.052939c-0.017565 0.046941-0.041159 0.052939-0.017565 0.10562 0.023594 0.052939 0.017565 0.10014 0.088348 0.10588 0.070783 0.0057373 0.071045 0.023471 0.124 0.023471h0.11194c0.08258 0 0.10014 0.011735 0.13554-0.023471 0.035392-0.035466 0.029362-0.029468 0.058986-0.07641 0.029362-0.046941 0.070521-0.088145 0.070521-0.088145l-0.017565-0.094143-0.052956-0.047202-0.094378-0.029208-0.10014-0.017472" fill="#FFFFFE"/>
<path d="m49.57 22.675s-0.08258 0.046941-0.11797 0.052939c-0.035392 0.005998-0.12374 0.035206-0.12374 0.035206s-0.047451 0.0057372-0.065016 0.052939c-0.017565 0.046941-0.041159 0.052939-0.017565 0.10562 0.023594 0.052939 0.017565 0.10014 0.088348 0.10588 0.070783 0.0057373 0.070783 0.02347 0.124 0.02347h0.11194c0.082318 0 0.099883 0.011996 0.13527-0.02347 0.035392-0.035206 0.029624-0.029208 0.058986-0.07641 0.029362-0.046941 0.070783-0.088145 0.070783-0.088145l-0.017827-0.094143-0.052956-0.046941-0.094378-0.029468-0.099883-0.017472" fill="#FFFFFE"/>
<path d="m47.252 31.229-0.25823 0.096229-0.064491 0.28895 0.096737 0.28869s0.096737 0.38518 0.12898 0.54556c0.032246 0.16038 0.032246 0.19246 0.096999 0.35284 0.064491 0.16064 0.032246 0.032337 0.16123 0.35336 0.12898 0.32076 0.16123 0.35284 0.22572 0.5453 0.064754 0.19272 0.12924 0.19272 0.19347 0.3531 0.064754 0.16038 0.25823 0.3531 0.25823 0.3531l0.19347 0.25661s0.032508 0.064153 0.29047 0.22453 0.19374 0.12857 0.38721 0.2248c0.19347 0.096229 0.29021 0.22453 0.29021 0.22453l0.16123 0.12831 0.22598 0.064414s-0.22598-0.16064-0.32272-0.32102c-0.096737-0.16064-0.064491-0.12831-0.19347-0.3531-0.12924-0.22453-0.096999-0.19246-0.22598-0.38492-0.12872-0.19272-0.22572-0.2248-0.3547-0.44933-0.12924-0.2248-0.19347-0.2248-0.25823-0.44933-0.064491-0.22453-0.096737-0.22453-0.19347-0.41699-0.096737-0.19272-0.096737-0.2248-0.19347-0.41725-0.096999-0.19246-0.16123-0.19246-0.19347-0.38518-0.032508-0.19246-0.032508-0.096229-0.064754-0.25661-0.032246-0.16064-0.096737-0.3531-0.096737-0.3531l-0.12898-0.25661-0.16123-0.25687" fill="#FFFFFE"/>
<path d="m37.154 29.175-0.22598 0.19272-0.16123 0.16038-0.096737 0.22453-0.032246 0.2248-0.096737 0.22453s-0.064753 0.064414-0.12924 0.2248c-0.064229 0.16038-0.096737 0.25661-0.096737 0.25661l-0.25797 0.32076-0.096737 0.19272 0.16123 0.22453 0.25823-0.064153 0.16123-0.19246 0.19347-0.25687 0.032246-0.22453 0.12898-0.22453 0.16149-0.2248 0.16123-0.25661 0.064491-0.28895-0.064491-0.28869-0.064491-0.2248" fill="#FFFFFE"/>
<polyline points="45.026 28.951 44.768 28.919 44.574 29.175 44.671 29.368 44.897 29.432 45.155 29.528 45.284 29.368 45.284 29.175 45.026 28.951" fill="#FFFFFE"/>
<path d="m43.768 27.282-0.41946-0.032076s-0.16123-0.096229-0.41946-0.12831c-0.25823-0.032337-0.48395-0.09649-0.64518-0.09649-0.16123 0-0.22598 0-0.41946 0.032076s-0.29021 0.09649-0.4517 0.09649c-0.16123 0-0.29021 0.096229-0.29021 0.096229l-0.25823 0.032076v-0.16038l0.29047-0.2248 0.45144-0.12831 0.5487-0.064153s0.22572-0.096229 0.41946-0.096229c0.19347 0 0.29021 0.064153 0.45144 0.096229 0.16149 0.032076 0.32272 0.096229 0.32272 0.096229l0.19347 0.096229 0.22598 0.38518" fill="#FFFFFE"/>
<polyline points="45.961 20.832 45.607 20.863 45.445 21.12 45.155 21.506 44.961 21.827 44.671 22.211 44.445 22.661 44.284 23.046 44.058 23.495 43.929 23.816 43.671 24.137 43.445 24.49 43.51 24.714 43.8 24.522 44.252 24.105 44.606 23.527 45.09 22.982 45.51 22.308 45.832 21.57 45.929 21.184 45.961 20.832" fill="#FFFFFE"/>
<path d="m48.607 13.836 0.29021 0.032076c0 0.16064-0.16123 0.22453-0.16123 0.22453l-0.16123-0.063892s0-0.19272 0.032246-0.19272" fill="#FFFFFE"/>
<polyline points="48.51 13.098 48.187 13.098 48.252 13.322 48.51 13.322 48.671 13.258 48.51 13.098" fill="#FFFFFE"/>
<polyline points="44.542 15.023 44.348 14.927 44.09 14.927 43.671 15.055 43.606 15.28 43.865 15.536 44.155 15.729 44.509 15.89 44.8 15.922 44.897 15.729 44.865 15.44 44.735 15.216 44.542 15.023" fill="#FFFFFE"/>
<path d="m48.962 15.601-0.22598-0.12831-0.16123 0.096229-0.096737 0.22453-0.12898 0.32102s-0.25823 0.16064-0.064753 0.19272c0.19374 0.032076 0.32272 0.032076 0.32272 0.032076l0.22572-0.064153s0.032246-0.09649 0.25823-0.12857c0.22572-0.032076 0.19347-0.032076 0.3547-0.064153 0.16149-0.032076 0.25823-0.22453 0.25823-0.22453h-0.29047l-0.22572 0.032076-0.16149-0.032076-0.064229-0.25687" fill="#FFFFFE"/>
<path d="m47.026 18.296-0.25797 0.096229-0.19374 0.12857-0.22572 0.22453-0.16123 0.096229-0.32272 0.064153-0.22572 0.064153s-0.032246 0.19272 0.22572 0.19272 0.64518-0.032076 0.64518-0.032076l0.22598-0.25687 0.29021-0.064153 0.12898-0.38518-0.12898-0.12831" fill="#FFFFFE"/>
<path d="m46.316 17.59-0.22572 0.12831-0.12924 0.19272-0.12898 0.16038-0.16123 0.12831s-0.22572 0.12831-0.064491 0.16038c0.16123 0.032076 0.41919 0 0.41919 0l0.35496-0.28869c0.096737-0.2248 0.096737-0.28895 0.096737-0.28895l-0.16123-0.19246" fill="#FFFFFE"/>
<polyline points="45.058 17.334 43.865 18.136 44.671 18.039 44.961 17.462 45.058 17.334" fill="#FFFFFE"/>
<path d="m40.929 17.494h-0.16123l0.064491 0.19246 0.16123 0.064153c0.064754-0.19246-0.064491-0.25661-0.064491-0.25661" fill="#FFFFFE"/>
<path d="m40.09 16.499-0.19347 0.096229v0.16038l0.19347 0.096229c0.096737-0.16038 0-0.35284 0-0.35284" fill="#FFFFFE"/>
<polyline points="39.187 16.499 38.896 16.563 38.767 16.788 38.735 17.013 38.8 17.237 39.025 17.141 39.284 17.013 39.477 16.852 39.477 16.692 39.38 16.531 39.187 16.499" fill="#FFFFFE"/>
<path d="m42.8 14.798-0.32272 0.096229s-0.22572 0.12831-0.41946 0.16064c-0.19347 0.031816-0.4517 0.12804-0.4517 0.12804s-0.096475 0.064414-0.29021 0.16064c-0.19347 0.096229-0.54844 0.064153-0.3547 0.19246 0.19347 0.12857 0.3547 0.096229 0.3547 0.096229l0.38721-0.064153s0.19347-0.032076 0.3547-0.096229c0.16123-0.064153 0.41946-0.12831 0.41946-0.12831l0.22598-0.096229 0.096737-0.44933" fill="#FFFFFE"/>
<polyline points="45.252 14.157 45.09 14.253 45.09 14.446 45.316 14.381 45.542 14.221 45.542 14.06 45.252 14.157" fill="#FFFFFE"/>
</g>
</g>
</g>
</svg>
