<?xml version="1.0" encoding="UTF-8"?>
<svg version="1.1" viewBox="0 0 120 61" xmlns="http://www.w3.org/2000/svg">
<title>bugatti-logo-vector</title>
<desc>Created with Sketch.</desc>
<g fill="none" fill-rule="evenodd">
<g transform="translate(0)">
<path d="m59.93 60.223c-33.24 0-59.032-13.516-59.032-29.516 0-16.137 25.792-29.654 59.032-29.654 33.101 0 59.031 13.517 59.031 29.654 0 16-25.93 29.516-59.031 29.516" fill="#AB2534"/>
<path d="m115.65 24.914c-0.6903 0.27604-1.1042 0.96594-0.82772 1.6554 0.13743 0.82772 0.96515 1.1034 1.655 0.96515 0.82693-0.27564 1.1034-1.1034 0.96554-1.7929-0.27604-0.6895-1.1038-1.1034-1.7929-0.82772zm-2.4832-3.8618c-0.55168 0.41386-0.82772 1.2416-0.27604 1.9311 0.41386 0.55168 1.2416 0.6895 1.9315 0.27604 0.55129-0.41386 0.68911-1.2416 0.27525-1.9311-0.41307-0.55168-1.2408-0.6899-1.9307-0.27604zm-3.1723-3.3101c-0.41386 0.55168-0.41386 1.3794 0 1.9311 0.55168 0.55129 1.5168 0.55129 2.0693 0 0.41386-0.55168 0.41386-1.3794 0-1.9311-0.55248-0.55168-1.5176-0.55168-2.0693 0zm-3.5857-2.7584c-0.41386 0.55168-0.27644 1.379 0.41346 1.9311 0.55168 0.41347 1.3794 0.27564 1.7933-0.41386 0.55129-0.55168 0.41386-1.379-0.27604-1.9311-0.55168-0.41386-1.3794-0.27564-1.9307 0.41386zm-3.8622-2.4824c-0.41386 0.6895-0.13782 1.5172 0.55208 1.9307 0.55168 0.41347 1.5168 0.13782 1.7929-0.55168 0.41307-0.55168 0.27564-1.379-0.41346-1.7929-0.6903-0.41386-1.5176-0.27604-1.9315 0.41386zm-4-2.0689c-0.41386 0.6895-0.13782 1.5168 0.55248 1.9307 0.68911 0.27564 1.5168 0 1.9307-0.6895 0.27525-0.6899 0-1.5172-0.6903-1.7933-0.68911-0.41386-1.5168-0.13743-1.7929 0.55208zm-4.2752-1.6554c-0.27604 0.6895 0.13782 1.5172 0.82772 1.7929 0.68911 0.27604 1.5168-0.13743 1.7929-0.82693 0.27564-0.6903-0.13822-1.5172-0.82772-1.7937-0.6899-0.27564-1.5176 0.13822-1.7929 0.82772zm-4.276-1.5172c-0.27525 0.6895 0.13782 1.5172 0.82772 1.7929 0.82772 0.13822 1.5168-0.13743 1.7929-0.96515 0.27644-0.6895-0.13743-1.5172-0.82733-1.655-0.82772-0.27604-1.5172 0.13782-1.7933 0.82733zm-4.4135-1.2412c-0.13782 0.82772 0.27604 1.5172 0.96594 1.655 0.82693 0.27564 1.5168-0.13782 1.7925-0.96554 0.13822-0.6895-0.27564-1.379-1.1034-1.6547-0.6899-0.13822-1.379 0.27564-1.655 0.96515zm-4.4139-0.96515c-0.13782 0.6895 0.27604 1.5168 1.1038 1.6547 0.68911 0.13822 1.3794-0.27564 1.6554-1.1034 0.13782-0.6895-0.41386-1.379-1.1038-1.6547-0.82772-0.13822-1.5168 0.41347-1.6554 1.1034zm-4.5513-0.82772c0 0.82772 0.41386 1.5172 1.2416 1.655 0.6899 0.13782 1.379-0.41386 1.5168-1.1034 0.13822-0.82733-0.41386-1.5176-1.103-1.655-0.82772-0.13822-1.5168 0.41386-1.6554 1.1034zm-4.4139-0.55208c-0.13743 0.82772 0.41386 1.5176 1.1042 1.5176 0.82733 0.13782 1.5168-0.41386 1.655-1.1038 0-0.82772-0.55208-1.5172-1.2416-1.5172-0.82733-0.13743-1.5176 0.41386-1.5176 1.1034zm-4.5513-0.41386c-0.13743 0.82772 0.55168 1.5176 1.2416 1.5176 0.82772 0.13782 1.379-0.55168 1.5168-1.2412 0-0.82772-0.55129-1.3794-1.2408-1.5172-0.82772 0-1.5176 0.55129-1.5176 1.2408zm-4.5513-0.13743c0 0.6895 0.55168 1.379 1.379 1.379 0.6903 0 1.3794-0.55129 1.3794-1.2416 0-0.82693-0.55168-1.5168-1.3794-1.5168-0.68911 0-1.379 0.55168-1.379 1.3794zm-4.5513 0c0 0.6895 0.55129 1.379 1.379 1.379 0.6895 0 1.3794-0.6895 1.3794-1.379 0-0.82772-0.6899-1.3794-1.3794-1.3794-0.82772 0-1.379 0.55168-1.379 1.3794zm7.3097 54.893c0-0.6895-0.68911-1.2412-1.3794-1.2412-0.82733 0-1.379 0.6899-1.379 1.379 0 0.82772 0.6899 1.3794 1.379 1.3794 0.82772 0 1.3794-0.6895 1.3794-1.5172zm4.5513-0.27564c-0.13782-0.6895-0.68911-1.2416-1.5168-1.2416-0.6899 0-1.379 0.6895-1.2416 1.5172 0 0.6895 0.6899 1.2416 1.5176 1.2416 0.6895-0.13822 1.2408-0.6899 1.2408-1.5172zm4.5521-0.55208c-0.13822-0.6895-0.82772-1.2408-1.655-1.103-0.6903 0-1.2416 0.6895-1.1042 1.5168 0 0.6899 0.6903 1.2416 1.5176 1.2416 0.6895-0.13822 1.2416-0.82772 1.2416-1.6554zm4.4131-0.6895c-0.13782-0.6895-0.82693-1.2412-1.5168-1.1034-0.82772 0.13822-1.2416 0.82772-1.2416 1.6554 0.13861 0.6895 0.82772 1.2412 1.6554 1.103 0.68911-0.13782 1.2412-0.82733 1.103-1.655zm4.5521-0.82733c-0.27604-0.82733-0.96634-1.2412-1.6554-1.1038-0.82772 0.13822-1.2416 0.96594-1.1038 1.6554 0.13861 0.6895 0.82772 1.2416 1.6554 1.1034 0.6899-0.13822 1.2416-0.96554 1.1038-1.655zm4.4131-1.1038c-0.27564-0.82733-0.96554-1.2412-1.7925-0.96515-0.6899 0.13782-1.1038 0.96515-0.96594 1.655 0.27604 0.6899 0.96594 1.1034 1.655 0.96554 0.82772-0.27604 1.2416-0.96554 1.1034-1.6554zm4.2756-1.379c-0.27604-0.68911-0.96515-1.103-1.7929-0.96554-0.6899 0.27644-1.103 1.1034-0.82772 1.7933 0.27604 0.6895 0.96554 1.1034 1.7933 0.82772 0.6899-0.13822 1.1038-0.96554 0.82733-1.6554zm4.276-1.655c-0.27604-0.6895-1.1038-1.1034-1.7929-0.82733-0.6899 0.27564-1.1038 1.103-0.82772 1.7933 0.27525 0.68911 1.103 1.103 1.7929 0.82693 0.6895-0.27564 1.1034-1.1034 0.82772-1.7929zm4.1378-1.9311c-0.41386-0.6895-1.2416-0.96515-1.9307-0.6895-0.6903 0.41386-0.96634 1.2416-0.55248 1.9311 0.27604 0.6895 1.1038 0.96515 1.7929 0.55129 0.6903-0.27564 0.96634-1.103 0.6903-1.7929zm3.8618-2.2067c-0.27604-0.6895-1.2412-0.96554-1.7929-0.55168-0.6899 0.41386-0.96594 1.2416-0.55208 1.9307 0.41386 0.6899 1.2412 0.82772 1.9315 0.41386 0.68911-0.27564 0.82733-1.2412 0.41346-1.7929zm3.724-2.6206c-0.41386-0.6895-1.2416-0.82733-1.7933-0.41347-0.6899 0.55129-0.82733 1.379-0.41346 1.9311 0.55129 0.68911 1.379 0.82733 1.9307 0.41347 0.6899-0.55168 0.82733-1.3794 0.27604-1.9311zm3.4483-3.1723c-0.55248-0.55168-1.5176-0.55168-2.0693 0-0.41386 0.55168-0.41386 1.379 0 1.9311 0.55168 0.55168 1.5168 0.55168 2.0693 0 0.41386-0.55208 0.41386-1.3794 0-1.9311zm2.7584-3.5861c-0.6899-0.41386-1.5176-0.27564-1.9315 0.27644-0.55168 0.6895-0.27564 1.5168 0.27604 1.9303 0.6899 0.41386 1.5176 0.27644 1.9307-0.27564 0.41386-0.6895 0.27604-1.5172-0.27525-1.9311zm1.655-4.2756c-0.6899-0.13782-1.5176 0.13822-1.655 0.96594-0.27644 0.68911 0.13743 1.5168 0.82772 1.655 0.68911 0.27564 1.5168-0.13822 1.7929-0.82772 0.13782-0.6895-0.13861-1.5172-0.96554-1.7933zm0.41307-4.4131c-0.68911-0.13822-1.379 0.55129-1.379 1.2412 0 0.82693 0.55208 1.379 1.379 1.5172 0.6903 0 1.3802-0.6903 1.3802-1.3794 0-0.82772-0.55248-1.379-1.3802-1.379zm-113.93 2.7584c0.82772-0.13822 1.3794-0.6903 1.3794-1.5172 0-0.6899-0.6899-1.3794-1.5172-1.2412-0.6899 0-1.2412 0.55129-1.2412 1.379 0 0.68911 0.6895 1.3794 1.379 1.3794zm1.2416 4.2756c0.6895-0.13822 1.1034-0.96594 0.82733-1.655-0.27564-0.82772-0.96554-1.1038-1.7929-0.96594-0.6899 0.27604-1.1038 1.1038-0.82772 1.7933 0.27604 0.6895 1.1038 1.1034 1.7933 0.82772zm2.4828 3.8614c0.55129-0.41347 0.6895-1.2408 0.27564-1.9303-0.41386-0.55208-1.2416-0.6903-1.9311-0.27644-0.55168 0.41386-0.6895 1.2416-0.27564 1.9311 0.41386 0.55208 1.2412 0.6895 1.9311 0.27564zm3.0341 3.3105c0.55168-0.55208 0.55168-1.3794 0-1.9311-0.55168-0.55168-1.3794-0.55168-1.9307 0-0.55208 0.55168-0.55208 1.379 0 1.9311 0.55129 0.55168 1.379 0.55168 1.9307 0zm3.5857 2.7588c0.55208-0.55208 0.41386-1.3798-0.27564-1.9311-0.55129-0.41386-1.379-0.27604-1.9311 0.41347-0.41347 0.55168-0.27564 1.3794 0.27604 1.9311 0.6899 0.41386 1.5172 0.27564 1.9307-0.41347zm3.8622 2.482c0.41386-0.68911 0.27604-1.5168-0.41386-1.9307-0.6895-0.41386-1.5172-0.13782-1.9311 0.55168-0.41347 0.55168-0.13743 1.5172 0.55208 1.7929 0.55168 0.41386 1.5168 0.27604 1.7929-0.41386zm4.1378 2.0693c0.27564-0.6895 0-1.5172-0.6899-1.9311-0.6895-0.27564-1.5172 0-1.7929 0.6895-0.27564 0.6899 0 1.5172 0.6895 1.7929 0.55208 0.41386 1.3794 0.13822 1.7933-0.55129zm4.1378 1.6554c0.27564-0.6903 0-1.5176-0.6895-1.7933-0.6899-0.27604-1.5172 0.13782-1.7933 0.82733-0.27604 0.6895 0 1.5172 0.82733 1.7929 0.6895 0.27604 1.3794-0.13782 1.6554-0.82693zm4.4131 1.5168c0.13822-0.6899-0.13743-1.5168-0.96515-1.7933-0.6895-0.13743-1.5172 0.27644-1.655 0.96554-0.27564 0.6899 0.13782 1.5172 0.82733 1.6554 0.6899 0.27564 1.5172-0.13822 1.7929-0.82772zm4.276 1.2412c0.27604-0.6899-0.13782-1.5172-0.96554-1.655-0.6895-0.27604-1.3794 0.13782-1.655 0.96515-0.13822 0.6899 0.27564 1.3794 0.96554 1.6554 0.82733 0.13782 1.5172-0.27604 1.655-0.96554zm4.5513 0.96554c0.13822-0.6895-0.41347-1.5172-1.1034-1.6554-0.6895-0.13743-1.5172 0.27644-1.6547 1.1038-0.13822 0.6895 0.27564 1.5168 1.1034 1.655 0.6895 0.13822 1.5168-0.41386 1.6547-1.1034zm4.4139 0.82772c0.13782-0.82772-0.41386-1.5172-1.1034-1.6554-0.82772-0.13782-1.5172 0.41386-1.5172 1.1034-0.13782 0.82772 0.27564 1.5172 1.1034 1.655 0.6895 0.13822 1.379-0.41347 1.5172-1.103zm4.5513 0.55129c0.13822-0.82733-0.41386-1.5172-1.2412-1.5172-0.6895-0.13782-1.379 0.41386-1.5172 1.1034-0.13782 0.82772 0.41386 1.5172 1.2412 1.6554 0.6899 0 1.3798-0.55168 1.5172-1.2416zm4.5517 0.41386c0-0.82772-0.55168-1.5172-1.2412-1.5172-0.82772 0-1.5172 0.55208-1.5172 1.2416 0 0.82733 0.55168 1.379 1.2412 1.5172 0.82772 0 1.3794-0.55208 1.5172-1.2416zm4.5517 0.13782c0-0.68911-0.55168-1.379-1.3794-1.379-0.6895 0-1.379 0.55168-1.379 1.2412 0 0.82772 0.55129 1.5172 1.379 1.5172 0.6895 0 1.3794-0.55168 1.3794-1.3794zm4.5513 0c0-0.68911-0.6899-1.379-1.3794-1.379-0.82733 0-1.379 0.6899-1.379 1.379 0 0.82772 0.55168 1.3794 1.379 1.3794 0.6895 0 1.3794-0.55168 1.3794-1.3794zm-57.101-33.24c-0.6895-0.27564-1.5168 0.13782-1.7929 0.82772-0.27604 0.6895 0.13782 1.5168 0.82772 1.7929 0.82733 0.13782 1.5172-0.13782 1.7929-0.96554 0.27564-0.6895-0.13782-1.379-0.82772-1.655zm2.4832-3.8622c-0.6903-0.41347-1.5172-0.27564-1.9311 0.27644-0.41386 0.6895-0.27604 1.5172 0.27564 1.9307 0.6895 0.41347 1.5172 0.27604 1.9311-0.27604 0.41386-0.6895 0.27564-1.5172-0.27564-1.9311zm3.0341-3.3097c-0.55168-0.55208-1.3794-0.55208-1.9311 0-0.55168 0.55129-0.55168 1.379 0 1.9307 0.55168 0.55168 1.3794 0.55168 1.9311 0 0.55168-0.55168 0.55168-1.3794 0-1.9307zm3.5857-2.7588c-0.41386-0.6895-1.2408-0.82733-1.9307-0.41347-0.55168 0.55168-0.6899 1.3794-0.27604 1.9307 0.55208 0.6895 1.3794 0.82772 1.9311 0.41386 0.6895-0.55168 0.82772-1.379 0.27564-1.9311zm3.8618-2.4828c-0.27564-0.6895-1.2408-0.82733-1.7929-0.41347-0.6895 0.41347-0.96515 1.2412-0.55168 1.7929 0.41386 0.6899 1.2416 0.96554 1.9311 0.55208 0.6899-0.41386 0.82733-1.2416 0.41347-1.9315zm4.1382-2.0685c-0.41386-0.6895-1.2416-0.96554-1.7933-0.55208-0.6895 0.27644-0.96515 1.1038-0.6895 1.7933 0.27564 0.6899 1.1034 0.96554 1.7929 0.6899 0.6899-0.41386 0.96554-1.2416 0.6899-1.9311zm4.1378-1.655c-0.27604-0.6895-0.96594-1.1034-1.6554-0.82772-0.82733 0.27604-1.1034 1.1034-0.82733 1.7933 0.27604 0.6895 1.103 1.1034 1.7933 0.82733 0.6895-0.27604 0.96515-1.1034 0.6895-1.7929zm4.4131-1.5172c-0.27564-0.6895-1.1034-1.1034-1.7929-0.82772-0.6895 0.13822-1.1034 0.96554-0.82733 1.6554 0.13782 0.82733 0.96554 1.103 1.655 0.96515 0.82772-0.27564 1.1034-1.1034 0.96515-1.7929zm4.276-1.2416c-0.13782-0.6895-0.82772-1.1034-1.655-0.96515-0.6899 0.27564-1.1038 0.96515-0.96554 1.655 0.27564 0.82733 0.96554 1.2412 1.655 0.96554 0.82772-0.13822 1.2416-0.82772 0.96554-1.6554zm4.5513-0.96515c-0.13782-0.6895-0.96515-1.2416-1.6547-1.1034-0.82772 0.27564-1.2416 0.96515-1.1034 1.6547 0.13743 0.82772 0.96515 1.2416 1.6547 1.1038 0.6899-0.13782 1.2416-0.96554 1.1034-1.655zm4.4139-0.82772c-0.13822-0.6895-0.82772-1.2412-1.5172-1.1034-0.82772 0.13782-1.2416 0.82772-1.2416 1.6554 0.13822 0.6895 0.82772 1.2408 1.6554 1.1034 0.6895-0.13822 1.2412-0.82772 1.1034-1.6554zm4.5513-0.55168c-0.13782-0.6895-0.82772-1.2412-1.5172-1.1034-0.82733 0-1.379 0.6895-1.2412 1.5172 0.13782 0.6899 0.82733 1.2412 1.5172 1.103 0.82733 0 1.3794-0.6895 1.2412-1.5168zm4.5513-0.41386c-0.13743-0.6895-0.6895-1.2412-1.5168-1.2412-0.6895 0.13782-1.2412 0.6895-1.2412 1.5172 0 0.6895 0.6895 1.379 1.5172 1.2416 0.6895 0 1.2408-0.6899 1.2408-1.5176zm4.5521-0.13782c0-0.82772-0.6899-1.3794-1.3794-1.3794-0.82772 0-1.3794 0.6899-1.3794 1.5172 0 0.6899 0.6899 1.2412 1.3794 1.2412 0.82733 0 1.3794-0.6895 1.3794-1.379zm3.1719 2.7588c-33.791 0-54.204 13.792-54.204 24.826 0 10.896 20.413 24.688 54.204 24.688 33.791 0 54.204-13.792 54.204-24.688 0-11.034-20.412-24.826-54.204-24.826zm-59.721 24.826c0-16.827 26.619-30.343 59.721-30.343s59.721 13.516 59.721 30.343c0 16.689-26.619 30.206-59.721 30.206s-59.721-13.517-59.721-30.206z" fill="#A3A3A0"/>
<path d="m68.894 41.741-1.2416-1.2412 0.41386-0.27644h2.897l-4-17.102 0.27525-0.27564 1.2416 1.2408 4.2752 17.655h-3.8614zm-1.2416-3.1723h-4.1374l-0.6899 3.1723h-3.8614l-1.2416-1.2412 0.55208-0.27644h2.8962l0.82693-3.3097h5.2412l0.41386 1.655zm-1.9307-9.6547-1.379 5.6547h-1.7933l1.7933-8.4135c0.13743-0.27564 0.68911-0.27564 0.82772 0.13822l0.55129 2.6206z" fill="#0A0B09"/>
<path d="m77.032 41.878-1.2416-1.2416 0.41386-0.41386h2.8958v-14.482h3.5861v-2.6206l0.41386-0.27564 1.2416 1.2408v3.1723h-3.7236v14.62h-3.5861zm-0.82772-14.62h-2.7584l-1.2416-1.2412 0.27564-0.27564h3.7244v1.5168z" fill="#0A0B09"/>
<path d="m90.272 41.878-1.2412-1.2416 0.41386-0.41386h2.8966v-14.482h3.5861v-2.6206l0.41386-0.27564 1.2408 1.2408v3.1723h-3.5861v14.62h-3.724zm-0.82733-14.62h-2.7584l-1.2416-1.2412 0.41386-0.27564h3.5861v1.5168z" fill="#0A0B09"/>
<polyline points="100.34 41.741 99.1 40.499 99.514 40.223 102.41 40.223 102.41 23.121 102.69 22.845 103.93 24.086 103.93 41.741 100.34 41.741" fill="#0A0B09"/>
<path d="m20.207 33.879v4.2756h-1.5172v-5.9311h2.2071c0.82733 0 1.6547 0.82772 1.9307 1.9311-0.13782-0.27564-0.41347-0.27564-0.6899-0.27564h-1.9307zm0-7.0341v3.3101h-1.5172v-4.9651h1.655c1.1034 0 1.9311 0.6895 2.2067 1.9307-0.27564-0.27564-0.55129-0.27564-0.96515-0.27564h-1.3794zm3.0345-3.5861c0.6895 0.27604 1.1034 0.6899 1.2412 0.82733 0.27604 0.27604 0.6899 0.55208 1.1034 0.96554 0.27604 0.41386 0.41386 0.6899 0.6899 1.1034 0.55129 0.82772 0.82772 1.7929 0.82772 2.4832 0 1.2408-0.6903 2.8962-1.6554 3.7236l0.6895 0.6895c0.82772 0.82772 1.379 1.9307 1.379 3.5861 0 2.345-1.7929 5.1034-4.5513 5.1034h-6.3442l-1.2416-1.2412 0.41386-0.27644h5.9307c2.4824 0 4.1378-2.6206 4.1378-4.8273 0-2.0685-0.96554-3.3097-2.0689-3.8614l-0.55168-0.27604 0.55168-0.41386c0.96554-0.55168 1.655-2.2063 1.655-3.3101 0-1.3794-0.6895-3.1723-2.3446-3.9996l0.13782-0.27604z" fill="#0A0B09"/>
<path d="m36.345 42.154c-1.3794 0-2.4828-0.41347-3.7244-1.3794-0.82733-0.68911-1.6547-1.7925-1.7929-2.0685-0.13782 0-0.27564-0.41347-0.41386-0.6899l0.13822-0.13743c0.82733 1.6547 2.6206 2.758 4.5513 2.758 2.7588 0 5.1034-2.3442 5.1034-5.103v-12.413l0.27604-0.27604 1.2412 1.2412v12.689c0 3.0345-2.4828 5.379-5.379 5.379zm-3.4483-19.033 0.41347-0.27564 1.2416 1.2408v12.689c0 0.27604 0 0.6899 0.13822 0.82733-1.1034-0.13743-1.7933-0.96515-1.7933-2.0685v-12.413z" fill="#0A0B09"/>
<path d="m56.481 29.328h-3.1723l-1.2412-1.2416 0.41386-0.27564h2.3446c0-2.0689-0.6895-3.7244-2.3446-4.5517l0.27564-0.27604c0.27564 0.13822 0.55168 0.41386 0.82772 0.55208 0.41386 0.41386 0.82772 0.6895 1.379 1.2412 0.41386 0.55168 0.6895 0.82733 0.96594 1.379 0.41347 0.96554 0.55129 1.7929 0.55129 2.8962v0.27644zm-4.1378-2.0693c-0.27564-0.27564-0.82733-0.41347-1.2412-0.27564-1.1034 0-1.9311 0.96515-1.9311 2.0685v7.724c0 0.41386 0.13822 0.82733 0.41386 1.1038-1.2416-0.27644-1.9311-1.2416-1.9311-2.345v-7.7236c0-1.2416 0.82772-2.345 2.2067-2.4828 1.2416-0.13782 2.345 0.6895 2.4828 1.9307zm0.13822 7.9996h-0.96554l-1.2416-1.2412 0.27604-0.41386h1.9311v1.655zm2.345-3.7236 0.41307-0.27604 1.2416 1.2412v4.2756c0 3.3105-1.7929 5.379-5.5168 5.379-1.2412 0-2.3446-0.41347-3.5861-1.3794-0.82772-0.68911-1.7929-1.7925-1.9307-2.0685 0-0.13782-0.13822-0.41347-0.41386-0.82733h0.27564c0.82772 1.5168 2.6206 2.758 4.5513 2.758 3.4483 0 4.9659-2.0685 4.9659-5.103v-3.9996z" fill="#0A0B09"/>
<path d="m24.069 31.258c1.2416 0.55129 2.2071 1.9307 2.2071 4.1374 0 2.345-1.7933 5.1038-4.5517 5.1038h-6.3446v-17.655h5.9311c3.1719 0 4.5513 2.7584 4.5513 4.6891 0 1.1042-0.6895 3.0349-1.7933 3.7244zm-5.103-5.655v4.1378h1.379c1.2416 0 1.7929-0.6899 1.7929-2.0689s-0.82693-2.0689-1.7929-2.0689h-1.379zm0 7.0341v5.1034h1.9311c1.1034 0 1.7929-1.2412 1.7929-2.6202 0-1.3798-0.96554-2.4832-1.7929-2.4832h-1.9311z" fill="#FFFFFE"/>
<path d="m36.896 35.534v-12.689h3.5861v12.689c0 3.0345-2.4828 5.3794-5.379 5.3794-3.0341 0-5.5168-2.345-5.5168-5.3794v-12.689h3.7236v12.689c0 0.96554 0.6899 1.7929 1.7933 1.7929s1.7929-0.82733 1.7929-1.7929" fill="#FFFFFE"/>
<path d="m52.068 35.534v-1.5172h-1.7933v-2.7584h4.9651v4.2756c0 3.3101-1.6547 5.3794-5.379 5.3794-3.0341 0-5.5168-2.345-5.5168-5.3794v-7.7236c0-3.0345 2.4828-5.379 5.5168-5.379 3.7244 0 5.379 2.0685 5.379 5.379v0.27564h-3.1719v-0.27564c0-1.2416-0.96554-2.2071-2.2071-2.0689-1.1034 0-1.9311 0.96554-1.9311 2.0689v7.7236c0 0.96554 0.82772 1.9311 1.9311 2.0685 1.2416 0 2.2071-0.82733 2.2071-2.0685" fill="#FFFFFE"/>
<path d="m57.723 40.499 4.5509-17.654h4.9651l4.1386 17.654h-3.7248l-0.68911-3.1727h-4.6899l-0.68911 3.1727h-3.8618zm8.6883-6.345-1.6543-7.8614-1.7933 7.8614h3.4475z" fill="#FFFFFE"/>
<polyline points="79.377 40.637 75.791 40.637 75.791 26.017 72.205 26.017 72.205 22.845 83.101 22.845 83.101 26.017 79.377 26.017 79.377 40.637" fill="#FFFFFE"/>
<polyline points="92.756 40.637 89.031 40.637 89.031 26.017 85.445 26.017 85.445 22.845 96.342 22.845 96.342 26.017 92.756 26.017 92.756 40.637" fill="#FFFFFE"/>
<polygon points="99.1 40.499 102.69 40.499 102.69 22.845 99.1 22.845" fill="#FFFFFE"/>
<path d="m56.895 14.983v0.6895h-1.7929v-3.4479h1.7929v0.6895h1.7933v-2.4824h-4.2756v0.82772h-1.7933v-2.621h11.31c1.6554 0 3.1723 1.3794 3.1723 3.1723 0 0.82772-0.27564 1.5172-0.82772 2.0689 0.55208 0.6899 0.96515 1.5172 0.96515 2.345 0 1.9311-1.5168 3.4479-3.3097 3.4479h-11.31v-2.7584h1.7933v0.96554h4.2756v-2.8966h-1.7933zm7.0341-2.0689c0.6899 0 1.2416-0.55129 1.2416-1.2412s-0.55168-1.2412-1.2416-1.2412h-2.8962v2.4824h2.8962zm0 4.9655c0.82772 0 1.379-0.6899 1.379-1.5172 0-0.6899-0.55129-1.3794-1.379-1.3794h-2.8962v2.8966h2.8962z" fill="#0A0B09"/>
</g>
</g>
</svg>
