<?xml version="1.0" encoding="UTF-8"?>
<svg version="1.1" viewBox="0 0 120 54" xmlns="http://www.w3.org/2000/svg">
<title>Lexus</title>
<desc>Created with Sketch.</desc>
<g fill="none" fill-rule="evenodd">
<g fill="#1A1919">
<path d="m61.225 2.8603c-2.4278 2.9932-9.3532 12.66-10.142 13.911-1.5193 2.398-1.6536 3.56-1.6976 4.3342-0.044746 0.76-0.044746 2.1302 1.1912 3.2468 2.0705 1.8468 4.9749 1.5492 7.5512 1.5492h21.224c0.90847 0 1.1769-0.2678 1.6685-0.92339 1.6976-2.5912 2.4569-5.4068 2.4569-7.9234 0-5.3919-3.4997-12.184-12.362-15.252l-0.99729 1.4298c7.0298 3.3363 9.9342 7.7003 9.9342 13.807 0.044746 1.638-0.3878 3.4102-1.4597 5.0488h-20.643c-1.2359 0-1.4149-1.4-0.96746-2.1892 1.8312-3.2468 3.7085-6.1214 5.9125-9.0705 2.0847-2.7851 4.1403-5.3919 6.3003-8.1173 0.58034-0.75932 0.19322-1.4895-0.96814-1.7275-2.4129-0.50644-4.9302-0.86373-7.9837-0.86373-16.934 0-23.13 9.7254-23.13 16.934 0 7.819 6.2407 16.889 23.175 16.889 9.3986 0 15.549-3.0237 19.109-6.9112h-3.5892c-3.1132 2.8753-8.4597 4.9153-15.52 4.9153-14.342 0-19.63-8.0576-19.63-14.998 0.10441-6.1959 5.779-14.745 19.988-15.028 0.53627-0.014915 0.95322 0.47661 0.58034 0.93831"/>
<path d="m112.16 47.497c0.84881 0.11932 1.5044 0.78983 1.5044 1.579 0 0.89356-0.80475 1.6088-1.7878 1.6088h-18.2v-11.9h-5.362v11.93h-9.8597c-2.6658 0-3.2169-1.6237-3.2169-3.1132v-8.8915h-8.8915c-0.87864 0.59525-1.7281 1.2508-2.6366 1.802l-5.2725 3.2468-6.8508-5.0041h-10.664v2.9939h3.8576v-1.6386l9.0705 6.5085-6.1959 3.8875h-6.7322v2.9939h7.7898c0.8339-0.5661 1.6231-1.162 2.4875-1.6834l5.421-3.2915 6.8814 4.9153h7.8339l-10.351-7.7898 5.3173-3.4698c1.1315-0.74508 2.3234-1.3708 3.4847-2.0556v7.8339c0 3.3064 0.84881 5.6007 7.5071 5.6007l37.607-0.089492c2.9044 0.044746 4.7661-1.9661 4.7661-4.3939 0-2.4129-2.1451-4.3939-4.7661-4.3939h-13.583c0.1783-1.6529 1.6081-3.038 3.0529-3.038h13.747l-0.044746-2.8746h-14.581c-4.6169 0-8.3105 3.8278-8.4149 8.2807-0.014915 0.31322 0.1939 0.50644 0.53627 0.50644l16.547-0.059661zm-71.238-0.044068h2.6508v-3.0536h-2.6508v3.0536zm0-8.6983h-10.068c-2.7261 0-4.8258 0.71458-6.3749 1.9363-2.7851 2.2041-3.6786 4.5275-3.6488 5.5702h3.6339c-1.5939 1.1912-2.6658 2.621-3.2319 4.2746h-11.915c-2.1444 0-3.5295-1.5193-3.5295-2.9939v-8.8915h-5.2725v9.2346c0 3.3207 3.1573 5.6149 8.221 5.6149h32.186v-2.9939h-12.779c0.059661-1.5193 1.6834-3.0536 3.158-3.0536h9.621v-3.0529h-12.927c-0.17898-0.89356 1.4895-2.6508 2.7702-2.6508h10.157v-2.9939z"/>
</g>
</g>
</svg>
