<?xml version="1.0" encoding="UTF-8"?>
<svg version="1.1" viewBox="0 0 120 85" xmlns="http://www.w3.org/2000/svg" xmlns:xlink="http://www.w3.org/1999/xlink">
<title>citroen-new-logo</title>
<desc>Created with Sketch.</desc>
<defs>
<path id="h" d="m29.11 0.14237c0.10983-0.0074576 0.23085-0.011186 0.35492-0.011186 0.56847 0 1.2498 0.078305 1.4722 0.36034 0.48407 0.6122-0.45051 0.77966-1.022 1.0254-8.0197 3.4725-18.03 11.28-27.779 20.197l-0.90339 0.80407c-0.90644 0.81254-0.92915-0.45763-0.92915-0.45763-0.0027119-0.022373-0.21356-3.5369-0.14034-5.161 1.2946-1.3315 5.0753-5.1207 9.9732-9.1539"/>
<path id="d" d="m0.42915 0.49153c0.22169-0.28203 0.90034-0.36034 1.4685-0.36034 0.12712 0 0.2478 0.0037288 0.35559 0.011186 8.3183 0.47831 18.595 7.3302 18.976 7.6027 4.8942 4.0332 8.6759 7.8224 9.9729 9.1539 0.073559 1.6241-0.13763 5.1386-0.14102 5.161 0 0-0.021695 1.2702-0.92881 0.45763l-0.90305-0.80407c-9.7492-8.9166-19.76-16.724-27.782-20.197"/>
<path id="c" d="m29.11 0.23492c0.10983-0.0067797 0.22814-0.0088136 0.3522-0.0088136 0.56847 0 1.2525 0.076271 1.4749 0.35932 0.48407 0.61356-0.45051 0.77831-1.022 1.0258-8.0197 3.4729-18.03 11.279-27.779 20.197l-0.90339 0.80203c-0.90644 0.81424-0.92915-0.45729-0.92915-0.45729-0.0027119-0.021017-0.21356-3.5353-0.14034-5.16 1.2946-1.3329 5.0753-5.1217 9.9732-9.1525"/>
<path id="b" d="m0.42915 0.58542c0.22508-0.28305 0.90644-0.35932 1.4739-0.35932 0.12441 0 0.24237 0.0020339 0.35017 0.0088136 8.3183 0.47831 18.595 7.3319 18.976 7.6054 4.8942 4.0308 8.6759 7.8197 9.9729 9.1525 0.073559 1.6247-0.13763 5.139-0.14102 5.16 0 0-0.021695 1.2715-0.92881 0.45729l-0.90305-0.80203c-9.7492-8.918-19.76-16.724-27.782-20.197"/>
<path id="a" d="m69.168 31.475h-69.005c0.21627-2.581 2.1675-4.8037 2.1929-4.8319 0.29559-0.32542 24.144-26.481 32.308-26.481 8.1637 0 32.016 26.156 32.308 26.481 0.027795 0.028134 1.9761 2.2507 2.1953 4.8319"/>
<path id="g" d="m2.3563 26.737c0.29559-0.32475 24.144-26.481 32.308-26.481 8.1637 0 32.016 26.156 32.308 26.481 0.027797 0.028814 1.9763 2.2495 2.1953 4.8322-1.2969-1.3329-5.0786-5.1217-9.9729-9.1525 0.0020339 0.0010169-1.4756-1.2397-3.6969-2.9112-4.9153-3.7024-13.593-9.4912-20.834-9.4912-7.238 0-15.917 5.7888-20.835 9.4912-2.2183 1.6715-3.6963 2.9122-3.6936 2.9112-4.898 4.0308-8.6786 7.8197-9.9732 9.1525"/>
<path id="f" d="m33.658 28.95-32.99 0.66887-0.58-28.668 33.556-0.67898 0.57932 28.666-0.56548 0.011465-0.21655-0.64706c-13.38-15.353-27.991-27.15-32.168-27.361-0.014576-0.0016949-0.029153-0.0016949-0.043051-0.0016949-0.55695 0-0.56814 0.56305-0.56814 0.56305-0.0081356 5.0444 0.29864 5.9359 3.7695 7.2881 0.47864 0.18407 13.493 4.0902 29 19.932l0.2257 0.22638"/>
<path id="e" d="m33.658 28.704-32.99 0.66821-0.58-28.667 33.556-0.68034 0.57932 28.667-0.56549 0.011454-0.21654-0.64671c-13.38-15.352-27.991-27.148-32.168-27.362-0.014576-0.0013559-0.029153-0.0013559-0.043051-0.0013559-0.55695 0-0.56814 0.56441-0.56814 0.56441-0.0081356 5.0444 0.29864 5.9339 3.7695 7.2868 0.47864 0.18576 13.493 4.0915 29 19.932l0.22569 0.22671"/>
</defs>
<g fill="none" fill-rule="evenodd">
<path d="m76.005 82.995s-1.0756 0.027119-1.8868 0c-2.0685 0-4.301-1.5603-4.301-4.08 0-2.5014 2.1878-3.9949 4.2898-3.9939 0.025763-0.0054238 1.0532-0.047458 1.8949-0.001017 2.1139 0 4.3014 1.4936 4.3014 3.9949 0 2.5197-2.2325 4.08-4.2983 4.08m2.0156-9.6495c-2.9424-0.064746-5.9298-0.0016949-5.9576 0-3.5908 0-6.5132 2.4912-6.5132 5.5508 0 3.1098 2.9224 5.6376 6.5166 5.6376 0.024407 0 3.0119 0.060339 5.9563 0 3.5983 0 6.5278-2.5278 6.5278-5.6376 0-3.0315-2.8681-5.4692-6.5298-5.5508" fill="#C42234"/>
<path d="m116.25 84.389h3.6617v-5.3319c0-3.1142-2.7898-5.5566-6.3505-5.5566h-9.2644c-0.1522 0-0.50441 0.039322-0.50441 0.40678v10.068c0 0.27017 0.19525 0.41356 0.38915 0.41356h3.8732v-8.4237c0-0.36881 0.28136-0.55085 0.55492-0.55085h4.2644c1.1831 0 2.9275 1.06 2.9275 3.3698v5.1783c0 0.0057628 0.011525 0.42644 0.44847 0.42644" fill="#C42234"/>
<path d="m38.944 75.663h5.7169v-1.7339c0-0.24373-0.17695-0.42644-0.41322-0.42644h-15.931c-0.25932 0-0.41424 0.21424-0.41424 0.42068v1.7397h3.8088c1.4275 0 2.3878 1.2247 2.3878 2.3675v5.9458c0 0.1939 0.17153 0.41356 0.41898 0.41356h3.8651v-8.1708c0-0.30678 0.25051-0.55593 0.56034-0.55593" fill="#C42234"/>
<path d="m21.333 83.974c0 0.24678 0.21966 0.41525 0.41966 0.41525h3.8593v-10.475c0-0.22508-0.2-0.41559-0.42237-0.41559h-3.4397c-0.22542 0-0.41695 0.19051-0.41695 0.41424v10.061" fill="#C42234"/>
<path d="m51.215 78.601v-2.1759c0-0.59424 0.42237-1.0081 1.0275-1.0081h5.6864c0.86102 0 1.5905 0.72339 1.5905 1.5803 0 0.88441-0.72339 1.6037-1.6102 1.6037h-6.6942zm8.3156 5.7905h4.2512c-0.11322-2.8207-3.159-3.9851-3.159-3.9851h0.0033899c1.9115-0.43932 3.1461-1.8132 3.1461-3.3986 0-1.6864-1.6519-3.5064-4.318-3.5064h-10.28c-1.2471 0-2.2214 0.97661-2.2214 2.2237v8.2495c0 0.23831 0.16915 0.41525 0.40576 0.41525h3.8593v-3.861h3.64c3.2397 0 4.5712 2.3397 4.6729 3.8627z" fill="#C42234"/>
<path d="m14.839 77.155h4.158c-0.90068-2.2773-3.5105-3.8875-6.2641-3.8946-1.5088-0.0016949-4.1966-0.087458-5.9508 0-2.0522 0.10271-3.3414 0.57119-4.6051 1.6708-1.2332 1.0756-1.9146 2.4956-1.9146 4.0014 0 3.1153 2.7698 5.5573 6.4441 5.6868 2.5193 0.087458 2.7864 0.091186 6.0885-0.0084745 3.0603-0.091864 5.2529-1.4753 6.1993-3.8919h-4.158c-0.15763 0-0.27864 0.070508-0.35763 0.20814-0.75186 1.2976-2.1678 2.0746-3.7159 2.0986-0.54034 0.0088136-1.2671 0.0098305-1.9312 0.0040678-2.162-0.020678-4.301-1.5386-4.301-4.1014 0-2.5193 2.1983-4.0563 4.3098-4.0563 0.24203-0.0098305 1.0949-0.037966 1.8746 0 1.5424 0 3.0231 0.81898 3.7692 2.0827 0.028136 0.047797 0.1322 0.2 0.35492 0.2" fill="#C42234"/>
<path d="m101.51 82.433h-10.072c-0.34102 0-0.57729-0.22542-0.57729-0.54746v-2.0746h8.7295v-1.9105h-8.7329v-1.8956c0-0.0088135-0.0020339-0.55017 0.64746-0.55017h10.003v-1.5271c0-0.44678-0.47593-0.42678-0.48915-0.42678h-14.011c-0.042373 0-0.42576 0.012542-0.42576 0.42678v8.2468c0 1.0878 0.83864 2.2149 2.241 2.2149h12.268c0.3183 0 0.41966-0.30068 0.41966-0.40678v-1.5495" fill="#C42234"/>
<path d="m98.37 69.557c-0.41051-0.25186-0.90373-0.37729-1.4837-0.37729-0.57729 0-1.0892 0.13254-1.4837 0.37729-0.38814 0.24508-0.70034 0.57186-1.1654 0.57186-0.46203 0-0.73932-0.32678-1.1566-0.57186-0.41627-0.24475-0.90373-0.37729-1.4831-0.37729-0.57729 0-1.0705 0.12542-1.4817 0.37729-0.4078 0.25051-0.61627 0.55322-0.61627 0.90508 0 0.35356 0.20847 0.65593 0.61627 0.90644 0.41119 0.25085 0.90441 0.37458 1.4817 0.37458 0.57695 0 1.0814-0.12136 1.4502-0.3461 0.37051-0.22508 0.77051-0.59525 1.1895-0.59525 0.42068 0 0.79661 0.33322 1.1688 0.56678 0.37186 0.23627 0.90305 0.37458 1.4803 0.37458 0.59729 0 1.0956-0.12373 1.4956-0.37458 0.40203-0.25051 0.60169-0.55288 0.60169-0.90644 0-0.35186-0.20508-0.65458-0.61356-0.90508" fill="#C42234"/>
<path d="m60.088 16.926c8.9369 0 30.506 18.523 33.212 20.875 0.18271 0.16034 0.43627 0.36508 0.90305 0.31085 0.67593-0.077288 0.69593-1.1054 0.69593-1.1054s0.15695-2.3539 0.15695-4.7241c0-2.9858-2.3305-5.5953-2.3305-5.5953s-24.173-26.627-32.638-26.627c-8.4654 0-32.635 26.627-32.635 26.627s-2.3312 2.6095-2.3312 5.5953c0 2.3702 0.16068 4.7241 0.16068 4.7241s0.016949 1.0281 0.69254 1.1054c0.46712 0.054237 0.72034-0.15051 0.90373-0.31085 2.7027-2.3519 24.275-20.875 33.209-20.875" fill="#1A1919"/>
<path d="m60.088 41.427c8.9369 0 30.506 18.521 33.212 20.875 0.18271 0.15729 0.43627 0.36475 0.90305 0.31119 0.67593-0.077966 0.69593-1.1092 0.69593-1.1092s0.15695-2.3536 0.15695-4.7214c0-2.9851-2.3305-5.5959-2.3305-5.5959s-24.173-26.629-32.638-26.629c-8.4654 0-32.635 26.629-32.635 26.629s-2.3312 2.6108-2.3312 5.5959c0 2.3678 0.16068 4.7214 0.16068 4.7214s0.016949 1.0312 0.69254 1.1092c0.46712 0.053559 0.72034-0.1539 0.90373-0.31119 2.7027-2.3539 24.275-20.875 33.209-20.875" fill="#1A1919"/>
<g transform="translate(25.424 14.915)">
<mask id="l" fill="white">
<use xlink:href="#h"/>
</mask>
<path d="m29.11 0.14237c-8.3153 0.47831-18.596 7.3302-18.974 7.6027-4.898 4.0332-8.6786 7.8224-9.9732 9.1539-0.07322 1.6241 0.13763 5.1386 0.14034 5.161 0 0 0.022712 1.2702 0.92915 0.45763l0.90339-0.80407c9.7492-8.9166 19.759-16.724 27.779-20.197 0.57153-0.24576 1.5061-0.41322 1.022-1.0254-0.22237-0.28203-0.90373-0.36034-1.4722-0.36034-0.12407 0-0.24508 0.0037288-0.35492 0.011186" mask="url(#l)"/>
</g>
<g transform="translate(63.39 14.915)">
<mask id="k" fill="white">
<use xlink:href="#d"/>
</mask>
<path d="m0.42915 0.49153c-0.48712 0.6122 0.45017 0.77966 1.0183 1.0254 8.0224 3.4725 18.033 11.28 27.782 20.197l0.90305 0.80407c0.90712 0.81254 0.92881-0.45763 0.92881-0.45763 0.0033899-0.022373 0.21458-3.5369 0.14102-5.161-1.2969-1.3315-5.0786-5.1207-9.9729-9.1539-0.38136-0.27254-10.658-7.1244-18.976-7.6027-0.1078-0.0074576-0.22847-0.011186-0.35559-0.011186-0.56814 0-1.2468 0.078305-1.4685 0.36034" mask="url(#k)"/>
</g>
<g transform="translate(25.424 39.322)">
<mask id="j" fill="white">
<use xlink:href="#c"/>
</mask>
<path d="m29.11 0.23492c-8.3153 0.47831-18.596 7.3319-18.974 7.6054-4.898 4.0308-8.6786 7.8197-9.9732 9.1525-0.07322 1.6247 0.13763 5.139 0.14034 5.16 0 0 0.022712 1.2715 0.92915 0.45729l0.90339-0.80203c9.7492-8.918 19.759-16.724 27.779-20.197 0.57153-0.24746 1.5061-0.4122 1.022-1.0258-0.22237-0.28305-0.90644-0.35932-1.4749-0.35932-0.12407 0-0.24237 0.0020339-0.3522 0.0088136" mask="url(#j)"/>
</g>
<g transform="translate(63.39 39.322)">
<mask id="i" fill="white">
<use xlink:href="#b"/>
</mask>
<path d="m0.42915 0.58542c-0.48712 0.61356 0.45017 0.77831 1.0183 1.0258 8.0224 3.4729 18.033 11.279 27.782 20.197l0.90305 0.80203c0.90712 0.81424 0.92881-0.45729 0.92881-0.45729 0.0033899-0.021017 0.21458-3.5353 0.14102-5.16-1.2969-1.3329-5.0786-5.1217-9.9729-9.1525-0.38136-0.27356-10.658-7.1271-18.976-7.6054-0.1078-0.0067797-0.22576-0.0088136-0.35017-0.0088136-0.56746 0-1.2488 0.076271-1.4739 0.35932" mask="url(#i)"/>
</g>
<g transform="translate(25.424 .33898)">
<mask id="p" fill="white">
<use xlink:href="#a"/>
</mask>
<path d="m2.3563 26.643c-0.025424 0.028136-1.9766 2.2508-2.1929 4.8322 1.2946-1.3315 5.0753-5.1207 9.9732-9.1539-0.0027119 0.0016949 1.4753-1.238 3.6936-2.9092 4.918-3.7024 13.597-9.4922 20.835-9.4922 7.241 0 15.919 5.7898 20.834 9.4922 2.2214 1.6712 3.699 2.9108 3.6969 2.9092 4.8942 4.0332 8.6759 7.8224 9.9729 9.1539-0.21898-2.5814-2.1675-4.8041-2.1953-4.8322-0.29254-0.32542-24.145-26.481-32.308-26.481-8.1641 0-32.013 26.156-32.308 26.481" mask="url(#p)"/>
</g>
<g transform="translate(25.424 24.746)">
<mask id="o" fill="white">
<use xlink:href="#g"/>
</mask>
<path d="m2.3563 26.737c-0.025424 0.028814-1.9766 2.2495-2.1929 4.8322 1.2946-1.3329 5.0753-5.1217 9.9732-9.1525-0.0027119 0.0010169 1.4753-1.2397 3.6936-2.9112 4.918-3.7024 13.597-9.4912 20.835-9.4912 7.241 0 15.919 5.7888 20.834 9.4912 2.2214 1.6715 3.699 2.9122 3.6969 2.9112 4.8942 4.0308 8.6759 7.8197 9.9729 9.1525-0.21898-2.5827-2.1675-4.8034-2.1953-4.8322-0.29254-0.32475-24.145-26.481-32.308-26.481-8.1641 0-32.013 26.156-32.308 26.481" mask="url(#o)"/>
</g>
<g transform="translate(59.322 .33898)">
<mask id="n" fill="white">
<use xlink:href="#f"/>
</mask>
<path d="m0.66203 1.5031c-0.0081356 5.0444 0.29864 5.9359 3.7695 7.2881 0.47864 0.18407 13.493 4.0902 29 19.932l0.22576 0.22644-0.21661-0.64712c-13.38-15.353-27.991-27.15-32.168-27.361-0.014576-0.0016949-0.029153-0.0016949-0.043051-0.0016949-0.55695 0-0.56814 0.56305-0.56814 0.56305" mask="url(#n)"/>
</g>
<g transform="translate(59.322 25.085)">
<mask id="m" fill="white">
<use xlink:href="#e"/>
</mask>
<path d="m0.66203 1.2583c-0.0081356 5.0444 0.29864 5.9339 3.7695 7.2868 0.47864 0.18576 13.493 4.0915 29 19.932l0.22576 0.22678-0.21661-0.64678c-13.38-15.352-27.991-27.148-32.168-27.362-0.014576-0.0013559-0.029153-0.0013559-0.043051-0.0013559-0.55695 0-0.56814 0.56441-0.56814 0.56441" mask="url(#m)"/>
</g>
</g>
</svg>
