<?xml version="1.0" encoding="UTF-8"?>
<svg version="1.1" viewBox="0 0 102 102" xmlns="http://www.w3.org/2000/svg">
<title>BMW-flat-logo</title>
<desc>Created with Sketch.</desc>
<g fill="none" fill-rule="evenodd">
<g transform="translate(1 1)">
<path d="m99.69 50.029c0-27.529-22.315-49.844-49.844-49.844-27.529 0-49.846 22.316-49.846 49.844 0 27.528 22.318 49.843 49.846 49.843 27.529 0 49.844-22.315 49.844-49.843" fill="#FFFFFE"/>
<path d="m99.69 50.029c0-27.529-22.315-49.844-49.844-49.844-27.529 0-49.846 22.316-49.846 49.844 0 27.528 22.318 49.843 49.846 49.843 27.529 0 49.844-22.315 49.844-49.843z" stroke="#1B1A18" stroke-linecap="round" stroke-linejoin="round" stroke-width="2"/>
<path d="m98.488 50.029c0-26.865-21.778-48.642-48.641-48.642-26.865 0-48.643 21.777-48.643 48.642 0 26.864 21.778 48.642 48.643 48.642 26.864 0 48.641-21.778 48.641-48.642" fill="#0A0B09"/>
<path d="m25.071 25.032c-0.36198 0.4526-0.72292 0.90417-1.0839 1.3552-0.99323 1.2411-1.9885 2.4823-2.9818 3.7234-0.0046875 0.0046875-0.03125 0.046875-0.038021 0.041146-0.051042-0.040625-0.1026-0.08125-0.15365-0.1224-0.27083-0.21667-0.53958-0.43229-0.81042-0.64896-0.46875-0.37552-0.9375-0.75104-1.4057-1.1255 0.90104-1.1255 1.8021-2.2516 2.7031-3.3776 0.43906-0.54792 0.87812-1.0969 1.3167-1.6448 0.31458-0.39323 0.71146-0.67188 1.2333-0.68802 0.62604-0.020833 1.1719 0.34531 1.438 0.89948 0.2224 0.53854 0.1474 1.1318-0.21771 1.588zm-8.4516 1.6391c-0.57188-0.45781-1.1443-0.91615-1.7156-1.3734-0.21875-0.175-0.43594-0.35-0.65469-0.52448-0.0057291-0.0052083 0.22396-0.28698 0.24062-0.30573 1.0651-1.3307 2.1312-2.6625 3.1958-3.9932 0.28125-0.35052 0.53281-0.725 0.96406-0.90365 0.58958-0.24271 1.2818-0.086979 1.7094 0.38281 0.34479 0.38125 0.45885 0.89948 0.34792 1.3953-0.12708 0.44062-0.43906 0.7651-0.71979 1.1151-0.56042 0.7-1.1219 1.4016-1.6823 2.1021-0.56198 0.70208-1.124 1.4042-1.6854 2.1052zm12.176-3.9833c-0.18594-1.299-0.96823-2.3906-2.1693-2.937-1.2042-0.54688-2.6042-0.34115-3.6667 0.41042-0.085938 0.061979-0.16615 0.13594-0.24844 0.20208 0.17552-0.60104 0.22969-1.2073 0.079688-1.8234-0.14531-0.6-0.46094-1.1542-0.90365-1.5854-0.90052-0.87917-2.2672-1.1682-3.4479-0.72656-0.55573 0.20729-1.0505 0.56406-1.4219 1.0276-0.21042 0.26302-0.42135 0.52656-0.63229 0.79115-1.1031 1.3766-2.2042 2.7526-3.3057 4.1297-0.94688 1.1812-1.8927 2.3625-2.8385 3.5443-0.0625 0.078125-0.12396 0.15625-0.18698 0.23438-0.0046875 0.0041667 0.12135 0.1 0.13021 0.10677 0.36719 0.29479 0.73438 0.58802 1.101 0.88229 1.3885 1.1115 2.7771 2.2229 4.1661 3.3349 1.3724 1.101 2.7484 2.2016 4.124 3.3026 0.35052 0.28021 0.7 0.56042 1.0521 0.84115 0.014062 0.0125 0.095833 0.094271 0.11042 0.077083 0.069271-0.088021 0.13854-0.17448 0.20781-0.26094 0.94375-1.1797 1.8875-2.3573 2.8307-3.5359 1.1312-1.412 2.2615-2.8245 3.3927-4.237 0.58385-0.72865 1.2286-1.4161 1.5062-2.3302 0.14219-0.47083 0.16562-0.96198 0.12031-1.4479z" fill="#FFFFFE"/>
<path d="m80.247 50.029c0-16.791-13.611-30.401-30.401-30.401-16.791 0-30.403 13.61-30.403 30.401 0 16.79 13.612 30.401 30.403 30.401 16.79 0 30.401-13.611 30.401-30.401" fill="#FFFFFE"/>
<path d="m49.845 21.168c-15.755 0.40938-28.452 13.106-28.86 28.86h28.86v-28.86" fill="#008FC5"/>
<path d="m49.845 78.891c15.757-0.41042 28.453-13.106 28.862-28.862h-28.862v28.862" fill="#008FC5"/>
<polyline points="82.277 16.76 79.743 14.407 71.518 25.212 74.051 27.564 83.071 23.427 77.06 31.323 78.803 34.31 91.144 28.646 89.403 25.66 82.28 28.928 87.343 22.278 85.127 19.509 77.53 22.994 82.277 16.76" fill="#FFFFFE"/>
<polyline points="45.371 8.4792 48.579 17.6 51.112 17.6 54.32 8.4792 54.659 17.6 58.206 18.106 57.699 4.426 53.139 3.9188 49.846 13.546 46.551 3.9188 41.991 4.426 41.485 18.106 45.033 17.6 45.371 8.4792" fill="#FFFFFE"/>
</g>
</g>
</svg>
