<?xml version="1.0" encoding="UTF-8"?>
<svg version="1.1" viewBox="0 0 140 176" xmlns="http://www.w3.org/2000/svg">
<title>renault-lines-vector-logo</title>
<desc>Created with Sketch.</desc>
<g fill="none" fill-rule="evenodd">
<g fill="#131514">
<path d="m70.503 125.32 20.882-37.455-20.835-37.383-20.905 37.383 20.858 37.455zm-22.191-37.455 22.191 39.883 22.215-39.883h8.763l36.859-0.024-48.05-86.434h-39.955l-48.098 86.434 38.002 0.024 27.454 48.026-13.714 31.026h2.19c1.619-2.81 45.312-79.052 45.312-79.052l-27.906-48.265c4.524-10.262 9.262-20.501 13.62-30.859h-2.119l-44.789 79.124h8.025zm-47.479-0.024 48.574-87.624h41.811l48.48 87.624-49.028 88.124h-40.763l-49.074-88.124z"/>
</g>
</g>
</svg>
