<?xml version="1.0" encoding="UTF-8"?>
<svg version="1.1" viewBox="0 0 120 94" xmlns="http://www.w3.org/2000/svg" xmlns:xlink="http://www.w3.org/1999/xlink">
<title>mercedes-benz-logo</title>
<desc>Created with Sketch.</desc>
<defs>
<polygon id="a" points="0.019251 0.31348 15.649 0.31348 15.649 14.165 0.019251 14.165"/>
</defs>
<g fill="none" fill-rule="evenodd">
<g transform="translate(0 78.61)">
<mask id="b" fill="white">
<use xlink:href="#a"/>
</mask>
<path d="m0.28588 0.31348-0.040749 0.65358h0.61283c0.44984 0 1.0216 0.04107 1.0216 0.61348l-0.20439 11.073c0 0.40877-0.20439 0.85701-1.0213 0.85701h-0.61316l-0.040749 0.65487h4.1268v-0.65487h-0.69433c-0.53134 0-0.89904-0.16235-0.89904-0.85701l0.20406-10.623 4.4127 11.44h0.44952l4.4538-11.564 0.20438 10.747c0 0.36738-0.36802 0.85701-0.94011 0.85701h-0.85797v0.65487h5.1892v-0.65487h-0.61283c-0.44952 0-0.98053-0.24449-0.98053-0.81722l-0.20438-10.949c0-0.36866 0.40877-0.77711 0.81722-0.77711h0.77615v-0.65358h-3.7181l-3.8406 10.051-3.8406-10.051h-3.7595" fill="#181916" mask="url(#b)"/>
</g>
<path d="m17.774 87.79h6.1457c0-2.9041-1.2834-5.2582-4.1028-5.2582-2.6147 0-4.1028 2.3541-4.1028 5.2582 0 2.9041 1.243 5.2585 4.1028 5.2585 2.7786 0 3.5958-1.3761 4.0222-3.5788l-0.95775-0.0041711c-0.081497 0.81722-0.61283 2.6551-2.6554 2.6965-2.3291 0.046845-2.4927-2.9413-2.452-4.372" fill="#181916"/>
<path d="m28.929 92.775v-0.53102h-0.40877c-0.36802 0-1.0213-0.12385-1.0213-0.85861v-5.3525c0-1.6758 0.85765-2.288 1.7156-2.288 0.32727 0 0.53134 0.16364 0.44952 0.77615-0.081497 0.61348 0.44984 1.0219 0.89904 0.98053 0.44952-0.04139 1.0216-0.12257 0.93979-1.2667-0.081497-1.1432-0.7354-1.6745-1.8793-1.6745-0.89904 0-1.6348 0.57112-1.8388 0.85733-0.23743 0.33241-0.53134 0.20503-0.57209-0.16396-0.040749-0.36706-0.20438-0.73476-0.61251-0.61219-0.89936 0.2862-1.7166 0.40877-2.4109 0.45016v0.40845c1.7156-0.08246 1.5523 0.77583 1.5523 1.1843v6.7011c0 0.73476-0.6539 0.85861-1.0213 0.85861h-0.57209v0.53102h4.7807" fill="#181916"/>
<path d="m37.992 83.182c-0.60225-0.43925-1.3595-0.6908-2.281-0.6908-2.615 0-4.1031 2.3541-4.1031 5.2569 0 2.9053 1.243 5.2453 4.1031 5.2585 2.5332 0.013476 3.146-1.4175 3.5727-3.6186l-0.95807-0.0054545c-0.081497 0.81722-0.36738 2.6978-2.2062 2.7375-2.3284 0.051979-2.4924-2.9413-2.4513-4.372 0-0.8984 0.12225-4.4945 2.0836-4.4945 1.6749 0 2.6968 1.1862 2.6968 2.5341h0.53102v-3.4322h-0.44952l-0.53807 0.82652" fill="#181916"/>
<path d="m57.285 90.65v-11.399c0-0.46973-0.24513-0.85829-0.65358-0.73572-0.89904 0.2862-1.7163 0.40845-2.4109 0.44952v0.40877c1.1849-0.08246 1.3075 0.28588 1.3075 0.69465v3.5137c-0.53134-0.48963-1.1442-0.98118-2.2473-0.98118-1.389 0-3.9632 1.1037-3.9632 4.9858 0 5.1067 2.9827 5.4343 3.8814 5.4343 0.89904 0 2.084-0.73604 2.3291-1.1233 0.020214-0.082781 0.1431-0.18513 0.18417 0 0.040749 0.36738 0.30578 0.91797 0.71487 0.79572 0.89904-0.2862 1.7159-0.40845 2.4106-0.44856v-0.40973c-1.7163 0.082139-1.5526-0.77583-1.5526-1.1846" fill="#181916"/>
<polygon points="75.753 86.931 81.146 86.931 81.146 85.992 75.753 85.992" fill="#181916"/>
<path d="m68.358 89.301v3.4736h0.44888l0.40877-0.89936c0.40845 0.36834 1.2664 0.98053 2.3695 0.98053 1.1034 0 2.6567-0.61219 3.2689-1.7567 0.61283-1.1448 0.32727-3.0237-1.0624-3.5958-1.2164-0.50086-2.2835-1.1009-3.1046-1.5122-0.65422-0.32599-0.81273-0.97957-0.73604-1.3893 0.12289-0.65358 0.69465-1.3486 2.0025-1.3883 1.3075-0.04107 1.9607 1.062 2.1247 2.3291h0.44888v-3.2686h-0.40845l-0.44888 0.77583c-0.85797-0.57209-1.226-0.65326-2.0028-0.65326-0.77583 0-2.0833 0.40845-2.8194 1.5517-0.7354 1.1445-0.53102 2.9426 1.2263 3.677 1.757 0.73604 2.5742 1.1862 3.0645 1.4307 0.48995 0.24513 0.77583 1.226 0.44952 1.7984-0.32695 0.5708-0.93979 1.2257-1.921 1.2257-0.97989 0-2.5332-0.69497-2.9005-2.7789h-0.40845" fill="#181916"/>
<path d="m82.985 90.691v-10.092c0-1.0219-1.062-1.1445-1.6749-1.1445v-0.53102h6.129c2.8601 0 3.3096 2.0031 3.3096 3.1874 0 1.1846-0.98086 2.9416-1.9614 3.1864 1.9614 0.40973 2.615 2.0031 2.615 3.351-0.081818 4.0046-3.5548 4.1272-5.067 4.1272h-5.0252v-0.57241c1.6344 0 1.6749-0.93947 1.6749-1.5119" fill="#181916"/>
<path d="m107.99 85.338v6.0472c0 0.73476-0.6539 0.85861-1.0213 0.85861h-0.24545v0.53102h4.4538v-0.53102h-0.40877c-0.36706 0-1.0213-0.12385-1.0213-0.85861v-6.0064c-0.040428-2.7375-2.4921-2.8187-3.3507-2.8187-0.89872 0-1.8793 0.57112-2.0836 0.85733-0.23743 0.33241-0.53166 0.20503-0.57209-0.16396-0.040749-0.36706-0.20438-0.73476-0.61283-0.61219-0.89904 0.2862-1.7163 0.40877-2.4103 0.45016v0.40845c1.7156-0.08246 1.5517 0.77583 1.5517 1.1843v6.7011c0 0.73476-0.65326 0.85861-1.0206 0.85861h-0.57241v0.53102h4.7807v-0.53102h-0.40877c-0.3677 0-1.0213-0.12385-1.0213-0.85861v-5.3525c0-0.8984 0.32663-2.3291 2.0015-2.4517 1.6758-0.12257 1.9617 0.98118 1.9617 1.757" fill="#181916"/>
<path d="m112.08 85.543 0.7354-2.7789h6.9459l-5.9653 9.4386h3.1871c0.7354 0 1.3075-0.2862 2.0836-2.1651h0.32663l-0.65358 2.7375h-7.1098l5.9252-9.4389h-2.6564c-0.65326 0-1.3887 0-2.4103 2.2068h-0.40845" fill="#181916"/>
<path d="m42.289 87.79h6.146c0-2.9041-1.2834-5.2582-4.1031-5.2582-2.6147 0-4.1028 2.3541-4.1028 5.2582 0 2.9041 1.2427 5.2585 4.1028 5.2585 2.7783 0 3.5958-1.3761 4.0226-3.5788l-0.95807-0.0041711c-0.081497 0.81722-0.61283 2.6551-2.6557 2.6965-2.3284 0.046845-2.4924-2.9413-2.4517-4.372" fill="#181916"/>
<path d="m60.921 87.79h6.1453c0-2.9041-1.2837-5.2582-4.1025-5.2582-2.6153 0-4.1028 2.3541-4.1028 5.2582 0 2.9041 1.2427 5.2585 4.1028 5.2585 2.778 0 3.5952-1.3761 4.0219-3.5788l-0.95743-0.0041711c-0.082139 0.81722-0.61283 2.6551-2.6557 2.6965-2.3284 0.046845-2.493-2.9413-2.4517-4.372" fill="#181916"/>
<path d="m94.344 87.79h6.1453c0-2.9041-1.2837-5.2582-4.1025-5.2582-2.615 0-4.1025 2.3541-4.1025 5.2582 0 2.9041 1.2424 5.2585 4.1025 5.2585 2.7783 0 3.5955-1.3761 4.0219-3.5788l-0.95743-0.0041711c-0.081818 0.81722-0.61283 2.6551-2.6557 2.6965-2.3284 0.046845-2.493-2.9413-2.4517-4.372" fill="#181916"/>
<path d="m17.815 86.972c0-0.89807-0.081818-3.5548 2.084-3.5548 1.7156 0 1.9607 2.2065 1.9607 3.5548h-4.0447" fill="#FFFFFE"/>
<path d="m55.528 89.424c-0.040749 2.2479-1.2257 2.9426-2.2065 2.9426-2.2059-0.04139-2.0429-3.3924-2.0429-4.8218 0-1.4307 0.081818-4.2497 2.084-4.0049 2.0021 0.24642 2.1655 2.3705 2.1655 3.6375v2.2466" fill="#FFFFFE"/>
<path d="m84.742 92.12h2.0836c1.5526 0 2.7786-1.2257 2.7786-3.2686s-1.1849-2.9827-2.5332-2.9827h-2.3291v6.2512" fill="#FFFFFE"/>
<path d="m84.742 85.216h2.0429c1.5934 0 2.1244-1.3482 2.1244-3.1052 0-1.4307-0.61251-2.5338-2.1244-2.5338h-2.0429v5.639" fill="#FFFFFE"/>
<path d="m42.33 86.972c0-0.89807-0.081818-3.5548 2.0836-3.5548 1.7163 0 1.9611 2.2065 1.9611 3.5548h-4.0447" fill="#FFFFFE"/>
<path d="m60.962 86.972c0-0.89807-0.081818-3.5548 2.0836-3.5548 1.7163 0 1.9617 2.2065 1.9617 3.5548h-4.0453" fill="#FFFFFE"/>
<g transform="translate(24.064)">
<path d="m70.321 86.972c0-0.89807-0.082139-3.5548 2.084-3.5548 1.7156 0 1.9611 2.2065 1.9611 3.5548h-4.045" fill="#FFFFFE"/>
<path d="m35.392 69.945c-19.467-0.0028877-35.247-15.612-35.244-34.863 0.0025668-19.251 15.786-34.856 35.253-34.854 19.467 0.0032086 35.247 15.612 35.244 34.863-0.0019251 19.251-15.786 34.856-35.253 34.853" fill="#181916"/>
</g>
<path d="m30.554 51.811 0.61925-0.49091c-1.8215-3.3379-3.4258-8.3477-3.5156-8.4523-0.040749 0.14182 0.69497 4.7952 2.8964 8.9432" fill="#181916"/>
<path d="m59.949 3.6921 4.7894 27.874-5.0021 2.9378-0.17294-30.8c-3.209e-4 -0.36995-0.26182-0.36642-0.30032 3.2086e-4l-2.8393 29.216-2.1013-1.2202 4.508-28c-17.456 0.10877-31.242 14.126-31.243 31.447-0.0012834 5.4712 1.7211 11.21 4.1971 15.692l21.993-18.294 2.1083 1.2077-24.703 17.76c-0.59262 0.41262-0.41519 0.61861 0.24128 0.25444l27.577-15.926-6.417e-4 5.735-26.624 10.155c5.5684 9.1101 15.456 14.909 26.989 14.91 11.517 0.0012834 21.565-5.812 27.141-14.899l-26.588-10.148-3.208e-4 -5.7359 26.521 15.297c0.60128 0.33786 0.78321 0.15273 0.21562-0.25187l-23.622-17.136 2.1064-1.2083 21.985 18.313c2.5168-4.509 4.1852-10.265 4.1859-15.782 0.0019251-17.097-14.218-30.929-31.361-31.396" fill="#FFFFFE"/>
<path d="m93.197 29.019c-1.3341-7.4878-5.1732-13.019-5.1732-13.019-6.0911-9.033-16.471-14.927-28.496-14.929-19.084-0.0025668-34.513 15.467-34.515 34.552-3.208e-4 4.4945 1.1458 8.7889 2.7061 12.727 0.71711 1.809 3.7588 7.0261 3.8968 7.1378-0.014118-0.1662-2.1613-4.3386-3.2901-7.1147-0.96802-2.3801-2.1722-7.1246-2.1716-12.627 0.0022459-18.514 15.013-33.521 33.526-33.519 9.6738 0.0012834 18.763 4.7243 24.34 10.847 1.1884 1.304 2.2158 2.4879 3.1357 3.6918 0 0 2.4253 2.2691 6.0404 12.253" fill="#FFFFFE"/>
<path d="m92.119 35c-3.209e-4 5.7305-1.7958 11.669-4.4429 16.329 0.14759 0.38471 0.0083422 0.58139-0.43925 0.69594-5.769 9.2936-16.07 15.376-27.797 15.373-11.002-0.0012835-19.804-5.9105-22.586-8.9653-2.2582-2.478-3.9318-4.3319-5.2248-6.436l-0.75722 0.29166c4.9498 9.4652 15.334 16.345 28.579 16.346 18.798 0.0028877 33.806-15.198 33.808-33.545 0 0 0.58332-5.8973-4.5382-14.289 0 0 3.5695 6.497 3.3975 14.2" fill="#FFFFFE"/>
<path d="m57.263 34.571-4.6909 3.8304s-0.98984 0.81754 0.43059 0.085989l5.6804-3.0985-1.4201-0.81786" fill="#181916"/>
<path d="m57.737 33.624 1.3768-20.915s0.1293-2.5389 0.25829 0.042674c0.12706 2.538-0.25829 21.776-0.25829 21.776l-1.3768-0.90385" fill="#181916"/>
<path d="m60.232 35.388 1.5064-0.86053 17.816 11.92s1.3338 0.90321-0.1723 0.12898l-19.151-11.189" fill="#181916"/>
</g>
</svg>
