<?xml version="1.0" encoding="UTF-8"?>
<svg version="1.1" viewBox="0 0 97 100" xmlns="http://www.w3.org/2000/svg">
<title>dodge_1993</title>
<desc>Created with Sketch.</desc>
<g fill="none" fill-rule="evenodd">
<path d="m43.848 93.614v3.8978h5.323c2.9416 0 4.0511-1.1663 4.0511-2.8056 0-1.0635-0.52584-2.7848-4.014-2.7848h-8.9719v-2.2045h9.3652c5.9624 0 7.3472 2.5331 7.3472 4.9893 0 2.9635-1.9994 5.0101-7.3562 5.0101h-9.3562v-6.1022h3.6118" fill="#0A0B09"/>
<path d="m4.1478 93.614v3.8978h5.3225c2.9421 0 4.05-1.1663 4.05-2.8056 0-1.0635-0.52528-2.7848-4.0124-2.7848h-8.9713v-2.2045h9.3635c5.9612 0 7.3466 2.5331 7.3466 4.9893 0 2.9635-1.9966 5.0101-7.3556 5.0101h-9.3545v-6.1022h3.6112" fill="#0A0B09"/>
<path d="m67.642 93.603v2.2062h5.2921v1.7022h-5.2657c-2.9904 0-4.1084-1.1663-4.1084-2.8056 0-1.8084 1.5112-2.7848 3.9084-2.7848h9.0775v-2.2045h-9.2191c-4.7399 0-7.4933 1.4989-7.4933 4.9893 0 3.4298 2.6579 5.0101 7.3483 5.0101h9.364v-6.1129h-8.9039" fill="#0A0B09"/>
<polyline points="84.582 91.913 95.963 91.913 95.963 89.717 80.742 89.717 80.742 99.716 96.086 99.716 96.086 97.512 84.582 97.512 84.582 95.81 95.361 95.81 95.361 93.614 84.582 93.614 84.582 91.913" fill="#0A0B09"/>
<path d="m28.619 99.876c-6.1635 0-8.514-2.0281-8.514-5.1596 0-3.1236 2.4275-5.1494 8.514-5.1494 6.0955 0 8.5124 2.0258 8.5124 5.1494 0 3.1315-2.4169 5.1596-8.5124 5.1596zm4.786-5.1596c0-1.7129-1.6624-2.9635-4.786-2.9635-3.1534 0-4.7882 1.2506-4.7882 2.9635 0 1.6287 1.4725 2.9618 4.7882 2.9618 3.3629 0 4.786-1.3331 4.786-2.9618z" fill="#0A0B09"/>
<path d="m48.281 0.45449c12.224 0 25.178 0.72528 30.088 1.2225 5.6 0.55618 8.2096 3.4006 8.2096 8.9489 0 10.508-0.3927 26.893-1.1096 36.576-0.64045 8.5904-1.1466 15.37-11.839 21.874-7.6236 4.6208-15.248 8.6191-25.176 13.749l-0.17247 0.089888-0.1809-0.089888c-9.9084-5.1208-17.513-9.1062-25.167-13.749-10.692-6.5034-11.199-13.283-11.839-21.874-0.71685-9.6337-1.1079-26.039-1.1079-36.576 0-5.5483 2.6073-8.3927 8.2073-8.9489 4.9107-0.49719 17.867-1.2225 30.088-1.2225" fill="#D62633"/>
<path d="m24.604 66.062c7.4062 4.5056 14.075 8.0034 23.687 12.986 9.5455-4.9517 16.216-8.441 23.678-12.986 9.0764-5.5079 9.4494-10.607 10.078-19.048 0.72865-9.7129 1.1292-26.287 1.1292-36.945 0-3.5303-1.05-4.6629-4.6624-5.0219-4.9208-0.49607-17.934-1.232-30.223-1.232-12.297 0-25.311 0.73596-30.231 1.232-3.6225 0.35899-4.664 1.4916-4.664 5.0219 0 10.658 0.40169 27.232 1.118 36.945 0.63146 8.441 1.0129 13.54 10.09 19.048" fill="#FFFFFE"/>
<path d="m47.776 25.081-1.1567 3.8882c-4.1753-8.5404-9.1534-13.015-15.182-13.015-6.5275 0-9.7185 4.3545-10.654 5.7365 1.6725-4.2056 6.0955-7.8949 11.981-7.8949 8.0646 0 12.623 6.3635 15.012 11.285" fill="#D62633"/>
<path d="m17.544 33.83c0.047256 14.219 4.1843 21.047 10.357 21.047 2.8573 0 4.9112-1.7972 4.9112-4.7213 0-2.5051-1.0899-4.4747-1.5287-5.2792 0.17247 0.81573 0.31517 1.7494 0.31517 2.7938 0 2.4461-1.6528 3.2416-3 3.2416-4.1084 0-8.2174-7.9837-9.3742-17.081h-1.681" fill="#D62633"/>
<path d="m63.819 13.796c5.886 0 10.301 3.6893 11.982 7.8949-0.94663-1.382-4.1388-5.7365-10.653-5.7365-6.0303 0-11.008 4.4742-15.183 13.015l-1.1567-3.8882c2.3888-4.9213 6.9461-11.285 15.011-11.285" fill="#D62633"/>
<path d="m77.357 33.83c-1.1556 9.0978-5.2646 17.081-9.373 17.081-1.3551 0-3.0073-0.79551-3.0073-3.2416 0-1.0444 0.15112-1.9781 0.31348-2.7938-0.44101 0.80449-1.5197 2.7742-1.5197 5.2792 0 2.9242 2.0455 4.7213 4.9101 4.7213 6.1646 0 10.311-6.8281 10.36-21.047h-1.6832" fill="#D62633"/>
<path d="m48.291 64.78c1.9017 0 3.5938 0 4.0612-2.368 0.1736-0.87247 0.99326-5 0.99326-5s2.4169-4.1365 2.7618-4.7213c0.23034-0.42697 0.54382-1.1247 0.65899-1.6416 0.13427-0.55787 1.9775-8.3517 1.9775-8.3517s1.7303-0.76461 3.1635-1.4011c2.8955-1.2927 3.0579-4.3253 2.0253-7.964 0.56517-1.3118 1.4989-2.5247 2.6478-2.5247 1.682 0 2.4073 1.4011 2.4073 3.6483 0 4.8522-1.7292 7.5163-1.7292 10.072 0 1.0438 0.43989 1.6798 1.2798 1.6798 2.7618 0 6.4298-6.1039 7.7399-13.302h1.568c0.35225-5.1112-2.3528-11.296-8.8669-11.296-5.2854 0-10.434 4.1961-13.512 13.91l1.9882 1.3815-0.95562 4.7719-3.7264 1.5517-0.67809 4.6927 1.8146-2.227 1.9489-0.81573-0.60225 3.032-3.3629 1.3921-1.1742 8.1124 0.81966 2.5848-3.2483 1.2837-3.2478-1.2837 0.82191-2.5848-1.1764-8.1124-3.3629-1.3921-0.61124-3.032 1.9489 0.81573 1.8247 2.227-0.68708-4.6927-3.7264-1.5517-0.95562-4.7719 1.9972-1.3815c-3.077-9.714-8.2371-13.91-13.511-13.91-6.5169 0-9.2213 6.1843-8.868 11.296h1.5669c1.3101 7.1978 4.9781 13.302 7.7303 13.302 0.85056 0 1.2904-0.63596 1.2904-1.6798 0-2.5556-1.7393-5.2197-1.7393-10.072 0-2.2472 0.7264-3.6483 2.4174-3.6483 1.1466 0 2.0826 1.2129 2.6365 2.5247-1.0225 3.6388-0.86011 6.6713 2.0354 7.964 1.4343 0.63652 3.1635 1.4011 3.1635 1.4011s1.8337 7.7938 1.9685 8.3517c0.12416 0.51685 0.43989 1.2146 0.66798 1.6416 0.34494 0.58483 2.7522 4.7213 2.7522 4.7213s0.82191 4.1275 1.0028 5c0.46854 2.368 2.1596 2.368 4.0607 2.368" fill="#D62633"/>
<path d="m34.237 33.353 2.2449 3.5393 0.83146 3.6596s-0.81292-0.35899-1.5006-0.6573c-2.0545-0.87416-2.2652-3.2994-1.5758-6.5416" fill="#FFFFFE"/>
<path d="m60.771 39.894c-0.69888 0.29831-1.5118 0.6573-1.5118 0.6573l0.83258-3.6596 2.2539-3.5393c0.6882 3.2421 0.47753 5.6674-1.5747 6.5416" fill="#FFFFFE"/>
</g>
</svg>
