<?xml version="1.0" encoding="UTF-8"?>
<svg version="1.1" viewBox="0 0 120 82" xmlns="http://www.w3.org/2000/svg">
<title>Maserati logo</title>
<desc>Created with Sketch.</desc>
<g fill="none" fill-rule="evenodd">
<g transform="translate(-538 -4339)" fill="#0D2240" fill-rule="nonzero">
<g transform="translate(538 4339)">
<rect id="Rectangle" x="56.178" y="65.546" width="9.1151" height="6.3025"/>
<rect id="Rectangle" x="41.54" y="50.562" width="38.384" height="1.2469"/>
<rect id="a" x="39.501" y="52.914" width="42.468" height="1.2469"/>
<rect x="39.444" y="48.244" width="42.468" height="1.2469"/>
<path id="Path" d="m67.43 56.838c-2.1288 1.5112-2.1123 4.2355-2.1123 4.2355h-9.1644s0-2.7107-2.1123-4.2355c-0.94612-0.6503-2.0776-1.0911-3.2877-1.2808-1.1918-0.18298-1.1918-0.2914-1.1918-0.35917h22.356s0 0.16942-1.1836 0.35917c-1.2103 0.18914-2.3419 0.63002-3.2877 1.2808"/>
<path id="Path" d="m41.721 55.204h4.611c0 2.1279-1.7671 3.0835-4.611 2.6091v-2.6091z"/>
<path id="Path" d="m58.06 20.886c1.8329-2.826 2.1863-7.0886 2.6548-7.1564 0.46027 0.067769 0.82192 4.3236 2.6466 7.1564 1.7342 2.6701 5.4575 4.9336 5.2438 5.1979-0.2137 0.2643-2.326-0.50149-3.3616-0.87421-1.6438-0.60992-3.0082-1.0775-3.0082-1.0775-0.33102 4.3753 0.1597 8.7666 1.4548 13.018 1.397 3.6488 3.513 7.0832 6.263 10.165h-5.3014l-0.48493-0.67769c-1.5508-2.0557-2.7173-4.2923-3.4603-6.6345-0.74387 2.3419-1.9103 4.5784-3.4603 6.6345-0.15616 0.21686-0.32055 0.43372-0.48493 0.67769h-5.2932c2.7484-3.083 4.8642-6.5171 6.263-10.165 1.2934-4.252 1.7841-8.643 1.4548-13.018 0 0-1.3479 0.47438-3.0082 1.0775-1.0356 0.3795-3.0986 1.2063-3.3616 0.87421s3.5096-2.5278 5.2438-5.1979"/>
<path id="Path" d="m41.54 47.323c0-0.50149-0.35342-7.3529-2.4164-12.747-2.2603-5.9094-6.8055-9.4198-6.5014-9.779 0.30411-0.35917 4.0438 0.27107 6.863 1.7823 3.0082 1.6129 5.9589 4.2762 5.7534 4.4795-0.20548 0.20331-1.1507-0.53537-2.9836-1.0707-0.88017-0.31833-1.8336-0.47555-2.7945-0.46083 2.0398 2.7203 3.6632 5.6385 4.8329 8.6879 0.97375 2.9856 1.6689 6.0282 2.0795 9.1013l-4.8329 0.0067768z"/>
<path id="Path" d="m79.94 47.323c0-0.50149 0.35342-7.3529 2.4164-12.747 2.2603-5.9094 6.8055-9.4198 6.5014-9.779-0.30411-0.35917-4.0438 0.27107-6.863 1.7823-3.0082 1.6129-5.9671 4.2762-5.7534 4.4795s1.1507-0.53537 2.9836-1.0707c0.88285-0.31888 1.8391-0.4761 2.8027-0.46083-2.039 2.7207-3.6623 5.6388-4.8329 8.6879-0.97504 2.9853-1.6702 6.0281-2.0795 9.1013l4.8247 0.0067768z"/>
<path id="b" d="m79.751 55.204h-4.6027c0 2.1279 1.7671 3.0835 4.6027 2.6091v-2.6091z"/>
<path d="m88.693 65.566c-6.2137 9.3995-16.019 15.783-27.945 15.783-12.164 0-22.118-6.6278-28.307-16.325h0.91233c6.1068 9.3656 15.773 15.682 27.395 15.682 11.408 0 20.934-6.0992 27.058-15.173l0.88767 0.033884zm-27.945-65.566c20.918 0 35.277 19.599 35.277 40.661 0.038467 7.3516-1.746 14.632-5.2438 21.395l-0.82192-0.040661c3.5298-6.7386 5.3293-14.007 5.2849-21.347 0-21.008-14.285-40.038-34.455-40.038s-34.504 19.036-34.504 40.044c-0.030848 7.0822 1.6454 14.099 4.9315 20.642h-0.87123c-3.2347-6.5539-4.8821-13.567-4.8493-20.642 0-21.076 14.351-40.661 35.277-40.661l-0.024658-0.013554zm-23.433 65.071c5.6959 7.9493 14.112 12.957 23.458 12.957 9.189 0 17.474-4.8387 23.162-12.558l2.9096 0.081322c-6.0164 8.7421-15.238 14.502-26.071 14.502-11.03 0-20.384-5.9772-26.392-14.984h2.9342zm54.386-24.397c0-20.69-13.973-37.313-30.962-37.313s-30.962 16.624-30.962 37.313c-0.076102 7.1099 1.6863 14.152 5.1699 20.656h-2.8027c-3.3141-6.5365-4.9915-13.558-4.9315-20.642 0-20.927 14.203-39.34 33.567-39.34 19.364 0 33.501 18.392 33.501 39.326 0.052453 7.3312-1.762 14.59-5.326 21.306l-2.7534-0.12198c3.6955-6.6434 5.5727-13.876 5.4986-21.184z"/>
<path d="m115.65 65.315c-7.6967-1.2747-15.5-2.0631-23.342-2.3583-9.5589-0.54215-14.893-0.83355-35.449-0.83355-21.074 0-28.849 0-36.279 0.31174-6.5753 0.25752-18.238 0.95554-20.301 1.6739-0.39452 0.13554-0.26301 0.29818-0.11507 0.37273 0.68219 0.33207 3.2877 1.0233 9.6658 1.2131 6.3781 0.18975 10.874 0.33207 12.148 0.1762 0.67397-0.081322 0.50959-0.33884-0.37808-0.3795-0.51781 0-4.5452-0.67769-8.2192-0.78612-2.6384-0.20331-3.0904-0.14909-3.2877-0.24397-0.19726-0.094876-0.1726-0.054215 3.9534-0.16942 4.874-0.13554 12.542-0.067769 19.964-0.067769 8.2685 0 10.496 0.27785 23.014 0.27785 13.389 0 27.74 0.040661 34.8 0.23041 11.729 0.31174 21.099 1.3215 23.614 1.5383 2.3178 0.19653 4.2658 0.49471 4.0438 0.081322-0.09863-0.18975-2.0959-0.75901-3.8877-1.0436"/>
</g>
</g>
</g>
</svg>
