<?xml version="1.0" encoding="UTF-8"?>
<svg version="1.1" viewBox="0 0 73 100" xmlns="http://www.w3.org/2000/svg">
<title>tesla-vector-logo</title>
<desc>Created with Sketch.</desc>
<g fill="none" fill-rule="evenodd">
<polygon points="0.0069388 99.79 72.908 99.79 72.908 0.095918 0.0069388 0.095918" fill="#CF2339"/>
<path d="m37.271 59.664 6.9-38.805c6.578 0 8.6506 0.72082 8.9518 3.6649 0 0 4.4127-1.6441 6.638-4.9861-8.6829-4.0253-17.41-4.2061-17.41-4.2061l-5.0914 6.2004h0.011428l-5.091-6.202s-8.7257 0.18122-17.409 4.2065c2.2241 3.342 6.6384 4.9861 6.6384 4.9861 0.3-2.9441 2.3735-3.6653 8.9061-3.6694l6.9551 38.811" fill="#FFFFFE"/>
<path d="m37.268 13.541c7.0188-0.053469 15.054 1.0853 23.28 4.6702 1.0984-1.9788 1.3816-2.8539 1.3816-2.8539-8.9922-3.5555-17.411-4.7731-24.662-4.8053-7.2502 0.032245-15.669 1.2498-24.661 4.8053 0 0 0.40163 1.078 1.3816 2.8539 8.2237-3.5849 16.261-4.7237 23.28-4.6702h0.0012245" fill="#FFFFFE"/>
<path d="m9.1412 73.609c0.15796 0.61551 0.69102 1.2453 1.4241 1.4029h2.211l0.11184 0.044898v5.5804h1.3816v-5.5804l0.12612-0.044898h2.2122c0.73959-0.19102 1.2624-0.78735 1.4176-1.4029v-0.014286h-8.8845v0.014286" fill="#FFFFFE"/>
<path d="m51.309 80.653c0.6898-0.29347 1.0588-0.79796 1.2004-1.3882h-6.1294l0.0040817-5.6641-1.3743 0.0032653v7.049h6.2992" fill="#FFFFFE"/>
<path d="m34.79 74.99h4.8547c0.73102-0.21306 1.3453-0.7702 1.4951-1.3873h-7.7094v4.1645h6.3106v1.4629l-4.951 0.0040816c-0.7751 0.21469-1.4314 0.7351-1.7604 1.4245l0.40082-0.0077551h7.6665v-4.2682h-6.3069v-1.3927" fill="#FFFFFE"/>
<polyline points="55.448 76.389 55.448 80.651 56.816 80.651 56.816 77.815 61.789 77.815 61.789 80.651 63.155 80.651 63.155 76.396 55.448 76.389" fill="#FFFFFE"/>
<path d="m22.809 75.004h5.2539c0.73102-0.14531 1.2739-0.7902 1.4265-1.4127h-8.1061c0.15061 0.62245 0.70163 1.2673 1.4257 1.4127" fill="#FFFFFE"/>
<path d="m22.809 77.791h5.2539c0.73102-0.14571 1.2739-0.7902 1.4265-1.4143h-8.1061c0.15061 0.62408 0.70163 1.2686 1.4257 1.4143" fill="#FFFFFE"/>
<path d="m22.809 80.652h5.2539c0.73102-0.14612 1.2739-0.78857 1.4265-1.4135h-8.1061c0.15061 0.6249 0.70163 1.2673 1.4257 1.4135" fill="#FFFFFE"/>
<path d="m56.662 75.01h5.2551c0.73061-0.14612 1.2743-0.78857 1.4265-1.4127h-8.1078c0.15143 0.62408 0.70245 1.2665 1.4261 1.4127" fill="#FFFFFE"/>
</g>
</svg>
