<?xml version="1.0" encoding="UTF-8"?>
<svg version="1.1" viewBox="0 0 120 43" xmlns="http://www.w3.org/2000/svg">
<title>chevrolet-black-(.eps)-logo-vector</title>
<desc>Created with Sketch.</desc>
<g fill="none" fill-rule="evenodd">
<g transform="translate(-571 -4502)">
<g transform="translate(571 4502)">
<polyline points="0.30305 32.357 40.227 32.357 40.227 42.929 80.151 42.929 80.151 32.357 109.5 32.357 119.45 10.717 80.151 10.717 80.151 0.14441 40.227 0.14441 40.227 10.717 10.377 10.717 0.30305 32.357" fill="#1B1A19"/>
<polyline points="81.877 17.546 81.877 25.547 89.377 25.547 89.377 24.172 84.127 24.172 84.127 17.546 81.877 17.546" fill="#FFFFFE"/>
<polyline points="91.502 17.546 91.502 25.547 99.002 25.547 99.002 24.172 93.752 24.172 93.752 22.172 98.377 22.172 98.377 20.797 93.752 20.797 93.752 18.922 99.002 18.922 99.002 17.546 91.502 17.546" fill="#FFFFFE"/>
<polyline points="100.88 17.546 100.88 18.922 104.25 18.922 104.25 25.547 106.5 25.547 106.5 18.922 109.88 18.922 109.88 17.546 100.88 17.546" fill="#FFFFFE"/>
<polyline points="36.626 17.546 36.626 25.547 44.127 25.547 44.127 24.172 38.877 24.172 38.877 22.172 43.502 22.172 43.502 20.797 38.877 20.797 38.877 18.922 44.127 18.922 44.127 17.546 36.626 17.546" fill="#FFFFFE"/>
<polyline points="24.126 17.546 24.126 25.547 26.376 25.547 26.376 22.172 30.751 22.172 30.751 25.547 33.001 25.547 33.001 17.546 30.751 17.546 30.751 20.797 26.376 20.797 26.376 17.546 24.126 17.546" fill="#FFFFFE"/>
<polyline points="45.845 17.546 47.97 17.546 50.971 23.828 53.908 17.546 56.064 17.546 52.315 25.547 49.595 25.547 45.845 17.546" fill="#FFFFFE"/>
<path d="m19.571 23.098c-0.52203 0.9722-1.5193 1.6305-2.6631 1.6305-1.6841 0-3.0495-1.4251-3.0495-3.1824 0-1.7566 1.3654-3.1817 3.0495-3.1817 1.198 0 2.2339 0.72068 2.7329 1.7688l2.4217 0.0074576c-0.72203-1.7519-2.7573-3.0136-5.1546-3.0136-3.0027 0-5.4359 1.979-5.4359 4.419 0 2.4407 2.4332 4.4203 5.4359 4.4203 2.3322 0 4.3214-1.1946 5.0929-2.8719l-2.4298 0.0033898" fill="#FFFFFE"/>
<path d="m59.626 25.547h-2.2502v-8.0007h6.3125c1.1878 0 2.7505 0.21831 2.7505 2.1254 0 1.0312-0.87458 1.9993-1.4997 2.1254 0.53085 0.28068 1.6556 1.0312 1.6556 2.4054v1.3444h-2.1566v-1.3444c0.063051-0.71864-0.68678-1.6563-1.6244-1.6563h-3.1878v3.0007" fill="#FFFFFE"/>
<path d="m74.158 25.967c-3.002 0-5.4359-1.9797-5.4359-4.4203 0-2.44 2.4339-4.4197 5.4359-4.4197s5.4359 1.9797 5.4359 4.4197c0 2.4407-2.4339 4.4203-5.4359 4.4203" fill="#FFFFFE"/>
<path d="m59.626 21.172h3.1566c0.65627 0 1.3125-0.34441 1.3125-1.2502 0-0.75051-0.93763-1-1.3749-1h-3.0942v2.2502" fill="#1B1A19"/>
<path d="m77.207 21.546c0-1.7566-1.3647-3.1817-3.0488-3.1817s-3.0495 1.4251-3.0495 3.1817c0 1.7573 1.3654 3.1824 3.0495 3.1824s3.0488-1.4251 3.0488-3.1824" fill="#1B1A19"/>
</g>
</g>
</g>
</svg>
