<?xml version="1.0" encoding="UTF-8"?>
<svg version="1.1" viewBox="0 0 120 83" xmlns="http://www.w3.org/2000/svg">
<title>nissan--eps--vector-logo</title>
<desc>Created with Sketch.</desc>
<g fill="none" fill-rule="evenodd">
<path d="m94.397 32.494h8.5953l5.34 13.935v-13.935h5.3911v18.309h-8.0355l-6.1538-14.392v14.392h-5.137v-18.309zm-15.156 0h7.5779l6.6115 18.309h-5.3904l-0.96638-3.4072h-7.8326l-0.96702 3.4072h-5.3904l6.3574-18.309zm-7.5785 0v4.1189h-10.273v2.9502h5.3394c4.4247 0 6.6121 1.8313 6.6121 5.6457 0 1.576-0.55915 3.0517-1.6787 4.1189-0.96638 1.0174-2.1862 1.4751-3.6613 1.4751h-11.24v-4.1189h11.24v-2.9496h-5.6451c-2.2889 0-4.0187-0.61085-5.137-1.9838-0.86489-1.0685-1.2211-2.4415-1.2211-4.1202 0-1.8306 0.50872-3.2036 1.4751-3.916 0.86426-0.86426 2.0853-1.2204 3.6619-1.2204h10.527zm-29.091 0h10.528v4.1189h-10.273v2.9502h5.34c4.4247 0 6.6115 1.8313 6.6115 5.6457 0 1.576-0.45766 2.8985-1.4751 4.1189-1.2204 1.0174-2.4409 1.4751-3.6619 1.4751h-11.748v-4.1189h11.494v-2.9496h-5.5947c-2.0847 0-3.6613-0.50872-4.6787-1.4751-0.96638-0.96702-1.424-2.5436-1.424-4.6289 0-1.9832 0.35553-3.3057 1.1694-3.916 0.86489-0.86426 2.0853-1.2204 3.713-1.2204zm-35.5 0h8.3406l5.5947 13.935v-13.935h5.137v18.309h-8.0866l-5.8487-14.392v14.392h-5.137v-18.309zm22.531 18.309h5.1364v-18.309h-5.1364v18.309zm-25.429-25.175c-1.0174 0-1.8319 0.35617-2.4415 0.96638-0.86489 0.86489-1.2715 1.7291-1.2715 2.6955v24.717c0 0.96766 0.4066 1.8319 1.0168 2.4415 0.86426 0.86489 1.6787 1.2217 2.6962 1.2217h112.24c0.86617 0 1.5779-0.35681 2.4421-1.2217 0.60958-0.35553 1.0168-1.2204 1.0168-2.4415v-24.717c0-1.1189-0.40723-2.0853-1.0168-2.6955-0.61085-0.61021-1.4751-0.96638-2.4421-0.96638h-112.24z" fill="#2A457B"/>
<polyline points="80.717 43.478 85.599 43.478 83.157 36.613 80.717 43.478" fill="#2A457B"/>
<path d="m38.605 6.81c-6.713 4.2721-11.596 9.8157-14.902 16.377h73.135c-3.5087-6.9677-8.4421-12.613-14.9-16.631-6.6121-4.0685-13.834-6.1034-21.514-6.1034-7.7311 0-15.054 2.0349-21.819 6.3574" fill="#D73033"/>
<path d="m23.703 60.11c3.3057 6.6109 8.1887 12.104 14.902 16.376 6.51 4.0691 13.732 6.1538 21.819 6.1538 8.0866 0 15.257-2.0847 21.767-6.1538 6.7136-4.3743 11.596-9.8662 14.647-16.376h-73.135" fill="#D73033"/>
</g>
</svg>
