<?xml version="1.0" encoding="UTF-8"?>
<svg version="1.1" viewBox="0 0 54 98" xmlns="http://www.w3.org/2000/svg">
<title>Rolls Royce</title>
<desc>Created with Sketch.</desc>
<g fill="none" fill-rule="evenodd">
<g transform="translate(-1 -1)">
<path d="m51.033 98.041c2.0103 0 3.7205-1.5359 3.7385-3.5077v-89.031c0-1.9744-1.4949-3.6231-3.5077-3.6231h-45.954c-2.0128-0.020513-3.7436 1.5359-3.7436 3.5077v89.013c-0.020513 1.9744 1.4974 3.641 3.5103 3.641h45.956" fill="#064A89"/>
<path d="m51.051 97.085h-45.956c-1.4692 0-2.5718-1.2538-2.5718-2.6923v-88.997c0.038462-1.4385 1.3359-2.5974 2.8051-2.559h45.954c1.4333 0 2.5333 1.2333 2.5333 2.6718v89.036c-0.035897 1.441-1.3333 2.541-2.7641 2.541" fill="#FFFFFE"/>
<path d="m49.426 78.01c0.92821 0 1.7231-0.64359 1.7231-1.5179v-52.933c0-0.87179-0.67692-1.6487-1.5692-1.6487h-42.703c-0.88974 0-1.6846 0.7-1.6846 1.5744v52.933c0 0.83333 0.67949 1.5179 1.5667 1.5179l42.667 0.074359" fill="#064A89"/>
<path d="m11.074 25.585v-0.45641s5.4923 0.038462 13.695 0.038462c5.1846 0 8.5872 1.7821 10.559 4.7 0.69744 1.0641 1.2385 2.2385 1.5872 3.5667 0.19487 0.87179 0.38462 1.7436 0.42564 2.6897 0.69487 6.6-6.6923 12.931-6.6923 12.931s0.69744 1.2513 1.6641 2.9564c0.50256 0.98718 1.0667 2.1308 1.6231 3.3 2.5615 5.3744 2.5538 11.908 2.5538 11.908l1.8564 2.3513h-7.5051l1.741-2.2385s0.59231-6.7308-3.7513-14.292c-1.0615-1.8513-1.5462-2.5436-1.5462-2.5436s-2.8641 0.87179-5.7641 1.4026c-2.7462 0.49487-5.5897 0.64359-5.5897 0.64359v15.605l1.1795 1.4974h-6.2692l1.0077-1.4974v-40.515s0.038462-0.53333-0.11538-1.0641c-0.11538-0.49231-0.65897-0.98205-0.65897-0.98205" fill="#FFFFFE"/>
<path d="m30.082 29.587c-1.4923-1.5538-4.3718-1.6128-4.3718-1.6128h-9.5333v20.951s3.7667 0.1 7.7154-1.3282c4.7436-1.7128 8.6667-5.1564 8.5103-11.374-0.035897-3.1487-1.3923-5.6513-2.3205-6.6359" fill="#064A89"/>
<path d="m19.541 48.056v-17.062c-0.19231-0.45641-0.61795-0.91026-0.69487-0.98462l0.038462-0.43846h10.018c0.88974 0.45641 1.8179 1.3103 2.3615 2.941h-7.4385v14.482c-1.3923 0.45641-2.5026 0.90256-4.2846 1.0615" fill="#FFFFFE"/>
<path d="m29.728 56.474c-0.79231-1.9538-1.1718-2.3667-1.6205-3.1256-2.7436 0.34103-4.2051 0.24359-4.2051 0.24359v-1.5564c-1.9949 0.29744-2.6205 0.39487-4.3231 0.73846v19.938l-0.9359 1.5179h6.3026l-1.1103-1.5179v-15.595s3.6821-0.35641 6.1231-0.64359" fill="#FFFFFE"/>
<path d="m49.385 94.474c0.93077 0 1.6667-0.68462 1.6667-1.5564v-11.6c0-0.87436-0.7359-1.5949-1.6256-1.5949h-42.667c-0.92821 0-1.6641 0.64615-1.6641 1.4795v11.603c0 0.87179 0.7359 1.5923 1.6256 1.5923l42.664 0.076923" fill="#064A89"/>
<path d="m25.079 87.785c0 3.0744-2.359 5.5-5.2615 5.5-2.8974 0-5.2205-2.4256-5.2205-5.5359 0-3.0359 2.359-5.5359 5.2615-5.5359 2.8615 0 5.2205 2.5 5.2205 5.5718" fill="#FFFFFE"/>
<path d="m15.726 87.756c0 2.4256 1.8205 4.3974 4.141 4.3974 2.2821 0 4.1-1.9718 4.1-4.3974 0-2.4256-1.8179-4.4-4.1-4.4-2.3205 0-4.141 1.9744-4.141 4.4" fill="#064A89"/>
<path d="m42.582 84.787c-0.76923-0.87179-1.8897-1.4-3.0538-1.4-2.2436 0-4.0615 2.0462-4.0615 4.3974 0 2.3897 1.8179 4.4359 4.1 4.4359 1.0821 0 2.2462-0.56923 3.0154-1.4026v1.4795c-0.84615 0.68205-1.9692 1.0231-3.0154 1.0231-2.8205 0-5.2231-2.4282-5.2231-5.459 0-3.1103 2.3615-5.6128 5.2615-5.6128 1.1205 0 2.0897 0.34103 2.9769 1.0615v1.4769" fill="#FFFFFE"/>
<polyline points="25.879 82.385 27.192 82.385 29.749 87.2 32.303 82.423 33.615 82.423 30.328 88.51 30.328 93.115 29.187 93.115 29.187 88.51 25.879 82.385" fill="#FFFFFE"/>
<path d="m8.7821 93.069h-1.0974v-10.733h1.4333c1.9333 0.038462 3.6718 0.56923 3.6718 2.9949 0 1.6692-0.9641 2.8077-2.5128 2.9615l3.1718 4.7769h-1.3154l-3.0564-4.6641h-0.29487v4.6641" fill="#FFFFFE"/>
<path d="m8.8282 87.282h0.31282c1.2359 0 2.5128-0.22564 2.5513-1.8949 0-1.7462-1.2-1.9333-2.5513-1.9718h-0.31282v3.8667" fill="#064A89"/>
<polyline points="44.718 82.433 49.944 82.433 49.944 83.559 45.841 83.559 45.841 86.744 49.828 86.744 49.828 87.879 45.841 87.879 45.805 92.09 49.944 92.09 49.944 93.154 44.718 93.154 44.718 82.433" fill="#FFFFFE"/>
<path d="m49.808 20.203c0.93077 0 1.6667-0.65641 1.6667-1.5308v-11.564c0-0.86923-0.7359-1.6308-1.6256-1.6308h-42.667c-0.93077 0-1.6641 0.68205-1.6641 1.5179v11.564c0 0.87179 0.73333 1.6436 1.6256 1.6436h42.664" fill="#064A89"/>
<path d="m28.056 13.287c0 3.1103-2.4359 5.4974-5.259 5.4974-2.9026 0-5.2256-2.4282-5.2256-5.5359 0-3.0333 2.3615-5.5 5.2256-5.5 2.8615 0 5.259 2.5026 5.259 5.5385" fill="#FFFFFE"/>
<path d="m18.692 13.279c0 2.4256 1.7769 4.4 4.059 4.4 2.3205 0 4.1795-1.9744 4.1795-4.4s-1.8179-4.4359-4.1385-4.4359c-2.3231 0-4.1 2.0103-4.1 4.4359" fill="#064A89"/>
<path d="m46.295 10.087c-0.38718-0.75897-0.85128-1.1769-1.7-1.2154-0.93077 0-1.7026 0.68462-1.7026 1.6692 0 0.94872 0.92821 1.4026 1.5846 1.7051l0.65641 0.26667c1.3154 0.68462 2.4385 1.3641 2.4026 3.0718 0 1.859-1.3949 3.2615-3.1385 3.2615-1.659 0-2.8615-1.0641-3.1308-2.7333l1.0462-0.33846c0.19231 1.0974 0.92821 2.0077 2.0103 2.0077 1.1205 0 2.1256-0.86923 2.1256-2.0846 0-1.2513-0.92821-1.6667-1.8538-2.1615l-0.62308-0.30256c-1.159-0.53077-2.2026-1.2128-2.2026-2.6923 0-1.7077 1.3538-2.7308 2.8256-2.7308 1.1205 0 2.0872 0.60513 2.6308 1.6692l-0.93077 0.60769" fill="#FFFFFE"/>
<path d="m11.218 18.579h-1.1v-10.692h1.4718c1.8923 0 3.6744 0.56923 3.6744 2.9949 0 1.6308-0.96923 2.8051-2.5154 2.9179l3.1718 4.7795h-1.3538l-3.0179-4.6615h-0.33077l-0.017949 4.6615" fill="#FFFFFE"/>
<path d="m11.262 12.833h0.31026c1.3154 0 2.5897-0.22821 2.5897-1.9359 0-1.7077-1.1974-1.9333-2.5538-1.9333h-0.34615v3.8692" fill="#064A89"/>
<polyline points="31.346 17.567 34.156 17.567 34.156 18.631 30.249 18.631 30.249 7.9359 31.346 7.9359 31.346 17.567" fill="#FFFFFE"/>
<polyline points="37.228 17.567 40.038 17.567 40.038 18.631 36.128 18.631 36.128 7.9359 37.228 7.9359 37.228 17.567" fill="#FFFFFE"/>
<path d="m38.436 74.054 7.5051 0.020513-1.8538-2.3718s-0.38718-5.6282-0.91026-7.7538c-0.96667-3.5641-4.9692-10.39-4.9692-10.39s7.5128-5.3 6.7667-12.928c-0.5359-5.5231-3.0436-9.4821-8.8026-10.621 0.0025641 0.010256 0.0076923 0.017949 0.015385 0.028205h0.053846s1.1103 1.1128 1.4769 4.1949c1.1692 1.1462 2.159 3.1949 2.2667 6.5462 0.17436 5.5744-3.0744 9.0641-7.1359 10.941 0.97949 1.8436 0.98974 2.2564 1.5487 3.4308 0.36923-0.092308 0.44103-0.16923 0.44103-0.16923s1.2 1.6308 3.5051 6.1974c2.7846 5.5564 1.8333 10.656 1.8333 10.656l-1.741 2.2179" fill="#FFFFFE"/>
</g>
</g>
</svg>
