<?xml version="1.0" encoding="UTF-8"?>
<svg version="1.1" viewBox="0 0 143 99" xmlns="http://www.w3.org/2000/svg">
<title>toyota-center-vector-logo</title>
<desc>Created with Sketch.</desc>
<g fill="none" fill-rule="evenodd">
<g transform="translate(-1)" fill="#C2242B">
<path d="m73.368 63.016c5.6671-1.1013 10.884-10.319 10.884-28.363 0-0.58734-0.0050633-1.1684-0.01519-1.743 14.876-2.0797 24.98-7.9709 25.611-15.191 3.6392 3.8684 5.7924 8.4848 5.7924 13.723 0 19.706-22.575 31.116-42.272 31.575zm-44.695-31.575c0-5.2329 2.1456-9.8418 5.7759-13.703 0.64937 7.2304 10.806 13.129 25.741 15.189-0.010127 0.57089-0.013924 1.1418-0.013924 1.7253 0 18.061 5.2253 27.28 10.896 28.363-19.727-0.40633-42.399-11.823-42.399-31.575zm43.475-5.3557c-2.3544 0-4.7911-0.11646-7.2076-0.3443 1.2987-9.0544 4.7823-13.042 7.2734-13.042 2.4899 0 5.9734 3.9848 7.2734 13.029-2.462 0.23671-4.9418 0.35696-7.3392 0.35696zm7.857 7.4367c0 12.323-4.2506 18.695-7.7911 18.695-3.5418 0-7.7911-6.3722-7.7911-18.695 0-0.043038 0.0025317-0.082278 0.0025317-0.12152 2.4734 0.20886 5.0544 0.31899 7.7228 0.31899 2.7165 0 5.3392-0.11266 7.8544-0.33038 0 0.044304 0.0025317 0.087342 0.0025317 0.13291zm21.394-18.508c0 5.2911-8.1405 8.6722-17.639 10.172-1.5063-13.556-6.281-20.419-11.546-20.419-5.2633 0-10.044 6.8709-11.548 20.438-9.5519-1.4873-17.766-4.8734-17.766-10.191 0-3.0835 3.8342-5.7266 9.4658-7.5873 5.2063-1.6051 10.905-2.5759 16.704-2.8291 0.0037974-0.0012658 0.0088607-0.0012658 0.01519-0.0012658 0.64684-0.03038 1.3-0.046835 1.9506-0.058228 0.064557 0 0.13038-0.0025316 0.19494-0.0025316 0.30633-0.0037975 0.61519-0.0063291 0.92152-0.0063291h0.022785c0.28987 0 0.57848 0.0025316 0.87089 0.0063291 0.089873 0 0.17975 0.0025316 0.26709 0.0025316 0.28101 0.0063291 0.56076 0.013924 0.83924 0.020253 0.08481 0.0012658 0.17089 0.0050633 0.2557 0.0075949 0.21646 0.0075949 0.43418 0.01519 0.64937 0.024051 0.10127 0.0050633 0.20127 0.0088608 0.3 0.013924 0.28861 0.012658 0.58354 0.026582 0.86962 0.044304 0.035443 0.0012658 0.06962 0.0037975 0.1038 0.0063291 5.2911 0.31392 10.478 1.2215 15.261 2.6658 5.8089 1.8646 9.8076 4.5506 9.8076 7.6937zm-1.8405-9.3671c-6.3658-2.8367-15.339-4.6405-25.977-4.7886-0.018987 0-0.036709 0-0.058228-0.0012658-0.44557-0.0063291-0.8962-0.011392-1.3481-0.011392h-0.017722-0.0050633-0.0037974c-11.346 0-20.892 1.8633-27.546 4.8633-14.267 5.7-22.943 15.853-22.943 27.442 0 18.773 21.289 33.442 50.497 33.442 29.211 0 50.497-14.668 50.497-33.442 0-11.632-8.7354-21.815-23.096-27.504z"/>
<polyline points="8.4937 79.19 1.2 79.19 1.2 74.824 21.062 74.824 21.062 79.19 13.494 79.19 13.494 98.027 8.4937 98.027 8.4937 79.19"/>
<polyline points="56.932 89.265 47.762 74.824 53.824 74.824 59.72 84.492 65.776 74.824 71.775 74.824 62.384 89.277 62.306 98.027 57.01 98.027 56.932 89.265"/>
<path d="m84.549 94.172c4.5823 0 6.6544-3.6266 6.6544-7.4962 0-4.1975-1.9342-7.8835-6.6544-7.8835-4.957 0-6.6532 4.3329-6.6532 7.8835 0 3.8696 2.0709 7.4962 6.6532 7.4962zm-8.8759-16.347c2.2367-2.2861 5.2899-3.7506 8.8759-3.7506 7.181 0 12.537 5.7139 12.537 12.601 0 2.9937-1.181 5.6684-2.9987 7.7924-2.2456 2.6304-5.5684 4.381-9.538 4.381-7.181 0-12.535-5.4785-12.535-12.173 0-3.4494 1.419-6.5646 3.6595-8.8506z"/>
<path d="m127.12 88.784h6.7506l-3.3785-8.357-3.3722 8.357zm0.059494-13.959h6.6734l9.2595 23.203h-5.5304l-2.0671-5.1304h-10.08l-2.0506 5.1304h-5.5177l9.3127-23.203z"/>
<polyline points="105.95 79.19 98.658 79.19 98.658 74.824 118.52 74.824 118.52 79.19 110.95 79.19 110.95 98.027 105.95 98.027 105.95 79.19"/>
<path d="m34.797 94.171c4.5823 0 6.6557-3.6253 6.6557-7.4949 0-4.1975-1.9367-7.8835-6.6557-7.8835-4.9557 0-6.6544 4.3329-6.6544 7.8835 0 3.8696 2.0734 7.4949 6.6544 7.4949zm-8.8747-16.346c2.2354-2.2861 5.2886-3.7494 8.8747-3.7494 7.1835 0 12.537 5.7127 12.537 12.6 0 2.9937-1.1797 5.6684-2.9987 7.7924-2.2456 2.6304-5.5684 4.381-9.538 4.381-7.1797 0-12.534-5.4785-12.534-12.173 0-3.4494 1.419-6.5646 3.6595-8.8506z"/>
</g>
</g>
</svg>
