<?xml version="1.0" encoding="UTF-8"?>
<svg version="1.1" viewBox="0 0 120 60" xmlns="http://www.w3.org/2000/svg" xmlns:xlink="http://www.w3.org/1999/xlink">
<title>jaguar-auto-vector-logo</title>
<desc>Created with Sketch.</desc>
<defs>
<polygon id="b" points="0.14617 0.2917 91.793 0.2917 91.793 59.823 0.14617 59.823"/>
</defs>
<g fill="none" fill-rule="evenodd">
<path d="m47.049 32.39 0.26234 0.15957c0.023617 0.014681-0.047234 3.2974-0.055532 3.2751-2.01-1.4011-4.6519-2.1555-7.1496-1.4847-1.7655 0.54702-3.3491 2.1306-4.0187 3.8362-1.1572 3.0453-0.73085 7.2466 1.6443 9.6217 1.4004 1.5236 3.7755 1.8887 5.6636 1.2791l0.30447-0.36574c0-2.1913 0.36511-4.5677-0.66957-6.5164l0.3466-0.13915 4.3423 0.018511c0.24383 2.8015 0.060638 5.4804 0 8.2819l-0.30447 0.30383c-4.2632 1.4011-10.596 1.95-13.764-1.8874-2.6183-2.6789-3.0447-7.004-2.0094-10.474 0.79149-2.6789 3.2885-5.2985 6.0287-6.09 2.9234-0.91404 6.5777-0.73085 9.3785 0.18191" fill="#0E473A"/>
<path d="m9.0664 32.185-0.20106 16.345c-0.18319 3.2279-1.523 6.0294-4.0806 8.0387-0.010213-0.028723-4.2766 0.018511-4.3238 0 0.42638-0.67085 1.1572-1.1566 1.8268-1.9487 1.7055-2.1319 2.3751-4.6896 2.3751-7.4298l0.24383-12.363c-0.061277-1.0353-0.30447-1.9487-0.79149-2.8015 0.24319-0.30447 0.85213-0.18702 1.2785-0.18191l3.4053-0.023617 0.26745 0.36511" fill="#0E473A"/>
<path d="m56.062 32.513-0.060638 12.91c0.12128 1.036 0.48702 2.0706 1.4004 2.7415 1.096 0.91277 2.6796 1.096 4.0806 0.73085 1.0347-0.36574 2.0094-1.2185 2.4964-2.2545l0.36574-1.8874 0.017872-10.931c-0.046596-0.65426-0.53936-1.283-0.72574-1.5721-0.10787-0.16532 0.14553-0.12702 0.14553-0.12702s4.094 0.0051064 4.0519 0.0051064c-0.006383 0.048511 0.068298 0.097021 0.055532 0.14553-0.12255 0.46532-0.51191 0.97277-0.62234 1.5785-0.24383 3.7762-0.12128 7.6736-0.24383 11.57-0.24319 2.4357-1.7655 4.5677-3.9581 5.543-2.984 1.2179-6.8815 0.79149-9.2566-1.3404-1.5223-1.2791-2.01-3.2885-2.01-5.2985-0.12191-3.6536 0.36574-7.3079-0.18255-11.023l-0.46851-1.1994 4.7923 0.023617 0.12191 0.38426" fill="#0E473A"/>
<path d="m102.41 35.314c0.54766 1.5836 0.30447 3.5943-0.60894 4.9334-0.60894 0.79149-1.4617 1.3398-2.3145 1.8274l-0.060638 0.18191c1.6436 2.9234 3.0453 6.09 5.1766 8.7689l-0.1034 0.14617s-4.2517 0.22085-4.9513-0.26681l-0.79213-0.97468-3.916-8.3196c-0.024894-0.11809-0.0057447-0.18957 0.12064-0.29745 0.93574-0.072766 1.6826-0.066383 2.2774-0.49915 1.2791-0.85277 1.396-2.5768 1.2134-4.0379-0.24383-0.85277-0.48702-1.6443-1.3398-2.1319-0.73085-0.5483-1.8268-0.36511-2.8009-0.36511l-0.22532 0.17681-0.018511 14.927 0.52915 1.6257-0.30447 0.18191-4.4266 0.023617-0.18255-0.18191s0.15894-16.79 0.15894-17.34c-0.042766-0.54957-0.49085-1.2926-0.50681-1.4209-0.014681-0.078511 0.061277-0.071489 0.061277-0.14745 2.9789-0.03766 6.1928-0.098298 9.2994 0.084894 1.583 0.30447 3.2272 1.4611 3.7149 3.1053" fill="#0E473A"/>
<path d="m21.958 44.084c-0.10787 0.041489-4.0883 0.03766-4.3238 0l-0.060638-0.24383 2.3751-5.7249 2.1926 5.7855-0.18319 0.18319zm6.5164 4.0806-6.6983-16.321c-0.22404-0.03766-1.7445-0.014043-1.9494 0-2.4357 5.6636-4.7502 11.449-7.2472 17.052l-1.5223 2.3138 0.019149 0.079787c0.0044681 0.023617 4.0513-0.0051063 4.08 0.0044681 0-0.5483-0.018511-1.4247 0.22532-2.033 0.30383-0.91404 0.88596-2.3489 1.1515-2.6789l6.5879 0.023617 0.17681 0.097021 1.0609 2.73 0.34021 1.777 5.5845 0.0044681s-1.3826-1.9532-1.8089-3.0491z" fill="#0E473A"/>
<path d="m78.799 44.168c-0.10787 0.042766-4.0889 0.03766-4.3238 0l-0.060638-0.24319 2.3745-5.7243 2.1926 5.7855-0.18255 0.18191zm6.5164 4.0819-6.6989-16.321c-0.2234-0.03766-1.7445-0.014043-1.9487 0-2.4364 5.663-4.7509 11.448-7.2479 17.051l-1.5217 2.3138 0.018511 0.079787c0.0051064 0.023617 4.0519-0.0044681 4.08 0.0051063 0-0.5483-0.018511-1.4247 0.22532-2.033 0.30447-0.91404 0.8866-2.3489 1.1521-2.6809l6.5872 0.024255 0.17681 0.098298 1.0602 2.7287 0.34085 1.7777 5.5845 0.0051064s-1.3819-1.9532-1.8083-3.0491z" fill="#0E473A"/>
<path d="m14.401 58.889c-0.31149 0.29809-0.81 0.5183-1.2389 0.5183-1.066 0-1.6468-0.82979-1.6468-2.0132 0-1.0174 0.4634-2.1179 1.6123-2.1179 0.45 0 0.89234 0.26298 1.1489 0.63702h0.097021c0.054894-0.24191 0.096383-0.47745 0.15894-0.71362-0.40149-0.22149-0.95489-0.33894-1.4119-0.33894-1.5089 0-2.7549 0.82277-2.7549 2.6304 0 1.4189 1.1215 2.3317 2.6023 2.3317 0.46404 0 0.95553-0.08234 1.3704-0.29681l0.15255-0.59617-0.09-0.040851" fill="#131514"/>
<path d="m18.814 55.276c1.0385 0 1.4534 1.0245 1.4534 1.9174 0 1.1489-0.47745 2.2136-1.5434 2.2136-1.0379 0-1.4464-0.95489-1.4464-1.8536 0-1.5511 0.57447-2.2774 1.5364-2.2774zm2.6023 2.0483c-0.006383-1.0723-0.58787-2.4638-2.5602-2.4638-1.724 0-2.7274 1.1145-2.7274 2.4913 0 1.5715 1.0315 2.4709 2.5609 2.4709 1.696 0 2.7338-1.1483 2.7268-2.4983z" fill="#131514"/>
<path d="m23.325 59.719c0.09-0.0063829 0.18638-0.020426 0.27702-0.020426 0.09 0 0.18638 0.014043 0.27638 0.020426v-3.3498l0.75447 0.78894c0.78191 0.82404 1.5294 1.6755 2.3323 2.5679l0.58851 0.006383v-4.7477c-0.09 0.014043-0.18702 0.021702-0.27702 0.021702s-0.18702-0.0076595-0.27638-0.021702v3.2394c-0.97596-1.1145-2.0074-2.167-2.9904-3.2394h-0.68489v4.7343" fill="#131514"/>
<path d="m31.68 55.476c0.42191 0 0.83043 0.048511 1.2389 0.097021-0.014043-0.097021-0.034468-0.19404-0.034468-0.29745 0-0.09766 0.020426-0.1934 0.034468-0.29106h-3.5643c0.013404 0.09766 0.034468 0.1934 0.034468 0.29106 0 0.1034-0.021064 0.20043-0.034468 0.29745 0.36-0.048511 0.79596-0.097021 1.2868-0.097021v4.2562c0.17362-0.013404 0.3466-0.03383 0.51957-0.03383 0.17298 0 0.34596 0.020426 0.51894 0.03383v-4.2562" fill="#131514"/>
<path d="m35.697 55.359c0.42191 0 0.94085-0.055532 1.0519 0.51894 0.027447 0.14617 0.034468 0.24957 0.034468 0.3466 0 0.7117-0.36 1.0583-1.0864 0.98872v-1.8543zm-1.0385 4.3736c0.17298-0.013404 0.34596-0.03383 0.51957-0.03383 0.17234 0 0.34596 0.020426 0.51894 0.03383v-2.2213h0.048511c0.15191 0.26298 0.34596 0.58213 0.45 0.76787l0.8234 1.4534c0.20745-0.013404 0.41489-0.03383 0.62298-0.03383 0.21447 0 0.42191 0.020426 0.62936 0.03383l-0.27-0.42894c-0.41489-0.6434-0.84383-1.2804-1.2249-1.9449 0.64404-0.13787 1.08-0.56681 1.08-1.2453 0-0.47106-0.20809-0.78255-0.60255-0.99-0.29043-0.15191-0.79596-0.13851-1.1209-0.13851h-1.4745v4.7477z" fill="#131514"/>
<path d="m40.866 57.864 0.65043-1.6117 0.61596 1.6117h-1.2664zm1.426 0.42255c0.18702 0.46404 0.33191 0.93511 0.49149 1.4464 0.20043-0.013404 0.39447-0.03383 0.59489-0.03383 0.20106 0 0.39447 0.020426 0.59553 0.03383l-1.9309-4.8096c-0.09 0.013404-0.17298 0.021064-0.26298 0.021064-0.090638 0-0.17298-0.0076596-0.26362-0.021064l-1.9794 4.7962c0.11106-0.0063829 0.22213-0.020426 0.33255-0.020426s0.21447 0.014043 0.32489 0.020426c0.13213-0.47745 0.30511-0.90638 0.48447-1.433h1.613z" fill="#131514"/>
<path d="m49.363 58.889c-0.31149 0.29809-0.81 0.5183-1.2389 0.5183-1.066 0-1.6474-0.82979-1.6474-2.0132 0-1.0174 0.46404-2.1179 1.613-2.1179 0.44936 0 0.89298 0.26298 1.1489 0.63702h0.096383c0.055532-0.24191 0.097021-0.47745 0.15957-0.71362-0.40149-0.22149-0.95553-0.33894-1.4119-0.33894-1.5089 0-2.7549 0.82277-2.7549 2.6304 0 1.4189 1.1215 2.3317 2.6023 2.3317 0.46404 0 0.95553-0.08234 1.3704-0.29681l0.15255-0.59617-0.09-0.040851" fill="#131514"/>
<path d="m53.313 55.476c0.42191 0 0.83043 0.048511 1.2383 0.097021-0.013404-0.097021-0.034468-0.19404-0.034468-0.29745 0-0.09766 0.021064-0.1934 0.034468-0.29106h-3.5643c0.014043 0.09766 0.035106 0.1934 0.035106 0.29106 0 0.1034-0.021064 0.20043-0.035106 0.29745 0.36-0.048511 0.79596-0.097021 1.2874-0.097021v4.2562c0.17298-0.013404 0.34596-0.03383 0.51894-0.03383s0.34596 0.020426 0.51957 0.03383v-4.2562" fill="#131514"/>
<path d="m61.864 58.238c-0.54638-1.0857-1.0934-2.1651-1.5919-3.2528-0.096383 0.014043-0.1934 0.035106-0.29043 0.035106-0.097021 0-0.18702-0.021064-0.28404-0.035106-0.23489 1.7509-0.45638 3.3574-0.70596 4.7477 0.11106-0.013404 0.20809-0.03383 0.31851-0.03383 0.11106 0 0.21447 0.020426 0.32553 0.03383 0.020426-0.96894 0.13149-1.9309 0.29043-3.1494 0.52596 1.0877 1.073 2.1594 1.5153 3.1155 0.090638-0.021064 0.17362-0.014681 0.26298 0 0.49213-1.073 1.0111-2.1319 1.537-3.1915 0.10404 1.066 0.24191 2.1255 0.29745 3.2253 0.1934-0.013404 0.36702-0.03383 0.56043-0.03383 0.19404 0 0.38106 0.020426 0.57511 0.03383-0.23553-1.3762-0.39447-2.8857-0.60894-4.7477-0.09766 0.014043-0.20106 0.035106-0.29809 0.035106-0.097021 0-0.19404-0.021064-0.29043-0.035106-0.52596 1.1834-1.1145 2.2704-1.613 3.2528" fill="#131514"/>
<path d="m68.932 55.276c1.0385 0 1.4534 1.0245 1.4534 1.9174 0 1.1489-0.47809 2.2136-1.5434 2.2136-1.0385 0-1.447-0.95489-1.447-1.8536 0-1.5511 0.57511-2.2774 1.537-2.2774zm2.6023 2.0483c-0.0070213-1.0723-0.58851-2.4638-2.5609-2.4638-1.7234 0-2.7268 1.1145-2.7268 2.4913 0 1.5715 1.0309 2.4709 2.5602 2.4709 1.696 0 2.7345-1.1483 2.7274-2.4983z" fill="#131514"/>
<path d="m75.325 55.476c0.42255 0 0.83106 0.048511 1.2396 0.097021-0.014681-0.097021-0.035106-0.19404-0.035106-0.29745 0-0.09766 0.020426-0.1934 0.035106-0.29106h-3.5643c0.013404 0.09766 0.03383 0.1934 0.03383 0.29106 0 0.1034-0.020426 0.20043-0.03383 0.29745 0.35936-0.048511 0.79532-0.097021 1.2868-0.097021v4.2562c0.17298-0.013404 0.34596-0.03383 0.51957-0.03383 0.17234 0 0.34596 0.020426 0.5183 0.03383v-4.2562" fill="#131514"/>
<path d="m80.713 55.276c1.0385 0 1.4534 1.0245 1.4534 1.9174 0 1.1489-0.47745 2.2136-1.5434 2.2136-1.0379 0-1.4464-0.95489-1.4464-1.8536 0-1.5511 0.57447-2.2774 1.5364-2.2774zm2.6023 2.0483c-0.0070213-1.0723-0.58851-2.4638-2.5609-2.4638-1.7234 0-2.7262 1.1145-2.7262 2.4913 0 1.5715 1.0309 2.4709 2.5596 2.4709 1.6966 0 2.7345-1.1483 2.7274-2.4983z" fill="#131514"/>
<path d="m86.199 55.359c0.42255 0 0.94149-0.055532 1.0526 0.51894 0.027447 0.14617 0.035106 0.24957 0.035106 0.3466 0 0.7117-0.36064 1.0583-1.0877 0.98872v-1.8543zm-1.0379 4.3736c0.17298-0.013404 0.34596-0.03383 0.51894-0.03383s0.3466 0.020426 0.51894 0.03383v-2.2213h0.049149c0.15191 0.26298 0.34596 0.58213 0.45 0.76787l0.8234 1.4534c0.20745-0.013404 0.41489-0.03383 0.62234-0.03383 0.21447 0 0.42191 0.020426 0.63 0.03383l-0.26936-0.42894c-0.41617-0.6434-0.84511-1.2804-1.2255-1.9449 0.64404-0.13787 1.0794-0.56681 1.0794-1.2453 0-0.47106-0.20745-0.78255-0.60191-0.99-0.29043-0.15191-0.79532-0.13851-1.1209-0.13851h-1.4745v4.7477z" fill="#131514"/>
<path d="m90.58 59.733c0.17234-0.013404 0.34596-0.03383 0.5183-0.03383 0.17362 0 0.34596 0.020426 0.51957 0.03383v-4.7477c-0.17362 0.014043-0.34596 0.035106-0.51957 0.035106-0.17234 0-0.34596-0.021064-0.5183-0.035106v4.7477" fill="#131514"/>
<path d="m93.899 59.719c0.09-0.0063829 0.18638-0.020426 0.27638-0.020426s0.18702 0.014043 0.27702 0.020426v-3.3498l0.75447 0.78894c0.78191 0.82404 1.5294 1.6755 2.3323 2.5679l0.58851 0.006383v-4.7477c-0.090638 0.014043-0.18702 0.021702-0.27702 0.021702s-0.18702-0.0076595-0.27638-0.021702v3.2394c-0.9766-1.1145-2.0081-2.167-2.9904-3.2394h-0.68489v4.7343" fill="#131514"/>
<g transform="translate(28.085)" fill="#131514">
<mask id="a" fill="white">
<use xlink:href="#b"/>
</mask>
<path d="m76.606 57.594c-0.17298 0.014043-0.34596 0.035106-0.51894 0.035106-0.17362 0-0.34596-0.021064-0.51957-0.035106v1.6194c-0.16596 0.09766-0.41489 0.1934-0.76085 0.1934-1.0526 0-1.6615-0.71936-1.6615-1.9232 0-1.1636 0.56745-2.2079 1.7234-2.2079 0.54702 0 1.0449 0.24191 1.3634 0.70532h0.097021c0.027447-0.23426 0.097021-0.47745 0.1934-0.6983-0.5183-0.29809-1.0723-0.42255-1.6672-0.42255-1.5989 0-2.8589 0.87894-2.8589 2.6017 0 1.627 1.3015 2.3604 2.7619 2.3604 0.60894 0 1.2249-0.13851 1.8479-0.31085v-1.9174" mask="url(#a)"/>
<path d="m89.304 31.904c-1.4011 0.24319-2.9234 0.30447-4.4457 0.36574-0.79149-0.85277-1.4004-1.8281-2.1926-2.6196-0.9134 0-2.0706 0.061277-2.8621-0.54766l-5.3598-4.8721c-1.7043-0.24319-3.7755 0.061277-5.2979-0.66957-1.8274-2.01-4.0194-4.2632-6.3338-5.5423-0.24319 0.061277-0.060638 0.24383 0 0.36574 2.1926 1.9487 3.9587 4.3238 5.7249 6.577l0.85213 0.48702 4.507 0.36574 5.2985 4.7502c0.73021 0.48702 1.7655 0.48702 2.7402 0.5483 0.36511 0.73085 1.6443 1.4004 1.1566 2.3138-0.97404 1.2791-2.7402 0.30447-4.0794 0.30447l-5.4211-4.7502-12.545-0.9134c-0.97404-0.24383-1.8881-0.60894-2.6183-1.4004l-6.6989-7.5517c-0.60957-0.48702-1.2785-0.73085-2.0713-0.67021-4.6283 0.60894-9.8043 0.73085-14.311-0.24319-0.18255-0.60894 0.48702-1.0966 0.79213-1.523l0.30383-0.18255c3.106 0.36574 6.5164 0.30447 9.3185-0.85277l-0.12191-0.060638c-3.1066 0.42638-6.2732 0-9.1353-0.73085l-3.4711-6.6989c-0.12191-0.60894 0.24319-1.096 0.73085-1.3398 0.18255-0.12191 0.54766 0.061277 0.73085-0.18255-0.36574-0.42638-1.036-0.36574-1.5223-0.30447-0.60894 0.12191-1.096 0.66957-1.2791 1.2179-0.36511 0.73085 0.12191 1.4617 0.42638 2.0706l2.8621 5.6023c-0.18255 1.0353-1.0966 1.7662-1.6443 2.6189-1.8874 0.36574-3.9587 0.061277-5.9074-0.12191-2.3138-0.48702-4.6889-0.73085-7.186-0.36511-0.30447 0.5483 0.36574 0.97468 0.30447 1.5223-0.42638 0.67021-0.79149 1.523-1.5223 1.8268l-1.4011-0.24319c-0.36511-0.79149-1.096-1.5836-0.9134-2.5577l1.096-1.9494c3.9587-1.7655 8.6483-1.5217 13.155-1.1566l0.12191-0.12191c-1.7055-0.85277-3.7149-1.0353-5.603-1.3398-0.73085-0.9134-1.6443-1.8268-1.9487-2.9234 0.12191-1.2785 0.48702-2.4964 0.85277-3.7149-0.24383-0.18255-0.42638 0.18319-0.5483 0.30447-0.9134 1.0353-1.583 2.1319-2.1313 3.3498 0 1.096 1.1572 1.8881 1.4611 2.8621-0.54766 0.12191-1.096 0.24383-1.7049 0.061277-1.9487-2.3757-5.0547-2.4364-7.4904-3.7762-0.12191-0.60894 0.30447-1.2785 0.79149-1.7055 1.7662 0.48766 3.4104 1.3404 5.1766 1.8274 0.97468-0.18255 1.4004-1.096 2.1313-1.7662 0.42638-0.54766 0.9134-1.1572 1.1572-1.7662l-0.12191-0.12191c-1.1566 0.73085-2.2532 1.7055-3.593 2.01l-5.4811-2.0706-0.24319 0.060638c-0.85277 1.7055-1.5836 3.5323-3.0453 4.994-1.0353 0.60894-1.9487 1.4617-3.106 1.8268l-0.060638-0.060638c0.9134-0.67021 1.5836-1.5836 1.5223-2.6796 0-0.79149-0.36511-1.4617-0.97404-2.01-0.5483-0.54766-1.3404-0.66957-2.1319-0.66957-1.0353 0.12191-1.8874 0.85277-2.3145 1.8268-0.060638 0.30447 0 0.73085-0.36511 0.79149-0.48702 0-0.66957-0.48702-0.85277-0.85213-0.060638-0.79213 0.36574-1.3404 0.91404-1.8881-0.48766-0.12191-0.91404 0.30447-1.4011 0.48702 0.5483-0.66957 1.4011-2.0706 2.4364-1.7049 1.096 0.48702 2.6183-0.42638 3.7149 0.42638 0.36511 0.060638 0.66957 0.48702 1.0353 0.54766 0-0.79149-0.67021-1.4004-1.2185-1.9487 0-0.42638 0.48766-0.60894 0.85277-0.67021 1.2179 0 2.2532 0.79213 3.4104 0.67021l1.7662-1.8268c0.5483-0.24319 1.2791-0.24319 1.8268-0.5483l-0.12128-0.060638c-0.97468-0.12191-2.01-0.061277-2.8021 0.24383l-1.2785 1.0347c-0.9134 0-1.8881-0.24319-2.7402-0.24319-1.3404 0.24319-2.5583 0.66957-3.8374 0.9134-0.24319-0.12191 0-0.30447 0.12255-0.42638 4.1406-1.8268 8.7689-2.497 13.763-2.3751l7.0647 0.30447c4.6283 1.2179 8.9521 3.2279 13.397 4.9328 14.981 5.7249 29.78 12.119 42.996 22.107 1.8881 1.0353 4.4457 0.85277 6.7602 0.79213 0.48638 0.060638 0.73021 0.42511 0.85213 0.79149 0 0.54766-0.18319 0.97404-0.66957 1.2179zm2.4357-1.523c-0.18255-0.73085-0.67021-1.4611-1.4004-1.8874-2.3145-0.5483-4.8721 0.48702-6.9428-0.67021-9.6223-6.9428-19.732-12.545-30.389-16.808-8.2819-3.2885-16.443-7.0034-24.969-9.8655-1.9487-0.79149-4.5064-0.5483-6.577-0.73085-6.0894-0.36574-12.241-0.060638-17.295 2.497-0.73085 0.36511-1.2791 1.1566-1.3398 1.9487-0.97468 1.0353-2.3751 1.8881-2.6796 3.2279 0.060638 0.5483 0.30447 1.096 0.85213 1.4004 0.30511 0.60894 0.60957 1.2179 1.1572 1.5836 0.67021 0.42638 1.5836 0.48702 2.3145 0.24319 0.67021-0.060638 0.36511-0.79149 0.36511-1.2179 0-0.5483 0.30511-1.096 0.85277-1.3398 0.66957-0.30447 1.3398 0 1.7662 0.60894 0.24383 0.36574 0.18255 0.9134 0 1.3398-0.24383 0.48702-0.73085 0.79213-1.2791 0.85277-0.48702 0.060638-0.48702 0.60894-0.60894 0.97468 0.060638 0.60894 0.12191 1.3398 0.79149 1.7049 0.42638 0.30447 1.0966 0.42638 1.6449 0.24383 1.8268-1.0353 3.593-2.3751 5.4811-3.4104l4.567 1.7049c0.42638 0.30447 1.0966 0.24383 1.2185 0.85277-0.67021 0.36574-1.5836 0.42638-2.3145 0.79213-0.79149 1.2785-1.583 2.557-2.0094 3.9581l1.096 2.4357c0.36511 1.7049 2.4357 1.0353 3.6536 1.4011l0.42638-0.061277c0.85277-1.1566 1.8274-2.2532 2.4364-3.4098 3.7755-0.36574 7.064 1.2785 10.961 0.66957 3.4717 0.97468 7.4911 1.1566 11.206 0.97468 2.07 0.30383 4.6283-1.2185 6.3338 0.42574 2.3138 2.3145 4.3845 5.116 6.8202 7.4911 0.97468 0.66957 2.0706 1.2185 3.2891 1.4004l11.936 0.85277c1.8874 1.5217 3.6536 3.4098 5.7243 4.8109l4.0194 0.36511 1.8274-1.7662 4.2626-0.30447c0.85213-0.061277 1.6449-0.30447 2.1926-1.0347 0.48702-0.60957 0.79149-1.3404 0.60894-2.2538z" mask="url(#a)"/>
</g>
</g>
</svg>
