<?xml version="1.0" encoding="UTF-8"?>
<svg version="1.1" viewBox="0 0 120 39" xmlns="http://www.w3.org/2000/svg">
<title>Bentley_Motors</title>
<desc>Created with Sketch.</desc>
<g fill="none" fill-rule="evenodd">
<g transform="translate(0 1)">
<g transform="translate(37.021)">
<path d="m22.384 36.485c12.116 0 21.939-8.157 21.939-18.219 0-10.062-9.8226-18.219-21.939-18.219-12.116 0-21.939 8.157-21.939 18.219 0 10.062 9.8226 18.219 21.939 18.219z" fill="#FFFFFE"/>
<path d="m22.384 36.485c12.116 0 21.939-8.157 21.939-18.219 0-10.062-9.8226-18.219-21.939-18.219-12.116 0-21.939 8.157-21.939 18.219 0 10.062 9.8226 18.219 21.939 18.219z" stroke="#1A1919" stroke-width=".35"/>
</g>
<g transform="translate(38.298 .6383)">
<path d="m21.107 34.662c11.466 0 20.761-7.6262 20.761-17.034 0-9.4073-9.295-17.034-20.761-17.034-11.466 0-20.761 7.6269-20.761 17.034 0 9.4079 9.295 17.034 20.761 17.034z" fill="#FFFFFE"/>
<path d="m21.107 34.662c11.466 0 20.761-7.6262 20.761-17.034 0-9.4073-9.295-17.034-20.761-17.034-11.466 0-20.761 7.6269-20.761 17.034 0 9.4079 9.295 17.034 20.761 17.034z" stroke="#1A1919" stroke-width=".35"/>
</g>
<path d="m45.661 23.187c-0.93638 0.52404-3.5394 1.2574-4.2683-0.41872-1.0411 0.52404-3.2272 0.94277-4.2683-0.41872-1.77 0.41872-3.7481 1.2568-4.477-0.7334-1.5619 0.41872-5.414 1.3615-5.8302-1.1521-2.2909 0.31404-5.6221 0.5234-6.0389-1.8855-1.9781 0-5.4134-0.31404-5.4134-2.6183-1.9787 0-5.414-1.3615-4.9972-2.933-1.7706-0.20936-4.1649-2.0949-4.1649-3.3517-1.77-0.5234-3.7481-1.8855-3.3319-3.6657-1.0404-0.62872-2.8111-1.3615-2.8111-2.4089 0-1.0474 0.83362-1.8855 1.7706-1.8855 0.93638 0 4.4764 0.5234 5.7255 0.5234 1.2498 0 16.346-0.31404 19.886-0.10468 3.54 0.20936 8.017 0.10468 10.203-0.10468 2.1862-0.20936 11.512-0.71745 12.806 1.8855 0.93702 1.8855 0.20809 2.5136-0.62489 3.247-0.83298 0.7334-3.644 2.0949-3.644 6.494 0 4.3991 0.52085 6.7034-0.52085 9.5311" fill="#1A1919"/>
<path d="m3.3919 2.7632c3.2279 0 10.724 0.20936 12.181 0.20936 1.4572 0 11.764 1.1521 13.378 1.6762 0.72894 0.20936 0.88532 0.94213 0 0.99447-0.88468 0.05234-11.504 0.21-13.066 0.21-1.5613 0-12.255 0.14872-13.691-1.7285-1.0411-1.3615 0.26043-1.3091 1.1974-1.3615" fill="#FFFFFE"/>
<path d="m5.3183 6.8483c1.874 0.051702 11.244 0.10404 12.337 0.051702 1.0934-0.051702 9.5783-0.5234 10.568-0.57574 0.98872-0.05234 1.9257 0.20936 1.9257 0.52404 0 0.31404-0.20809 0.57574-1.3532 0.83745s-11.713 1.4668-19.729 1.3091c-1.5102 0.052979-3.54-0.73277-4.0609-1.4662-0.52021-0.73277 0.05234-0.68043 0.31277-0.68043" fill="#FFFFFE"/>
<path d="m8.9617 10.305c1.3015 0 16.658-1.1521 19.886-1.8332 1.0934-0.10468 1.8223-0.15702 1.9264 0.31404 0.10404 0.4717 0.051702 0.68106-0.88532 0.94277-0.93702 0.2617-12.337 2.4089-18.116 2.5143-1.9257-0.052979-4.1643-1.8855-2.8111-1.9379" fill="#FFFFFE"/>
<path d="m12.866 13.552c1.8217-0.20936 13.951-2.1472 17.231-3.0377 1.3015-0.31404 1.9257-0.15702 2.0821 0.20936 0.15638 0.36638 0.15638 0.99511-0.78064 1.3091-0.93702 0.31468-11.661 2.8283-13.639 2.933-1.9781 0.10468-4.3206-0.36638-4.9455-0.83809-0.62426-0.47106 0.05234-0.57574 0.05234-0.57574" fill="#FFFFFE"/>
<path d="m17.759 16.275c1.3015-0.2617 11.869-2.6706 14.888-3.8228 0.88468-0.26234 1.1974 0 1.3532 0.31404 0.15638 0.31404 0.20809 0.78574-0.36447 1.0474-0.57255 0.2617-8.693 3.6657-12.545 3.8751-1.4062 0-2.5423-0.51894-3.1755-0.83745-0.41681-0.21-0.26043-0.21-0.15638-0.57638" fill="#FFFFFE"/>
<path d="m34.99 14.075c-1.1974 0.57638-8.4849 3.6664-11.297 4.2945-0.78064 0.20936-1.1968 0.78574-0.25979 1.0998 0.93638 0.31404 3.1232 0.15702 4.4247-0.20936 1.3015-0.36702 6.5853-2.0949 8.6151-4.0851-0.41617-0.20936-1.3794-0.89043-1.4834-1.0998" fill="#FFFFFE"/>
<path d="m37.176 15.856c-0.78064 0.5234-5.8819 3.194-8.2251 3.9274-0.78064 0.2617-0.41617 0.99511 0.36447 1.0998 0.78128 0.10468 2.7594 0.10468 5.1019-1.3091 1.4055-0.83809 3.4877-2.3566 4.1126-2.933-0.31277-0.15702-0.98936-0.57574-1.3538-0.78511" fill="#FFFFFE"/>
<path d="m39.571 17.27c-1.3328 0.91723-4.4055 2.9591-4.8932 3.2994-0.67723 0.47106-1.0417 1.2568 0.31213 1.1521 1.3532-0.10468 3.8521-1.0998 5.8302-3.9798-0.26043-0.078511-0.93702-0.31468-1.2491-0.4717" fill="#FFFFFE"/>
<path d="m41.913 18.056c-0.83234 0.83745-2.0821 2.1989-2.9668 2.9323-0.57255 0.57638-0.15638 1.6238 0.83298 1.1521 0.98872-0.47106 2.7849-2.0949 3.2534-3.7181-0.36447-0.10468-0.78064-0.20936-1.1196-0.36638" fill="#FFFFFE"/>
<path d="m43.996 19.365c-0.6766 0.83809-1.3538 1.5185-1.77 2.0426-0.41681 0.5234 0.10404 1.0474 0.52021 1.2045 0.41681 0.15702 1.1974 0.57574 2.1345-1.3091l-0.88468-1.9379" fill="#FFFFFE"/>
<path d="m23.798 2.5538c1.3532 0 5.9343 0.31404 7.6002 0.31404 1.6653 0 5.5174-0.10468 6.923-0.20936 1.4055-0.10468 5.1019-0.15702 6.5591 0 1.4579 0.15702 4.6851 0.36638 5.2577 1.8849 0.57255 1.5191-0.6766 2.3566-1.4572 2.933-0.78128 0.57638-3.1755 1.9902-3.2796 5.656-0.62489-0.2617-1.5096-0.41872-0.88532-1.7279 0.36447-0.7334 2.1345-3.1423 1.7183-4.2421-0.41681-1.0998-1.77-1.9902-4.8415-2.0949-3.0715-0.10468-7.3921 0-8.9017-0.2617-1.5096-0.26234-7.3398-1.7285-8.5372-1.8855-0.52021-0.05234-0.52021-0.31468-0.15574-0.36638" fill="#FFFFFE"/>
<path d="m36.084 5.4862c1.0928 0 5.1013-0.10468 6.2464 0.10468 1.1451 0.21 2.573 0.54128 3.1755 1.5715 0.52021 0.89043-0.36447 2.3043-0.78064 2.88-0.41681 0.57638-1.6143 1.7285-2.0828 2.1472-0.41617 0.31468-1.1974-0.20936-0.52021-0.99447-0.88532 0.5234-1.9781 0.41872-1.4579-0.78574-0.78064 0.62872-2.0821 0.68043-1.3015-0.94277-0.52021 0.41872-1.9781 0.36638-1.0411-0.89043-0.78064 0.2617-1.666-0.20936-1.0928-0.99511-0.98936 0.15702-1.5619-0.57574-0.52085-1.1521-0.98872 0.26234-1.2491-0.89043-0.62426-0.94277" fill="#FFFFFE"/>
<path d="m31.587 5.1357c-1.3666 0-1.3934 1.4853 0.16404 1.4023 1.2281-0.065106 2.7057-0.35745 2.6783-0.85213s-1.8313-0.52213-2.8423-0.55021" fill="#FFFFFE"/>
<path d="m31.779 6.7385c-0.76532 0.13787-0.79277 0.49532-0.68362 0.77043 0.10979 0.27447 0.51957 0.7417 1.8587 0.54957 1.3391-0.19277 2.077-0.74234 2.077-1.2102 0-0.46723-2.4326-0.16468-3.2521-0.10979" fill="#FFFFFE"/>
<path d="m33.091 8.3885c-0.51894 0.08234-1.0015 0.46787-0.84702 0.93447 0.19085 0.57766 1.3666 0.74234 2.6783 0.08234 1.3117-0.65936 1.2294-0.82468 1.0928-1.1821-0.1366-0.35745-1.5032-0.08234-2.924 0.16532" fill="#FFFFFE"/>
<path d="m35.55 9.2406c-0.62809 0.22021-1.3117 0.55021-1.8306 0.88021-0.51957 0.32936-0.92936 1.5121 1.066 0.98936 1.9947-0.52213 2.1045-1.2096 1.8306-1.6768-0.27319-0.46787-0.90128-0.22021-1.066-0.19277" fill="#FFFFFE"/>
<path d="m34.93 11.528c-0.68362 0.41234-0.35553 2.0068 1.1477 1.2919 1.5032-0.71489 2.5417-1.4847 2.3234-2.0074-0.21894-0.52213-1.9404-0.10979-3.4711 0.71553" fill="#FFFFFE"/>
<path d="m38.89 11.913c-0.71043 0.32936-3.0332 1.0998-2.2685 2.0891 0.38298 0.49532 1.1209 0.082979 1.4215-0.10979 0.30064-0.19277 1.9404-1.32 1.5306-1.9245-0.17936-0.26489-0.51957-0.13787-0.68362-0.054894" fill="#FFFFFE"/>
<path d="m38.731 13.76c-1.5032 0.96255 0.19085 1.7872 1.1477 0.96255 0.51894-0.44745 1.5791-1.2549 1.0934-1.8428-0.41043-0.49468-1.777 0.63255-2.2411 0.88021" fill="#FFFFFE"/>
<path d="m41.114 14.15c-0.46468 0.52277-1.553 1.3104-0.71043 1.897 0.71043 0.49532 1.1477-0.027447 1.4757-0.38489 0.32745-0.35745 1.5849-1.6219 1.1202-2.144-0.46468-0.52277-1.4757 0.38426-1.8855 0.63191" fill="#FFFFFE"/>
<path d="m44.293 14.352c-0.49149-0.38489-1.4751 0.66-1.8306 1.2926-0.35553 0.63191-0.081702 0.98936 0.27319 1.1547 0.35553 0.16468 0.98362-0.19277 1.1202-0.55021 0.13723-0.35745 0.92936-1.4017 0.43723-1.897" fill="#FFFFFE"/>
<path d="m47.848 3.706c0.72894 0.36638 1.5613 0.89043 1.6136 1.4138 0.05234 0.5234-0.10404 1.0474-0.98872 1.6762" stroke="#1A1919"/>
<path d="m73.876 23.187c0.93702 0.52404 3.54 1.2574 4.2689-0.41872 1.0404 0.52404 3.2272 0.94277 4.2683-0.41872 1.77 0.41872 3.7481 1.2568 4.477-0.7334 1.5619 0.41872 5.414 1.3615 5.8302-1.1521 2.2902 0.31404 5.6221 0.5234 6.0383-1.8855 1.9787 0 5.414-0.31404 5.414-2.6183 1.9781 0 5.414-1.3615 4.9972-2.933 1.77-0.20936 4.1643-2.0949 4.1643-3.3517 1.77-0.5234 3.7487-1.8855 3.3319-3.6657 1.0411-0.62872 2.8111-1.3615 2.8111-2.4089 0-1.0474-0.83298-1.8855-1.77-1.8855s-4.4764 0.5234-5.7262 0.5234c-1.2491 0-16.346-0.31404-19.886-0.10468-3.54 0.20936-8.0164 0.10468-10.203-0.10468-2.1862-0.20936-11.512-0.71745-12.806 1.8855-0.93702 1.8855-0.20809 2.5136 0.62489 3.247 0.83298 0.7334 3.644 2.0949 3.644 6.494 0 4.3991-0.52085 6.7034 0.52021 9.5311" fill="#1A1919"/>
<path d="m116.15 2.7632c-3.2279 0-10.724 0.20936-12.181 0.20936-1.4579 0-11.765 1.1521-13.379 1.6762-0.7283 0.20936-0.88468 0.94213 0 0.99447 0.88468 0.05234 11.505 0.21 13.066 0.21 1.5619 0 12.256 0.14872 13.691-1.7285 1.0411-1.3615-0.25979-1.3091-1.1968-1.3615" fill="#FFFFFE"/>
<path d="m114.22 6.8483c-1.874 0.051702-11.244 0.10404-12.337 0.051702-1.0934-0.051702-9.5783-0.5234-10.568-0.57574-0.98936-0.05234-1.9264 0.20936-1.9264 0.52404 0 0.31404 0.20872 0.57574 1.3538 0.83745s11.713 1.4668 19.729 1.3091c1.5096 0.052979 3.54-0.73277 4.0602-1.4662 0.52085-0.73277-0.051702-0.68043-0.31213-0.68043" fill="#FFFFFE"/>
<path d="m110.58 10.305c-1.3015 0-16.658-1.1521-19.886-1.8332-1.0928-0.10468-1.8217-0.15702-1.9257 0.31404-0.10404 0.4717-0.05234 0.68106 0.88468 0.94277 0.93702 0.2617 12.338 2.4089 18.116 2.5143 1.9264-0.052979 4.1649-1.8855 2.8111-1.9379" fill="#FFFFFE"/>
<path d="m106.67 13.552c-1.8223-0.20936-13.951-2.1472-17.231-3.0377-1.3015-0.31404-1.9257-0.15702-2.0821 0.20936-0.15638 0.36638-0.15638 0.99511 0.78064 1.3091 0.93702 0.31468 11.66 2.8283 13.639 2.933 1.9781 0.10468 4.3206-0.36638 4.9455-0.83809 0.62489-0.47106-0.051702-0.57574-0.051702-0.57574" fill="#FFFFFE"/>
<path d="m101.78 16.275c-1.3009-0.2617-11.869-2.6706-14.888-3.8228-0.88532-0.26234-1.1974 0-1.3538 0.31404-0.15574 0.31404-0.20809 0.78574 0.36447 1.0474 0.57255 0.2617 8.6936 3.6657 12.546 3.8751 1.4055 0 2.5423-0.51894 3.1755-0.83745 0.41617-0.21 0.26042-0.21 0.15574-0.57638" fill="#FFFFFE"/>
<path d="m84.548 14.075c1.1974 0.57638 8.4849 3.6664 11.296 4.2945 0.78128 0.20936 1.1974 0.78574 0.26043 1.0998-0.93702 0.31404-3.1232 0.15702-4.4247-0.20936-1.3015-0.36702-6.5853-2.0949-8.6151-4.0851 0.41617-0.20936 1.3794-0.89043 1.4834-1.0998" fill="#FFFFFE"/>
<path d="m82.361 15.856c0.78064 0.5234 5.8819 3.194 8.2245 3.9274 0.78064 0.2617 0.41681 0.99511-0.36447 1.0998-0.78064 0.10468-2.7587 0.10468-5.1013-1.3091-1.4055-0.83809-3.4877-2.3566-4.1126-2.933 0.31213-0.15702 0.98936-0.57574 1.3538-0.78511" fill="#FFFFFE"/>
<path d="m79.967 17.27c1.3321 0.91723 4.4055 2.9591 4.8932 3.2994 0.6766 0.47106 1.0411 1.2568-0.31213 1.1521-1.3532-0.10468-3.8521-1.0998-5.8302-3.9798 0.26043-0.078511 0.93702-0.31468 1.2491-0.4717" fill="#FFFFFE"/>
<path d="m77.624 18.056c0.83298 0.83745 2.0821 2.1989 2.9668 2.9323 0.57319 0.57638 0.15638 1.6238-0.83234 1.1521-0.98936-0.47106-2.7855-2.0949-3.254-3.7181 0.36511-0.10468 0.78128-0.20936 1.1196-0.36638" fill="#FFFFFE"/>
<path d="m75.542 19.365c0.6766 0.83809 1.3532 1.5185 1.77 2.0426 0.41617 0.5234-0.10404 1.0474-0.52085 1.2045-0.41617 0.15702-1.1974 0.57574-2.1345-1.3091l0.88532-1.9379" fill="#FFFFFE"/>
<path d="m95.74 2.5538c-1.3532 0-5.9343 0.31404-7.6002 0.31404s-5.5181-0.10468-6.9236-0.20936-5.1013-0.15702-6.5591 0c-1.4572 0.15702-4.6845 0.36638-5.2577 1.8849-0.57255 1.5191 0.67723 2.3566 1.4579 2.933s3.1755 1.9902 3.2796 5.656c0.62489-0.2617 1.5096-0.41872 0.88532-1.7279-0.36511-0.7334-2.1345-3.1423-1.7183-4.2421 0.41617-1.0998 1.77-1.9902 4.8415-2.0949 3.0709-0.10468 7.3915 0 8.9017-0.2617 1.5089-0.26234 7.3398-1.7285 8.5366-1.8855 0.52085-0.05234 0.52085-0.31468 0.15638-0.36638" fill="#FFFFFE"/>
<path d="m83.454 5.4862c-1.0928 0-5.1013-0.10468-6.2464 0.10468-1.1457 0.21-2.573 0.54128-3.1755 1.5715-0.52085 0.89043 0.36383 2.3043 0.78064 2.88 0.41681 0.57638 1.6136 1.7285 2.0821 2.1472 0.41681 0.31468 1.1974-0.20936 0.52085-0.99447 0.88468 0.5234 1.9781 0.41872 1.4579-0.78574 0.78064 0.62872 2.0821 0.68043 1.3009-0.94277 0.52085 0.41872 1.9781 0.36638 1.0411-0.89043 0.78128 0.2617 1.666-0.20936 1.0934-0.99511 0.98872 0.15702 1.5619-0.57574 0.52021-1.1521 0.98936 0.26234 1.2498-0.89043 0.62489-0.94277" fill="#FFFFFE"/>
<path d="m87.95 5.1357c1.3672 0 1.394 1.4853-0.16404 1.4023-1.2281-0.065106-2.7057-0.35745-2.6777-0.85213 0.026808-0.49468 1.8306-0.52213 2.8417-0.55021" fill="#FFFFFE"/>
<path d="m87.759 6.7385c0.76468 0.13787 0.79213 0.49532 0.68298 0.77043-0.10915 0.27447-0.51957 0.7417-1.8581 0.54957-1.3398-0.19277-2.0777-0.74234-2.0777-1.2102 0-0.46723 2.4326-0.16468 3.2528-0.10979" fill="#FFFFFE"/>
<path d="m86.447 8.3885c0.51957 0.08234 1.0021 0.46787 0.84766 0.93447-0.19149 0.57766-1.3666 0.74234-2.6783 0.08234-1.3117-0.65936-1.23-0.82468-1.0934-1.1821 0.1366-0.35745 1.5032-0.08234 2.924 0.16532" fill="#FFFFFE"/>
<path d="m83.987 9.2406c0.62872 0.22021 1.3117 0.55021 1.8313 0.88021 0.51894 0.32936 0.92936 1.5121-1.066 0.98936-1.9947-0.52213-2.1045-1.2096-1.8306-1.6768 0.27319-0.46787 0.90128-0.22021 1.0653-0.19277" fill="#FFFFFE"/>
<path d="m84.608 11.528c0.68298 0.41234 0.35489 2.0068-1.1477 1.2919-1.5038-0.71489-2.5423-1.4847-2.3234-2.0074 0.2183-0.52213 1.9404-0.10979 3.4711 0.71553" fill="#FFFFFE"/>
<path d="m80.648 11.913c0.71043 0.32936 3.0338 1.0998 2.2685 2.0891-0.38298 0.49532-1.1202 0.082979-1.4215-0.10979-0.3-0.19277-1.9398-1.32-1.53-1.9245 0.18-0.26489 0.51894-0.13787 0.68298-0.054894" fill="#FFFFFE"/>
<path d="m80.807 13.76c1.5032 0.96255-0.19149 1.7872-1.1477 0.96255-0.51894-0.44745-1.5798-1.2549-1.0934-1.8428 0.40979-0.49468 1.7764 0.63255 2.2411 0.88021" fill="#FFFFFE"/>
<path d="m78.424 14.15c0.46468 0.52277 1.5523 1.3104 0.71043 1.897-0.71043 0.49532-1.1477-0.027447-1.4757-0.38489s-1.5849-1.6219-1.1202-2.144c0.46468-0.52277 1.4751 0.38426 1.8855 0.63191" fill="#FFFFFE"/>
<path d="m75.244 14.352c0.49149-0.38489 1.4757 0.66 1.8313 1.2926 0.35489 0.63191 0.081702 0.98936-0.27383 1.1547-0.35489 0.16468-0.98362-0.19277-1.1202-0.55021-0.1366-0.35745-0.92936-1.4017-0.43723-1.897" fill="#FFFFFE"/>
<path d="m71.69 3.706c-0.72894 0.36638-1.5619 0.89043-1.6136 1.4138-0.05234 0.5234 0.10404 1.0474 0.98872 1.6762" stroke="#1A1919"/>
<g transform="translate(57.447 29.362)">
<path d="m1.9201 7.6856c-0.79484 0.019847-1.4255-0.52625-1.3383-1.8003l0.3971-5.1127c0.016546-0.45135 0.69302-0.76569 0.97939-0.76569s0.96285 0.31434 0.97939 0.76569l0.3971 5.1127c0.087184 1.274-0.5422 1.7792-1.4147 1.8003z" fill="#FFFFFE"/>
<path d="m1.9201 7.6856c-0.79484 0.019847-1.4255-0.52625-1.3383-1.8003l0.3971-5.1127c0.016546-0.45135 0.69302-0.76569 0.97939-0.76569s0.96285 0.31434 0.97939 0.76569l0.3971 5.1127c0.087184 1.274-0.5422 1.7792-1.4147 1.8003z" stroke="#1A1919" stroke-width=".35"/>
</g>
<g transform="translate(57.447 29.362)">
<path d="m1.9964 7.6856c0.79484 0.019847 1.4255-0.52625 1.3383-1.8003l-0.3971-5.1127c-0.016546-0.45135-0.69302-0.76569-0.97939-0.76569s-0.96285 0.31434-0.97939 0.76569l-0.3971 5.1127c-0.087184 1.274 0.5422 1.7792 1.4147 1.8003z" fill="#FFFFFE"/>
<path d="m1.9964 7.6856c0.79484 0.019847 1.4255-0.52625 1.3383-1.8003l-0.3971-5.1127c-0.016546-0.45135-0.69302-0.76569-0.97939-0.76569s-0.96285 0.31434-0.97939 0.76569l-0.3971 5.1127c-0.087184 1.274 0.5422 1.7792 1.4147 1.8003z" stroke="#1A1919" stroke-width=".35"/>
</g>
<g transform="translate(60 28.723)">
<path d="m2.4495 8.2067c0.78848-0.099233 1.3319-0.73304 1.0583-1.9802l-1.1461-4.9962c-0.08273-0.44431-0.79802-0.6543-1.0812-0.61204-0.28319 0.043534-0.90621 0.45455-0.8553 0.90398l0.35956 5.1153c0.10118 1.2721 0.79866 1.6786 1.6648 1.5692z" fill="#FFFFFE"/>
<path d="m2.4495 8.2067c0.78848-0.099233 1.3319-0.73304 1.0583-1.9802l-1.1461-4.9962c-0.08273-0.44431-0.79802-0.6543-1.0812-0.61204-0.28319 0.043534-0.90621 0.45455-0.8553 0.90398l0.35956 5.1153c0.10118 1.2721 0.79866 1.6786 1.6648 1.5692z" stroke="#1A1919" stroke-width=".35"/>
</g>
<g transform="translate(61.915 28.723)">
<path d="m3.5625 7.6395c0.76111-0.2292 1.1919-0.94559 0.7172-2.1287l-1.9543-4.7363c-0.15464-0.4251-0.89475-0.51281-1.1671-0.42382-0.27237 0.08963-0.81902 0.59924-0.69493 1.0346l1.1989 4.9841c0.30928 1.2382 1.064 1.5224 1.9002 1.2702z" fill="#FFFFFE"/>
<path d="m3.5625 7.6395c0.76111-0.2292 1.1919-0.94559 0.7172-2.1287l-1.9543-4.7363c-0.15464-0.4251-0.89475-0.51281-1.1671-0.42382-0.27237 0.08963-0.81902 0.59924-0.69493 1.0346l1.1989 4.9841c0.30928 1.2382 1.064 1.5224 1.9002 1.2702z" stroke="#1A1919" stroke-width=".35"/>
</g>
<g transform="translate(63.83 28.085)">
<path d="m4.5203 7.4193c0.72229-0.33355 1.05-1.1031 0.41556-2.2087l-2.5907-4.4168c-0.21192-0.39821-0.95712-0.38157-1.2142-0.2548-0.2571 0.12676-0.72802 0.70808-0.54474 1.121l1.8767 4.7683c0.47729 1.1825 1.2639 1.3579 2.0574 0.99105z" fill="#FFFFFE"/>
<path d="m4.5203 7.4193c0.72229-0.33355 1.05-1.1031 0.41556-2.2087l-2.5907-4.4168c-0.21192-0.39821-0.95712-0.38157-1.2142-0.2548-0.2571 0.12676-0.72802 0.70808-0.54474 1.121l1.8767 4.7683c0.47729 1.1825 1.2639 1.3579 2.0574 0.99105z" stroke="#1A1919" stroke-width=".35"/>
</g>
<g transform="translate(54.894 28.723)">
<path d="m1.467 8.2067c-0.78848-0.099233-1.3319-0.73304-1.0583-1.9802l1.1461-4.9962c0.08273-0.44431 0.79802-0.6543 1.0812-0.61204 0.28319 0.043534 0.90621 0.45455 0.8553 0.90398l-0.35956 5.1153c-0.10118 1.2721-0.79802 1.6786-1.6648 1.5692z" fill="#FFFFFE"/>
<path d="m1.467 8.2067c-0.78848-0.099233-1.3319-0.73304-1.0583-1.9802l1.1461-4.9962c0.08273-0.44431 0.79802-0.6543 1.0812-0.61204 0.28319 0.043534 0.90621 0.45455 0.8553 0.90398l-0.35956 5.1153c-0.10118 1.2721-0.79802 1.6786-1.6648 1.5692z" stroke="#1A1919" stroke-width=".35"/>
</g>
<g transform="translate(52.34 28.723)">
<path d="m0.99227 7.6395c-0.76111-0.2292-1.1926-0.94559-0.7172-2.1287l1.9543-4.7363c0.15464-0.4251 0.89475-0.51281 1.1671-0.42382 0.27237 0.08963 0.81839 0.59924 0.69429 1.0346l-1.1983 4.9841c-0.30992 1.2382-1.064 1.5224-1.9002 1.2702z" fill="#FFFFFE"/>
<path d="m0.99227 7.6395c-0.76111-0.2292-1.1926-0.94559-0.7172-2.1287l1.9543-4.7363c0.15464-0.4251 0.89475-0.51281 1.1671-0.42382 0.27237 0.08963 0.81839 0.59924 0.69429 1.0346l-1.1983 4.9841c-0.30992 1.2382-1.064 1.5224-1.9002 1.2702z" stroke="#1A1919" stroke-width=".35"/>
</g>
<g transform="translate(49.149 28.085)">
<path d="m1.3111 7.4193c-0.72229-0.33355-1.05-1.1031-0.41556-2.2087l2.5907-4.4168c0.21192-0.39821 0.95712-0.38157 1.2142-0.2548s0.72802 0.70808 0.54474 1.121l-1.8767 4.7683c-0.47729 1.1825-1.2639 1.3579-2.0574 0.99105z" fill="#FFFFFE"/>
<path d="m1.3111 7.4193c-0.72229-0.33355-1.05-1.1031-0.41556-2.2087l2.5907-4.4168c0.21192-0.39821 0.95712-0.38157 1.2142-0.2548s0.72802 0.70808 0.54474 1.121l-1.8767 4.7683c-0.47729 1.1825-1.2639 1.3579-2.0574 0.99105z" stroke="#1A1919" stroke-width=".35"/>
</g>
<path d="m59.404 30.115c8.7817 0 15.901-5.3055 15.901-11.85s-7.1196-11.85-15.901-11.85c-8.7823 0-15.901 5.3055-15.901 11.85s7.1189 11.85 15.901 11.85" fill="#1A1919"/>
<path d="m66.38 13.918c0-1.7285-1.8217-4.3468-7.1317-4.3468-3.1232 0-5.7262 0.78574-7.2874 2.2519 0.36447 0.31404 0.78064 0.78574 0.78064 1.3091v9.584c-0.05234 0.57638-0.31213 1.0474-0.72894 1.5709 1.4579 1.1521 3.9562 2.2519 7.8083 2.1472 3.8521-0.10468 7.4445-1.3615 7.4445-4.9226 0-1.5185-1.4055-3.0377-2.9674-3.5611-0.41617-0.10532-0.35043-0.51766-0.02617-0.68106 0.31277-0.15702 2.1345-1.5709 2.1083-3.3517" fill="#FFFFFE"/>
<path d="m59.457 16.899c1.3411 0 2.4294-1.1943 2.4294-2.6668s-1.0883-2.6662-2.4294-2.6662c-1.3417 0-2.43 1.1936-2.43 2.6662s1.0883 2.6668 2.43 2.6668" fill="#1A1919"/>
<g transform="translate(56.809 18.511)">
<path d="m2.9612 5.7644c1.5038 0 2.7231-1.2599 2.7231-2.8144 0-1.5544-1.2193-2.8144-2.7231-2.8144-1.5044 0-2.7244 1.2599-2.7244 2.8144 0 1.5544 1.2199 2.8144 2.7244 2.8144z" fill="#1A1919"/>
<path d="m2.9612 5.7644c1.5038 0 2.7231-1.2599 2.7231-2.8144 0-1.5544-1.2193-2.8144-2.7231-2.8144-1.5044 0-2.7244 1.2599-2.7244 2.8144 0 1.5544 1.2199 2.8144 2.7244 2.8144z" stroke="#1A1919" stroke-width=".35"/>
</g>
</g>
</g>
</svg>
