<?xml version="1.0" encoding="UTF-8"?>
<svg version="1.1" viewBox="0 0 102 102" xmlns="http://www.w3.org/2000/svg">
<title>Peugeot</title>
<desc>Created with Sketch.</desc>
<g fill="none" fill-rule="evenodd">
<g transform="translate(1 1)">
<polygon points="0.0077465 99.827 99.819 99.827 99.819 0.015493 0.0077465 0.015493" fill="#024A86"/>
<polygon points="0.0077465 99.827 99.819 99.827 99.819 0.015493 0.0077465 0.015493" stroke="#024A86" stroke-width=".497"/>
<path d="m79.044 81.745c0 3.6866-2.2232 6.0148-5.8282 6.1035-3.557 0.088028-5.7859-1.9894-5.8754-5.4824-0.083098-3.4887 2.2465-5.8852 5.7732-5.9676 3.5239-0.088028 5.9303 2.0838 5.9303 5.3465zm-8.8063 0.65282c0.065493 2.6394 1.1859 4.1345 3.0394 4.1324 2.4268-0.0021127 2.9345-2.7944 2.8923-4.3803-0.055634-2.5704-0.9838-4.3958-2.9521-4.3923-1.9627 0.0049296-3.0479 1.7577-2.9796 4.6401z" fill="#FFFFFE"/>
<path d="m54.76 78.372 0.43099-1.2831c-1.1486-0.52887-2.5937-0.6993-3.8437-0.6993-5.1585 0-6.8535 3.438-6.8535 5.7606 0 3.0099 2.0218 5.6986 6.3148 5.6986 2.9697 0 4.6676-1.0028 4.6676-1.0028v-4.6148h-2.8437v4.0028s-0.040845 0.035211-0.098592 0.062676c-0.36761 0.15845-1.0852 0.25352-1.8303 0.14437-1.8859-0.26197-3.138-1.9577-3.138-4.2472 0-2.7049 2.4049-4.1669 4.0141-4.2338 1.6141-0.066902 2.6725 0.2662 3.1803 0.41197" fill="#FFFFFE"/>
<polyline points="89.29 78.268 85.711 78.268 85.711 87.358 82.815 87.358 82.815 78.268 79.339 78.268 79.339 76.792 89.29 76.792 89.29 78.268" fill="#FFFFFE"/>
<path d="m10.513 76.792h5.6556c2.1507 0 2.6331 0.073944 3.4141 0.40423 0.97324 0.40775 1.6979 1.6451 1.6979 2.6648 0 3.0528-2.212 3.6077-4.8585 3.6077h-2.8725v3.8887h-3.0366v-10.565zm3.0317 5.4775h2.1627c1.4817 0 2.4915-0.91972 2.4915-2.0845 0-1.1542-1.0282-2.0859-2.3556-2.0859l-2.2986 0.011972v4.1585z" fill="#FFFFFE"/>
<path d="m37.836 87.849h0.014789c1.9338 0 3.0718-0.51408 4.1007-1.5275 0.61056-0.60986 0.99577-1.3542 0.99577-3.081v-6.4479h-2.8275s-0.0014084 5.6232-0.0014084 7.2486c0 1.4423-0.94577 2.3662-2.2676 2.3662h-0.0084507c-1.3141 0-2.3035-0.87324-2.3035-2.4824 0-1.6141-0.0035211-7.1324-0.0035211-7.1324h-2.8289v6.3838c0 1.7873 0.43662 2.6134 1.0514 3.2204 1.0296 1.0232 2.1542 1.4521 4.0845 1.4521h-0.006338" fill="#FFFFFE"/>
<polyline points="25.425 85.66 30.738 85.66 30.738 87.358 22.539 87.358 22.539 76.792 30.738 76.792 30.738 78.294 25.425 78.294 25.425 80.941 29.713 80.941 29.713 82.227 25.425 82.227 25.425 85.66" fill="#FFFFFE"/>
<polyline points="60.811 85.704 66.125 85.704 66.125 87.358 57.925 87.358 57.925 76.792 66.125 76.792 66.125 78.331 60.811 78.331 60.811 80.986 65.097 80.986 65.097 82.265 60.811 82.265 60.811 85.704" fill="#FFFFFE"/>
<path d="m56.035 54.919c1.8592 1.2155 2.6958 1.7613 4.5261 2.6824 1.519-0.6169 3.3014-0.021127 3.0246 1.2141-0.18592 0.82113-0.33521 2.5761-1.2965 2.5056-1.0746-0.075352-2.257-0.5831-3.6873 0.24296-0.96127 0.53873-2.2845 2.9894-3.1338 3.1852 0.62606 0.8338 1.1113 1.4937 1.1113 1.4937 2.4169 0 4.238 1.2218 5.1845 1.8035 3.9479-1.6549 5.5077-0.95775 9.4225-0.25704 0.49155 0.088028 0.75-0.65141 0.58803-1.2542-0.26056-1.0261-0.91056-2.4887-0.96268-3.1338v-8.5648c-0.57606-0.68099-1.3768-1.9077-1.3768-1.9077-1.6613 0.41479-2.431 0.32324-2.743-0.62183-0.32254-1.0162-1.1282-3.1211-1.75-4.4486 0 0 3.5401-0.41056 5.6683-2.9493 0.79789-0.95211 1.6521-2.5218 1.6345-4.4162-0.038732-4.2472-3.4507-10.501-4.2958-12.661-0.51338-1.3014-2.0014-4.7099-0.55986-6.1155 0.56197-0.54014 1.7246-0.83732 2.5556 0.87676 0.4 0.83099 0.57746 0.46408 0.49507 0.61338-1.0261 1.5873-1.6465 2.4331-1.2113 3.8782 0.59577 2.0183 3.2352 3.9479 4.0782 4.4859 0 0 1.4092 0.89859 1.6873 0.68873 0.67676-0.50704-0.97113-3.1901-0.93873-3.7254 0.030986-0.49648 0.047183-0.95282 0.22535-1.4768 0.17324-0.57606 0.45493-1.4458 0.62465-2.3317 0.52183-2.8275-1.8373-6.7415-4.581-7.1176-0.72535-0.088028-3.0528 0.77887-5.0908 3.7937-0.39014 0.57606-0.93944 2.0458-0.88803 3.1711-0.99366-2.3676-2.2204-5.0577-3.562-7.0444-0.42042-0.93803-2.6979-3.5514-3.3789-3.7317-1.8768-0.49718-3.5366-0.19437-5.3092-0.46901-0.72817 0.071127-5.962 1.2028-6.1254 1.4479 0 0-1.2761 1.9732-1.2761 1.9852-1.3028 0.31268-2.9683 0.86479-3.162 1.1162-0.58169 0.69085-1.1268 0.98873-0.93873 1.2711 0.25 0.81197 0.79225 0.96338 0.79225 0.96338l2.8592 0.0070423c0.74648-1.2359 3.0141-1.0577 4.343 0.02676 0.46479 0.38873 0 0.06831 0.21831 0.65775-0.77676 0.3169-2.0134 0.70211-2.8915 0.47958-1.2183-0.16761-3.6697-0.3331-4.3444-0.10423l0.48099 0.7993c0.75211 0.3169 2.3296 0.45915 2.9155 0.46831 0.94789 0.01338 2.3592 0.10845 3.5915 0.01338-0.62465 0.87746-0.98662 2.0387-1.8204 2.0387h-3.3099c0.047887 0.21197-0.70634 0.15916-0.63169 0.3669 0 0 0.49507 0.57887 0.75141 0.94366l1.9859 0.097183c0.90211 0.057746 0.83944 0.91268 0.5162 1.3958-0.56056 0.81268-2.1127 2.3239-3.4458 2.4507-3.3556-2.8965-5.8718-5.0176-9.169-7.6113-0.5493-0.44507-1.1725-0.65986-2.0803-0.8169-0.9162-0.15845-2.457-0.29718-3.8021-0.29718-0.57887 0-3.5782-0.30282-3.7704-0.12676l0.55282 0.83239c0.082394 0.44577-0.029578 0.6669-0.12465 1.5007-0.019718 0.33099-0.15211 0.91479-0.15211 0.91479s0.42113 0.58662 0.77676 1.0986c1.4507-0.5662 2.6739 0.52817 2.6739 0.52817l-1.0725 0.75563 1.0352 1.4331c1.7444 0.65141 2.9669 0.71831 5.5021 0.2007l4.8873 5.919-8.9275 0.45423c-1.238 0.041549-2.1923 0.99789-2.481 1.8148-0.30634 0.79366-1.9493 1.1113-2.0211 1.757l1.0423 1.5155 0.61761-0.17606c0.3669 0.43169 0.96549 1.293 1.8725 1.7176 0.3162-0.57817 1.1831-1.2859 2.2014-1.0796 0.27113 0.33028 0.90704 1.2725 0.90704 1.2725 1.5232 0.24507 3.3451-0.90916 3.657-2.3838l7.3838-0.10845 4.0754 4.7613c-2.843 3.8099-5.7831 8.2697-8.5599 12.652 1.2127 1.093 0.79437 3.3303-1.2021 3.5451-1.3613 0.13732-2.8613-1.1106-4.6937-0.7007-1.8275 0.39437-3.9739 1.5845-5.0655 3.1599 0.19507 0.27746 1.0423 1.4408 1.0423 1.4408 1.5613 0.37958 3.4423 1.2521 4.7592 2.9577 2.2775-1.4831 7.412-0.1338 9.3254 0.50211 0.52817 0.21127 0.95563-0.18521 0.91831-0.9162-0.040141-0.8169-0.87606-1.988-0.41831-3.331 0.82394-2.3972 6.8979-7.357 10.227-10.485 0 0 2.338 1.6965 3.5134 2.4655zm11.514-21.015c1.05 2.6204 1.4303 3.7521 1.7648 5.5303 0.27394 1.4261 0.12606 2.7289-0.4338 3.4697-0.6507 0.86831-2.3923 2.2472-5.7901 1.4599l0.012676-0.010563c-1.069-1.5338-3.1711-4.4718-4.1254-5.9345 0.6831-2.4577 0.98521-3.0549 1.5155-5.4106l1.3521 0.68451c0.62465-1.75 2.1514-6.0873 2.4592-7.6725 0 0 0.47254 0.87183 0.81972 1.881 0.75775 2.2359 1.6577 4.0768 2.4254 6.0028zm-18.016-17.607c-0.65563 0.2831-1.8387 0.69789-2.8085 1.0254-0.22394-0.5338-0.24014-0.9493-0.14718-1.5697 0.79859-0.13099 2-0.28592 2.7746-0.28592 0.49859 0 0.63521 0.61901 0.18099 0.83028z" fill="#02284F"/>
<path d="m72.579 27.006c0.042254-0.48944 0.17887-0.94225 0.3493-1.462 0.1831-0.60352 0.52465-1.45 0.63028-2.3465 0.32254-2.8268-1.3261-5.431-4.0789-5.8042-0.72746-0.092958-3.6415-0.55-5.6796 2.4732-0.38732 0.57113-0.94577 2.0458-0.88239 3.1775-1.0056-2.3704-2.2338-5.0613-3.5754-7.0613-0.28592-0.38239-1.7873-2.1493-2.2113-2.2655-1.8739-0.49577-4.1113-1.012-5.9014-1.2831-0.72746 0.066197-6.2028 2.0056-6.3859 2.2549 0 0-0.62465 0.65563-0.62465 0.65986-1.2979 0.3169-3.9845 0.73239-4.1746 0.98592-0.58592 0.69437-0.1831 1.3437 0 1.6303 0.066901 0.10634 0.50563 1.6169 1.2739 1.6169l2.0732 0.006338c1.0134-1.6915 3.9711-1.769 4.7986 0.49296-0.78451 0.32042-1.4007 0.67817-2.9296 0.48028-1.8479-0.25845-3.7014 0.36901-3.6901 0.6169 0.014789 0.40704 2.1852 0.54225 2.7408 0.5507 0.9493 0.023239 2.3845 0.11408 3.6211 0.023239-0.61338 0.87465-1.8352 1.2077-2.6739 1.2077h-3.3225c0.15845 0.6993 0.44648 1.3444 0.83028 1.8803h1.3697c0.90704 0.054225 0.62183 0.38028 0.42887 0.93662-0.34577 0.99577-0.98028 2.5085-1.9915 3.3873-3.3613-2.9063-7.8648-6.5479-11.036-8.8613-0.94084-0.68239-4.762-1.1514-6.6824-0.43239-0.5493 0.20704-0.89507 0.65282-1.0937 1.0204l0.96056 0.26479c-1.7444 1.0423-0.66338 2.9923-0.66338 2.9923 0.84366-0.18099 2.1725-0.60211 3.5655 1.4373l-1.1725 0.93099c0.59366 0.42254 4.1831 0.84014 5.207 0.20563 0 0 4.2472 5.6113 4.7028 5.8535 0.24859 0.13239-1.7218 0.24507-3.9317 0.40845-1.8944 0.02324-3.6577 0.056338-5.0507 0.084507-1.25 0.023239-2.162 0.96831-2.4542 1.7782-0.31831 0.79648-0.63944 2.4993-0.49296 3.2423l0.68662-0.21901c0.87676 1.4387 0.91901 1.7676 2.0577 2.188 0.62535-1.5915 3.0162-1.4268 3.0162-1.4268l-0.026056 1.4556c3.3063-0.021831 3.6289-2.407 3.6289-2.407l6.469-0.091549 4.0838 4.9099c-3.3585 3.4655-5.6986 7.7486-8.219 12.332 1.2183 1.093 0.79014 3.3345-1.2127 3.5415-1.3627 0.13873-2.8585-1.1035-4.6993-0.69859-2.2408 0.48803-1.7746 2.2662-3.5387 4.6035 1.7641 0.42958 3.6056 1.5669 4.8261 2.9549 2.4218-1.5169 7.3239-0.34859 9.2317 0.28662 0.42817 0.14084 0.59859-0.63099 0.33521-1.2697-0.22746-0.5338-0.55845-1.3549 0.021127-2.6901 0.51338-1.1986 6.2838-7.0261 10.371-10.718 0.012676-0.022535 1.4275 1.0366 2.8514 2.0704 2.212 1.6169 5.157 3.2514 5.157 3.2514l0.58944-0.05c2.6768-0.57465 3.1345 1.7866 2.8437 2.5732-0.29789 0.78592-1.0859 1.2627-2.0563 1.1972-1.0803-0.080986-2.2655-0.59507-3.7 0.24507-1.4373 0.79437-0.81972 3.4803-1.6958 4.6056 2.4204 0 4.3725 1.2218 5.3218 1.8035 3.9634-1.6535 5.1148-1.138 9.1345-0.46761 0.27606 0.056338 0.49718-0.71831 0.18803-1.1683-0.28028-0.41408-0.73732-1.5127-0.65704-2.4408v-9.5211c-2.5585 0.32958-3.7289-0.72113-4.1789-2.0951-0.32958-1.0141-1.2958-3.1141-1.9218-4.4345 0 0 3.9444-0.1007 6.0746-2.643 0.79014-0.95423 1.4732-2.8754 1.1127-4.6894-0.50563-2.5035-0.83662-3.3415-1.7324-5.5352-0.72958-1.8275-2.1021-5.169-2.6683-7.0697-0.79155-2.6775-0.90704-3.8782-0.066901-5.3655 0.51549-0.89718 1.6303-1.7486 2.9077-1.1331 0.82958 0.40775 0.64155 0.64577 0.57042 0.79366-1.0394 1.581-1.4507 3.6408-1.0127 5.0866 0.59718 2.0296 2.5197 3.6669 3.3634 4.1986 0 0 1.4092 0.90493 1.6972 0.69296 0.67535-0.50986-1.0725-2.9408-1.0063-3.7387zm-23.439-11.357c-0.65282 0.28169-1.8324 0.69437-2.8042 1.0211-0.21479-0.52465-0.23592-0.93662-0.14648-1.562 0.81127-0.13169 2.0014-0.28662 2.7732-0.28662 0.48873 0 0.63169 0.61901 0.17746 0.82746zm16.808 17.068c1.0613 2.6338 1.431 3.7648 1.7789 5.5465 0.25915 1.4296 0.1162 2.7239-0.44296 3.4732-0.65845 0.87113-2.3894 2.2592-5.8077 1.4585v-0.0042253c-1.0606-1.5437-2.9437-4.3275-3.907-5.7901 0.68451-2.4655 0.99789-3.069 1.5303-5.4225 0 0 1.4887 0.82394 1.5599 0.53662 0.24789-1.0415 1.9479-5.9592 2.2514-7.538 0 0 0.26197 0.70563 0.60352 1.7197 0.76761 2.2479 1.6697 4.081 2.4338 6.0204z" fill="#FFFFFE"/>
<path d="m65.952 32.723c1.057 2.6401 1.4268 3.7669 1.7746 5.5458 0.25915 1.4077 0.1162 2.7021-0.44296 3.4585-0.65845 0.87324-2.3894 2.2592-5.7944 1.4634v0.0042253c-1.057-1.5394-2.9521-4.3275-3.9077-5.7789 0.68944-2.4711 0.99577-3.0683 1.5261-5.4204 0 0 1.4873 0.8169 1.5613 0.52958 0.24648-1.0437 1.9401-5.9507 2.2486-7.5282 0 0 0.25845 0.70423 0.5993 1.7254 0.77254 2.2444 1.6669 4.0775 2.4352 6.0007zm-11.886-10.218c0 6.9514-3.3035 12.087-3.731 18.272-0.27183 3.9627-0.0035212 6.431 1.1493 10.066 0 0 1.4063 1.0331 2.8303 2.0669 2.212 1.6134 5.1176 3.2859 5.1176 3.2859l0.75141-0.061972c2.5225-0.57676 2.9746 1.8007 2.6796 2.593-0.29789 0.79225-1.0444 1.1958-2.0148 1.1394-1.0803-0.093662-2.2655-0.6007-3.6901 0.2338-1.4444 0.79648-0.84085 3.507-1.7197 4.6324 2.4261 0 4.3887 1.243 5.3359 1.8261 3.9599-1.6585 5.1444-1.1183 9.1535-0.44648 0.28662 0.051408 0.48732-0.74296 0.16901-1.2831-0.25211-0.43099-0.71479-1.4873-0.65-2.3444l-0.011972-9.5641c-2.5549 0.33099-3.7366-0.71972-4.1796-2.0915-0.32394-1.0176-1.2592-3.0732-1.888-4.4028 0 0 3.9366-0.093662 6.0676-2.643 0.79789-0.9507 1.4732-2.519 1.169-4.6556-0.3169-2.3437-1.1746-4.3042-1.6852-5.6359-0.70282-1.8331-2.1549-5.0141-2.7232-6.9176-0.79014-2.6761-1.0373-3.8197-0.14577-5.4465 0.50845-0.90634 1.6345-1.7577 2.9113-1.1345 0.82746 0.40141 0.64718 0.63592 0.57606 0.78662-1.043 1.5859-1.4599 3.6366-1.0268 5.0838 0.6007 2.0246 2.5225 3.6563 3.3718 4.1915 0 0 1.4415 0.91901 1.7162 0.71056 0.68239-0.50282-1.0704-2.962-1.012-3.7458 0.041549-0.50352 0.17113-0.95141 0.34155-1.4761 0.1831-0.59648 0.54789-1.4768 0.65704-2.3761 0.31972-2.8197-1.3669-5.4211-4.1063-5.7901-0.72887-0.1007-3.6408-0.55282-5.6789 2.4676-0.38732 0.57042-0.95634 1.9472-0.88944 3.1746-0.99859-2.3606-2.2134-5.0549-3.5542-7.0437-0.28028-0.39085-1.7923-2.1479-2.2077-2.2732-1.6754-0.44014-4.9887-1.2254-5.8958-1.2852 0 0 2.8134 3.1324 2.8134 10.087z" fill="#F3F0E9"/>
</g>
</g>
</svg>
