<?xml version="1.0" encoding="UTF-8"?>
<svg version="1.1" viewBox="0 0 100 100" xmlns="http://www.w3.org/2000/svg">
<title>Lotus Cars logo</title>
<desc>Created with Sketch.</desc>
<g fill="none" fill-rule="evenodd">
<g fill-rule="nonzero">
<circle cx="49.803" cy="49.803" r="49.803" fill="#FFF200"/>
<path id="Path" d="m10.747 50.494c-2.2765 2.9455-3.2427 6.6971-2.6723 10.376 0.57046 3.6788 2.6275 6.9615 5.6891 9.0792 0 0 9.2191 7.191 36.14 7.191s35.955-7.191 35.955-7.191c3.0613-2.1167 5.1183-5.3984 5.6887-9.0763s-0.39561-7.4285-2.6719-10.373c0 0-21.91-25.663-27.118-30.899-3.1622-3.1717-7.4567-4.9543-11.935-4.9543s-8.7732 1.7826-11.935 4.9543c-5.2809 5.191-27.14 30.893-27.14 30.893z" fill="#062E28"/>
<path id="Path" d="m84.427 59.478c-0.43847-0.52029-1.0006-0.9221-1.6348-1.1685-0.8005-0.29565-1.6185-0.54144-2.4494-0.73596-0.73478-0.14784-1.4521-0.37189-2.1404-0.66854-0.42367-0.17138-0.70132-0.58231-0.70225-1.0393-0.005453-0.4542 0.22396-0.87904 0.60674-1.1236 0.56911-0.32571 1.2224-0.47436 1.8764-0.42697 1.2822 0.021277 2.5346 0.3902 3.6236 1.0674l0.93258-2.3933c-0.6457-0.40893-1.3534-0.71059-2.0955-0.89326-0.79997-0.207-1.6231-0.31084-2.4494-0.30899-1.0415-0.030498-2.0776 0.16101-3.0393 0.5618-0.75519 0.31507-1.4016 0.84433-1.8596 1.5225-0.41085 0.63979-0.62565 1.3858-0.61798 2.1461-0.038747 0.78335 0.20441 1.5547 0.68539 2.1742 0.43372 0.52937 0.99687 0.9377 1.6348 1.1854 0.8003 0.29627 1.6184 0.54207 2.4494 0.73596 0.64794 0.1573 1.161 0.29963 1.5393 0.42697 0.34157 0.10986 0.65838 0.28544 0.93258 0.51685 0.23566 0.19977 0.36961 0.49447 0.36517 0.80337 0.0016229 0.43976-0.23481 0.84599-0.61798 1.0618-0.58591 0.30603-1.245 0.44408-1.9045 0.39888-0.78938-0.0016897-1.5732-0.13264-2.3202-0.38764-0.71849-0.23082-1.3942-0.57814-2-1.0281l-0.30899-0.25281-0.34831 2.882c0.60835 0.38427 1.2686 0.6794 1.9607 0.8764 0.97301 0.2928 1.9839 0.44046 3 0.4382 1.0432 0.029246 2.0808-0.1622 3.0449-0.5618 0.76002-0.31455 1.412-0.84356 1.8764-1.5225 0.41392-0.63242 0.63094-1.3734 0.6236-2.1292 0.04763-0.77566-0.18793-1.5422-0.66292-2.1573z" fill="#FFF200"/>
<path id="b" d="m34.927 51.753c-2.8527 3.6e-6 -5.4243 1.719-6.5149 4.355s-0.48535 5.6694 1.5334 7.685c2.0188 2.0156 5.0532 2.616 7.6874 1.5212 2.6343-1.0948 4.3492-3.6692 4.3446-6.5219-0.0061985-3.8895-3.161-7.0393-7.0506-7.0393zm0 11.287c-2.3457 0-4.2472-1.9015-4.2472-4.2472 0-2.3457 1.9015-4.2472 4.2472-4.2472s4.2472 1.9015 4.2472 4.2472c0 2.3457-1.9015 4.2472-4.2472 4.2472z" fill="#FFF200"/>
<path id="Path" d="m68.028 51.989v7.7865c0 1.7282-1.401 3.1292-3.1292 3.1292s-3.1292-1.401-3.1292-3.1292v-7.6966h-2.9494v7.6966c0 3.3571 2.7215 6.0787 6.0787 6.0787s6.0787-2.7215 6.0787-6.0787v-7.7865h-2.9494z" fill="#FFF200"/>
<polygon id="a" points="55.36 51.989 44.264 51.989 43.921 54.837 48.326 54.837 48.326 65.652 51.287 65.652 51.287 54.837 55.702 54.837" fill="#FFF200"/>
<polygon points="26.41 62.781 19.067 62.781 19.067 51.989 16.101 51.989 16.101 65.652 26.062 65.652" fill="#FFF200"/>
<path d="m49.803 43.865c-4.8195-0.0065496-8.9647-3.4134-9.9045-8.1404l1.2135-1.2135h4.6292c0.3106 1.6833 1.6262 3.0012 3.309 3.3146v3.2472h3.4551c1.7518 0.0018455 3.3034-1.1303 3.8362-2.7992 0.53276-1.6689-0.075849-3.4906-1.5047-4.5042 1.4212-1.0174 2.0241-2.8352 1.4925-4.5003-0.53153-1.665-2.0762-2.7973-3.824-2.8031h-3.7079c-1.0949-0.001017-2.1463 0.42882-2.927 1.1966l-6.1798 6.1798v-0.033708c0.035867-4.6825 3.2818-8.728 7.8454-9.7776 4.5635-1.0496 9.2507 1.1711 11.329 5.3675h1.6292c-2.0996-5.1235-7.5314-8.0448-12.963-6.9721-5.4321 1.0727-9.3456 5.8396-9.3399 11.377-2.778e-4 0.48641 0.029743 0.97237 0.089888 1.4551l-5.7809 5.7809h2.1348l4.0337-4.0337c1.3785 4.7082 5.5721 8.0385 10.47 8.3148 4.8981 0.27632 9.4396-2.5612 11.339-7.0845h-1.6236c-1.7029 3.443-5.2094 5.624-9.0506 5.6292zm-2.6404-10.112c0.0012248-1.1673 0.76878-2.1953 1.8876-2.5281v5.0562c-1.1146-0.33425-1.8791-1.3588-1.882-2.5225l-0.005618-0.005618zm7.8652 3.2809c-0.0030979 1.4002-1.1391 2.5337-2.5393 2.5337h-1.9663v-1.7584c1.1181-0.20705 2.1016-0.86541 2.7191-1.8202h-2.073c-0.20094 0.12654-0.41834 0.22484-0.64607 0.29213v-1.7809h1.9663c0.67787-0.0059875 1.3301 0.25872 1.8121 0.73543s0.75385 1.126 0.75532 1.8039l-0.02809-0.0056179zm-4.4944-5.809c0.22732 0.068394 0.44457 0.16663 0.64607 0.29213h2.073c-0.61752-0.95482-1.601-1.6132-2.7191-1.8202v-1.7697h1.9663c0.96011-0.09062 1.8887 0.37044 2.3968 1.1901 0.50814 0.81964 0.50814 1.8564 0 2.676-0.50814 0.81964-1.4367 1.2807-2.3968 1.1901h-1.9663v-1.7865 0.02809zm-3.618-2.5337c0.50277-0.49178 1.1787-0.7662 1.882-0.76404l0.25281-1.26e-5v1.7697c-1.6827 0.31346-2.9984 1.6313-3.309 3.3146h-3.1292l4.3034-4.3202z" fill="#FFF200"/>
</g>
</g>
</svg>
