<?xml version="1.0" encoding="UTF-8"?>
<svg version="1.1" viewBox="0 0 120 54" xmlns="http://www.w3.org/2000/svg">
<title>Aston_martin</title>
<desc>Created with Sketch.</desc>
<defs>
<linearGradient id="a" y1="50.002%" y2="50.002%">
<stop stop-color="#32905F" offset="0"/>
<stop stop-color="#124530" offset="1"/>
</linearGradient>
</defs>
<g fill="none" fill-rule="evenodd">
<path d="m23.088 53.077c-0.24154-0.013462-0.43615-0.038077-0.65423-0.038077-0.22962 0-0.44769 0.024615-0.65462 0.038077-0.36731-1.0304-0.815-2.2273-1.3085-3.3604h-3.1673c-0.43654 1.0938-0.88385 2.1892-1.2288 3.3604-0.17192-0.013462-0.30923-0.038077-0.45885-0.038077-0.17192 0-0.29808 0.024615-0.43615 0.038077l3.88-8.7062h0.28692l3.7415 8.7062zm-4.1892-7.0735-1.3546 3.1881h2.7435l-1.3888-3.1881z" fill="#0A0B09"/>
<path d="m24.202 51.399c0.49346 0.79308 1.0442 1.2935 2.0192 1.2935 1.0108 0 1.7338-0.83192 1.7338-1.8185 0-2.3173-3.9027-1.2988-3.9027-4.1092 0-1.6073 1.2738-2.3946 2.7662-2.3946 0.59692 0 1.32 0.18577 1.7792 0.60192-0.14923 0.31962-0.23 0.67154-0.33346 1.0177h-0.12577c-0.26423-0.67231-0.80346-1.0819-1.5385-1.0819-0.86038 0-1.5719 0.57-1.5719 1.46 0 2.2842 3.9254 1.3631 3.9254 4.02 0 1.7792-1.3888 2.835-3.0762 2.835-0.60808 0-1.6069-0.25538-2.0315-0.71577 0.12654-0.36462 0.18385-0.73654 0.22923-1.1081h0.12692" fill="#0A0B09"/>
<path d="m33.579 53.102c-0.19538-0.011923-0.36731-0.038462-0.53962-0.038462-0.19462 0-0.37885 0.026538-0.55077 0.038462v-7.9438c-1.2627 0-2.0204 0.071154-2.7312 0.14731 0.010769-0.12154 0.045-0.25 0.045-0.37192 0-0.12731-0.034231-0.23615-0.045-0.37692h6.4269c-0.011538 0.14077-0.034615 0.24962-0.034615 0.37692 0 0.12192 0.023077 0.25038 0.034615 0.37192-0.61962-0.076154-1.4919-0.14731-2.6054-0.14731v7.9438" fill="#0A0B09"/>
<path d="m36.495 48.82c0-2.7273 2.0315-4.4492 4.6135-4.4492 2.3419 0 4.7173 1.2735 4.7173 4.2635 0 2.7715-1.9631 4.5892-4.74 4.5892-2.7546 0-4.5908-1.7412-4.5908-4.4035zm7.3227-2.8296c-0.62038-0.78038-1.5838-1.2096-2.5827-1.2096-2.1923 0-3.5123 1.6581-3.5123 4.1869 0 2.5288 1.5381 3.8469 3.3977 3.8469 2.6281 0 3.5688-2.7138 3.4888-4.0842 0-1.0312-0.13808-1.9073-0.79154-2.74z" fill="#0A0B09"/>
<path d="m54.813 53.077h-0.36769c-0.13731-0.17308-0.39-0.47385-0.65462-0.755l-5.3708-5.9535h-0.12615v6.7085c-0.12692-0.013462-0.24154-0.038077-0.35615-0.038077-0.12577 0-0.22962 0.024615-0.34385 0.038077v-8.5204h0.48192l5.9223 6.415h0.12577v-6.415c0.10346 0.012308 0.21846 0.038077 0.345 0.038077 0.115 0 0.21808-0.025769 0.34423-0.038077v8.5204" fill="#0A0B09"/>
<path d="m68.93 44.556c0.33269 3.0796 0.67731 6.1454 1.01 8.5204-0.21808-0.013462-0.39-0.038077-0.58577-0.038077-0.19462 0-0.39 0.024615-0.58462 0.038077-0.20692-2.5035-0.45885-5.1919-0.63192-6.4269-1.4458 2.58-2.5127 4.5696-3.2592 6.2923h-0.13731l-0.68923-1.4073c-0.79192-1.6462-1.6642-3.2662-2.5135-4.885-0.27462 2.4323-0.60885 4.8969-0.60885 6.4269-0.16-0.013462-0.29808-0.038077-0.43538-0.038077-0.16077 0-0.29808 0.024615-0.44769 0.038077 0.32192-2.0038 1.0669-7.2081 1.1942-8.5204h0.32038c0.99846 1.9846 2.1927 4.3204 3.5238 6.5296 1.1819-2.1315 2.33-4.2958 3.5923-6.5296h0.25269" fill="#0A0B09"/>
<path d="m78.674 53.077c-0.24038-0.013462-0.435-0.038077-0.65308-0.038077-0.23 0-0.44808 0.024615-0.65423 0.038077-0.35654-1.0304-0.815-2.2273-1.3088-3.3604h-3.1673c-0.43654 1.0938-0.88385 2.1892-1.2285 3.3604-0.17231-0.013462-0.31-0.038077-0.45923-0.038077-0.16115 0-0.29808 0.024615-0.43615 0.038077l3.8788-8.7062h0.28769l3.7408 8.7062zm-4.1877-7.0735-1.355 3.1881h2.7431l-1.3881-3.1881z" fill="#0A0B09"/>
<path d="m79.995 44.556h2.6396c1.9169 0 2.7662 0.63962 2.7662 1.8946 0 1.4473-1.2969 2.1446-2.5596 2.3688l2.5715 3.2515 0.59615 0.69154 0.24154 0.31385c-0.26423-0.013462-0.49385-0.038077-0.72308-0.038077-0.24154 0-0.49346 0.024615-0.71192 0.038077-0.27538-0.38385-0.52808-0.73615-0.79154-1.0819l-1.4692-1.9073-0.98692-1.1723h-0.48231v4.1615c-0.195-0.013462-0.36654-0.038077-0.54-0.038077-0.19462 0-0.37769 0.024615-0.55038 0.038077v-8.5204zm1.0904 3.8862c0.18423 0.012308 0.97615 0.063077 1.6069-0.058462 0.91808-0.19192 1.595-0.81192 1.595-1.7858 0-0.85769-0.43615-1.4146-1.365-1.5681-0.45962-0.070769-1.3088-0.038462-1.8369-0.013462v3.4258z" fill="#0A0B09"/>
<path d="m90.095 53.102c-0.19538-0.011923-0.37885-0.038462-0.55115-0.038462-0.18462 0-0.36731 0.026538-0.55115 0.038462v-7.9438c-1.2512 0-2.0085 0.071154-2.7204 0.14731 0.012308-0.12154 0.034615-0.25 0.034615-0.37192 0-0.12731-0.022308-0.23615-0.034615-0.37692h6.4281c-0.011923 0.14077-0.046154 0.24962-0.046154 0.37692 0 0.12192 0.034231 0.25038 0.046154 0.37192-0.63231-0.076154-1.5038-0.14731-2.6054-0.14731v7.9438" fill="#0A0B09"/>
<path d="m94.124 44.556c0.18346 0.012308 0.36654 0.038077 0.55115 0.038077 0.17154 0 0.355-0.025769 0.55-0.038077v8.5204c-0.195-0.013462-0.37846-0.038077-0.55-0.038077-0.18462 0-0.36769 0.024615-0.55115 0.038077v-8.5204" fill="#0A0B09"/>
<path d="m104.88 53.077h-0.37962c-0.13808-0.17308-0.38962-0.47385-0.64269-0.755l-5.3823-5.9535h-0.12731v6.7085c-0.12577-0.013462-0.24038-0.038077-0.34385-0.038077-0.12615 0-0.24077 0.024615-0.35577 0.038077v-8.5204h0.49385l5.9112 6.415h0.12615v-6.415c0.11423 0.012308 0.21769 0.038077 0.34346 0.038077 0.115 0 0.22962-0.025769 0.35692-0.038077v8.5204" fill="#0A0B09"/>
<polygon points="35.818 11.717 84.302 11.717 84.302 4.6827 35.818 4.6827" fill="url(#a)"/>
<path d="m4.4623 7.0435v-0.0065385 0.0065385" fill="#0A0B09"/>
<path d="m119.81 0.88923c-0.43231-0.70192-1.1873-0.74885-1.5235-0.76923h-48.479c-1.3681 0-2.4827 0.41462-3.2985 1.2377-0.58885 0.58885-0.99615 1.3512-1.2115 2.2677 0 0.04-0.072308 0.22077-0.46769 0.22077h-9.595c-0.40808 0-0.46769-0.18769-0.46769-0.21423-0.21615-0.91654-0.62423-1.6854-1.2115-2.2742-0.81538-0.82308-1.9308-1.2377-3.2981-1.2377h-48.492c-0.31154 0.013462-1.0796 0.067308-1.5112 0.76231-0.19154 0.34154-0.34769 0.91654 0.083462 1.7192 0.012692 0.0069231 0.88808 1.4785 0.88808 1.4785 0.37154 0.59577 0.77923 0.80962 1.6554 0.87 0.011923 0 0.41962 0.04 0.69538 0.53462l0.91115 1.5854c0.19269 0.36846 0.63538 1.2246 2.1712 1.4315 0.024615 0 0.46769 0.054231 0.72 0.52192l1.115 1.96c0.32423 0.63538 0.78 0.86962 1.6073 1.1238l20.282 5.9535c0.68346 0.20115 0.97154 0.98346 0.97154 0.98346 0.47962 1.2512 1.115 2.2815 4.2812 3.2315 0 0.0065385 16.588 4.5281 16.588 4.5281 0.20346 0.067308 2.1112 0.64269 3.5381-0.73538l3.8862-3.7127s0.16808-0.16769 0.38308-0.16769c0.21615 0 0.38423 0.16769 0.38423 0.16769 0.011538 0.013077 3.8854 3.7127 3.8854 3.7127 1.4396 1.3781 3.3342 0.80269 3.5512 0.73538-0.012692 0 16.575-4.5215 16.588-4.5281 3.1542-0.95 3.8138-2.0004 4.2692-3.2315 0.023462-0.053077 0.28808-0.78231 0.97192-0.98346 0 0 3.0696-0.89615 20.27-5.9535 0.83846-0.25423 1.2946-0.48846 1.6192-1.1238l1.1027-1.9462c0.25154-0.48154 0.69577-0.53577 0.71923-0.53577 1.5477-0.20692 1.9919-1.0631 2.195-1.4315-0.011538 0 0.89962-1.5854 0.89962-1.5854 0.27654-0.49462 0.68385-0.53462 0.70769-0.53462 0.86308-0.060385 1.2842-0.27423 1.6315-0.87 0 0.0065385 0.89885-1.4785 0.89885-1.4785 0.18-0.34115 0.27654-0.67577 0.27654-0.98962 0-0.26154-0.071923-0.50846-0.19192-0.72269zm-53.625 2.9431c0.16769-0.75538 0.49192-1.3708 0.95962-1.8327 0.64731-0.64923 1.5346-0.97654 2.6627-0.97654h22.272c-0.76731 0.57538-1.1635 1.2977-1.1873 1.3446-0.26423 0.48154-0.58731 1.0504-0.97115 1.6858h-23.82c0.046923-0.086923 0.083846-0.22115 0.083846-0.22115zm-30.164 7.6731s-0.011923-0.0069231-0.011923-0.013846v-6.7358h48.047v6.7427l-0.012308 0.0069231h-48.022zm-0.72038-5.8335-3.9335 0.26077c-0.28808-0.40731-0.55231-0.80269-0.79192-1.1835h4.7254v0.92269zm0 0.72962v0.96308l-2.6262 0.35462c-0.28769-0.36769-0.56385-0.72962-0.81615-1.0835l3.4423-0.23423zm0 1.6723v1.1104l-1.2231 0.24731c-0.31115-0.36115-0.61192-0.71538-0.9-1.0769l2.1231-0.28077zm0 1.8262v0.88308c-0.22769-0.24769-0.45577-0.495-0.68346-0.74269 0.27577-0.06 0.50385-0.10692 0.68346-0.14038zm8.8873 2.3077h4.3423l-6.0692 4.3412c-1.0554-0.63538-2.075-1.3373-3.07-2.1 2.2788-1.0638 4.3892-2.0538 4.7969-2.2412zm-5.4212 1.7523c-0.047308-0.039615-1.4265-1.2038-2.015-1.7523h5.7819l-3.7669 1.7523zm10.963-1.7523h2.3265l-5.9735 6.2281c-1.0069-0.44846-1.99-0.95-2.9619-1.4985 2.8669-2.0535 5.8654-4.1946 6.6088-4.7296zm3.2981 0h1.9904l-4.6046 7.7931c-1.2477-0.35423-2.4592-0.77538-3.635-1.2708 2.5073-2.6158 5.5292-5.7665 6.2492-6.5223zm2.8069 0h1.6673l-2.4238 8.7562c-1.355-0.18692-2.6742-0.44115-3.9692-0.77538 1.7746-2.9908 4.1258-6.9773 4.7258-7.9808zm8.3954 0 4.7135 7.9808c-1.2831 0.33423-2.6027 0.58846-3.9585 0.77538l-2.4223-8.7562h1.6673zm0.815 0h1.9796l6.2604 6.5288c-1.175 0.48885-2.3862 0.91-3.6342 1.2581l-4.6058-7.7869zm2.9631 0h2.3262l6.6088 4.7296c-0.97115 0.55538-1.955 1.05-2.9627 1.4985-2.1831-2.2681-4.7969-4.9973-5.9723-6.2281zm3.5262 0h4.3415l4.7973 2.2412c-0.99538 0.76269-2.015 1.4581-3.0704 2.1-2.3146-1.6588-4.7488-3.4046-6.0685-4.3412zm5.9965 0h5.7812c-0.58731 0.58885-1.9792 1.7192-2.0154 1.7523-1.415-0.65538-2.7819-1.2977-3.7658-1.7523zm7.22-2.3142 0.69577 0.14692c-0.22769 0.24769-0.45577 0.495-0.69577 0.74923v-0.89615zm0-0.71615v-1.1035l2.1354 0.28077c-0.28808 0.36154-0.58731 0.71577-0.89923 1.0769-0.55192-0.11346-0.97192-0.20077-1.2362-0.25423zm0-1.8127v-0.96308l3.455 0.23423c-0.25231 0.34769-0.52769 0.71577-0.80423 1.0835l-2.6508-0.35462zm0-1.6927v-0.92269h4.7377c-0.23962 0.38077-0.50346 0.77615-0.79077 1.1904l-3.9469-0.26769zm-34.493-4.6488c1.1269 0 2.015 0.32731 2.6623 0.97654 0.46769 0.46192 0.79192 1.0773 0.96 1.8327 0 0 0.035385 0.12731 0.083462 0.22115h-23.82c-0.37231-0.60269-0.97154-1.6858-0.97154-1.6858-0.024615-0.046923-0.41962-0.76923-1.1877-1.3446h22.273zm-47.316 3.0304c-0.61192-0.046923-0.74346-0.12077-0.93615-0.43462 0 0-0.80346-1.345-0.87538-1.4454-0.13192-0.24769-0.16808-0.42769-0.16808-0.56154 0.011923-0.32808 0.24-0.58231 0.82808-0.58885h24.167c1.6312 0 2.6027 1.6792 2.6027 1.6792 0.21615 0.39462 0.46731 0.84962 0.76808 1.3512h-26.387zm3.2738 3.425c-0.61154-0.21423-0.80385-0.58231-0.93577-0.82308-0.37115-0.64231-0.86308-1.5988-1.115-1.9062h25.583c0.25154 0.39423 0.51577 0.80885 0.80346 1.2442l-22.441 1.485c-0.34769 0.046923-1.3792 0.12731-1.895 0zm4.1496 3.2308c-0.81538 0.10692-1.0669-0.16077-1.1154-0.22731l-1.0796-1.8927c-0.071538-0.14115-0.155-0.25462-0.25115-0.36192 0.14346-0.013462 23.112-1.5385 23.112-1.5385 0.26423 0.36808 0.53923 0.74962 0.84 1.1373l-21.506 2.8831zm5.2177 2.0669c-2.2312-0.65538-4.0419-1.1838-4.8092-1.4112l21.589-2.8965c0.29962 0.36769 0.6 0.74885 0.935 1.1238l-14.788 3.0365c-0.54038 0.11385-2.1231 0.36154-2.9269 0.14731zm7.3165 2.1473c-1.6438-0.48192-3.3827-0.98962-5.0254-1.4715 0.44308-0.06 0.75538-0.12692 0.77923-0.13385 0 0 10.71-2.2004 15.173-3.1173 0.43154 0.49462 0.89885 0.99038 1.3912 1.4919l-9.9069 3.05c-0.024615 0.0069231-1.3673 0.455-2.4108 0.18077zm7.7238 2.2677c-0.21615-0.059615-2.5673-0.74885-5.5892-1.6388 0.28808-0.066538 0.47962-0.13385 0.49231-0.14 0 0.0061538 8.3115-2.5619 10.255-3.1642 0.70731 0.69577 1.475 1.3777 2.2904 2.0469l-5.3612 2.5015c-0.34769 0.18077-1.3792 0.58885-2.0869 0.39462zm4.2942 3.8935c-2.0996-0.78923-2.4112-1.5788-2.7108-2.3412-0.024615-0.067308-0.18038-0.47538-0.51538-0.86308 0.70731-0.13423 1.2946-0.42846 1.3312-0.44808-0.013077 0 2.8304-1.3246 5.6488-2.6492 1.0315 0.80308 2.0865 1.5385 3.1662 2.2073l-5.0012 3.5862c-0.011923 0.013077-1.0554 0.78231-1.9188 0.50808zm6.0085 1.6992-4.4377-1.2112c0.43154-0.18731 0.74385-0.41462 0.76769-0.435 0 0 2.4704-1.7723 5.2412-3.7523 0.995 0.58192 2.0265 1.1169 3.07 1.5919l-2.9138 3.0369c-0.25231 0.26808-1.0681 0.93-1.7273 0.76962zm6.1535 1.6792-4.7738-1.2981c0.49115-0.28769 0.82731-0.64231 0.86346-0.66885 0 0 1.3677-1.4246 3.0819-3.2177 1.2358 0.52154 2.4954 0.97 3.7904 1.345l-1.5708 2.6685c-0.19269 0.34769-0.84 1.2577-1.3912 1.1712zm7.0035 0.093077c-0.011538 0.0073077-0.19154 0.86269-0.79154 1.2242-0.27538 0.16692-0.58769 0.20077-0.95885 0.12038l-4.1746-1.1369c0.51577-0.415 0.85192-1.01 0.91192-1.1242 0 0.0069231 0.70731-1.1904 1.6669-2.8223 1.3558 0.36115 2.7354 0.63538 4.15 0.82923l-0.80385 2.9096zm1.0562 0.86269c-0.32385 0.30808-0.67192 0.48192-1.0196 0.56923 0.45577-0.51538 0.62385-1.1712 0.64769-1.2777l0.82731-2.9773c1.0312 0.12692 2.0873 0.20115 3.1546 0.23462-0.85192 0.81615-3.61 3.4512-3.61 3.4512zm0.63577-4.3677 2.4585-8.8435h1.4508v9.0773c-1.3312-0.0061538-2.6262-0.093462-3.9092-0.23385zm4.605 0.23385v-9.0773h1.4508l2.4592 8.8435c-1.2831 0.14731-2.5792 0.22769-3.91 0.23385zm3.9465 3.5588s-2.255-2.1473-3.0104-2.8762c1.0669-0.033462 2.1219-0.11385 3.1538-0.23462l0.82769 2.9838c0.023846 0.1 0.19154 0.75577 0.64769 1.2712-0.62385-0.17385-0.81538-0.36846-1.6188-1.1442zm3.4058 1.0569c-0.37231 0.080385-0.68385 0.046538-0.95962-0.12038-0.57577-0.35462-0.77885-1.1704-0.79192-1.2169l-0.80269-2.9169c1.4146-0.19385 2.7938-0.475 4.1373-0.82923l1.6788 2.8362c0.059615 0.10038 0.39577 0.69538 0.91192 1.1104l-4.1738 1.1369zm5.2535-1.4377c-0.55231 0.086538-1.1881-0.82346-1.38-1.1577l-1.5823-2.6819c1.295-0.375 2.5542-0.82346 3.7896-1.345l3.0823 3.2177c0.036538 0.026538 0.37154 0.38115 0.86385 0.66885l-4.7735 1.2981zm6.9446-1.8935-0.79192 0.21423c-0.65962 0.16038-1.4754-0.50154-1.7269-0.76962 0 0-1.2831-1.3312-2.915-3.0369 1.0435-0.475 2.075-1.0035 3.0708-1.5919l5.2535 3.7592c0.023462 0.013462 0.32308 0.24077 0.75577 0.42808-1.1635 0.32115-3.6462 0.99692-3.6462 0.99692zm7.9273-3.8262c-0.29962 0.76231-0.61115 1.5519-2.7104 2.3412-0.87577 0.26769-1.9073-0.495-1.9073-0.50808-0.011538 0-2.3508-1.6727-5.0131-3.5862 1.08-0.66885 2.1346-1.4042 3.1662-2.2073l5.6608 2.6492c0.036538 0.019615 0.61192 0.31385 1.3196 0.44808-0.33577 0.38154-0.49077 0.78269-0.51577 0.86308zm1.5842-1.5523c-0.69615 0.19423-1.7404-0.21385-2.0754-0.38808 0 0-2.6508-1.2377-5.3738-2.5081 0.815-0.66923 1.5838-1.3512 2.2908-2.0408l10.255 3.1642c0.023462 0.0069231 0.21615 0.067308 0.49231 0.13385l-5.5888 1.6388zm7.7238-2.2677c-1.0319 0.28115-2.3873-0.17385-2.4112-0.17385l-0.011538-0.0069231-9.8954-3.05c0.49154-0.49462 0.95923-0.99731 1.4035-1.4919l15.16 3.1173c0.024615 0.0069231 0.33615 0.073846 0.78 0.13385l-5.025 1.4715zm7.3277-2.1473c-0.815 0.21423-2.3992-0.033462-2.9385-0.14731 0 0-10.123-2.0735-14.777-3.0365 0.32423-0.375 0.62385-0.75615 0.92346-1.1238l21.59 2.8965-4.7977 1.4112zm7.4-4.1738c0-0.0069231-0.88731 1.5585-1.0665 1.8796-0.048077 0.060385-0.3 0.33423-1.1281 0.22731l-21.505-2.8831c0.3-0.38769 0.57577-0.76923 0.84038-1.1373l22.848 1.5119c0.025 0.0065385 0.12038 0.013077 0.26423 0.026538-0.095769 0.10731-0.17923 0.235-0.25231 0.375zm3.8138-3.5658-0.92308 1.6188c-0.13192 0.24077-0.32346 0.60885-0.93577 0.82308-0.51538 0.12731-1.5346 0.046923-1.8946 0l-22.441-1.485c0.28808-0.43538 0.56423-0.85 0.80423-1.2442h25.583c-0.071539 0.086538-0.13192 0.18-0.19269 0.28731zm3.2273-2.8631c-0.012308 0.020769-0.87654 1.4454-0.87654 1.4454-0.16769 0.26731-0.26308 0.38769-0.93538 0.43462h-26.374c0.28769-0.50154 0.54-0.95654 0.75538-1.3512 0.012692-0.013462 0.94808-1.6792 2.6035-1.6792h24.167c0.25154 0.0065385 0.58769 0.04 0.75538 0.32731 0.025 0.041154 0.071923 0.12077 0.071923 0.26154 0 0.13385-0.035385 0.31385-0.16731 0.56154z" fill="#0A0B09"/>
<path d="m39.197 5.8327h-0.20423l-2.0504 4.5958h0.56385v-0.033462c0.16692-0.55538 0.38346-1.0904 0.58731-1.6054 0 0 0.035385-0.073462 0.048462-0.10692h1.5823c0.21654 0.48769 0.44423 1.05 0.67231 1.7188l0.011538 0.026923h0.76769l-1.9788-4.5958zm-0.9 2.4954c0.036538-0.093462 0.57577-1.365 0.64846-1.5123 0.06 0.14731 0.61115 1.4188 0.64731 1.5123h-1.2958z" fill="#FFFFFE"/>
<path d="m41.391 10.1 0.023846 0.013462c0.24038 0.26769 0.79192 0.38769 1.0796 0.38769 0.97154 0 1.6438-0.62192 1.6438-1.5112 0-0.73615-0.56423-0.95692-1.1042-1.1708-0.47962-0.18731-0.93538-0.36769-0.93538-0.91615 0-0.41538 0.32423-0.71654 0.76808-0.71654 0.35962 0 0.63577 0.19423 0.76731 0.53538l0.011923 0.026538h0.12l0.19231-0.575-0.024615-0.02c-0.25154-0.24077-0.65923-0.32115-0.94692-0.32115-0.9 0-1.4758 0.50154-1.4758 1.2781 0 0.79577 0.58769 1.0235 1.115 1.2304 0.46885 0.18077 0.91192 0.35462 0.91192 0.90346 0 0.50115-0.38346 0.90231-0.86346 0.90231-0.43154 0-0.73115-0.19385-1.0073-0.655l-0.011923-0.02h-0.12038l-0.14385 0.62846" fill="#FFFFFE"/>
<path d="m47.76 5.9265h-3.3827v0.475l0.048462-0.0073077c0.38308-0.039615 0.76731-0.073077 1.3792-0.073077v4.1208h0.64731v-4.1208c0.45615 0 0.88731 0.026538 1.3077 0.073077l0.035385 0.0073077v-0.475h-0.035385" fill="#FFFFFE"/>
<path d="m50.087 5.8327c-1.4392 0-2.4346 0.96308-2.4346 2.3481 0 1.3912 0.97077 2.3208 2.4227 2.3208 1.4992 0 2.5065-0.96962 2.5065-2.4212 0-1.5519-1.2596-2.2477-2.4946-2.2477zm1.1996 3.8662c-0.32423 0.34154-0.72 0.51538-1.1996 0.51538-1.0435 0-1.7273-0.76885-1.7273-1.96 0-1.3112 0.69577-2.1269 1.7873-2.1269 0.52769 0 1.02 0.22731 1.3196 0.60846 0.32308 0.42769 0.39577 0.87 0.39577 1.3985v0.093077c0 0.42846-0.16808 1.0438-0.57577 1.4715z" fill="#FFFFFE"/>
<path d="m57.079 5.9265h-0.40769v3.3312c-0.023846-0.026923-3.0819-3.3312-3.0819-3.3312h-0.30077v4.5019h0.43192v-3.4854h0.012308c0.024615 0.026923 2.7823 3.0769 2.7823 3.0769l0.34769 0.40115 0.012692 0.0073077h0.23962v-4.5019h-0.036154" fill="#FFFFFE"/>
<path d="m64.347 5.9265h-0.15615l-1.09 1.98s-0.69692 1.2508-0.75692 1.3646c-0.67077-1.1169-1.2704-2.3012-1.7858-3.3177l-0.013077-0.026923h-0.22769l-0.011923 0.04c-0.06 0.66269-0.44308 3.3715-0.61115 4.415l-0.012692 0.046923h0.54038v-0.040385c0-0.63538 0.11962-1.5785 0.24-2.5819 0 0 0.046923-0.44154 0.071538-0.62192 0.071923 0.14692 0.92346 1.7588 1.235 2.4212l0.37192 0.74923h0.12l0.011923-0.026923c0.37192-0.86231 0.91154-1.8523 1.6308-3.15 0.10769 0.77538 0.24077 2.3273 0.31192 3.2104l0.012692 0.040385h0.68346v-0.046923c-0.15615-1.09-0.32462-2.5354-0.52769-4.415v-0.04h-0.036538" fill="#FFFFFE"/>
<path d="m67.43 5.8327h-0.20423l-2.0504 4.5958h0.55077l0.012308-0.033462c0.16769-0.56192 0.38346-1.0973 0.58769-1.6188 0 0 0.035769-0.06 0.048077-0.093462h1.5835c0.21577 0.49462 0.44385 1.07 0.67115 1.7188l0.012308 0.026923h0.76769l-1.9788-4.5958zm-0.89962 2.4954c0.035769-0.093462 0.57577-1.3581 0.63538-1.5123 0.071538 0.14731 0.62385 1.4188 0.66 1.5123h-1.2954z" fill="#FFFFFE"/>
<path d="m71.376 8.2008c0.815-0.16038 1.3069-0.62885 1.3069-1.2508 0-0.68923-0.49192-1.0235-1.4869-1.0235h-1.4031v4.5019h0.64769v-2.1608h0.17962c0.023462 0.026923 0.51615 0.59538 0.51615 0.59538-0.011923 0 0.755 0.98346 0.755 0.98346l0.41962 0.58192h0.85154s-1.7027-2.1338-1.7865-2.2277zm-0.93538-0.25423v-1.6988c0.26462-0.013077 0.67154-0.033846 0.9 0.0065385 0.45462 0.073846 0.68269 0.33423 0.68269 0.77615 0 0.44808-0.29962 0.78231-0.80385 0.88308-0.27462 0.052692-0.61077 0.039615-0.77885 0.033077z" fill="#FFFFFE"/>
<path d="m76.425 5.9265h-3.3823v0.475l0.048077-0.0073077c0.38423-0.039615 0.755-0.073077 1.3673-0.073077v4.1208h0.64731v-4.1208c0.46808 0 0.9 0.026538 1.3081 0.073077l0.046923 0.0073077v-0.475h-0.035385" fill="#FFFFFE"/>
<polygon points="77.002 10.428 77.612 10.428 77.612 5.9327 77.002 5.9327" fill="#FFFFFE"/>
<path d="m81.955 5.9265v3.3312h-0.011923c-0.024615-0.026923-3.0708-3.3312-3.0708-3.3312h-0.31154v4.5019h0.44423v-3.4854h0.011538c0.023077 0.026923 2.7823 3.0769 2.7823 3.0769l0.34808 0.40115 0.25115 0.0073077v-4.5019h-0.44308" fill="#FFFFFE"/>
</g>
</svg>
